<svg xmlns="http://www.w3.org/2000/svg" width="128" height="128" viewBox="0 0 128 128">
    <g fill="none" fill-rule="evenodd">
        <path class="background" fill-rule="nonzero" d="M39.5 54.348a2.5 2.5 0 1 1 0-5h57a2.5 2.5 0 1 1 0 5h-57zm3.69-5H90.5a1.5 1.5 0 0 0 0-3H43.184l-.015-6.583 23.197-10.498a3 3 0 0 1 2.458-.007l23.562 10.497-.001 10.275-49.193.015-.001-.7zM37.5 91h61a3.5 3.5 0 0 1 3.5 3.5v6.5H34v-6.5a3.5 3.5 0 0 1 3.5-3.5zm9.5-7h42.345a3 3 0 0 1 2.999 3.094L92 98H44V87a3 3 0 0 1 3-3zm13.5-44.652a3 3 0 1 0 0-6 3 3 0 0 0 0 6z"/>
        <path class="foreground" d="M37.172 36.409l.02 4.633a1 1 0 0 1-2 .01l-.023-5.282a1 1 0 0 1 .588-.916l23.197-10.498a4 4 0 0 1 3.277-.01l23.562 10.498a1 1 0 0 1 .593.914l-.001 5.274a1 1 0 0 1-2 0v-4.625L61.417 26.173a2 2 0 0 0-1.638.005L37.172 36.409zM81 55.348a1 1 0 0 1 2 0v23a1 1 0 1 1-2 0v-23zm-5 23a1 1 0 1 1-2 0v-23a1 1 0 0 1 2 0v23zm-12-23a1 1 0 0 1 2 0v23a1 1 0 1 1-2 0v-23zm-5 23a1 1 0 1 1-2 0v-23a1 1 0 0 1 2 0v23zm-13-23a1 1 0 0 1 2 0v23a1 1 0 1 1-2 0v-23zm-5 23a1 1 0 1 1-2 0v-23a1 1 0 0 1 2 0v23zm-6 8a1 1 0 1 1-2 0c0-2.217 1.845-4 4.105-4h48.79c2.26 0 4.105 1.783 4.105 4a1 1 0 1 1-2 0c0-1.097-.935-2-2.105-2h-48.79c-1.17 0-2.105.903-2.105 2zm-4.5 3h61a4.5 4.5 0 0 1 4.5 4.5v2.5a1 1 0 0 1-1 1H27a1 1 0 0 1-1-1v-2.5a4.5 4.5 0 0 1 4.5-4.5zm63.5 6v-1.5a2.5 2.5 0 0 0-2.5-2.5h-61a2.5 2.5 0 0 0-2.5 2.5v1.5h66zm-61.5-51h57a3.5 3.5 0 0 1 0 7h-57a3.5 3.5 0 0 1 0-7zm0 2a1.5 1.5 0 0 0 0 3h57a1.5 1.5 0 0 0 0-3h-57zm28-5a5 5 0 1 1 0-10 5 5 0 0 1 0 10zm0-2a3 3 0 1 0 0-6 3 3 0 0 0 0 6z"/>
    </g>
</svg>
