<svg xmlns="http://www.w3.org/2000/svg" width="128" height="128" viewBox="0 0 128 128">
    <g fill="none" fill-rule="evenodd">
    <path class="background" fill-rule="nonzero" d="M47.8267,48.297 C47.8267,42.5623 52.4756,37.9134 58.2103,37.9134 C63.945,37.9134 68.5939,42.5623 68.5939,48.297 C68.5939,54.0317 63.945,58.6807 58.2103,58.6807 C52.4756,58.6807 47.8267,54.0317 47.8267,48.297 Z M36,85.9596 C36,76.6408 41.7481,68.6646 49.8922,65.3831 L58.1752,80.2926 L60.2529,76.5 L61.2529,92 L90.7529,92 L90.7529,79 L92.7529,78 L92.7529,73.9761 L95.2531,73.9761 C96.3577,73.9761 97.2531,74.8716 97.2531,75.9761 L97.2531,82.3772 C97.2531,83.0006 96.9572,83.5816 96.3969,83.8549 C96.3134,83.8956 96.2233,83.9382 96.1263,83.9824 L96.1263,97.0761 L64.575,97.0761 L64.575,93 L60.2529,93 L60.2529,85.9596 L36,85.9596 Z M73,81.5 L80.2683,81.5 L80.2683,82.5 C80.2683,82.9368 80.1328,83.2555 80.0091,83.4201 C79.9795,83.4595 79.9559,83.4846 79.9393,83.5 L73.329,83.5 C73.3124,83.4846 73.2888,83.4595 73.2591,83.4201 C73.1355,83.2555 73,82.9368 73,82.5 L73,81.5 Z"/>
    <path class="foreground" d="M42.3201,42.3836 C42.3201,36.0966 47.4167,31 53.7037,31 C59.9907,31 65.0873,36.0966 65.0873,42.3836 C65.0873,48.6706 59.9907,53.7673 53.7037,53.7673 C47.4167,53.7673 42.3201,48.6706 42.3201,42.3836 Z M53.7037,33 C48.5213,33 44.3201,37.2012 44.3201,42.3836 C44.3201,47.5661 48.5213,51.7673 53.7037,51.7673 C58.8861,51.7673 63.0873,47.5661 63.0873,42.3836 C63.0873,37.2012 58.8861,33 53.7037,33 Z M61.0129,58.2122 L61.832,58.5422 C65.3841,59.9734 68.5005,62.2595 70.9259,65.1458 C71.2677,65.0508 71.6279,65 72,65 L79.5219,65 C81.7311,65 83.5219,66.7909 83.5219,69 L83.5219,70 L90.8049,70 C91.9094,70 92.8049,70.8954 92.8049,72 L92.8049,78.4011 C92.8049,79.0245 92.509,79.6055 91.9487,79.8788 C91.8299,79.9367 91.6976,79.9985 91.5512,80.0632 L91.5512,93.0517 L60,93.0517 L60,79.9476 C59.95,79.9241 59.9021,79.9012 59.8562,79.8788 C59.2959,79.6055 59,79.0245 59,78.4011 L59,72 C59,70.8954 59.8954,70 61,70 L68,70 L68,69 C68,67.8953 68.4479,66.8951 69.1719,66.1712 C67.179,63.8754 64.6999,62.0128 61.8946,60.7435 L53.1752,76.4383 L44.4559,60.7435 C37.1091,64.0675 32,71.4613 32,80.0462 C32,80.5985 31.5523,81.0462 31,81.0462 C30.4477,81.0462 30,80.5985 30,80.0462 C30,70.3056 36.009,61.9709 44.5184,58.5422 L45.3375,58.2122 L53.1752,72.3201 L61.0129,58.2122 Z M62,91.0517 L89.5512,91.0517 L89.5512,80.7935 C87.9037,81.295 85.5437,81.8113 82.2803,82.1176 L82.2803,82.5361 C82.2803,84.193 81.2713,85.5361 80.0266,85.5361 L73.2656,85.5361 C72.021,85.5361 71.012,84.193 71.012,82.5361 L71.012,82.2376 C66.78,81.9497 63.8854,81.3131 62,80.7147 L62,91.0517 Z M81.5219,70 L81.5219,69 C81.5219,67.8954 80.6265,67 79.5219,67 L72,67 C70.8954,67 70,67.8954 70,69 L70,70 L81.5219,70 Z M61,72 L61,78.2061 C62.3113,78.7958 65.3414,79.834 71.012,80.2328 L71.012,79.5361 L82.2803,79.5361 L82.2803,80.1085 C87.0023,79.6483 89.6133,78.742 90.8049,78.2061 L90.8049,72 L61,72 Z M80.2683,81.5 L73,81.5 L73,82.5 C73,82.9368 73.1355,83.2555 73.2591,83.4201 C73.2888,83.4595 73.3124,83.4846 73.329,83.5 L79.9393,83.5 C79.9559,83.4846 79.9795,83.4595 80.0091,83.4201 C80.1328,83.2555 80.2683,82.9368 80.2683,82.5 L80.2683,81.5 Z"/>
  </g>
</svg>
