<svg width="128" height="128" viewBox="0 0 128 128" fill="none" xmlns="http://www.w3.org/2000/svg">
<path class="background" fill-rule="evenodd" clip-rule="evenodd" d="M81.3129 32.5C81.3129 36.0899 84.2231 39 87.8129 39C91.4028 39 94.3129 36.0899 94.3129 32.5C94.3129 28.9101 91.4028 26 87.8129 26C84.2231 26 81.3129 28.9101 81.3129 32.5ZM81.1888 105.249V78.9372L88.2035 78.9319C88.4797 78.9317 88.7034 78.7077 88.7032 78.4315C88.7031 78.2984 88.6499 78.1709 88.5554 78.0771L64.1313 53.8315C63.4328 53.1381 62.3005 53.138 61.6022 53.8312L37.2243 78.1157C37.0287 78.3106 37.028 78.6272 37.2229 78.8228C37.3168 78.9171 37.4445 78.9701 37.5776 78.97L45.516 78.964V105.249C45.516 106.203 46.2951 106.977 47.2561 106.977H79.4486C80.4097 106.977 81.1888 106.203 81.1888 105.249ZM74.3129 56C74.3129 49.9249 79.6855 45 86.3129 45C92.9403 45 98.3129 49.9249 98.3129 56H74.3129ZM65.1043 88.4981C60.2216 93.2328 52.3176 93.2328 47.435 88.4981C47.0385 88.1137 47.0287 87.4806 47.4132 87.0841C47.7977 86.6876 48.4308 86.6779 48.8273 87.0623C52.9342 91.0448 59.6051 91.0448 63.712 87.0623C64.1085 86.6779 64.7416 86.6876 65.1261 87.0841C65.5105 87.4806 65.5008 88.1137 65.1043 88.4981Z" fill="#FFEAE3"/>
<path class="foreground" fill-rule="evenodd" clip-rule="evenodd" d="M37.5175 71.4132C37.5175 70.8609 37.9652 70.4132 38.5175 70.4132C39.0698 70.4132 39.5175 70.8609 39.5175 71.4132V98.1321C39.5175 98.5322 39.8472 98.8596 40.2576 98.8596H72.4501C72.8605 98.8596 73.1903 98.5322 73.1903 98.1321V71.3573C73.1903 70.805 73.638 70.3573 74.1903 70.3573C74.7426 70.3573 75.1903 70.805 75.1903 71.3573V98.1321C75.1903 99.6401 73.9618 100.86 72.4501 100.86H40.2576C38.7459 100.86 37.5175 99.6401 37.5175 98.1321V71.4132ZM83.4446 72.906C83.8366 73.2951 83.8389 73.9282 83.4498 74.3202C83.0607 74.7121 82.4276 74.7144 82.0356 74.3253L56.4031 48.8799C56.0847 48.5638 55.5668 48.5633 55.2501 48.8777C54.1869 49.9369 54.1869 49.9369 48.8646 55.2388C41.4138 62.6609 41.4138 62.6609 29.7057 74.3241C29.3145 74.7139 28.6813 74.7127 28.2915 74.3214C27.9018 73.9301 27.903 73.297 28.2943 72.9072C40.0023 61.244 40.0023 61.244 47.4531 53.8218C52.7749 48.5204 52.7749 48.5204 53.8411 47.4583C54.9382 46.3693 56.7144 46.3708 57.8122 47.4605L83.4446 72.906ZM83.1556 32.9259C85.9649 32.9259 88.2345 30.6996 88.2345 27.963C88.2345 25.2264 85.9649 23 83.1556 23C80.3463 23 78.0766 25.2264 78.0766 27.963C78.0766 30.6996 80.3463 32.9259 83.1556 32.9259ZM83.1556 34.9259C79.2503 34.9259 76.0766 31.8129 76.0766 27.963C76.0766 24.1131 79.2503 21 83.1556 21C87.0609 21 90.2345 24.1131 90.2345 27.963C90.2345 31.8129 87.0609 34.9259 83.1556 34.9259ZM72.0766 50C72.0766 50.5523 71.6289 51 71.0766 51C70.5244 51 70.0766 50.5523 70.0766 50C70.0766 42.8598 75.8983 37.0741 83.0766 37.0741C90.255 37.0741 96.0766 42.8598 96.0766 50C96.0766 50.5523 95.6289 51 95.0766 51C94.5244 51 94.0766 50.5523 94.0766 50C94.0766 43.9672 89.1532 39.0741 83.0766 39.0741C77.0001 39.0741 72.0766 43.9672 72.0766 50ZM47.3805 86.8564C46.984 86.472 46.9743 85.8389 47.3587 85.4424C47.7432 85.0459 48.3763 85.0362 48.7728 85.4206C52.8797 89.4031 59.5506 89.4031 63.6575 85.4206C64.054 85.0362 64.6871 85.0459 65.0716 85.4424C65.4561 85.8389 65.4463 86.472 65.0498 86.8564C60.1672 91.5911 52.2632 91.5911 47.3805 86.8564Z" fill="#F76B1C"/>
</svg>
