<svg xmlns="http://www.w3.org/2000/svg" width="128" height="128" viewBox="0 0 128 128">
  <g fill="none" fill-rule="evenodd">
    <path class="background" fill="#FFEAE3" fill-rule="nonzero" d="M101,96 C101,97.6568542 99.6568542,99 98,99 L38.75,99 C36.6789322,99 35,97.3210678 35,95.25 L35,45.75 C35,43.6789322 36.6789322,42 38.75,42 L97.25,42 C99.3210678,42 101,43.6789322 101,45.75 L101,96 Z M50,53 L50,62 L59,62 L59,53 L50,53 Z M65,53 L65,62 L74,62 L74,53 L65,53 Z M80,53 L80,62 L89,62 L89,53 L80,53 Z M80,66 L80,75 L89,75 L89,66 L80,66 Z M37,53 L37,62 L46,62 L46,53 L37,53 Z M37,66 L37,75 L46,75 L46,66 L37,66 Z M50,78 L50,87 L59,87 L59,78 L50,78 Z M65,78 L65,87 L74,87 L74,78 L65,78 Z M80,78 L80,87 L89,87 L89,78 L80,78 Z M37,78 L37,87 L46,87 L46,78 L37,78 Z M64.6874278,68.2737457 C64.2863283,67.8940911 63.6534021,67.9114756 63.2737474,68.3125752 C62.8940928,68.7136747 62.9114774,69.3466009 63.3125769,69.7262556 L67.1988087,73.4047089 L73.7171639,66.6969076 C74.102055,66.3008303 74.0929867,65.6677302 73.6969093,65.2828391 C73.300832,64.897948 72.6677319,64.9070163 72.2828408,65.3030937 L67.1401078,70.5952924 L64.6874278,68.2737457 Z M50,66 L50,75 L59,75 L59,66 L50,66 Z"/>
    <path class="foreground" fill="#F76B1C" d="M81,35 L89.0232558,35 C91.2192674,35 93,36.7784766 93,38.972973 L93,42.3175676 C93,42.8698523 92.5522847,43.3175676 92,43.3175676 C91.4477153,43.3175676 91,42.8698523 91,42.3175676 L91,38.972973 C91,37.8836141 90.1152651,37 89.0232558,37 L30.9767442,37 C29.8847349,37 29,37.8836141 29,38.972973 L29,88.027027 C29,89.1163859 29.8847349,90 30.9767442,90 L89.7674419,90 C90.4484485,90 91,89.4491473 91,88.7702703 L91,48.8918919 L32.7759788,48.8918919 C32.2236941,48.8918919 31.7759788,48.4441766 31.7759788,47.8918919 C31.7759788,47.3396071 32.2236941,46.8918919 32.7759788,46.8918919 L93,46.8918919 L93,88.7702703 C93,90.5542847 91.5524508,92 89.7674419,92 L30.9767442,92 C28.7807326,92 27,90.2215234 27,88.027027 L27,38.972973 C27,36.7784766 28.7807326,35 30.9767442,35 L39,35 L39,28.8 C39,28.2477153 39.4477153,27.8 40,27.8 C40.5522847,27.8 41,28.2477153 41,28.8 L41,35 L51,35 L51,28.8 C51,28.2477153 51.4477153,27.8 52,27.8 C52.5522847,27.8 53,28.2477153 53,28.8 L53,35 L67,35 L67,28.8 C67,28.2477153 67.4477153,27.8 68,27.8 C68.5522847,27.8 69,28.2477153 69,28.8 L69,35 L79,35 L79,28.8 C79,28.2477153 79.4477153,27.8 80,27.8 C80.5522847,27.8 81,28.2477153 81,28.8 L81,35 Z M35,52 L44,52 L44,61 L35,61 L35,52 Z M37,54 L37,59 L42,59 L42,54 L37,54 Z M48,52 L57,52 L57,61 L48,61 L48,52 Z M50,54 L50,59 L55,59 L55,54 L50,54 Z M35,64 L44,64 L44,73 L35,73 L35,64 Z M37,66 L37,71 L42,71 L42,66 L37,66 Z M48,64 L57,64 L57,73 L48,73 L48,64 Z M50,66 L50,71 L55,71 L55,66 L50,66 Z M35,76 L44,76 L44,85 L35,85 L35,76 Z M37,78 L37,83 L42,83 L42,78 L37,78 Z M48,76 L57,76 L57,85 L48,85 L48,76 Z M50,78 L50,83 L55,83 L55,78 L50,78 Z M63,52 L72,52 L72,61 L63,61 L63,52 Z M65,54 L65,59 L70,59 L70,54 L65,54 Z M63,76 L72,76 L72,85 L63,85 L63,76 Z M65,78 L65,83 L70,83 L70,78 L65,78 Z M78,52 L87,52 L87,61 L78,61 L78,52 Z M80,54 L80,59 L85,59 L85,54 L80,54 Z M78,64 L87,64 L87,73 L78,73 L78,64 Z M80,66 L80,71 L85,71 L85,66 L80,66 Z M78,76 L87,76 L87,85 L78,85 L78,76 Z M80,78 L80,83 L85,83 L85,78 L80,78 Z M63.6874255,67.2737451 L66.1401054,69.5952918 L71.2828385,64.303093 C71.6677296,63.9070156 72.3008296,63.8979474 72.696907,64.2828385 C73.0929844,64.6677296 73.1020526,65.3008296 72.7171615,65.696907 L66.1988063,72.4047082 L62.3125745,68.7262549 C61.911475,68.3466003 61.8940905,67.713674 62.2737451,67.3125745 C62.6533997,66.911475 63.286326,66.8940905 63.6874255,67.2737451 Z"/>
  </g>
</svg>
