<svg xmlns="http://www.w3.org/2000/svg" width="128" height="128" viewBox="0 0 128 128">
  <g fill="none" fill-rule="evenodd">
    <path class="background" fill="#FFEAE3" fill-rule="nonzero" d="M34.2590516,83.4379608 C35.0838309,83.7983147 35.982591,84 36.9121197,84 C40.7658268,84 44,80.83687 44,77.079034 C44,73.2089086 40.8116228,70 36.9824491,70 C33.1652183,70 30.0000628,73.2144683 30.0000543,77.1007339 C29.9892805,79.7051317 31.5905214,82.0710155 33.8380319,83.237004 L31.5204522,83.2413692 L29,83.2413692 C25.6862915,83.2413692 23,80.5550777 23,77.2413692 L23,71.7477451 C23,65.3999919 28.1458708,60.2541211 34.493624,60.2541211 L37.1244241,60.2541211 L54.0309278,45.44 L85.9484536,45.44 L103.219527,61.9851172 L109,61.9851172 L108.982323,83.0886563 L103.219527,83.1063236 L96.1823171,83.1195782 C95.0289409,86.1543685 92.070586,88.3573243 88.6543542,88.3573243 C85.3332333,88.3573243 82.4713438,86.3318589 81.254072,83.4431512 C82.095131,83.8015938 83.0203809,84 83.9911991,84 C87.8156123,84 91,80.8143119 91,77.0000314 C91,73.2079715 87.7683349,69.9847246 83.9735974,70.0000628 C80.1484077,70.0000628 77,73.1689325 77,77.0176138 C77,79.6614256 78.4757532,81.9635985 80.6468514,83.1488393 L49.19189,83.2080849 C48.012287,86.2046436 45.0150068,88.3749285 41.5940175,88.3749285 C38.3733031,88.3749285 35.4832414,86.2919898 34.2590516,83.4379608 Z M44.837146,60.5 L63.4723039,60.5 L63.4723039,46.9772727 L55.0094925,46.9772727 L43.5227855,56.9925331 C42.6902345,57.7184343 42.6037779,58.9818095 43.3296791,59.8143605 C43.709498,60.2499825 44.2591936,60.5 44.837146,60.5 Z M67.7628866,46.9772722 L67.7628866,60.5 L92.5,60.5 L78,47 L67.7628866,46.9772722 Z"/>
    <path class="foreground" fill="#F76B1C" d="M28.0160978,77.6491859 C28.0047072,77.4661479 27.999296,77.2818859 28.0000628,77.0965971 C28.0000628,72.1167607 32.0536686,68 36.9824491,68 C41.9190763,68 46,72.1072027 46,77.079034 C46,81.9515042 41.8605758,86 36.9121197,86 C32.8195712,86 29.2292881,83.0303362 28.2579871,79.1932259 C28.0751668,79.3927808 27.812422,79.517908 27.5204522,79.517908 L25,79.517908 C21.1340068,79.517908 18,76.3839012 18,72.517908 L18,66.9411689 C18,59.9952277 23.6307979,54.3644298 30.5767391,54.3644298 L32.7462484,54.3644298 L49.6527521,39.4431818 L82.3522407,39.4431818 L99.6233143,56.1079434 L106.000832,56.1079434 L105.981494,79.3610102 L99.2226151,79.3818811 C98.670333,79.3835865 98.2212374,78.9372559 98.219532,78.3849738 C98.2178266,77.8326916 98.6641572,77.383596 99.2164393,77.3818906 L103.983151,77.3671714 L103.999168,58.1079434 L98.8157402,58.1079434 L81.5446665,41.4431818 L50.4091035,41.4431818 L33.5025998,56.3644298 L30.5767391,56.3644298 C24.7353674,56.3644298 20,61.0997972 20,66.9411689 L20,72.517908 C20,75.2793317 22.2385763,77.517908 25,77.517908 L27.5204522,77.517908 C27.7008012,77.517908 27.8699994,77.5656503 28.0160978,77.6491859 L28.0160978,77.6491859 Z M72.2510863,77.3818887 C72.8033695,77.3805754 73.2521481,77.8272248 73.2534613,78.379508 C73.2547746,78.9317912 72.8081252,79.3805698 72.255842,79.381883 C64.7705078,79.3996819 57.2999344,79.3996819 49.8146002,79.381883 C49.262317,79.3805698 48.8156676,78.9317912 48.8169808,78.379508 C48.8182941,77.8272248 49.2670726,77.3805754 49.8193558,77.3818887 C57.3015196,77.39968 64.7689225,77.39968 72.2510863,77.3818887 Z M54.8852996,47.2045455 L43.603817,57.2679769 C43.1916778,57.6356177 42.5595413,57.5995448 42.1919004,57.1874056 C41.8242596,56.7752665 41.8603326,56.14313 42.2724717,55.7754891 L54.1228945,45.2045455 L62.5857059,45.2045455 L62.5857059,58.7272727 L51.2451815,58.7272727 C50.6928968,58.7272727 50.2451815,58.2795575 50.2451815,57.7272727 C50.2451815,57.174988 50.6928968,56.7272727 51.2451815,56.7272727 L60.5857059,56.7272727 L60.5857059,47.2045455 L54.8852996,47.2045455 Z M75.641094,46.9204623 C75.245704,46.534865 75.2377655,45.9017498 75.6233628,45.5063598 C76.00896,45.1109699 76.6420752,45.1030314 77.0374652,45.4886287 L90.6123192,58.7272727 L65.8762887,58.7272727 L65.8762887,45.204545 L70.4533394,45.2045455 C71.0056242,45.2045455 71.4533394,45.6522607 71.4533394,46.2045455 C71.4533394,46.7568302 71.0056242,47.2045455 70.4533394,47.2045455 L67.8762887,47.204545 L67.8762887,56.7272727 L85.6969592,56.7272727 L75.641094,46.9204623 Z M36.9121197,84 C40.7658268,84 44,80.83687 44,77.079034 C44,73.2089086 40.8116228,70 36.9824491,70 C33.1652183,70 30.0000628,73.2144683 30.0000543,77.1007339 C29.9847943,80.7896214 33.2035725,84 36.9121197,84 Z M83.9911991,86 C79.0329794,86 75,81.9775907 75,77.0176138 C75,72.0672529 79.0409275,68.0000628 83.9695533,68.000071 C88.8686114,67.9802586 93,72.1008853 93,77.0000314 C93,81.9186986 88.9203646,86 83.9911991,86 Z M83.9911991,84 C87.8156123,84 91,80.8143119 91,77.0000314 C91,73.2079715 87.7683349,69.9847246 83.9735974,70.0000628 C80.1484077,70.0000628 77,73.1689325 77,77.0176138 C77,80.8718445 80.1363756,84 83.9911991,84 Z"/>
  </g>
</svg>
