<svg xmlns="http://www.w3.org/2000/svg" width="128" height="128" viewBox="0 0 128 128">
    <g id="certificate" stroke="none" stroke-width="1" fill="none" fill-rule="evenodd">
        <path class="background" fill-rule="nonzero" d="M28.0082,37.5166 C27.8677,35.312 29.541,33.4108 31.7457,33.2703 L34.2538,33.2703 L34.2538,83.4839 C34.2538,86.2515 36.5021,88.4927 39.2698,88.4838 L56.7677,88.4278 C56.7538,88.4999 60.7538,88.4999 60.7538,88.4999 C60.5573,89.2807 60.9506,89.8588 61.2253,90.2625 C61.5279,90.7073 61.6865,90.9404 60.7538,90.9999 L62.2538,91.9999 L35.6266,94.1467 C33.422,94.2872 31.5208,92.6139 31.3802,90.4093 L28.0082,37.5166 Z M42.6477,36.9999 L70.6477,36.9999 L70.6477,42.9999 L42.6477,42.9999 L42.6477,36.9999 Z M42.7538,48.9999 L70.7538,48.9999 L70.7538,56.9999 L67.7538,57.9999 L65.2538,62.4999 L62.2538,63.9999 L57.2538,64.9999 L42.7538,64.9999 L42.7538,48.9999 Z M75.2538,80.9999 C72.7685,80.9999 70.7538,78.9852 70.7538,76.4999 C70.7538,74.0147 72.7685,71.9999 75.2538,71.9999 C77.739,71.9999 79.7538,74.0147 79.7538,76.4999 C79.7538,78.9852 77.739,80.9999 75.2538,80.9999 Z M84.1184,62.4955 C86.2309,61.4461 88.7881,62.4431 89.6327,64.6454 L90.3783,66.5895 C90.8495,67.818 91.8947,68.7362 93.1736,69.0452 L95.1975,69.5342 C97.4903,70.0882 98.8084,72.4957 98.0398,74.7257 L97.3613,76.6942 C96.9326,77.9382 97.1431,79.3134 97.9242,80.3722 L99.1602,82.0478 C100.561,83.9459 100.023,86.6374 98.0005,87.8517 L96.2154,88.9235 C95.0874,89.6008 94.3646,90.7896 94.2824,92.1028 L94.1523,94.1808 C94.0049,96.535 91.8628,98.2511 89.5332,97.8814 L87.4768,97.5551 C86.1773,97.3489 84.8595,97.7949 83.9524,98.748 L82.517,100.256 C80.8908,101.965 78.1469,101.903 76.5999,100.122 L75.2343,98.5502 C74.3714,97.5569 73.0752,97.0516 71.7677,97.1986 L69.6986,97.4313 C67.3546,97.6949 65.2926,95.8834 65.2522,93.525 L65.2164,91.4432 C65.1939,90.1276 64.5257,88.9073 63.4296,88.1795 L61.695,87.0278 C59.73,85.723 59.3148,83.0099 60.7998,81.1772 L62.1106,79.5595 C62.9389,78.5372 63.2115,77.1729 62.8396,75.9108 L62.2512,73.9136 C61.5845,71.651 63.0105,69.3058 65.326,68.8564 L67.37,68.4597 C68.6617,68.209 69.7474,67.3391 70.2739,66.1333 L71.1069,64.225 C72.0506,62.0633 74.6504,61.1833 76.7131,62.3274 L78.5338,63.3374 C79.6844,63.9756 81.0753,64.0072 82.2537,63.4218 L84.1184,62.4955 Z M64.7538,76.4999 C64.7538,82.2989 69.4548,86.9999 75.2538,86.9999 C81.0527,86.9999 85.7538,82.2989 85.7538,76.4999 C85.7538,70.701 81.0527,65.9999 75.2538,65.9999 C69.4548,65.9999 64.7538,70.701 64.7538,76.4999 Z M41.7538,79.9999 L52.7538,79.9999 C53.306,79.9999 53.7538,80.4477 53.7538,80.9999 C53.7538,81.5522 53.306,81.9999 52.7538,81.9999 L41.7538,81.9999 C41.2015,81.9999 40.7538,81.5522 40.7538,80.9999 C40.7538,80.4477 41.2015,79.9999 41.7538,79.9999 Z" />
        <path class="foreground" fill-rule="nonzero" d="M37.6475,29 C35.9906,29 34.6475,30.3431 34.6475,32 L34.6475,85 C34.6475,86.6569 35.9906,88 37.6475,88 L57.2536,88 C57.8059,88 58.2536,88.4477 58.2536,89 C58.2536,89.5523 57.8059,90 57.2536,90 L37.6475,90 C34.886,90 32.6475,87.7614 32.6475,85 L32.6475,32 C32.6475,29.2386 34.886,27 37.6475,27 L75.6475,27 C78.4089,27 80.6475,29.2386 80.6475,32 L80.6475,52 C80.6475,52.5523 80.1997,53 79.6475,53 C79.0952,53 78.6475,52.5523 78.6475,52 L78.6475,32 C78.6475,30.3431 77.3043,29 75.6475,29 L37.6475,29 Z M41.6475,37 C41.6475,36.4477 42.0952,36 42.6475,36 L70.6475,36 C71.1998,36 71.6475,36.4477 71.6475,37 L71.6475,43 C71.6475,43.5523 71.1998,44 70.6475,44 L42.6475,44 C42.0952,44 41.6475,43.5523 41.6475,43 L41.6475,37 Z M43.6475,38 L43.6475,42 L69.6475,42 L69.6475,38 L43.6475,38 Z M68.7536,76.5 C68.7536,72.9101 71.6637,70 75.2536,70 C78.8434,70 81.7536,72.9101 81.7536,76.5 C81.7536,80.0899 78.8434,83 75.2536,83 C71.6637,83 68.7536,80.0899 68.7536,76.5 Z M75.2536,72 C72.7683,72 70.7536,74.0147 70.7536,76.5 C70.7536,78.9853 72.7683,81 75.2536,81 C77.7389,81 79.7536,78.9853 79.7536,76.5 C79.7536,74.0147 77.7389,72 75.2536,72 Z M75.2536,64 C82.1571,64 87.7536,69.5964 87.7536,76.5 C87.7536,83.4036 82.1571,89 75.2536,89 C68.35,89 62.7536,83.4036 62.7536,76.5 C62.7536,69.5964 68.35,64 75.2536,64 Z M64.7536,76.5 C64.7536,82.299 69.4546,87 75.2536,87 C81.0526,87 85.7536,82.299 85.7536,76.5 C85.7536,70.701 81.0526,66 75.2536,66 C69.4546,66 64.7536,70.701 64.7536,76.5 Z M42.6475,47 L70.6475,47 C71.1998,47 71.6475,47.4477 71.6475,48 L71.6475,56.5384 C72.0156,56.6416 72.3781,56.7892 72.7283,56.9834 L74.5491,57.9934 C75.412,58.4721 76.4552,58.4957 77.339,58.0567 L79.2037,57.1304 C81.8443,55.8186 85.0408,57.0649 86.0966,59.8178 L86.8422,61.7619 C87.1956,62.6832 87.9795,63.3719 88.9387,63.6037 L90.9626,64.0927 C93.8286,64.7851 95.4761,67.7945 94.5154,70.5821 L93.8369,72.5505 C93.5154,73.4835 93.6732,74.5149 94.2591,75.309 L95.4951,76.9846 C97.2455,79.3573 96.5732,82.7216 94.0455,84.2394 L92.2604,85.3113 C91.4144,85.8193 90.8723,86.7109 90.8106,87.6957 L90.6805,89.7738 C90.4962,92.7165 87.8187,94.8616 84.9067,94.3995 L82.8503,94.0732 C81.8756,93.9185 80.8873,94.2531 80.207,94.9679 L78.7715,96.4761 C76.7388,98.6119 73.3089,98.5341 71.3752,96.3083 L70.0096,94.7365 C69.3624,93.9915 68.3903,93.6125 67.4096,93.7228 L65.3405,93.9555 C62.4106,94.285 59.8331,92.0207 59.7825,89.0726 L59.7468,86.9908 C59.7298,86.0041 59.2287,85.0889 58.4066,84.543 L56.6721,83.3913 C54.2157,81.7604 53.6968,78.369 55.553,76.0781 L56.8638,74.4604 C57.485,73.6937 57.6895,72.6705 57.4106,71.7239 L56.8221,69.7267 C56.439,68.4261 56.6089,67.1037 57.1857,66 L42.6475,66 C42.0952,66 41.6475,65.5523 41.6475,65 L41.6475,48 C41.6475,47.4477 42.0952,47 42.6475,47 Z M60.6657,63.4051 L62.7097,63.0084 C63.6784,62.8204 64.4927,62.168 64.8876,61.2636 L65.7206,59.3554 C66.4518,57.6804 67.9784,56.621 69.6475,56.3983 L69.6475,49 L43.6475,49 L43.6475,64 L59.086,64 C59.561,63.7213 60.0914,63.5166 60.6657,63.4051 Z M84.2292,60.534 C83.5957,58.8822 81.6778,58.1345 80.0935,58.9215 L78.2288,59.8479 C76.7558,60.5796 75.0172,60.5401 73.5789,59.7423 L71.7582,58.7324 C70.2111,57.8743 68.2613,58.5342 67.5535,60.1556 L66.7205,62.0638 C66.0625,63.5711 64.7053,64.6585 63.0907,64.9718 L61.0467,65.3685 C59.3101,65.7055 58.2406,67.4645 58.7406,69.1614 L59.3291,71.1587 C59.7939,72.7363 59.4531,74.4417 58.4177,75.7195 L57.1069,77.3372 C55.9932,78.7118 56.3046,80.7466 57.7783,81.7251 L59.5129,82.8769 C60.8831,83.7866 61.7182,85.312 61.7465,86.9565 L61.7822,89.0383 C61.8125,90.8071 63.359,92.1657 65.117,91.968 L67.1861,91.7353 C68.8205,91.5515 70.4408,92.1832 71.5194,93.4248 L72.885,94.9966 C74.0452,96.3321 76.1032,96.3788 77.3228,95.0973 L78.7582,93.5891 C79.8921,92.3977 81.5393,91.8402 83.1637,92.0979 L85.2201,92.4242 C86.9673,92.7015 88.5739,91.4144 88.6844,89.6488 L88.8145,87.5708 C88.9173,85.9293 89.8208,84.4433 91.2308,83.5966 L93.0159,82.5248 C94.5326,81.6141 94.9359,79.5955 93.8857,78.1719 L92.6496,76.4963 C91.6732,75.1728 91.4102,73.4538 91.9461,71.8988 L92.6246,69.9304 C93.201,68.2578 92.2125,66.4522 90.4929,66.0367 L88.469,65.5477 C86.8703,65.1615 85.5638,64.0137 84.9748,62.478 L84.2292,60.534 Z M45.5362,71.8611 L45.5362,75.7912 L46.809,74.9313 C47.297,74.6016 47.9055,74.5038 48.4723,74.6639 L51.0254,75.385 C51.5569,75.5351 51.866,76.0877 51.7159,76.6192 C51.5658,77.1507 51.0132,77.4598 50.4818,77.3097 L47.9286,76.5886 L46.6558,77.4485 C45.3276,78.3458 43.5362,77.3942 43.5362,75.7912 L43.5362,71.8611 L41.3136,76.4526 C41.1071,76.8793 40.7557,77.2187 40.3221,77.4104 L37.6579,78.5883 C37.1528,78.8116 36.5623,78.5831 36.339,78.078 C36.1157,77.5729 36.3441,76.9824 36.8492,76.7591 L39.5134,75.5812 L41.736,70.9897 C42.6616,69.0775 45.5362,69.7367 45.5362,71.8611 Z" />
    </g>
</svg>