<svg xmlns="http://www.w3.org/2000/svg" width="128" height="128" viewBox="0 0 128 128">
  <g fill="none" fill-rule="evenodd">
    <path class="background" fill-rule="nonzero" d="M45.1052632,69 C40.6288499,69 37,65.418278 37,61 C37,56.581722 40.6288499,53 45.1052632,53 C49.5816764,53 53.2105263,56.581722 53.2105263,61 C53.2105263,65.418278 49.5816764,69 45.1052632,69 Z M61,89 L29,89 C29,80.163444 36.163444,73 45,73 C53.836556,73 61,80.163444 61,89 Z M69.1052632,61 C64.6288499,61 61,57.418278 61,53 C61,48.581722 64.6288499,45 69.1052632,45 C73.5816764,45 77.2105263,48.581722 77.2105263,53 C77.2105263,57.418278 73.5816764,61 69.1052632,61 Z M55.9512609,71.7387202 C58.8510208,67.6604583 63.6148187,65 69,65 C77.836556,65 85,72.163444 85,81 L62.796875,81 C61.032211,75.7898004 57.1705024,72.6122533 55.9512609,71.7387202 Z M91.1052632,53 C86.6288499,53 83,49.418278 83,45 C83,40.581722 86.6288499,37 91.1052632,37 C95.5816764,37 99.2105263,40.581722 99.2105263,45 C99.2105263,49.418278 95.5816764,53 91.1052632,53 Z M77.9512609,63.7387202 C80.8510208,59.6604583 85.6148187,57 91,57 C99.836556,57 107,64.163444 107,73 L85.0177002,73 C84.5495605,71.0847168 82,65.8198242 77.9512609,63.7387202 Z"/>
    <path class="foreground" d="M42.1052632,65 C46.0322966,65 49.2105263,61.863046 49.2105263,58 C49.2105263,54.136954 46.0322966,51 42.1052632,51 C38.1782297,51 35,54.136954 35,58 C35,61.863046 38.1782297,65 42.1052632,65 Z M42.1052632,67 C37.0794701,67 33,62.97351 33,58 C33,53.02649 37.0794701,49 42.1052632,49 C47.1310562,49 51.2105263,53.02649 51.2105263,58 C51.2105263,62.97351 47.1310562,67 42.1052632,67 Z M42,71 C34.0517573,71 27.5473906,77.1819682 27.0328046,85 L56.9671954,85 C56.4526094,77.1819682 49.9482427,71 42,71 Z M58,87 L26,87 C25.4477153,87 25,86.5522847 25,86 C25,76.6111593 32.6111593,69 42,69 C51.3888407,69 59,76.6111593 59,86 C59,86.5522847 58.5522847,87 58,87 Z M66.1052632,57 C70.0322966,57 73.2105263,53.863046 73.2105263,50 C73.2105263,46.136954 70.0322966,43 66.1052632,43 C62.1782297,43 59,46.136954 59,50 C59,53.863046 62.1782297,57 66.1052632,57 Z M66.1052632,59 C61.0794701,59 57,54.97351 57,50 C57,45.02649 61.0794701,41 66.1052632,41 C71.1310562,41 75.2105263,45.02649 75.2105263,50 C75.2105263,54.97351 71.1310562,59 66.1052632,59 Z M66,63 C61.081056,63 56.5638615,65.3835974 53.7662481,69.3181992 C53.4462107,69.7683041 52.8218869,69.8737447 52.3717819,69.5537073 C51.9216769,69.2336699 51.8162363,68.6093461 52.1362737,68.1592412 C55.3051633,63.7024717 60.4266616,61 66,61 C75.3888407,61 83,68.6111593 83,78 C83,78.5522847 82.5522847,79 82,79 L62.2387073,79 C61.6864225,79 61.2387073,78.5522847 61.2387073,78 C61.2387073,77.4477153 61.6864225,77 62.2387073,77 L80.9671954,77 C80.4526094,69.1819682 73.9482427,63 66,63 Z M88.1052632,49 C92.0322966,49 95.2105263,45.863046 95.2105263,42 C95.2105263,38.136954 92.0322966,35 88.1052632,35 C84.1782297,35 81,38.136954 81,42 C81,45.863046 84.1782297,49 88.1052632,49 Z M88.1052632,51 C83.0794701,51 79,46.97351 79,42 C79,37.02649 83.0794701,33 88.1052632,33 C93.1310562,33 97.2105263,37.02649 97.2105263,42 C97.2105263,46.97351 93.1310562,51 88.1052632,51 Z M102.886483,68.1445871 C101.96556,60.674278 95.5938267,55 88,55 C83.081056,55 78.5638615,57.3835974 75.7662481,61.3181992 C75.4462107,61.7683041 74.8218869,61.8737447 74.3717819,61.5537073 C73.9216769,61.2336699 73.8162363,60.6093461 74.1362737,60.1592412 C77.3051633,55.7024717 82.4266616,53 88,53 C96.6067768,53 103.827331,59.4301864 104.871456,67.899884 C104.929261,68.3687846 104.971227,69.0545508 104.999522,69.9690757 C105.016975,70.5332082 104.564402,71 104,71 L84.2387073,71 C83.6864225,71 83.2387073,70.5522847 83.2387073,70 C83.2387073,69.4477153 83.6864225,69 84.2387073,69 L102.95685,69 C102.936594,68.6456401 102.913021,68.3598616 102.886483,68.1445871 Z"/>
  </g>
</svg>
