<svg xmlns="http://www.w3.org/2000/svg" width="128" height="128" viewBox="0 0 128 128">
  <g fill="none" fill-rule="evenodd">
    <path class="background" fill-rule="nonzero" d="M83,93 L83,85 L100,85 C101.657,85 103,83.6569 103,82 L103,45 C103,43.3431 101.657,42 100,42 L37,42 C35.3431,42 34,43.3431 34,45 L34,82 C34,83.6569 35.3431,85 37,85 L55,85 L55,93 C55,94.6569 56.3431,96 58,96 L80,96 C81.6569,96 83,94.6569 83,93 Z M61,67 C67.0751,67 72,62.0751 72,56 C72,49.9249 67.0751,45 61,45 C54.9249,45 50,49.9249 50,56 C50,62.0751 54.9249,67 61,67 Z"/>
    <path class="foreground" d="M59,50 L59,54 L57,54 L57,50 L59,50 Z M63,50 L65,50 L65,54 L63,54 L63,50 Z M56,57 L66,57 L66,59 L68,59 L68,61 L66,61 L66,59 L56,59 L56,61 L54,61 L54,59 L56,59 L56,57 Z M88.6418,41.1582 L88.6418,70.6921 L33.3582,70.6921 L33.3582,41.1582 L88.6418,41.1582 Z M35.3582,68.6921 L86.6418,68.6921 L86.6418,43.1582 L35.3582,43.1582 L35.3582,68.6921 Z M93,33 C95.2091,33 97,34.7909 97,37 L97,74.8503 C97,77.0594 95.2091,78.8503 93,78.8503 L29,78.8503 C26.7909,78.8503 25,77.0594 25,74.8503 L25,37 C25,34.7909 26.7909,33 29,33 L93,33 Z M27,37 L27,74.8503 C27,75.9548 27.8954,76.8503 29,76.8503 L93,76.8503 C94.1046,76.8503 95,75.9548 95,74.8503 L95,37 C95,35.8954 94.1046,35 93,35 L29,35 C27.8954,35 27,35.8954 27,37 Z M75.1045,81.6808 C75.6568,81.6808 76.1045,82.1285 76.1045,82.6808 L76.1045,88.1017 C76.1045,90.2561 74.3495,92 72.1878,92 L49.8122,92 C47.6505,92 45.8955,90.2561 45.8955,88.1017 L45.8955,82.6808 C45.8955,82.1285 46.3432,81.6808 46.8955,81.6808 C47.4478,81.6808 47.8955,82.1285 47.8955,82.6808 L47.8955,88.1017 C47.8955,89.1487 48.7522,90 49.8122,90 L72.1878,90 C73.2478,90 74.1045,89.1487 74.1045,88.1017 L74.1045,82.6808 C74.1045,82.1285 74.5522,81.6808 75.1045,81.6808 Z"/>
    </g>
</svg>