<svg xmlns="http://www.w3.org/2000/svg" width="128" height="128" viewBox="0 0 128 128">
  <g fill="none" fill-rule="evenodd">
    <path class="background" fill="#FFEAE3" fill-rule="nonzero" d="M83,85 L83,93 C83,94.6568542 81.6568542,96 80,96 L58,96 C56.3431458,96 55,94.6568542 55,93 L55,85 L37,85 C35.3431458,85 34,83.6568542 34,82 L34,45 C34,43.3431458 35.3431458,42 37,42 L100,42 C101.656854,42 103,43.3431458 103,45 L103,82 C103,83.6568542 101.656854,85 100,85 L83,85 Z M63.2858344,50.2340808 C63.2858344,48.6133947 63.082286,48.28268 62.2695316,48.2571241 C61.7432057,48.2624287 61.4128238,48.60895 61.0605006,49.4732909 C60.622094,50.9201331 60.455434,51.4558266 60.2214864,52.1850781 C59.9893556,52.9086664 59.8249838,53.4370105 59.4058758,54.8083102 C59.393789,54.8646626 59.3880597,54.9152843 59.3880597,54.9620213 L59.3880597,62.6669805 C59.3880597,63.1525477 59.8864287,63.5932203 60.5664548,63.5932203 L68.4074715,63.5932203 C68.9812775,63.5932203 69.3731561,63.202413 69.6300686,62.3715604 L71.9981051,54.7183977 C72.011489,54.6651159 72.0165345,54.6144887 72.0136272,54.5237265 C72.0136272,54.2839311 71.7295536,54.0357815 71.3102756,54.0357815 L65.4986378,54.0357815 C64.2946377,54.0357815 63.2858344,53.1545517 63.2858344,51.9763497 L63.2858344,50.2340808 Z M51.0746269,54.3757062 C50.4112089,54.3757062 49.9850746,54.6807264 49.9850746,54.8713748 L49.9850746,63.0975518 C49.9850746,63.2882002 50.4112089,63.5932203 51.0746269,63.5932203 L52.1194029,63.5932203 C52.782821,63.5932203 53.2089552,63.2882002 53.2089552,63.0975518 L53.2089552,54.8713748 C53.2089552,54.6807264 52.782821,54.3757062 52.1194029,54.3757062 L51.0746269,54.3757062 Z"/>
    <path class="foreground" fill="#F76B1C" d="M29,33 L93,33 C95.209139,33 97,34.790861 97,37 L97,74.8502825 C97,77.0594215 95.209139,78.8502825 93,78.8502825 L29,78.8502825 C26.790861,78.8502825 25,77.0594215 25,74.8502825 L25,37 C25,34.790861 26.790861,33 29,33 Z M29,35 C27.8954305,35 27,35.8954305 27,37 L27,74.8502825 C27,75.954852 27.8954305,76.8502825 29,76.8502825 L93,76.8502825 C94.1045695,76.8502825 95,75.954852 95,74.8502825 L95,37 C95,35.8954305 94.1045695,35 93,35 L29,35 Z M33.358209,41.1581921 L88.641791,41.1581921 L88.641791,70.6920904 L33.358209,70.6920904 L33.358209,41.1581921 Z M35.358209,43.1581921 L35.358209,68.6920904 L86.641791,68.6920904 L86.641791,43.1581921 L35.358209,43.1581921 Z M62.2818656,46.2570621 L62.3086678,46.2574214 C64.4386818,46.3145309 65.2858344,47.6513263 65.2858344,50.2340808 L65.2858344,51.9763497 C65.2858344,51.9853255 65.3435947,52.0357815 65.4986378,52.0357815 L71.3102756,52.0357815 C72.7785106,52.0357815 74.0136272,53.1147048 74.0127661,54.4822344 C74.0227002,54.721451 73.9985176,54.9641052 73.9233424,55.2574415 L71.5408051,62.9623954 C71.0512551,64.5455957 70.0007586,65.5932203 68.4074715,65.5932203 L60.5664548,65.5932203 C58.8329003,65.5932203 57.3880597,64.3156492 57.3880597,62.6669805 L57.3880597,54.9620213 C57.3880597,54.7692711 57.4096183,54.5787871 57.4710835,54.3086048 C57.9139354,52.8470938 58.0814943,52.3085053 58.3171074,51.5740622 C58.5475734,50.8556633 58.7110459,50.3302151 59.1758789,48.8097062 C59.8315859,47.1816676 60.7230473,46.2570621 62.2818656,46.2570621 Z M51.0746269,52.3757062 L52.1194029,52.3757062 C53.7712089,52.3757062 55.2089552,53.4048224 55.2089552,54.8713748 L55.2089552,63.0975518 C55.2089552,64.5641042 53.7712089,65.5932203 52.1194029,65.5932203 L51.0746269,65.5932203 C49.422821,65.5932203 47.9850746,64.5641042 47.9850746,63.0975518 L47.9850746,54.8713748 C47.9850746,53.4048224 49.422821,52.3757062 51.0746269,52.3757062 Z M51.0746269,54.3757062 C50.4112089,54.3757062 49.9850746,54.6807264 49.9850746,54.8713748 L49.9850746,63.0975518 C49.9850746,63.2882002 50.4112089,63.5932203 51.0746269,63.5932203 L52.1194029,63.5932203 C52.782821,63.5932203 53.2089552,63.2882002 53.2089552,63.0975518 L53.2089552,54.8713748 C53.2089552,54.6807264 52.782821,54.3757062 52.1194029,54.3757062 L51.0746269,54.3757062 Z M74.1044776,82.680791 C74.1044776,82.1285062 74.5521929,81.680791 75.1044776,81.680791 C75.6567624,81.680791 76.1044776,82.1285062 76.1044776,82.680791 L76.1044776,88.1016949 C76.1044776,90.256088 74.3495174,92 72.1878109,92 L49.8121891,92 C47.6504826,92 45.8955224,90.256088 45.8955224,88.1016949 L45.8955224,82.680791 C45.8955224,82.1285062 46.3432376,81.680791 46.8955224,81.680791 C47.4478071,81.680791 47.8955224,82.1285062 47.8955224,82.680791 L47.8955224,88.1016949 C47.8955224,89.1486812 48.7522345,90 49.8121891,90 L72.1878109,90 C73.2477655,90 74.1044776,89.1486812 74.1044776,88.1016949 L74.1044776,82.680791 Z M63.2858344,50.2340808 C63.2858344,48.6133947 63.082286,48.28268 62.2695316,48.2571241 C61.7432057,48.2624287 61.4128238,48.60895 61.0605006,49.4732909 C60.622094,50.9201331 60.455434,51.4558266 60.2214864,52.1850781 C59.9893556,52.9086664 59.8249838,53.4370105 59.4058758,54.8083102 C59.393789,54.8646626 59.3880597,54.9152843 59.3880597,54.9620213 L59.3880597,62.6669805 C59.3880597,63.1525477 59.8864287,63.5932203 60.5664548,63.5932203 L68.4074715,63.5932203 C68.9812775,63.5932203 69.3731561,63.202413 69.6300686,62.3715604 L71.9981051,54.7183977 C72.011489,54.6651159 72.0165345,54.6144887 72.0136272,54.5237265 C72.0136272,54.2839311 71.7295536,54.0357815 71.3102756,54.0357815 L65.4986378,54.0357815 C64.2946377,54.0357815 63.2858344,53.1545517 63.2858344,51.9763497 L63.2858344,50.2340808 Z"/>
  </g>
</svg>
