<svg xmlns="http://www.w3.org/2000/svg" width="60" height="72" viewBox="0 0 60 72">
  <g fill="none" fill-rule="evenodd" transform="translate(-32 -30)">
    <path class="background" fill-rule="nonzero" d="M47.7365125,39.4350937 C43.4562844,39.4350937 39.9865125,43.1007398 39.9865125,47.6225937 L39.9865125,86.4914195 C39.9865125,91.0132734 43.4562844,94.6789195 47.7365125,94.6789195 L78.9011031,94.6789195 L91.0623062,101.10232 L91.0623062,47.6225937 C91.0623062,43.1007398 87.5924375,39.4350937 83.3123062,39.4350937 L47.7365125,39.4350937 Z M75.3883187,67.5166836 C75.7667125,67.1170312 75.7667125,66.4689906 75.3883187,66.0693383 C75.0100219,65.6696859 74.3966094,65.6696859 74.0183125,66.0693383 C66.4518906,74.0628969 54.1843187,74.0628969 46.6179937,66.0693383 C46.2396,65.6696859 45.6262844,65.6696859 45.2478906,66.0693383 C44.8695937,66.4689906 44.8695937,67.1170312 45.2478906,67.5166836 C53.5710031,76.3096492 67.0653031,76.3096492 75.3883187,67.5166836 Z"/>
    <path class="foreground" d="M75.2786562,65.7119539 C66.9555437,74.5048172 53.4612437,74.5048172 45.1382281,65.7119539 C44.7598344,65.3123016 44.7598344,64.6642609 45.1382281,64.2646086 C45.516525,63.8649562 46.1298406,63.8649562 46.5082344,64.2646086 C54.0746562,72.2581672 66.3422281,72.2581672 73.9085531,64.2646086 C74.2869469,63.8649562 74.9002625,63.8649562 75.2786562,64.2646086 C75.6569531,64.6642609 75.6569531,65.3123016 75.2786562,65.7119539 Z M41.65625,30.703125 L77.2320437,30.703125 C82.0473125,30.703125 85.9507937,34.8269641 85.9507937,39.9140625 L85.9507937,78.7828883 L85.9507937,78.8346742 L85.9507937,95.050018 L72.5922156,87.9938258 L41.65625,87.9938258 C36.8409812,87.9938258 32.9375,83.8699867 32.9375,78.7828883 L32.9375,39.9140625 C32.9375,34.8269641 36.8409812,30.703125 41.65625,30.703125 Z M34.875,39.9140625 L34.875,78.7828883 C34.875,82.7394977 37.9110625,85.9469508 41.65625,85.9469508 L73.0495625,85.9469508 L84.0132937,91.7381742 L84.0132937,78.8346742 L84.0132937,78.7828883 L84.0132937,39.9140625 C84.0132937,35.9574531 80.9772312,32.75 77.2320437,32.75 L41.65625,32.75 C37.9110625,32.75 34.875,35.9574531 34.875,39.9140625 Z"/>
  </g>
</svg>
