<svg xmlns="http://www.w3.org/2000/svg" width="128" height="128" viewBox="0 0 128 128">
  <g fill="none" fill-rule="evenodd">
    <path class="background" fill-rule="nonzero" d="M49,36 L87,36 C94.1797017,36 100,41.8202983 100,49 L100,87 C100,94.1797017 94.1797017,100 87,100 L49,100 C41.8202983,100 36,94.1797017 36,87 L36,49 C36,41.8202983 41.8202983,36 49,36 Z M49,56 C53.418278,56 57,52.418278 57,48 C57,43.581722 53.418278,40 49,40 C44.581722,40 41,43.581722 41,48 C41,52.418278 44.581722,56 49,56 Z M67,50 C65.8954305,50 65,50.8954305 65,52 L65,55 C65,56.1045695 65.8954305,57 67,57 C68.1045695,57 69,56.1045695 69,55 L69,52 C69,50.8954305 68.1045695,50 67,50 Z M75.5,47 C74.6715729,47 74,47.6715729 74,48.5 L74,55.5 C74,56.3284271 74.6715729,57 75.5,57 C76.3284271,57 77,56.3284271 77,55.5 L77,48.5 C77,47.6715729 76.3284271,47 75.5,47 Z M84,40 C82.8954305,40 82,40.8954305 82,42 L82,55 C82,56.1045695 82.8954305,57 84,57 C85.1045695,57 86,56.1045695 86,55 L86,42 C86,40.8954305 85.1045695,40 84,40 Z M84.4548077,87.6842105 C84.4548077,77.132665 76.0725026,68.5789474 65.7324052,68.5789474 C55.3923078,68.5789474 47.0100027,77.132665 47.0100027,87.6842105 L84.4548077,87.6842105 Z"/>
    <path class="foreground" d="M62.574927,78.9093141 L67.1208291,68.4132143 C67.3403238,67.9064199 67.9290974,67.6735175 68.4358917,67.8930121 C68.9426861,68.1125068 69.1755886,68.7012804 68.9560939,69.2080747 L64.3314899,79.8858906 C65.0535363,80.5826686 65.5022837,81.5544746 65.5022837,82.6315789 C65.5022837,84.7577898 63.7536491,86.4736842 61.6059495,86.4736842 C59.4582499,86.4736842 57.7096154,84.7577898 57.7096154,82.6315789 C57.7096154,80.505368 59.4582499,78.7894737 61.6059495,78.7894737 C61.9403118,78.7894737 62.2650018,78.8310627 62.574927,78.9093141 L62.574927,78.9093141 Z M45,38.0708889 C41.6077059,38.5561185 39,41.4735281 39,45 C39,48.8659932 42.1340068,52 46,52 C49.5264719,52 52.4438815,49.3922941 52.9291111,46 L46,46 C45.4477153,46 45,45.5522847 45,45 L45,38.0708889 L45,38.0708889 Z M46,31 C37.7157288,31 31,37.7157288 31,46 L31,78 C31,86.2842712 37.7157288,93 46,93 L78,93 C86.2842712,93 93,86.2842712 93,78 L93,46 C93,37.7157288 86.2842712,31 78,31 L46,31 Z M46,29 L78,29 C87.3888407,29 95,36.6111593 95,46 L95,78 C95,87.3888407 87.3888407,95 78,95 L46,95 C36.6111593,95 29,87.3888407 29,78 L29,46 C29,36.6111593 36.6111593,29 46,29 Z M46,54 C41.0294373,54 37,49.9705627 37,45 C37,40.0294373 41.0294373,36 46,36 C50.9705627,36 55,40.0294373 55,45 C55,49.9705627 50.9705627,54 46,54 Z M52.9291111,44 C52.4905984,40.9343088 50.0656912,38.5094016 47,38.0708889 L47,44 L52.9291111,44 Z M65,49 C64.4477153,49 64,49.4477153 64,50 L64,53 C64,53.5522847 64.4477153,54 65,54 C65.5522847,54 66,53.5522847 66,53 L66,50 C66,49.4477153 65.5522847,49 65,49 Z M65,47 C66.6568542,47 68,48.3431458 68,50 L68,53 C68,54.6568542 66.6568542,56 65,56 C63.3431458,56 62,54.6568542 62,53 L62,50 C62,48.3431458 63.3431458,47 65,47 Z M72.5,46 C72.2238576,46 72,46.2238576 72,46.5 L72,53.5 C72,53.7761424 72.2238576,54 72.5,54 C72.7761424,54 73,53.7761424 73,53.5 L73,46.5 C73,46.2238576 72.7761424,46 72.5,46 Z M72.5,44 C73.8807119,44 75,45.1192881 75,46.5 L75,53.5 C75,54.8807119 73.8807119,56 72.5,56 C71.1192881,56 70,54.8807119 70,53.5 L70,46.5 C70,45.1192881 71.1192881,44 72.5,44 Z M81,39 C80.4477153,39 80,39.4477153 80,40 L80,53 C80,53.5522847 80.4477153,54 81,54 C81.5522847,54 82,53.5522847 82,53 L82,40 C82,39.4477153 81.5522847,39 81,39 Z M81,37 C82.6568542,37 84,38.3431458 84,40 L84,53 C84,54.6568542 82.6568542,56 81,56 C79.3431458,56 78,54.6568542 78,53 L78,40 C78,38.3431458 79.3431458,37 81,37 Z M81.707305,83.1052632 C81.707305,83.6575479 81.2595898,84.1052632 80.707305,84.1052632 C80.1550203,84.1052632 79.707305,83.6575479 79.707305,83.1052632 C79.707305,73.1015223 71.7681335,65 61.9849025,65 C52.2016715,65 44.2625,73.1015223 44.2625,83.1052632 C44.2625,83.6575479 43.8147847,84.1052632 43.2625,84.1052632 C42.7102153,84.1052632 42.2625,83.6575479 42.2625,83.1052632 C42.2625,72.0059131 51.0879388,63 61.9849025,63 C72.8818663,63 81.707305,72.0059131 81.707305,83.1052632 Z M61.6059495,84.4736842 C62.6574523,84.4736842 63.5022837,83.6446708 63.5022837,82.6315789 C63.5022837,81.6184871 62.6574523,80.7894737 61.6059495,80.7894737 C60.5544468,80.7894737 59.7096154,81.6184871 59.7096154,82.6315789 C59.7096154,83.6446708 60.5544468,84.4736842 61.6059495,84.4736842 Z M60.7299061,66.9396484 C60.7299061,66.3873637 61.1776214,65.9396484 61.7299061,65.9396484 C62.2821909,65.9396484 62.7299061,66.3873637 62.7299061,66.9396484 L62.7299061,70.6816406 C62.7299061,71.2339254 62.2821909,71.6816406 61.7299061,71.6816406 C61.1776214,71.6816406 60.7299061,71.2339254 60.7299061,70.6816406 L60.7299061,66.9396484 Z M68.7835442,73.7920303 L71.4729134,71.1282742 C71.8653017,70.7396229 72.4984594,70.7426524 72.8871107,71.1350407 C73.275762,71.527429 73.2727326,72.1605868 72.8803442,72.5492381 L70.1909751,75.2129942 C69.7985867,75.6016455 69.165429,75.5986161 68.7767777,75.2062277 C68.3881264,74.8138394 68.3911558,74.1806816 68.7835442,73.7920303 Z M54.1072141,73.7920303 C54.4996024,74.1806816 54.5026319,74.8138394 54.1139806,75.2062277 C53.7253293,75.5986161 53.0921715,75.6016455 52.6997832,75.2129942 L50.010414,72.5492381 C49.6180257,72.1605868 49.6149962,71.527429 50.0036475,71.1350407 C50.3922988,70.7426524 51.0254566,70.7396229 51.4178449,71.1282742 L54.1072141,73.7920303 Z M47,83.5 C46.4477153,83.5 46,83.0522847 46,82.5 C46,81.9477153 46.4477153,81.5 47,81.5 L50.7375,81.5 C51.2897847,81.5 51.7375,81.9477153 51.7375,82.5 C51.7375,83.0522847 51.2897847,83.5 50.7375,83.5 L47,83.5 Z M73,83.5 C72.4477153,83.5 72,83.0522847 72,82.5 C72,81.9477153 72.4477153,81.5 73,81.5 L76.7375,81.5 C77.2897847,81.5 77.7375,81.9477153 77.7375,82.5 C77.7375,83.0522847 77.2897847,83.5 76.7375,83.5 L73,83.5 Z"/>
  </g>
</svg>
