<svg xmlns="http://www.w3.org/2000/svg" width="128" height="128" viewBox="0 0 128 128">
    <g id="doc-sign" stroke="none" stroke-width="1" fill="none" fill-rule="evenodd">
        <path class="background" fill-rule="nonzero" d="M30.0082,40.5166 C29.8677,38.312 31.541,36.4108 33.7457,36.2703 L36.2538,36.2703 L36.2538,86.4999 C36.2538,89.2613 38.4923,91.4999 41.2538,91.4999 L79.2227,91.4999 C79.2088,91.572 79.1929,91.6435 79.1751,91.7143 C78.7622,93.3553 77.329,94.6156 75.5496,94.729 L37.6266,97.1467 C35.422,97.2872 33.5208,95.6139 33.3802,93.4093 L30.0082,40.5166 Z M45.6477,39.9999 L73.6477,39.9999 L73.6477,45.9999 L45.6477,45.9999 L45.6477,39.9999 Z M73.6477,50.9999 L73.6477,67.9999 L45.6477,67.9999 L45.6477,50.9999 L73.6477,50.9999 Z M45.6477,83.4999 C45.6477,82.9476 46.0954,82.4999 46.6477,82.4999 L62.6477,82.4999 C63.1999,82.4999 63.6477,82.9476 63.6477,83.4999 C63.6477,84.0522 63.1999,84.4999 62.6477,84.4999 L46.6477,84.4999 C46.0954,84.4999 45.6477,84.0522 45.6477,83.4999 Z M81.0882,76.2276 L76.3549,74.6165 L88.5993,38.6432 L93.3326,40.2543 L81.0882,76.2276 Z" />
        <path class="foreground" fill-rule="nonzero" d="M40.6475,32 C38.9906,32 37.6475,33.3431 37.6475,35 L37.6475,88 C37.6475,89.6569 38.9906,91 40.6475,91 L78.6475,91 C80.3043,91 81.6475,89.6569 81.6475,88 L81.6475,82 C81.6475,81.4477 82.0952,81 82.6475,81 C83.1997,81 83.6475,81.4477 83.6475,82 L83.6475,88 C83.6475,90.7614 81.4089,93 78.6475,93 L40.6475,93 C37.886,93 35.6475,90.7614 35.6475,88 L35.6475,35 C35.6475,32.2386 37.886,30 40.6475,30 L78.6475,30 C81.4089,30 83.6475,32.2386 83.6475,35 L83.6475,40.5 C83.6475,41.0523 83.1997,41.5 82.6475,41.5 C82.0952,41.5 81.6475,41.0523 81.6475,40.5 L81.6475,35 C81.6475,33.3431 80.3043,32 78.6475,32 L40.6475,32 Z M76.0325,75.5632 C75.5096,75.3852 75.2301,74.8171 75.408,74.2943 L89.908,31.6944 C90.0859,31.1716 90.654,30.892 91.1769,31.07 L94.0169,32.0366 C97.6767,33.2823 99.6337,37.259 98.388,40.9188 L93.7158,54.6455 C93.5378,55.1683 92.9697,55.4479 92.4469,55.2699 C91.924,55.0919 91.6445,54.5238 91.8224,54.001 L96.4946,40.2744 C97.3844,37.6602 95.9866,34.8197 93.3724,33.93 L91.4791,33.2855 L89.868,38.0188 L93.6546,39.3077 C94.1775,39.4857 94.457,40.0538 94.2791,40.5766 L82.0347,76.5499 C81.8567,77.0727 81.2886,77.3523 80.7658,77.1743 L76.0325,75.5632 Z M89.2235,39.9122 L77.6236,73.9921 L80.4636,74.9587 L92.0635,40.8788 L89.2235,39.9122 Z M50.8164,74.5171 L50.283,78.0094 L52.3605,77.0952 C52.9194,76.8492 53.56,76.8721 54.0999,77.1572 L56.7336,78.5479 L60.1758,77.0332 C60.5674,76.8608 61.0039,76.8186 61.4213,76.9128 L64.2588,77.5526 L68.1475,77.5526 C68.6998,77.5526 69.1475,78.0004 69.1475,78.5526 C69.1475,79.1049 68.6998,79.5526 68.1475,79.5526 L64.2588,79.5526 C64.1108,79.5526 63.9632,79.5362 63.8189,79.5036 L60.9813,78.8638 L57.5391,80.3785 C56.9802,80.6245 56.3396,80.6016 55.7996,80.3165 L53.166,78.9258 L51.0885,79.84 C49.6445,80.4754 48.0677,79.267 48.3059,77.7074 L48.8393,74.2151 L46.6224,78.1238 C46.4838,78.3682 46.2953,78.5806 46.0691,78.7472 L41.2407,82.3051 C40.7961,82.6327 40.17,82.5378 39.8424,82.0932 C39.5148,81.6486 39.6097,81.0226 40.0543,80.695 L44.8827,77.1371 L47.0996,73.2284 C48.195,71.2971 51.1516,72.3222 50.8164,74.5171 Z M74.9991,77.4054 C75.5502,77.3686 76.0268,77.7855 76.0636,78.3365 L76.3369,82.4274 L79.0492,79.3528 C79.4146,78.9386 80.0465,78.899 80.4607,79.2644 C80.8748,79.6297 80.9144,80.2617 80.549,80.6758 L76.2491,85.5503 C75.982,85.853 75.5591,85.9655 75.1769,85.8354 C74.7948,85.7053 74.5283,85.3582 74.5014,84.9554 L74.068,78.4699 C74.0312,77.9188 74.4481,77.4422 74.9991,77.4054 Z M44.6475,40 C44.6475,39.4477 45.0952,39 45.6475,39 L73.6475,39 C74.1998,39 74.6475,39.4477 74.6475,40 L74.6475,46 C74.6475,46.5523 74.1998,47 73.6475,47 L45.6475,47 C45.0952,47 44.6475,46.5523 44.6475,46 L44.6475,40 Z M46.6475,41 L46.6475,45 L72.6475,45 L72.6475,41 L46.6475,41 Z M44.6475,51 C44.6475,50.4477 45.0952,50 45.6475,50 L73.6475,50 C74.1998,50 74.6475,50.4477 74.6475,51 L74.6475,68 C74.6475,68.5523 74.1998,69 73.6475,69 L45.6475,69 C45.0952,69 44.6475,68.5523 44.6475,68 L44.6475,51 Z M46.6475,52 L46.6475,67 L72.6475,67 L72.6475,52 L46.6475,52 Z" />
    </g>
</svg>