<svg xmlns="http://www.w3.org/2000/svg" width="128" height="128" viewBox="0 0 128 128">
  <g fill="none" fill-rule="evenodd">
    <path class="background" fill-rule="nonzero" d="M77,34 L77,45 L91,45 L96,50 L96,91 C96,93.209139 94.209139,95 92,95 L79,95 C77.3431458,95 76,93.6568542 76,92 L76,71.72 C76,69.6655007 74.3301431,68 72.2702703,68 L53,68 C51.3431458,68 50,66.6568542 50,65 L50,38 C50,35.790861 51.790861,34 54,34 L77,34 Z M39,78 C39,76.3431458 40.3431458,75 42,75 L71.0571429,75 C72.1301532,75 73,75.8564987 73,76.9130435 L73,93 C73,94.0565447 68.0730104,97 67,97 L40.9428571,97 C39.8698468,97 39,96.1435013 39,95.0869565 L39,78 Z M64,82 C65.6568542,82 67,80.6568542 67,79 C67,77.3431458 65.6568542,76 64,76 C62.3431458,76 61,77.3431458 61,79 C61,80.6568542 62.3431458,82 64,82 Z"/>
    <path class="foreground" d="M75.944045,29 C76.2095375,28.9831611 76.4858925,29.071679 76.7071068,29.2928932 L92.7071068,45.2928932 C92.928321,45.5141075 93.0168389,45.7904625 93,46.055955 L93,87 C93,89.7614237 90.7614237,92 88,92 L78.9780273,92 C78.4257426,92 77.9780273,91.5522847 77.9780273,91 C77.9780273,90.4477153 78.4257426,90 78.9780273,90 L88,90 C89.6568542,90 91,88.6568542 91,87 L91,47 L80,47 C77.2385763,47 75,44.7614237 75,42 L75,31 L50,31 C48.3431458,31 47,32.3431458 47,34 L47,67.8344727 C47,68.3867574 46.5522847,68.8344727 46,68.8344727 C45.4477153,68.8344727 45,68.3867574 45,67.8344727 L45,34 C45,31.2385763 47.2385763,29 50,29 L75.944045,29 Z M89.5857864,45 L77,32.4142136 L77,42 C77,43.6568542 78.3431458,45 80,45 L89.5857864,45 L89.5857864,45 Z M54,47 C53.4477153,47 53,46.5522847 53,46 C53,45.4477153 53.4477153,45 54,45 L62,45 C62.5522847,45 63,45.4477153 63,46 C63,46.5522847 62.5522847,47 62,47 L54,47 Z M79,81.5 C78.4477153,81.5 78,81.0522847 78,80.5 C78,79.9477153 78.4477153,79.5 79,79.5 L84,79.5 C84.5522847,79.5 85,79.9477153 85,80.5 C85,81.0522847 84.5522847,81.5 84,81.5 L79,81.5 Z M54,59 C53.4477153,59 53,58.5522847 53,58 C53,57.4477153 53.4477153,57 54,57 L84,57 C84.5522847,57 85,57.4477153 85,58 C85,58.5522847 84.5522847,59 84,59 L54,59 Z M54,65 C53.4477153,65 53,64.5522847 53,64 C53,63.4477153 53.4477153,63 54,63 L84,63 C84.5522847,63 85,63.4477153 85,64 C85,64.5522847 84.5522847,65 84,65 L54,65 Z M54,41 C53.4477153,41 53,40.5522847 53,40 C53,39.4477153 53.4477153,39 54,39 L70,39 C70.5522847,39 71,39.4477153 71,40 C71,40.5522847 70.5522847,41 70,41 L54,41 Z M38,72 C36.8954305,72 36,72.8954305 36,74 L36,93 C36,94.1045695 36.8954305,95 38,95 L69,95 C70.1045695,95 71,94.1045695 71,93 L71,74 C71,72.8954305 70.1045695,72 69,72 L38,72 Z M38,70 L69,70 C71.209139,70 73,71.790861 73,74 L73,93 C73,95.209139 71.209139,97 69,97 L38,97 C35.790861,97 34,95.209139 34,93 L34,74 C34,71.790861 35.790861,70 38,70 Z M64,84 C61.2385763,84 59,81.7614237 59,79 C59,76.2385763 61.2385763,74 64,74 C66.7614237,74 69,76.2385763 69,79 C69,81.7614237 66.7614237,84 64,84 Z M64,82 C65.6568542,82 67,80.6568542 67,79 C67,77.3431458 65.6568542,76 64,76 C62.3431458,76 61,77.3431458 61,79 C61,80.6568542 62.3431458,82 64,82 Z M39.5799095,87.8435814 C39.1893852,88.2341057 38.5562202,88.2341057 38.165696,87.8435814 C37.7751717,87.4530571 37.7751717,86.8198921 38.165696,86.4293678 L45.6832741,78.9117897 C46.0737984,78.5212654 46.7069633,78.5212654 47.0974876,78.9117897 L52.9512609,84.765563 L55.2928932,82.4239307 C55.6834175,82.0334064 56.3165825,82.0334064 56.7071068,82.4239307 L65.0352318,90.7520557 C65.4257561,91.14258 65.4257561,91.775745 65.0352318,92.1662692 C64.6447075,92.5567935 64.0115425,92.5567935 63.6210182,92.1662692 L56,84.545251 L53.6583677,86.8868833 C53.2678434,87.2774076 52.6346784,87.2774076 52.2441541,86.8868833 L46.3903809,81.03311 L39.5799095,87.8435814 Z"/>
  </g>
</svg>
