<svg xmlns="http://www.w3.org/2000/svg" width="128" height="128" viewBox="0 0 128 128">
  <g fill="none" fill-rule="evenodd">
    <path class="background" fill="#FFEAE3" fill-rule="nonzero" d="M86.2889647,107 L51.5989417,107 L51.5989417,103.402685 L65.9840728,103.402685 L65.9840728,78.8179701 L40,40 L68.1911263,40 L96,40 L70.3981797,78.8179701 L70.3981797,103.402685 L86.2889647,103.402685 L86.2889647,107 Z M62,50 C64.209139,50 66,48.209139 66,46 C66,43.790861 64.209139,42 62,42 C59.790861,42 58,43.790861 58,46 C58,48.209139 59.790861,50 62,50 Z"/>
    <path class="foreground" fill="#F76B1C" d="M30.1199509,36 L38.7168969,36 C39.2691817,36 39.7168969,36.4477153 39.7168969,37 C39.7168969,37.5522847 39.2691817,38 38.7168969,38 L33.8655671,38 L40.5870703,48.0407071 C46.5113528,52.7445259 57.1914583,54.9622262 70.6537769,54.9995159 L82.1127098,38 L55.7513797,38 C55.1990949,38 54.7513797,37.5522847 54.7513797,37 C54.7513797,36.4477153 55.1990949,36 55.7513797,36 L83.992759,36 L85.8728081,36 L58.992759,75.876996 L58.992759,99 L74.13069,99 C74.6829748,99 75.13069,99.4477153 75.13069,100 C75.13069,100.552285 74.6829748,101 74.13069,101 L56.992759,101 L56.992759,75.2658612 L69.3128773,56.9887626 C58.5793484,56.8444069 49.6140113,55.3042603 43.3174115,52.1193417 L54.3409911,68.5865709 C54.6482195,69.0455144 54.5252301,69.6666195 54.0662866,69.9738479 C53.6073431,70.2810763 52.986238,70.1580869 52.6790096,69.6991434 L30.1199509,36 Z M46.5,42 C44.0147186,42 42,39.9852814 42,37.5 C42,35.0147186 44.0147186,33 46.5,33 C48.9852814,33 51,35.0147186 51,37.5 C51,39.9852814 48.9852814,42 46.5,42 Z M46.5,40 C47.8807119,40 49,38.8807119 49,37.5 C49,36.1192881 47.8807119,35 46.5,35 C45.1192881,35 44,36.1192881 44,37.5 C44,38.8807119 45.1192881,40 46.5,40 Z M61,49 C58.790861,49 57,47.209139 57,45 C57,42.790861 58.790861,41 61,41 C63.209139,41 65,42.790861 65,45 C65,47.209139 63.209139,49 61,49 Z M61,47 C62.1045695,47 63,46.1045695 63,45 C63,43.8954305 62.1045695,43 61,43 C59.8954305,43 59,43.8954305 59,45 C59,46.1045695 59.8954305,47 61,47 Z M55.5,32 C52.4624339,32 50,29.5375661 50,26.5 C50,23.4624339 52.4624339,21 55.5,21 C58.5375661,21 61,23.4624339 61,26.5 C61,29.5375661 58.5375661,32 55.5,32 Z M55.5,30 C57.4329966,30 59,28.4329966 59,26.5 C59,24.5670034 57.4329966,23 55.5,23 C53.5670034,23 52,24.5670034 52,26.5 C52,28.4329966 53.5670034,30 55.5,30 Z M52,99.5 C52.5522847,99.5 53,99.9477153 53,100.5 C53,101.052285 52.5522847,101.5 52,101.5 L39,101.5 C38.4477153,101.5 38,101.052285 38,100.5 C38,99.9477153 38.4477153,99.5 39,99.5 L52,99.5 Z"/>
  </g>
</svg>
