<svg xmlns="http://www.w3.org/2000/svg" width="128" height="128" viewBox="0 0 128 128">
  <g fill="none" fill-rule="evenodd">
    <path class="background" fill-rule="nonzero" d="M57.2866966,67.436736 L50.8517172,67.436736 L52.1595926,60.3943188 L57.2866966,60.0420697 L57.2866966,67.436736 L50.8517172,67.436736 L50.4120538,69.8041579 C50.3955521,69.8913652 50.3724495,69.9768625 50.3443964,70.06065 C49.433498,72.7093581 46.4796788,74.2021421 43.8740473,73.2514114 C42.5935089,72.7794659 41.5703983,71.8218955 40.9878855,70.5548246 C40.5365814,69.570298 40.3934104,68.489546 40.5642794,67.436736 L34.7485616,67.436736 L40.5642794,67.436736 C40.6070841,67.1729949 40.6695967,66.9110073 40.7519101,66.6527253 L43.4714039,53.8452212 C43.4862555,53.7734035 43.5060576,53.7032956 43.5291601,53.6348977 C44.2073834,51.6599087 45.9499717,50.293661 47.9681397,50.1517353 L58.8246627,49.1411566 C58.882419,49.1360268 58.938525,49.1343168 58.9962812,49.1343168 L73.3643836,49.3036016 L85.7390706,50.1517353 C87.7588889,50.293661 89.5014772,51.6599087 90.1797004,53.6348977 C90.202803,53.7032956 90.222605,53.7734035 90.2374567,53.8452212 L92.9586008,66.6527253 C93.04141,66.9124568 93.1034448,67.1744569 93.1456192,67.436736 L100.298044,67.436736 L93.1456192,67.436736 C93.5413083,69.8974933 92.1887774,72.3828177 89.8430642,73.2497013 C87.2357824,74.198722 84.2786629,72.712778 83.3661144,70.0606498 C83.3380613,69.9768624 83.3149589,69.8913651 83.298457,69.8041577 L82.8587937,67.436736 L74.1845223,67.436736 L74.1845223,59.8881743 L81.5509182,60.3943186 L82.8587937,67.436736 L74.1845223,67.436736 L74.1845223,72.5178439 C75.2934421,73.5130332 77.606992,75.7787131 82.8248559,81.1017786 C83.7869098,82.1072277 84.3083662,83.4204671 84.3083662,84.8157839 L84.3083662,99.7470425 C84.3083662,102.643693 82.0344204,105 79.2390185,105 C76.4436164,105 74.1696708,102.643693 74.1696708,99.7470424 L74.1696708,86.980577 L67.8197847,80.3459821 C67.8065833,80.3323025 67.7933819,80.3169129 67.7785302,80.3032333 L63.6926887,80.3032333 C63.6794873,80.3169129 63.6662858,80.3305925 63.6530844,80.344272 L57.3015481,86.980577 L57.3015481,99.7470424 C57.3015481,102.643693 55.0276025,105 52.2322004,105 C49.4367983,105 47.1628527,102.643693 47.1628527,99.7470424 L47.1628527,84.8157839 C47.1628527,83.4204671 47.6843091,82.1072277 48.6331616,81.1171682 C53.8592762,75.7821331 56.1761266,73.5130333 57.2866966,72.516134 L57.2866966,67.436736 Z M26.2761795,58.6723602 L31.6271577,58.6723602 C32.6130475,58.6723602 33.410817,59.4589403 33.410817,60.4310022 L33.410817,74.6272276 C33.410817,75.5992895 32.6130475,76.3858696 31.6271577,76.3858696 L26.2761795,76.3858696 C24.3096253,76.3858696 22.7088608,74.8075571 22.7088608,72.8685856 L22.7088608,62.1896442 C22.7088608,60.2506727 24.3096253,58.6723602 26.2761795,58.6723602 Z M107.432681,76.3858696 L102.081703,76.3858696 C101.095813,76.3858696 100.298044,75.5992895 100.298044,74.6272276 L100.298044,60.4310022 C100.298044,59.4589403 101.095813,58.6723602 102.081703,58.6723602 L107.432681,58.6723602 C109.399235,58.6723602 111,60.2506727 111,62.1896442 L111,72.8685856 C111,74.8075571 109.399235,76.3858696 107.432681,76.3858696 Z M65.5166858,45.0465839 C61.0911553,45.0465839 57.4902186,41.3788016 57.4902186,36.871118 C57.4902186,32.3634345 61.0911553,28.6956522 65.5166858,28.6956522 C69.9422164,28.6956522 73.543153,32.3634345 73.543153,36.871118 C73.543153,41.3788016 69.9422164,45.0465839 65.5166858,45.0465839 Z"/>
    <path class="foreground" d="M46.428316,66.08891 C45.1851698,69.020572 41.8133669,70.5865023 38.8193727,69.4940623 C37.288844,68.9299823 36.0636605,67.7847531 35.3699819,66.275875 C35.3415602,66.2138728 35.3141694,66.1515411 35.2878088,66.0889101 L27.4177215,66.08891 C26.8654368,66.08891 26.4177215,65.6411947 26.4177215,65.08891 C26.4177215,64.5366252 26.8654368,64.08891 27.4177215,64.08891 L34.8002162,64.08891 C34.7370005,63.2895377 34.8256254,62.4916179 35.0648578,61.7493679 L37.7832633,48.9470572 C37.8060925,48.8366629 37.8361314,48.7280495 37.8745128,48.6144566 C38.6816596,46.2640421 40.7659108,44.6289571 43.1665947,44.4603876 L54.027331,43.4494257 C54.1131855,43.4418002 54.1967013,43.4386646 54.2992016,43.438734 L68.7239003,43.6102899 L81.1003036,44.4585428 C83.5248974,44.6289106 85.6093745,46.2637363 86.4182553,48.6192399 C86.4550076,48.7280495 86.4850466,48.8366629 86.5067618,48.9417432 L89.2024882,61.6533119 C89.4600393,62.4611218 89.5481719,63.2870137 89.4862159,64.08891 L97.9977502,64.08891 C98.5500349,64.08891 98.9977502,64.5366252 98.9977502,65.08891 C98.9977502,65.6411947 98.5500349,66.08891 97.9977502,66.08891 L89.0009766,66.08891 C88.3553809,67.6208703 87.120646,68.8860346 85.4762387,69.4937363 C82.484302,70.582767 79.113833,69.023799 77.8651277,66.08891 L70.4756615,66.08891 L70.4756615,67.3807404 C71.8474325,68.6483982 74.4177573,71.2047924 78.8385221,75.7147837 C79.9772347,76.90486 80.5995055,78.4651388 80.5995055,80.1201318 L80.5995055,95.0513904 C80.5995055,98.4925211 77.8859621,101.304348 74.5301578,101.304348 C71.1743532,101.304348 68.46081,98.4925211 68.46081,95.0513902 L68.46081,82.686353 L62.642906,76.6075811 L59.4106158,76.6075811 L53.5926874,82.6863541 L53.5926874,95.0513902 C53.5926874,98.4925211 50.8791442,101.304348 47.5233396,101.304348 C44.1675351,101.304348 41.4539919,98.4925211 41.4539919,95.0513902 L41.4539919,80.1201318 C41.4539919,78.4677507 42.0744807,76.9064224 43.2099394,75.7217391 C47.6248507,71.214814 50.201268,68.651362 51.5778359,67.3790834 L51.5778359,66.08891 L46.428316,66.08891 Z M46.9096398,64.08891 L51.5778359,64.08891 L51.5778359,56.4174781 L48.2924175,56.6431973 L46.9096398,64.08891 Z M70.4756615,64.08891 L77.3831444,64.08891 L76.0003704,56.643192 L70.4756615,56.2635898 L70.4756615,64.08891 Z M68.4756615,65.3556325 C68.4522204,65.2707201 68.4396973,65.1812775 68.4396973,65.08891 C68.4396973,64.9965424 68.4522204,64.9070998 68.4756615,64.8221874 L68.4756615,54.1214545 L77.6837445,54.754141 L77.8252462,55.5160745 L79.5721599,64.9225788 C79.5794263,64.9609794 79.5904423,65.0024885 79.6028438,65.0396375 C80.3398644,67.181631 82.7287428,68.3654252 84.7875569,67.6160533 C86.8720919,66.8456909 87.997446,64.4578114 87.2715742,62.1648989 L84.5493161,49.3520808 C84.5436645,49.3247513 84.5351533,49.2939769 84.5250531,49.2640344 C83.9760648,47.6653782 82.5757744,46.5671503 80.9618325,46.4537427 L68.6437417,45.60788 L54.2874205,45.4386646 C54.252067,45.4386646 54.2261983,45.4396358 54.2084862,45.4412 L43.3294297,46.4536196 C41.7151848,46.5671397 40.3150077,47.6655719 39.767715,49.2592511 C39.7559858,49.2939769 39.7474746,49.3247513 39.7407346,49.3572742 L36.9958335,62.2607214 C36.6601585,63.3139987 36.7279527,64.4387224 37.1876077,65.4414679 C37.6604038,66.4698851 38.4826195,67.2384438 39.5079574,67.6163401 C41.566459,68.3674366 43.9534699,67.1811597 44.687274,65.047508 C44.7023473,65.0024879 44.7133631,64.9609795 44.7200043,64.9259138 L46.6090458,54.754136 L53.5778359,54.2753568 L53.5778359,68.2666245 L53.2458324,68.5646462 C52.0143802,69.670055 49.4059175,72.2546805 44.6462724,77.1134387 C43.8771662,77.9159459 43.4539919,78.9807742 43.4539919,80.1201318 L43.4539919,95.0513902 C43.4539919,97.4035603 45.28834,99.3043478 47.5233396,99.3043478 C49.7583393,99.3043478 51.5926874,97.4035603 51.5926874,95.0513902 L51.5926874,81.8834955 L51.8702503,81.5934881 L58.2246529,74.9542007 L58.5591569,74.6075811 L63.4600314,74.6075811 L63.7471562,74.8720461 C63.795169,74.918126 63.795169,74.918126 63.820758,74.9453401 C63.8362858,74.9620172 63.8362858,74.9620172 63.8333617,74.9588939 L70.46081,81.8834961 L70.46081,95.0513902 C70.46081,97.4035603 72.2951581,99.3043478 74.5301578,99.3043478 C76.7651572,99.3043478 78.5995055,97.4035603 78.5995055,95.0513904 L78.5995055,80.1201318 C78.5995055,78.9787491 78.1749367,77.9141872 77.4018668,77.1061413 C72.6350281,72.2431944 70.033928,69.6668539 68.80775,68.5664324 L68.4756615,68.2684028 L68.4756615,65.3556325 L68.4756615,65.3556325 Z M60.8078251,39.3509317 C64.6769121,39.3509317 67.8342923,36.1349397 67.8342923,32.1754658 C67.8342923,28.215992 64.6769121,25 60.8078251,25 C56.9387381,25 53.7813579,28.215992 53.7813579,32.1754658 C53.7813579,36.1349397 56.9387381,39.3509317 60.8078251,39.3509317 Z M60.8078251,41.3509317 C55.8258509,41.3509317 51.7813579,37.231359 51.7813579,32.1754658 C51.7813579,27.1195726 55.8258509,23 60.8078251,23 C65.7897993,23 69.8342923,27.1195726 69.8342923,32.1754658 C69.8342923,37.231359 65.7897993,41.3509317 60.8078251,41.3509317 Z M98.0506329,56.6956522 C97.4983482,56.6956522 97.0506329,56.2479369 97.0506329,55.6956522 C97.0506329,55.1433674 97.4983482,54.6956522 98.0506329,54.6956522 L103.401611,54.6956522 C105.931952,54.6956522 107.96893,56.8371607 107.96893,59.4460343 L107.96893,70.8326924 C107.96893,73.4415661 105.931952,75.5830745 103.401611,75.5830745 L98.0506329,75.5830745 C97.4983482,75.5830745 97.0506329,75.1353593 97.0506329,74.5830745 C97.0506329,74.0307898 97.4983482,73.5830745 98.0506329,73.5830745 L103.401611,73.5830745 C104.804378,73.5830745 105.96893,72.3587617 105.96893,70.8326924 L105.96893,59.4460343 C105.96893,57.919965 104.804378,56.6956522 103.401611,56.6956522 L98.0506329,56.6956522 Z M26.9182969,73.5830745 C27.4705816,73.5830745 27.9182969,74.0307898 27.9182969,74.5830745 C27.9182969,75.1353593 27.4705816,75.5830745 26.9182969,75.5830745 L21.5673188,75.5830745 C19.0369773,75.5830745 17,73.4415661 17,70.8326924 L17,59.4460343 C17,56.8371607 19.0369773,54.6956522 21.5673188,54.6956522 L26.9182969,54.6956522 C27.4705816,54.6956522 27.9182969,55.1433674 27.9182969,55.6956522 C27.9182969,56.2479369 27.4705816,56.6956522 26.9182969,56.6956522 L21.5673188,56.6956522 C20.1645518,56.6956522 19,57.919965 19,59.4460343 L19,70.8326924 C19,72.3587617 20.1645518,73.5830745 21.5673188,73.5830745 L26.9182969,73.5830745 Z"/>
  </g>
</svg>
