<svg xmlns="http://www.w3.org/2000/svg" width="128" height="128" viewBox="0 0 128 128">
  <g fill="none" fill-rule="evenodd">
    <path class="background" fill="#FFEAE3" fill-rule="nonzero" d="M47.9598743,56.185324 C47.3376122,58.0093876 47,59.965267 47,62 C47,71.9411255 55.0588745,80 65,80 C74.9411255,80 83,71.9411255 83,62 C83,52.68186 75.9195356,45.0174511 66.8452604,44.0934267 C67.55507,44.0315843 68.2737681,44 69,44 C82.254834,44 93,54.5213084 93,67.5 C93,80.4786916 82.254834,91 69,91 C55.745166,91 45,80.4786916 45,67.5 C45,63.3981294 46.0732854,59.5417155 47.9598743,56.185324 L47.9598743,56.185324 Z M65,78 C56.163444,78 49,70.836556 49,62 C49,53.163444 56.163444,46 65,46 C73.836556,46 81,53.163444 81,62 C81,70.836556 73.836556,78 65,78 Z"/>
    <path class="foreground" fill="#F76B1C" d="M64,85 C50.1975386,85 39,74.0357434 39,60.5 C39,46.9642566 50.1975386,36 64,36 C77.8024614,36 89,46.9642566 89,60.5 C89,74.0357434 77.8024614,85 64,85 Z M64,83 C76.7072066,83 87,72.9216398 87,60.5 C87,48.0783602 76.7072066,38 64,38 C51.2927934,38 41,48.0783602 41,60.5 C41,72.9216398 51.2927934,83 64,83 Z M64,79 C54.0588745,79 46,70.9411255 46,61 C46,51.0588745 54.0588745,43 64,43 C73.9411255,43 82,51.0588745 82,61 C82,70.9411255 73.9411255,79 64,79 Z M64,77 C72.836556,77 80,69.836556 80,61 C80,52.163444 72.836556,45 64,45 C55.163444,45 48,52.163444 48,61 C48,69.836556 55.163444,77 64,77 Z M97,45.0327869 L97,65.9016393 L99.75,65.9016393 L99.75,67.9016393 L95,67.9016393 L95,45.0327869 C95,41.1499022 98.1327832,38 102,38 L103,38 L103,85 C103,85.5522847 102.552285,86 102,86 C101.447715,86 101,85.5522847 101,85 L101,40.1006962 C98.7185232,40.5669251 97,42.5970259 97,45.0327869 Z M31.5,54 C31.5,54.5522847 31.0522847,55 30.5,55 C29.9477153,55 29.5,54.5522847 29.5,54 L29.5,41 C29.5,40.4477153 29.9477153,40 30.5,40 C31.0522847,40 31.5,40.4477153 31.5,41 L31.5,54 Z M33,41 C33,40.4477153 33.4477153,40 34,40 C34.5522847,40 35,40.4477153 35,41 L35,56.1663759 C35,57.5471409 33.9106307,58.6830135 32.5454545,58.6830135 C31.9931698,58.6830135 31.5454545,58.2352983 31.5454545,57.6830135 C31.5454545,57.1307288 31.9931698,56.6830135 32.5454545,56.6830135 C32.7869249,56.6830135 33,56.4608426 33,56.1663759 L33,41 Z M29,58.6830135 L27.4545455,58.6830135 C26.0893693,58.6830135 25,57.5471409 25,56.1663759 L25,41 C25,40.4477153 25.4477153,40 26,40 C26.5522847,40 27,40.4477153 27,41 L27,56.1663759 C27,56.4608426 27.2130751,56.6830135 27.4545455,56.6830135 L31,56.6830135 L31,86 C31,86.5522847 30.5522847,87 30,87 C29.4477153,87 29,86.5522847 29,86 L29,58.6830135 Z"/>
  </g>
</svg>
