<svg xmlns="http://www.w3.org/2000/svg" width="128" height="128" viewBox="0 0 128 128">
  <g fill="none" fill-rule="evenodd">
    <path class="background" fill="#FFEAE3" fill-rule="nonzero" d="M58.0986588,56.9064396 C58,65 55.6917884,68.4588395 50.0441358,76.097986 C49.1316816,77.3140682 48.0148062,78.9354158 47.2911224,80.8374712 C45.7179718,84.9532147 43.3739929,95.3207433 55.503018,102.476692 C55.7075353,102.616951 60.6629019,105.875347 67.8050667,106 L68.1983543,106 C75.3404231,105.875347 80.2957897,102.616951 80.4374156,102.523413 C92.6293322,95.3207431 90.2853532,84.9532145 88.7122027,80.8374711 C87.9885188,78.9354158 86.8716435,77.2984627 85.9749362,76.0979858 C83.1432844,72.2784601 81.1296056,67.5077641 79.8238638,63.7038439 C78.5182179,59.8842231 77.9204131,57.0311878 77.9204131,57.0311878 C77.1809825,51.0289944 73.5470086,48.4877823 71.4390406,47.4899861 C70.9830535,47.2793127 58.2586395,43.7822869 58.0986588,56.9064396 Z M75.7543765,38.7749685 C75.7543765,41.703652 81.9424156,49.7254172 88.2898438,49.8408403 L89.9259818,49.871956 L89.8944882,48.2506083 C89.778787,42.0041519 84.9696551,36.7444538 78.868704,35.8462849 C76.7924857,35.8462849 75.7543765,36.8225127 75.7543765,38.7749685 Z M65.0980705,33.5429096 C60.1583548,28.8190301 52.1195785,28.8190301 47.1798629,33.5429096 L46,34.6653591 L47.1798629,35.7879037 C49.6497207,38.1576463 52.890407,39.3424225 56.1310932,39.3424225 C58.5041655,39.3424225 60.8826146,38.7003159 62.9575526,37.4296147 C64.3408447,36.5824806 65.0543506,35.2869122 65.0980705,33.5429096 Z"/>
    <path class="foreround" fill="#F76B1C" d="M50.1065318,48.7812039 C50.1756976,48.2332672 50.6759579,47.8451468 51.2238945,47.9143125 C51.7718311,47.9834783 52.1599516,48.4837386 52.0907858,49.0316753 C52.0022963,49.732696 51.1379326,53.0520718 50.1298033,56.0071891 C48.471948,60.8668404 46.3923579,65.2512412 43.8440118,68.6981513 C42.6379757,70.3055075 41.8009489,71.6813063 41.2252133,73.1945065 C40.1416239,76.0294393 39.6644425,79.1844012 40.2423608,82.3366764 C41.041311,86.694577 43.7880486,90.5338589 49.0685962,93.6519975 C49.6347927,94.0402969 50.8482731,94.6965556 52.4181706,95.3134835 C54.986427,96.3227397 57.8154204,96.947669 60.8050667,97 L61.1809036,97.0001523 C64.1848924,96.9477225 67.0117191,96.3242518 69.5783358,95.3189192 C70.483812,94.964248 71.2932053,94.585828 71.9960123,94.2078513 C72.2440935,94.0744307 72.4615943,93.9502319 72.6474014,93.8381879 C72.7612869,93.7695136 72.837349,93.7213143 72.9287724,93.6624359 C78.1811863,90.5594451 80.9456919,86.7062187 81.7533998,82.3409043 C82.3373505,79.1849014 81.86247,76.0314506 80.7775665,73.1930765 C80.2011832,71.6781707 79.353731,70.2761137 78.1716178,68.6935357 C75.6256451,65.2593535 73.5455401,60.886328 71.8776189,56.027295 C71.2981483,54.3320744 70.8120052,52.6998912 70.4153093,51.1891285 C70.2761636,50.659211 70.1580302,50.1817912 70.0604515,49.7641936 C70.0013363,49.5112043 69.9618912,49.3327835 69.9279161,49.1534568 C69.3640257,44.5761789 67.0778484,41.8454233 64.0112046,40.3938424 C63.5120186,40.1575551 63.298897,39.5613362 63.5351843,39.0621501 C63.7714716,38.562964 64.3676905,38.3498424 64.8668766,38.5861297 C68.5115111,40.3112996 71.2578665,43.5917212 71.8991585,48.8261084 C71.9162979,48.9079067 71.952438,49.0713775 72.0079902,49.3091186 C72.1015238,49.7094051 72.2153041,50.1692326 72.3497332,50.6811876 C72.7346796,52.1472035 73.2071391,53.7334452 73.7696921,55.3791768 C75.3762791,60.0595268 77.3740765,64.2595162 79.776104,67.4995461 C81.0574788,69.2150008 81.9923622,70.7617073 82.6462936,72.4804358 C83.8512703,75.6329473 84.3794924,79.1406139 83.7200189,82.704785 C82.8054228,87.6477844 79.6888896,91.9916742 73.9885223,95.357848 C73.2401855,95.8520909 72.0051913,96.5162834 70.3077664,97.1811573 C67.5314606,98.2686242 64.4739076,98.9429828 61.1983543,99 L60.7876162,98.9998477 C57.5258461,98.9429196 54.4653175,98.2668439 51.6866785,97.1749129 C50.6979681,96.786376 49.809178,96.3690722 49.0314285,95.9484597 C48.5326392,95.678711 48.135963,95.4375347 47.9948784,95.3379669 C42.2793691,91.9658993 39.1802079,87.6340135 38.2751478,82.6973329 C37.6226045,79.138013 38.1531859,75.6299879 39.3564862,72.4818658 C40.0108842,70.7619142 40.9357086,69.2418049 42.2400264,67.5035046 C44.6426576,64.2536497 46.6397813,60.0431129 48.2369205,55.3614379 C49.2050283,52.5236351 50.0378299,49.3254661 50.1065318,48.7812039 Z M81.8946597,40.2691278 C81.7890807,34.5691468 77.3982335,29.6711088 71.723056,28.8356214 C71.1766605,28.7551822 70.7989283,28.2470324 70.8793675,27.7006369 C70.9598066,27.1542415 71.4679565,26.7765093 72.0143519,26.8569484 C78.649454,27.8337539 83.7704781,33.5463121 83.8942996,40.2311876 L83.9459752,42.8915349 L82.9069675,42.8717752 L81.2716626,42.840675 C74.4832854,42.7172336 68.700171,37.5705487 67.7641201,30.9142241 C67.6872113,30.3673205 68.0682174,29.8616207 68.6151209,29.784712 C69.1620245,29.7078032 69.6677243,30.0888093 69.744633,30.6357129 C70.5440781,36.3206233 75.5048673,40.7354797 81.3088581,40.8410211 L81.9059888,40.8523772 L81.8946597,40.2691278 Z M40.4507966,26.6653937 L40.8721939,27.0663236 C43.0870902,29.1914395 46.0480134,30.3424225 49.1310932,30.3424225 C51.3537315,30.3424225 53.5457106,29.7340168 55.4352998,28.576824 C55.9062831,28.2883917 56.5219111,28.4363786 56.8103434,28.9073619 C57.0987756,29.3783452 56.9507888,29.9939732 56.4798054,30.2824054 C54.2734414,31.6335925 51.7196512,32.3424225 49.1310932,32.3424225 C45.5399713,32.3424225 42.0810175,30.9978429 39.4905731,28.5123894 L37.5491992,26.6653284 L38.3107408,25.9408442 L39.4887217,24.8201898 C44.8150364,19.7266034 53.4628969,19.7266034 58.7921997,24.8230591 L59.2404093,25.2552536 C59.6379717,25.6386106 59.6494875,26.2716708 59.2661305,26.6692333 C58.8827735,27.0667957 58.2497133,27.0783115 57.8521509,26.6949545 L57.4069293,26.2656293 C52.8538127,21.9114569 45.4241207,21.9114569 40.8691221,26.2674244 L40.4507966,26.6653937 Z M59.0426787,45.4007807 C59.0340403,45.9529979 58.579377,46.3936556 58.0271598,46.3850172 C57.4749427,46.3763789 57.034285,45.9217156 57.0429233,45.3694984 C57.2588419,31.5666539 61.8570422,23.3532285 70.8856786,21.0315089 C71.4205614,20.8939634 71.9656723,21.216069 72.1032178,21.7509519 C72.2407632,22.2858348 71.9186576,22.8309456 71.3837748,22.9684911 C63.3757314,25.0277646 59.2459812,32.4044322 59.0426787,45.4007807 Z"/>
  </g>
</svg>
