<svg xmlns="http://www.w3.org/2000/svg" width="128" height="128" viewBox="0 0 128 128">
  <g fill="none" fill-rule="evenodd">
    <path class="background" fill-rule="nonzero" d="M41.0631169,80.6798364 L56.3335279,65.4094255 L62.7350854,69.25036 C63.1285612,69.4864455 63.6322196,69.4244423 63.956688,69.0999739 L81.6690476,51.3876143 L81.6690476,64.6568542 C81.6690476,65.209139 82.1167628,65.6568542 82.6690476,65.6568542 C83.2213323,65.6568542 83.6690476,65.209139 83.6690476,64.6568542 L83.6690476,48.6568542 C83.6690476,48.1045695 83.2213323,47.6568542 82.6690476,47.6568542 L66.6690476,47.6568542 C66.1167628,47.6568542 65.6690476,48.1045695 65.6690476,48.6568542 C65.6690476,49.209139 66.1167628,49.6568542 66.6690476,49.6568542 L80.5713805,49.6568542 L63.0945667,67.133668 L56.6930091,63.2927335 C56.2995334,63.056648 55.795875,63.1186512 55.4714066,63.4431196 L40.2086943,78.7058319 C38.7829962,75.0802961 38,71.1315873 38,67 C38,49.326888 52.326888,35 70,35 C87.673112,35 102,49.326888 102,67 C102,84.673112 87.673112,99 70,99 C57.2212072,99 46.1918929,91.5095922 41.0631169,80.6798364 Z"/>
    <path class="foreground" d="M40.0300932,86.681459 C39.6504328,86.2803651 39.667808,85.6474385 40.0689019,85.2677781 C40.4699959,84.8881176 41.1029224,84.9054928 41.4825829,85.3065868 C47.3016001,91.4541122 55.3663181,95 64,95 C81.1208272,95 95,81.1208272 95,64 C95,46.8791728 81.1208272,33 64,33 C46.8791728,33 33,46.8791728 33,64 C33,66.1814505 33.2251666,68.3331764 33.6678532,70.4316529 C33.9556928,71.7961048 34.3944297,73.3340456 35.0657659,75.0645275 C35.2655183,75.5794231 35.0100443,76.1587597 34.4951488,76.3585121 C33.9802532,76.5582646 33.4009166,76.3027906 33.2011642,75.7878951 C32.4876978,73.9488152 32.0198009,72.3086574 31.7109234,70.8444794 C31.239644,68.6104638 31,66.32039 31,64 C31,45.7746033 45.7746033,31 64,31 C82.2253967,31 97,45.7746033 97,64 C97,82.2253967 82.2253967,97 64,97 C54.811083,97 46.2230289,93.2240123 40.0300932,86.681459 Z M79.5713805,48.6568542 L65.6690476,48.6568542 C65.1167628,48.6568542 64.6690476,48.209139 64.6690476,47.6568542 C64.6690476,47.1045695 65.1167628,46.6568542 65.6690476,46.6568542 L81.6690476,46.6568542 C82.2213323,46.6568542 82.6690476,47.1045695 82.6690476,47.6568542 L82.6690476,63.6568542 C82.6690476,64.209139 82.2213323,64.6568542 81.6690476,64.6568542 C81.1167628,64.6568542 80.6690476,64.209139 80.6690476,63.6568542 L80.6690476,50.3876143 L62.956688,68.0999739 C62.6322196,68.4244423 62.1285612,68.4864455 61.7350854,68.25036 L55.3335279,64.4094255 L31.0954508,88.6475026 C30.7049265,89.0380268 30.0717615,89.0380268 29.6812372,88.6475026 C29.2907129,88.2569783 29.2907129,87.6238133 29.6812372,87.233289 L54.4714066,62.4431196 C54.795875,62.1186512 55.2995334,62.056648 55.6930091,62.2927335 L62.0945667,66.133668 L79.5713805,48.6568542 Z"/>
  </g>
</svg>
