<svg xmlns="http://www.w3.org/2000/svg" width="128" height="128" viewBox="0 0 128 128">
  <g fill="none" fill-rule="evenodd">
    <path class="background" fill="#FFEAE3" fill-rule="nonzero" d="M46.2195559,33.4565261 C44.3934088,37.5857564 44.1854447,43.4426354 45.6213459,49.3954365 C45.7508506,49.9323229 46.2910673,50.262571 46.8279537,50.1330663 C47.3648401,50.0035615 47.6950882,49.4633448 47.5655835,48.9264585 C45.369782,39.8233467 47.3620379,31.1855149 52.7312131,29.8666466 C58.9394294,28.3416788 65.8769537,35.1345277 67.1925324,44.7471601 C67.2674197,45.2943442 67.7717081,45.6772163 68.3188921,45.6023291 C68.8660761,45.5274418 69.2489483,45.0231534 69.174061,44.4759694 C67.9764328,35.7251747 62.4296173,28.9372664 56.3046902,27.8132576 C56.803083,27.6910781 57.313124,27.5817672 57.8348117,27.4855804 C72.869675,24.7135101 82.789932,34.1177431 84.9866677,47.8517452 C84.8943749,48.6478835 84.8943749,48.6478835 84.6932875,48.7879638 C84.5856891,48.8675327 84.5856891,48.8675327 84.534226,48.8937354 C84.4638478,48.9264359 84.4638478,48.9264359 84.4291917,48.9388909 C84.3737833,48.9576251 84.3737833,48.9576251 84.3272667,48.9711766 C84.2694225,48.9878027 84.1898409,49.0088099 84.0854965,49.0351398 C83.8868525,49.0852649 83.591943,49.1562678 83.1992394,49.248552 C82.678991,49.3708089 75.843689,50.9313545 62.6933334,53.9301888 L67.0271237,77.1109412 L89.8790388,77.1109412 C91.8452285,77.1109412 93.6870996,77.8842096 94.9877365,79.2972021 C96.2882998,80.7101147 97,82.7108685 97,84.846642 C97,86.984329 96.2873358,88.9931196 94.9877376,90.4049837 C93.6895939,91.8152728 91.8498263,92.5823427 89.8790388,92.5823427 L85.3889566,92.5823427 L90.3100925,99.5562926 C90.5877816,99.9498176 90.5191123,100.51328 90.1567153,100.814821 C89.7943183,101.116362 89.275426,101.041795 88.9977369,100.64827 L83.3060523,92.5823427 L54.2240364,92.5823427 C54.157579,92.5823427 54.0929531,92.573827 54.0310338,92.5577457 L48.6100242,100.240088 C48.3323351,100.633613 47.8134428,100.70818 47.4510458,100.406639 C47.0886488,100.105098 47.0199795,99.5416355 47.2976686,99.1481106 L52.7382099,91.4380893 L37.0571946,74.3637481 C34.3142685,71.3838776 34.3142685,66.4673348 37.0571946,63.4874592 C38.3922478,62.0370788 40.1978066,61.2477799 42.0675437,61.2477799 C43.9354519,61.2477799 45.7333906,62.0359043 47.0694824,63.4872259 L59.9978048,77.1109412 L65.3370175,77.1109412 L60.8949405,54.3665715 L41.8239744,59.0091044 L41.5970246,58.2198695 C39.9563214,52.5141988 39.9887965,45.8007509 42.0426776,40.2846931 C43.0190524,37.6624674 44.4114434,35.3682882 46.2195559,33.4565261 L46.2195559,33.4565261 Z"/>
    <path class="foreground" fill="#F76B1C" d="M56.8141294,28.0126944 C61.6616274,30.4431122 65.6705216,36.3662227 66.6672117,43.6488089 C66.742099,44.1959929 66.3592268,44.7002813 65.8120428,44.7751686 C65.2648588,44.8500558 64.7605704,44.4671837 64.6856831,43.9199997 C63.3701043,34.3073672 56.4325801,27.5145183 50.2243638,29.0394861 C44.8551886,30.3583544 42.8629327,38.9961862 45.0587341,48.099298 C45.1882389,48.6361843 44.8579908,49.1764011 44.3211044,49.3059058 C43.784218,49.4354105 43.2440013,49.1051624 43.1144966,48.568276 C41.4167293,41.5298594 42.0170859,34.6255419 44.8731146,30.5524927 C41.1156468,32.4674173 38.5040143,35.3883915 36.9837473,39.1103238 C35.1911834,43.4988959 35.0575896,48.8489671 36.3266871,53.5231231 L55.7485093,49.2132215 L60.6697048,72.1828273 L83.6375613,72.1828273 C85.6653009,72.1828273 87.5676507,72.9108694 88.9142263,74.2444204 C90.2627282,75.5798791 91,77.4692591 91,79.4837261 C91,81.4999039 90.2617975,83.3966986 88.9142276,84.7312343 C87.5700642,86.0624013 85.669841,86.7846249 83.6375613,86.7846249 L79.4445349,86.7846249 L84.2007633,92.9289085 C84.5388289,93.3656351 84.4588485,93.9937282 84.0221219,94.3317939 C83.5853954,94.6698595 82.9573023,94.5898791 82.6192366,94.1531525 L76.9153332,86.7846249 L51.9249553,86.7846249 C51.3726706,86.7846249 50.9249553,86.3369097 50.9249553,85.7846249 C50.9249553,85.2323402 51.3726706,84.7846249 51.9249553,84.7846249 L83.6375613,84.7846249 C85.16085,84.7846249 86.5519166,84.255918 87.506902,83.3101662 C88.4622448,82.3640638 89,80.9823139 89,79.4837261 C89,77.9874161 88.4636835,76.613017 87.506902,75.6654898 C86.5481941,74.716055 85.154888,74.1828273 83.6375613,74.1828273 L60.3356164,74.1828273 C60.2537272,74.1828273 60.1741369,74.1729843 60.0979641,74.1544168 C60.0889507,74.1566078 60.07988,74.1586819 60.0707533,74.1606373 C59.5307238,74.2763376 58.9991497,73.9323508 58.8834494,73.3923213 L54.2149532,51.6021857 L34.9524725,55.8767279 L34.6767883,55.0027838 C33.0062928,49.7071605 33.0393484,43.4779067 35.1322454,38.3540561 C37.6941195,32.0820512 43.064714,27.828494 51.2205427,26.4577134 C66.5118052,23.8876537 76.6180414,32.6210868 78.8506743,45.3488344 C78.7370483,46.2431074 78.7370483,46.2431074 78.4926868,46.3969183 C78.3628392,46.4844535 78.3628392,46.4844535 78.3012577,46.5130138 C78.2175601,46.5484637 78.2175601,46.5484637 78.1774816,46.5615739 C78.1149009,46.5808608 78.1149009,46.5808608 78.0653241,46.5940122 C78.0050034,46.609817 77.9232154,46.6294977 77.8163288,46.6540843 C77.6146052,46.7004858 77.3158293,46.7660592 76.9181674,46.8512459 C76.128881,47.0203259 74.945708,47.2675826 73.3677285,47.5932178 C70.2147897,48.2438651 65.4834494,49.2078761 59.1732476,50.4853471 C58.6319439,50.5949315 58.1042948,50.2449539 57.9947104,49.7036502 C57.885126,49.1623465 58.2351036,48.6346974 58.7764073,48.525113 C65.0843572,47.2480979 69.8135486,46.2845247 72.9635211,45.6344896 C74.5369974,45.3097836 75.715875,45.0634246 76.4992343,44.8956143 C76.576499,44.8790627 76.6498723,44.8632845 76.7193399,44.8482831 C74.6561624,35.0734951 67.5947973,28.182517 56.8141294,28.0126944 L56.8141294,28.0126944 Z M45.8708103,85.5728502 L30.1311915,69.9500426 C27.2896029,67.1359424 27.2896029,62.4906422 30.1311914,59.6765372 C31.5119309,58.3091542 33.3775219,57.5657219 35.3084429,57.5657219 C37.2375622,57.5657219 39.0954399,58.3081119 40.4771489,59.6762787 L51.7356836,70.8177127 C52.128244,71.2061902 52.131554,71.8393465 51.7430766,72.231907 C51.3545991,72.6244675 50.7214428,72.6277774 50.3288823,72.2393 L39.0701323,61.0976527 C38.0679727,60.1053154 36.7176059,59.5657219 35.3084429,59.5657219 C33.8968592,59.5657219 32.5389592,60.1068409 31.5385155,61.0976068 C29.4871616,63.1291203 29.4871616,66.4974629 31.5393214,68.5297719 L48.5346283,85.3989476 L42.0492361,93.7770333 C41.7111705,94.2137598 41.0830773,94.2937403 40.6463508,93.9556746 C40.2096242,93.617609 40.1296438,92.9895158 40.4677094,92.5527893 L45.8708103,85.5728502 Z"/>
  </g>
</svg>
