<svg xmlns="http://www.w3.org/2000/svg" width="128" height="128" viewBox="0 0 128 128">
  <g fill="none" fill-rule="evenodd">
    <path class="background" fill-rule="nonzero" d="M107.423169,96.407487 C107.423169,97.6359957 106.842161,98.6318987 106.125451,98.6318987 L69.8860777,98.6318987 C69.8568113,98.6318987 69.8293375,98.5787517 69.8036563,98.4724578 C69.7133822,98.4890422 69.6212144,98.4976094 69.5275614,98.4976094 L32.0754806,98.4976094 C30.9574102,98.4976094 30.051035,97.2765588 30.051035,95.7703166 L30.051035,56.2708717 L22,56.2779349 C39.7725256,38.4616345 48.6590482,29.5532247 48.6595678,29.5527057 C49.3972701,28.8157709 50.5933149,28.8157639 51.3310086,29.5526901 L77.5427752,55.7371872 C88.261539,46.5387512 93.6210766,41.9393778 93.6213878,41.9390669 C94.1331393,41.4278477 94.9628316,41.4278268 95.4745573,41.9390201 L112.33168,58.7786058 C112.722408,59.1689268 112.722737,59.8020917 112.332416,60.1928192 C112.149228,60.3761985 111.901992,60.4812836 111.642831,60.4859205 L107.423169,60.5614187 L107.423169,96.407487 Z M42.2934783,48.4545455 L32.2065217,48.4545455 L32.2065217,58.5584416 L42.2934783,58.5584416 L42.2934783,48.4545455 Z M81,61 L73,61 L73,71 L81,71 L81,61 Z M42.2934783,74.7922078 L32.2065217,74.7922078 L32.2065217,84.8961039 L42.2934783,84.8961039 L42.2934783,74.7922078 Z M57.4565217,48.4545455 L47.3695652,48.4545455 L47.3695652,58.5584416 L57.4565217,58.5584416 L57.4565217,48.4545455 Z M95.8694042,61.6233766 L85.7824477,61.6233766 L85.7824477,71.7272727 L95.8694042,71.7272727 L95.8694042,61.6233766 Z M57.4565217,74.7922078 L47.3695652,74.7922078 L47.3695652,84.8961039 L57.4565217,84.8961039 L57.4565217,74.7922078 Z M42.2934783,61 L32.2065217,61 L32.2065217,71.1038961 L42.2934783,71.1038961 L42.2934783,61 Z M57.4565217,61 L47.3695652,61 L47.3695652,71.1038961 L57.4565217,71.1038961 L57.4565217,61 Z M94,77 L85,77 L85,92 L94,92 L94,77 Z"/>
    <path class="foreground" d="M83.7608696,90.9997541 L83.7608696,77.726084 C83.7608696,76.7215265 84.1533966,75.8051948 85.1553489,75.8051948 L92.4531857,75.8051948 C93.455138,75.8051948 93.8476651,76.7215265 93.8476651,77.726084 L93.8476651,90.9997541 L97.6168988,90.9997541 C97.548571,90.9997541 97.5775423,90.9776957 97.6591252,90.8308355 C97.8139668,90.5521001 97.9128825,90.1311162 97.9128825,89.6668121 L97.9128825,53.5064935 C97.9128825,52.9542088 98.3605977,52.5064935 98.9128825,52.5064935 C99.4651672,52.5064935 99.9128825,52.9542088 99.9128825,53.5064935 L99.9128825,89.6668121 C99.9128825,91.4340949 99.0431357,92.9997541 97.6168988,92.9997541 L73.6413043,92.9997541 C73.0890196,92.9997541 72.6413043,92.5520389 72.6413043,91.9997541 C72.6413043,91.4474694 73.0890196,90.9997541 73.6413043,90.9997541 L83.7608696,90.9997541 L83.7608696,90.9997541 Z M91.8476651,90.9997541 L91.8476651,77.8051948 L85.7608696,77.8051948 L85.7608696,90.9997541 L91.8476651,90.9997541 Z M21.0869565,52.5710512 C21.0869565,52.0187664 21.5346718,51.5710512 22.0869565,51.5710512 C22.6392413,51.5710512 23.0869565,52.0187664 23.0869565,52.5710512 L23.0869565,89.6054185 C23.0869565,90.4094275 23.5854189,90.9997541 24.1086957,90.9997541 L61.5107085,90.9997541 C62.0339853,90.9997541 62.5324477,90.4094275 62.5324477,89.6054185 L62.5324477,52.4935065 C62.5324477,51.9412217 62.9801629,51.4935065 63.5324477,51.4935065 C64.0847324,51.4935065 64.5324477,51.9412217 64.5324477,52.4935065 L64.5324477,89.6054185 C64.5324477,91.4461195 63.2205832,92.9997541 61.5107085,92.9997541 L24.1086957,92.9997541 C22.398821,92.9997541 21.0869565,91.4461195 21.0869565,89.6054185 L21.0869565,52.5710512 Z M32.1847826,54.5324675 L38.2717391,54.5324675 L38.2717391,48.4285714 L32.1847826,48.4285714 L32.1847826,54.5324675 Z M31.1847826,46.4285714 L39.2717391,46.4285714 C39.8240239,46.4285714 40.2717391,46.8762867 40.2717391,47.4285714 L40.2717391,55.5324675 C40.2717391,56.0847523 39.8240239,56.5324675 39.2717391,56.5324675 L31.1847826,56.5324675 C30.6324979,56.5324675 30.1847826,56.0847523 30.1847826,55.5324675 L30.1847826,47.4285714 C30.1847826,46.8762867 30.6324979,46.4285714 31.1847826,46.4285714 Z M71.3139535,61.3636364 C70.7616687,61.3636364 70.3139535,60.9159211 70.3139535,60.3636364 C70.3139535,59.8113516 70.7616687,59.3636364 71.3139535,59.3636364 L77.8023256,59.3636364 C78.3546103,59.3636364 78.8023256,59.8113516 78.8023256,60.3636364 L78.8023256,68 C78.8023256,68.5522847 78.3546103,69 77.8023256,69 L71.3139535,69 C70.7616687,69 70.3139535,68.5522847 70.3139535,68 C70.3139535,67.4477153 70.7616687,67 71.3139535,67 L76.8023256,67 L76.8023256,61.3636364 L71.3139535,61.3636364 Z M32.1847826,80.8701299 L38.2717391,80.8701299 L38.2717391,74.7662338 L32.1847826,74.7662338 L32.1847826,80.8701299 Z M31.1847826,72.7662338 L39.2717391,72.7662338 C39.8240239,72.7662338 40.2717391,73.213949 40.2717391,73.7662338 L40.2717391,81.8701299 C40.2717391,82.4224146 39.8240239,82.8701299 39.2717391,82.8701299 L31.1847826,82.8701299 C30.6324979,82.8701299 30.1847826,82.4224146 30.1847826,81.8701299 L30.1847826,73.7662338 C30.1847826,73.213949 30.6324979,72.7662338 31.1847826,72.7662338 Z M47.3478261,54.5324675 L53.4347826,54.5324675 L53.4347826,48.4285714 L47.3478261,48.4285714 L47.3478261,54.5324675 Z M46.3478261,46.4285714 L54.4347826,46.4285714 C54.9870674,46.4285714 55.4347826,46.8762867 55.4347826,47.4285714 L55.4347826,55.5324675 C55.4347826,56.0847523 54.9870674,56.5324675 54.4347826,56.5324675 L46.3478261,56.5324675 C45.7955413,56.5324675 45.3478261,56.0847523 45.3478261,55.5324675 L45.3478261,47.4285714 C45.3478261,46.8762867 45.7955413,46.4285714 46.3478261,46.4285714 Z M47.3478261,67.7012987 L53.4347826,67.7012987 L53.4347826,61.5974026 L47.3478261,61.5974026 L47.3478261,67.7012987 Z M46.3478261,59.5974026 L54.4347826,59.5974026 C54.9870674,59.5974026 55.4347826,60.0451178 55.4347826,60.5974026 L55.4347826,68.7012987 C55.4347826,69.2535835 54.9870674,69.7012987 54.4347826,69.7012987 L46.3478261,69.7012987 C45.7955413,69.7012987 45.3478261,69.2535835 45.3478261,68.7012987 L45.3478261,60.5974026 C45.3478261,60.0451178 45.7955413,59.5974026 46.3478261,59.5974026 Z M85.7607085,67.7012987 L91.8476651,67.7012987 L91.8476651,61.5974026 L85.7607085,61.5974026 L85.7607085,67.7012987 Z M84.7607085,59.5974026 L92.8476651,59.5974026 C93.3999498,59.5974026 93.8476651,60.0451178 93.8476651,60.5974026 L93.8476651,68.7012987 C93.8476651,69.2535835 93.3999498,69.7012987 92.8476651,69.7012987 L84.7607085,69.7012987 C84.2084238,69.7012987 83.7607085,69.2535835 83.7607085,68.7012987 L83.7607085,60.5974026 C83.7607085,60.0451178 84.2084238,59.5974026 84.7607085,59.5974026 Z M47.3478261,74.7662338 L47.3478261,80.8701299 L53.4347826,80.8701299 L53.4347826,74.7662338 L47.3478261,74.7662338 Z M46.3478261,72.7662338 L54.4347826,72.7662338 C54.9870674,72.7662338 55.4347826,73.213949 55.4347826,73.7662338 L55.4347826,81.8701299 C55.4347826,82.4224146 54.9870674,82.8701299 54.4347826,82.8701299 L46.3478261,82.8701299 C45.7955413,82.8701299 45.3478261,82.4224146 45.3478261,81.8701299 L45.3478261,73.7662338 C45.3478261,73.213949 45.7955413,72.7662338 46.3478261,72.7662338 Z M70.7144954,48.4452921 C71.1046108,48.8362248 71.1039484,49.4693894 70.7130157,49.8595049 C70.3220831,50.2496204 69.6889184,50.248958 69.298803,49.8580253 L42.6306356,23.1339967 C42.2846228,22.7872591 41.7244837,22.7872624 41.3784586,23.1340123 C40.2702451,24.2484432 40.2702451,24.2484432 34.7233228,29.8264775 C26.9580754,37.6352803 26.9580754,37.6352803 14.7557661,49.9060333 C14.3663355,50.2976483 13.733173,50.299419 13.3415581,49.9099884 C12.9499431,49.5205579 12.9481724,48.8873954 13.3376029,48.4957804 C25.5399123,36.2250274 25.5399123,36.2250274 33.3051597,28.4162245 C38.8516704,22.8386034 38.8516704,22.8386034 39.9627662,21.7212791 C41.0901733,20.5915105 42.9189258,20.5914998 44.046328,21.7212635 L70.7144954,48.4452921 Z M107.135555,53.0186395 C107.525671,53.4095722 107.525008,54.0427368 107.134076,54.4328523 C106.743143,54.8229678 106.109978,54.8223054 105.719863,54.4313727 L87.220604,35.8933638 C87.1002633,35.772771 86.9059869,35.7727759 86.7856044,35.8934106 C86.4834234,36.2177769 86.4834234,36.2177769 84.8363307,37.9806887 C82.5358436,40.4431322 82.5358436,40.4431322 78.9209454,44.3125331 C78.5439188,44.716104 77.9111196,44.7376224 77.5075488,44.3605958 C77.1039779,43.9835693 77.0824596,43.35077 77.4594861,42.9471992 C81.0743852,39.0777974 81.0743852,39.0777974 83.3748744,36.6153515 C85.0143478,34.8603306 85.0143478,34.8603306 85.369912,34.4806774 C86.2716642,33.5770363 87.734554,33.5769993 88.6362964,34.4806306 L107.135555,53.0186395 Z M32.1847826,61.5974026 L32.1847826,67.7012987 L38.2717391,67.7012987 L38.2717391,61.5974026 L32.1847826,61.5974026 Z M31.1847826,59.5974026 L39.2717391,59.5974026 C39.8240239,59.5974026 40.2717391,60.0451178 40.2717391,60.5974026 L40.2717391,68.7012987 C40.2717391,69.2535835 39.8240239,69.7012987 39.2717391,69.7012987 L31.1847826,69.7012987 C30.6324979,69.7012987 30.1847826,69.2535835 30.1847826,68.7012987 L30.1847826,60.5974026 C30.1847826,60.0451178 30.6324979,59.5974026 31.1847826,59.5974026 Z"/>
  </g>
</svg>
