<svg xmlns="http://www.w3.org/2000/svg" width="128" height="128" viewBox="0 0 128 128">
  <g fill="none" fill-rule="evenodd">
    <path class="background"  fill-rule="nonzero" d="M97.5394,80.1567 L106.539,95.745 C107.337296,97.1268519 106.910632,98.8796228 105.596545,99.7469275 L105.441,99.843 L85.5227,111.343 L84.0887282,108.8607 L101.441,98.843 C102.876,98.015 103.368,96.18 102.539,94.745 L94.9717282,81.6387 L97.5394,80.1567 Z M78.5647,105.22 L80.1582181,107.98207 C78.5348032,108.539015 76.7507921,108.211938 75.4347282,107.169803 C75.9859269,107.07052 76.5285921,106.875723 77.0407,106.58 C77.6565,106.225 78.1681,105.758 78.5647,105.22 Z M83.254263,92.3895185 L83.122167,92.3868717 C83.0686913,92.3851266 83.0152821,92.3825242 82.9619608,92.3790704 C82.7665538,92.3664532 82.5722455,92.342336 82.3801609,92.3070567 C82.3468683,92.3009257 82.3138481,92.2945177 82.2808991,92.2877798 C82.242856,92.2800114 82.2048619,92.2717805 82.1669713,92.2631112 C82.1319806,92.2550998 82.0968986,92.2466774 82.0619123,92.2378788 C82.0260358,92.2288592 81.9903943,92.2194762 81.9548598,92.2097027 C81.9177057,92.1994824 81.8806815,92.1888411 81.8437819,92.1777751 C81.8111425,92.1679865 81.7785085,92.1578363 81.7459782,92.1473535 C81.709866,92.1357195 81.6738119,92.1236494 81.6378937,92.1111699 C81.6053597,92.0998618 81.5730135,92.0882495 81.5407841,92.0763044 C81.4991006,92.0608594 81.4576909,92.0448847 81.4164877,92.0283586 C81.3932566,92.0190366 81.36991,92.0094687 81.3466324,91.9997235 C81.3059366,91.9826903 81.2655947,91.9651736 81.2254739,91.9471216 C81.1904724,91.9313683 81.1554966,91.9151455 81.1206985,91.8985141 C81.1041356,91.8906026 81.0879112,91.8827392 81.0717265,91.8747868 L80.9925005,91.8349785 C80.9688523,91.8228345 80.945293,91.810498 80.9218252,91.7979698 C80.8919147,91.7820034 80.8626427,91.7659943 80.8335194,91.7496852 C80.8059227,91.7342278 80.7782248,91.7183689 80.7506673,91.7022373 C80.7144419,91.6810351 80.6785756,91.6594288 80.6429603,91.6373569 C80.5478918,91.5784438 80.4543808,91.5160521 80.3628599,91.4503781 C80.2738938,91.3865354 80.1869275,91.3196863 80.1020122,91.249791 C80.0767224,91.2289738 80.0515623,91.2078431 80.0265895,91.1864423 C79.820281,91.0096428 79.6267619,90.8144134 79.4486658,90.6014588 C79.2653939,90.3822981 79.0985578,90.1445384 78.9509,89.8888 C78.5954,89.273 78.3857,88.6129 78.3112,87.9487 L71.0227,92.1567 L73.9808,97.28 C73.3166,97.355 72.6565,97.564 72.0407,97.92 C71.1175562,98.4530803 70.4286765,99.2360403 70.0101701,100.13406 L46.0325,100.135 C44.6518,100.135 43.5325,99.016 43.5325,97.635 L43.5325,61.3719 L34.6272,61.3797 C32.401,61.3816 31.2678,58.7069 32.8392,57.1299 L66.563,23.2879 C67.6135,22.2374 69.3167,22.2374 70.3672,23.2879 L104.132,57.0528 C105.706,58.627 104.593,61.3186 102.367,61.3206 L94.7824,61.3272 L94.7816899,81.309025 L93.5394,79.1567 L86.2509,83.3648 C86.7889,83.7614 87.2556,84.273 87.6112,84.8888 C88.9919,87.2803 88.1725,90.3382 85.7811,91.7189 C85.2682809,92.0149691 84.7248195,92.2098779 84.1738228,92.3098165 C84.1749243,92.3087098 84.1752644,92.3089792 84.1756045,92.3092484 L84.1538076,92.3134045 C84.1099097,92.321181 84.0659657,92.3283555 84.0219875,92.3349312 L84.1756045,92.3092484 C84.0898502,92.324856 84.0039113,92.338161 83.917875,92.349187 C83.8801598,92.3542014 83.8421731,92.3586179 83.8041753,92.3625928 C83.7706171,92.3659453 83.7370071,92.3691213 83.7033933,92.3719532 C83.6531441,92.3763224 83.6031205,92.3797639 83.553106,92.3824487 C83.5296975,92.3835858 83.5063286,92.3846783 83.4829634,92.385606 C83.4200905,92.3882073 83.3571147,92.3895033 83.2942002,92.3896103 C83.2839248,92.3895418 83.2733013,92.3895279 83.2626796,92.3894802 L83.254263,92.3895185 Z M86,53 L64,53 L64,56.584 L64.0711816,56.5715843 C64.3762314,56.5241259 64.686546,56.5 65,56.5 C68.3136847,56.5 71,59.1863153 71,62.5 C71,65.8136847 68.3136847,68.5 65,68.5 C64.7910307,68.5 64.5834566,68.4892774 64.3779076,68.4680672 L64.0711816,68.4284157 L64,68.415 L64,72 L72.9441724,72 L72.3323598,73.4003557 C72.1141025,73.899917 72,74.4409941 72,75 C72,77.2091153 73.7908847,79 76,79 C78.2091153,79 80,77.2091153 80,75 C80,74.5208521 79.9161696,74.0548764 79.7547732,73.6169264 L79.6676402,73.4003557 L79.0558276,72 L88,72 L88,55 C88,53.9983148 87.2637079,53.1686839 86.3027849,53.0227683 L86.149268,53.0054855 L86,53 Z"/>
    <path class="foreground"  fill-rule="nonzero" d="M93.905434,77.7906598 L103.404894,94.2447727 C104.474539,96.096329 103.894912,98.4476547 102.122233,99.598049 L101.941005,99.7090223 L81.1567074,111.709014 L78.364,106.873 L78.3089501,106.920241 L78.0632079,107.107823 L78.0632079,107.107823 L77.807038,107.283204 L77.5407725,107.445984 C74.6712336,109.103033 71.00163,108.119573 69.3446147,105.250069 C67.6876964,102.380734 68.6709255,98.7111599 71.5402069,97.0542595 C71.7209232,96.9497856 71.9058402,96.8553071 72.0943042,96.7709171 L72.3795788,96.6519101 L72.448,96.626 L69.6566532,91.7906849 L79.1346301,86.318595 L79.3049682,87.837234 C79.3657334,88.3789814 79.5374851,88.9047512 79.8169149,89.3887818 C80.9215579,91.301987 83.3678752,91.9574489 85.2810933,90.8528784 C87.1942283,89.7483098 87.8497244,87.3019823 86.7452158,85.3888714 C86.505561,84.9738561 86.1999477,84.6122065 85.841244,84.3136836 L85.6575275,84.169728 L84.4274027,83.2629111 L93.905434,77.7906598 Z M93.173,80.522 L87.903,83.564 L87.9507293,83.6201606 L88.1384539,83.8659787 L88.1384539,83.8659787 L88.3140837,84.1223018 L88.4772306,84.388809 C90.1340535,87.2585793 89.1508101,90.928068 86.281091,92.5849306 C83.4112913,94.2417704 79.7418228,93.2585796 78.0848549,90.3887659 C77.9803864,90.2078047 77.8858968,90.0226811 77.8014988,89.8340628 L77.6824845,89.5485977 L77.658,89.48 L72.388,92.522 L75.6103275,98.1023524 L74.0930047,98.2736851 C73.5494716,98.3350597 73.0239681,98.5066436 72.5407725,98.7859836 C70.6275495,99.8907968 69.9720603,102.337191 71.0765853,104.249931 C72.1812965,106.162992 74.6277316,106.818641 76.5412618,105.713651 C76.9555868,105.474798 77.3170783,105.169353 77.6157295,104.810464 L77.759772,104.626627 L78.6665633,103.396537 L81.888,108.976 L100.941225,97.9768446 C101.804335,97.4788273 102.155556,96.434385 101.81003,95.532283 L101.745959,95.3833687 L101.672967,95.2449871 L93.173,80.522 Z M57.25,51 C57.8023,51 58.25,51.4477 58.25,52 C58.25,52.51285 57.863973,52.9355092 57.3666239,52.9932725 L57.25,53 L40,53 C38.9456091,53 38.0818322,53.81585 38.0054856,54.8507339 L38,55 L38,72 L44.1893,72 C44.0657,71.5202 44,71.0174 44,70.5 C44,67.1863 46.6863,64.5 50,64.5 C53.3137,64.5 56,67.1863 56,70.5 C56,70.91392 55.957952,71.318496 55.8778496,71.7094272 L55.8107,72 L61.9996,71.9992251 L62,65.5558276 L63.4003557,66.1676402 C63.899917,66.3858975 64.4409941,66.5 65,66.5 C67.2091153,66.5 69,64.7091153 69,62.5 C69,60.2908847 67.2091153,58.5 65,58.5 C64.5208521,58.5 64.0548764,58.5838304 63.6169264,58.7452268 L63.4003557,58.8323598 L62,59.4441724 L62,51 L86,51 C88.1422398,51 89.8910816,52.6839255 89.9951048,54.8003557 L90,55 L90,74 L81.915,74 L81.9284157,74.0711816 L81.9680672,74.3779076 L81.9919874,74.6876712 L82,75 C82,78.3136847 79.3136847,81 76,81 C72.6863153,81 70,78.3136847 70,75 C70,74.7910307 70.0107226,74.5834566 70.0319328,74.3779076 L70.0715843,74.0711816 L70.084,74 L63.9996,73.9992251 L64,80.4442 L62.5996,79.8324 C62.111,79.6189 61.5707,79.5 61,79.5 C58.7909,79.5 57,81.2909 57,83.5 C57,85.7091 58.7909,87.5 61,87.5 C61.4891714,87.5 61.9560082,87.4126449 62.3870968,87.2532373 L62.5996,87.1676 L64,86.5558 L64,95 L58,95 C57.4477,95 57,94.552 57,94 C57,93.48715 57.386027,93.0644908 57.8833761,93.0067275 L58,93 L62,93 L62,89.4169 C61.6745,89.4716 61.3403,89.5 61,89.5 C57.6863,89.5 55,86.8137 55,83.5 C55,80.1863 57.6863,77.5 61,77.5 C61.2268667,77.5 61.4510222,77.5126222 61.6716963,77.5372444 L62,77.5831 L62,74 L52.5974,74 L53.4732,72.4858 L53.4732,72.4858 C53.8082,71.9015 54,71.2247 54,70.5 C54,68.2909 52.2091,66.5 50,66.5 C47.7909,66.5 46,68.2909 46,70.5 C46,71.1341125 46.1468469,71.7315516 46.4079824,72.2624387 L46.5441,72.5159 L47.4026,74 L38,74 L38,91 C38,92.0543909 38.81585,92.9181678 39.8507339,92.9945144 L40,93 L52.5,93 C53.0523,93 53.5,93.4477 53.5,94 C53.5,94.5125714 53.113973,94.9354694 52.6166239,94.9932682 L52.5,95 L40,95 C37.8578424,95 36.1089234,93.3159949 36.0048954,91.199637 L36,91 L36,55 C36,52.8578424 37.6840051,51.1089234 39.800363,51.0048954 L40,51 L57.25,51 Z M86,53 L64,53 L64,56.584 L64.0711816,56.5715843 C64.3762314,56.5241259 64.686546,56.5 65,56.5 C68.3136847,56.5 71,59.1863153 71,62.5 C71,65.8136847 68.3136847,68.5 65,68.5 C64.7910307,68.5 64.5834566,68.4892774 64.3779076,68.4680672 L64.0711816,68.4284157 L64,68.415 L64,72 L72.9441724,72 L72.3323598,73.4003557 C72.1141025,73.899917 72,74.4409941 72,75 C72,77.2091153 73.7908847,79 76,79 C78.2091153,79 80,77.2091153 80,75 C80,74.5208521 79.9161696,74.0548764 79.7547732,73.6169264 L79.6676402,73.4003557 L79.0558276,72 L88,72 L88,55 C88,53.9983148 87.2637079,53.1686839 86.3027849,53.0227683 L86.149268,53.0054855 L86,53 Z M64.5146157,16.051063 L64.6668077,16.1949941 L102.694108,54.2223941 C103.084631,54.612919 103.084631,55.2460839 102.694106,55.6366077 C102.333621,55.9970912 101.76639,56.02482 101.3741,55.7197946 L101.279892,55.6366059 L63.2525932,17.6092068 C62.6314396,16.9880532 61.6470501,16.9515147 60.9841943,17.4985582 L60.863844,17.6079674 L22.899944,55.7050674 C22.5101042,56.096275 21.8769402,56.0973838 21.4857326,55.707544 C21.1246179,55.3476919 21.0958951,54.7805103 21.4002325,54.3876855 L21.483256,54.2933326 L59.4483932,16.1949932 C60.839727,14.8036594 63.0657185,14.7556824 64.5146157,16.051063 Z"/>
  </g>
</svg>
