<svg xmlns="http://www.w3.org/2000/svg" width="128" height="128" viewBox="0 0 128 128">
  <g fill="none" fill-rule="evenodd">
    <path class="background" fill-rule="nonzero" d="M69.4760774,85.7724782 C69.469749,85.8065519 69.4637084,85.8407267 69.4579584,85.875 L49.125,85.875 C48.5727153,85.875 48.125,86.3227153 48.125,86.875 C48.125,87.4272847 48.5727153,87.875 49.125,87.875 L69.4579584,87.875 C69.9340365,90.7127133 72.4020037,92.875 75.375,92.875 C78.6887085,92.875 81.375,90.1887085 81.375,86.875 C81.375,83.5612915 78.6887085,80.875 75.375,80.875 C74.9983805,80.875 74.6298657,80.9097 74.2724782,80.9760774 C73.9839729,80.9099393 73.6835667,80.875 73.375,80.875 C71.165861,80.875 69.375,82.665861 69.375,84.875 C69.375,85.1835667 69.4099393,85.4839729 69.4760774,85.7724782 Z M55.7260774,72.0224782 C55.719749,72.0565519 55.7137084,72.0907267 55.7079584,72.125 L49.125,72.125 C48.5727153,72.125 48.125,72.5727153 48.125,73.125 C48.125,73.6772847 48.5727153,74.125 49.125,74.125 L55.7079584,74.125 C56.1840365,76.9627133 58.6520037,79.125 61.625,79.125 C64.5979963,79.125 67.0659635,76.9627133 67.5420416,74.125 L80.375,74.125 C80.9272847,74.125 81.375,73.6772847 81.375,73.125 C81.375,72.5727153 80.9272847,72.125 80.375,72.125 L67.5420416,72.125 C67.0659635,69.2872867 64.5979963,67.125 61.625,67.125 C61.2483805,67.125 60.8798657,67.1597 60.5224782,67.2260774 C60.2339729,67.1599393 59.9335667,67.125 59.625,67.125 C57.415861,67.125 55.625,68.915861 55.625,71.125 C55.625,71.4335667 55.6599393,71.7339729 55.7260774,72.0224782 Z M74.2724782,53.4760774 C73.9839729,53.4099393 73.6835667,53.375 73.375,53.375 C71.165861,53.375 69.375,55.165861 69.375,57.375 C69.375,57.6835667 69.4099393,57.9839729 69.4760774,58.2724782 C69.469749,58.3065519 69.4637084,58.3407267 69.4579584,58.375 L49.125,58.375 C48.5727153,58.375 48.125,58.8227153 48.125,59.375 C48.125,59.9272847 48.5727153,60.375 49.125,60.375 L69.4579584,60.375 C69.9340365,63.2127133 72.4020037,65.375 75.375,65.375 C78.6887085,65.375 81.375,62.6887085 81.375,59.375 C81.375,56.0612915 78.6887085,53.375 75.375,53.375 C74.9983805,53.375 74.6298657,53.4097 74.2724782,53.4760774 Z M94.7823675,66.2021907 L94.7823675,102.510466 C94.7823675,103.891178 93.6630794,105.010466 92.2823675,105.010466 L46.0325666,105.010466 C44.6518548,105.010466 43.5325666,103.891178 43.5325666,102.510466 L43.5325666,66.2469003 L34.6271871,66.2546692 C33.9649051,66.255247 33.3294552,65.9930108 32.8603319,65.5255271 C31.8823113,64.5509244 31.8795404,62.9680105 32.8541474,61.9899942 C55.3260483,39.4392821 66.5623474,28.1635775 66.5630446,28.1628803 C67.6135516,27.1123732 69.31676,27.1123732 70.367267,28.1628803 L104.132195,61.9278083 C104.600502,62.3961149 104.863849,63.031109 104.864427,63.6933943 C104.865632,65.0741056 103.74732,66.1943698 102.366609,66.1955743 L94.7823675,66.2021907 Z"/>
    <path class="foreground" d="M36.125,57.4559668 C36.125,56.903682 36.5727153,56.4559668 37.125,56.4559668 C37.6772847,56.4559668 38.125,56.903682 38.125,57.4559668 L38.125,96.1246966 C38.125,96.9531237 38.7965729,97.6246966 39.625,97.6246966 L85.8748009,97.6246966 C86.703228,97.6246966 87.3748009,96.9531237 87.3748009,96.1246966 L87.3748009,57.375 C87.3748009,56.8227153 87.8225161,56.375 88.3748009,56.375 C88.9270856,56.375 89.3748009,56.8227153 89.3748009,57.375 L89.3748009,96.1246966 C89.3748009,98.0576932 87.8077975,99.6246966 85.8748009,99.6246966 L39.625,99.6246966 C37.6920034,99.6246966 36.125,98.0576932 36.125,96.1246966 L36.125,57.4559668 Z M67.4579584,58.375 L47.125,58.375 C46.5727153,58.375 46.125,57.9272847 46.125,57.375 C46.125,56.8227153 46.5727153,56.375 47.125,56.375 L67.4579584,56.375 C67.9340365,53.5372867 70.4020037,51.375 73.375,51.375 C76.6887085,51.375 79.375,54.0612915 79.375,57.375 C79.375,60.6887085 76.6887085,63.375 73.375,63.375 C70.4020037,63.375 67.9340365,61.2127133 67.4579584,58.375 Z M73.375,61.375 C75.584139,61.375 77.375,59.584139 77.375,57.375 C77.375,55.165861 75.584139,53.375 73.375,53.375 C71.165861,53.375 69.375,55.165861 69.375,57.375 C69.375,59.584139 71.165861,61.375 73.375,61.375 Z M65.5420416,72.125 C65.0659635,74.9627133 62.5979963,77.125 59.625,77.125 C56.6520037,77.125 54.1840365,74.9627133 53.7079584,72.125 L47.125,72.125 C46.5727153,72.125 46.125,71.6772847 46.125,71.125 C46.125,70.5727153 46.5727153,70.125 47.125,70.125 L53.7079584,70.125 C54.1840365,67.2872867 56.6520037,65.125 59.625,65.125 C62.5979963,65.125 65.0659635,67.2872867 65.5420416,70.125 L78.375,70.125 C78.9272847,70.125 79.375,70.5727153 79.375,71.125 C79.375,71.6772847 78.9272847,72.125 78.375,72.125 L65.5420416,72.125 Z M59.625,75.125 C61.834139,75.125 63.625,73.334139 63.625,71.125 C63.625,68.915861 61.834139,67.125 59.625,67.125 C57.415861,67.125 55.625,68.915861 55.625,71.125 C55.625,73.334139 57.415861,75.125 59.625,75.125 Z M67.4579584,85.875 L47.125,85.875 C46.5727153,85.875 46.125,85.4272847 46.125,84.875 C46.125,84.3227153 46.5727153,83.875 47.125,83.875 L67.4579584,83.875 C67.9340365,81.0372867 70.4020037,78.875 73.375,78.875 C76.6887085,78.875 79.375,81.5612915 79.375,84.875 C79.375,88.1887085 76.6887085,90.875 73.375,90.875 C70.4020037,90.875 67.9340365,88.7127133 67.4579584,85.875 L67.4579584,85.875 Z M73.375,88.875 C75.584139,88.875 77.375,87.084139 77.375,84.875 C77.375,82.665861 75.584139,80.875 73.375,80.875 C71.165861,80.875 69.375,82.665861 69.375,84.875 C69.375,87.084139 71.165861,88.875 73.375,88.875 Z M102.694242,59.0974396 C103.084767,59.4879639 103.084767,60.1211289 102.694242,60.5116532 C102.303718,60.9021775 101.670553,60.9021775 101.280029,60.5116532 L63.2525936,22.484218 C62.5926109,21.8242353 61.5225675,21.8242353 60.8625848,22.484218 C60.4683155,22.8798715 60.4683155,22.8798715 58.4906609,24.8644609 C55.7223437,27.6424862 55.7223437,27.6424862 51.3722894,32.007796 C40.2995754,43.1193424 40.2995754,43.1193424 22.8999132,60.5800269 C22.5100731,60.9712342 21.8769091,60.9723425 21.4857018,60.5825024 C21.0944945,60.1926623 21.0933862,59.5594983 21.4832263,59.168291 C38.8828884,41.7076066 38.8828884,41.7076066 49.9556026,30.5960601 C54.3056569,26.2307502 54.3056569,26.2307502 57.0739742,23.4527248 C59.051217,21.468548 59.051217,21.468548 59.4483712,21.0700044 C60.8894025,19.6289731 63.2257759,19.6289731 64.6668072,21.0700044 L102.694242,59.0974396 Z"/>
  </g>
</svg>
