<svg xmlns="http://www.w3.org/2000/svg" width="128" height="128" viewBox="0 0 128 128">
  <g fill="none" fill-rule="evenodd">
    <path class="background" fill-rule="nonzero" d="M94.7823675,66.2021907 L94.7823675,102.510466 C94.7823675,103.891178 93.6630794,105.010466 92.2823675,105.010466 L46.0325666,105.010466 C44.6518548,105.010466 43.5325666,103.891178 43.5325666,102.510466 L43.5325666,66.2469003 L34.6271871,66.2546692 C33.9649051,66.255247 33.3294552,65.9930108 32.8603319,65.5255271 C31.8823113,64.5509244 31.8795404,62.9680105 32.8541474,61.9899942 C55.3260483,39.4392821 66.5623474,28.1635775 66.5630446,28.1628803 C67.6135516,27.1123732 69.31676,27.1123732 70.367267,28.1628803 L104.132195,61.9278083 C104.600502,62.3961149 104.863849,63.031109 104.864427,63.6933943 C104.865632,65.0741056 103.74732,66.1943698 102.366609,66.1955743 L94.7823675,66.2021907 Z M79.1813492,86.6678932 C70.5898148,78.0763588 56.6601852,78.0763588 48.0686508,86.6678932 C47.6781265,87.0584175 47.6781265,87.6915825 48.0686508,88.0821068 C48.4591751,88.4726311 49.0923401,88.4726311 49.4828644,88.0821068 C57.2933502,80.2716209 69.9566498,80.2716209 77.7671356,88.0821068 C78.1576599,88.4726311 78.7908249,88.4726311 79.1813492,88.0821068 C79.5718735,87.6915825 79.5718735,87.0584175 79.1813492,86.6678932 Z"/>
    <path class="foreground" d="M36.125,57.4559668 C36.125,56.903682 36.5727153,56.4559668 37.125,56.4559668 C37.6772847,56.4559668 38.125,56.903682 38.125,57.4559668 L38.125,96.1246966 C38.125,96.9531237 38.7965729,97.6246966 39.625,97.6246966 L85.8748009,97.6246966 C86.703228,97.6246966 87.3748009,96.9531237 87.3748009,96.1246966 L87.3748009,57.375 C87.3748009,56.8227153 87.8225161,56.375 88.3748009,56.375 C88.9270856,56.375 89.3748009,56.8227153 89.3748009,57.375 L89.3748009,96.1246966 C89.3748009,98.0576932 87.8077975,99.6246966 85.8748009,99.6246966 L39.625,99.6246966 C37.6920034,99.6246966 36.125,98.0576932 36.125,96.1246966 L36.125,57.4559668 Z M102.694242,59.0974396 C103.084767,59.4879639 103.084767,60.1211289 102.694242,60.5116532 C102.303718,60.9021775 101.670553,60.9021775 101.280029,60.5116532 L63.2525936,22.484218 C62.5926109,21.8242353 61.5225675,21.8242353 60.8625848,22.484218 C60.4683155,22.8798715 60.4683155,22.8798715 58.4906609,24.8644609 C55.7223437,27.6424862 55.7223437,27.6424862 51.3722894,32.007796 C40.2995754,43.1193424 40.2995754,43.1193424 22.8999132,60.5800269 C22.5100731,60.9712342 21.8769091,60.9723425 21.4857018,60.5825024 C21.0944945,60.1926623 21.0933862,59.5594983 21.4832263,59.168291 C38.8828884,41.7076066 38.8828884,41.7076066 49.9556026,30.5960601 C54.3056569,26.2307502 54.3056569,26.2307502 57.0739742,23.4527248 C59.051217,21.468548 59.051217,21.468548 59.4483712,21.0700044 C60.8894025,19.6289731 63.2257759,19.6289731 64.6668072,21.0700044 L102.694242,59.0974396 Z M78.1813492,84.6678932 C78.5718735,85.0584175 78.5718735,85.6915825 78.1813492,86.0821068 C77.7908249,86.4726311 77.1576599,86.4726311 76.7671356,86.0821068 C68.9566498,78.2716209 56.2933502,78.2716209 48.4828644,86.0821068 C48.0923401,86.4726311 47.4591751,86.4726311 47.0686508,86.0821068 C46.6781265,85.6915825 46.6781265,85.0584175 47.0686508,84.6678932 C55.6601852,76.0763588 69.5898148,76.0763588 78.1813492,84.6678932 Z"/>
  </g>
</svg>
