<svg width="128" height="128" viewBox="0 0 128 128" fill="none" xmlns="http://www.w3.org/2000/svg">
<path class="background" d="M96 31C96 33.7614 93.7614 36 91 36C88.2386 36 86 33.7614 86 31C86 28.2386 88.2386 26 91 26C93.7614 26 96 28.2386 96 31ZM56.5376 80.8397V65.169L49.7313 65.1752C49.2874 65.1757 49.0594 64.6441 49.3711 64.328L67.0589 46.3886C67.5715 45.8705 68.4026 45.8705 68.9151 46.3885L86.6273 64.2899C86.9396 64.6055 86.7163 65.1412 86.2724 65.1416L80.0724 65.1473V80.8397C80.0724 81.4805 79.5584 82 78.9243 82H57.6856C57.0516 82 56.5376 81.4805 56.5376 80.8397ZM71.1462 70.8138C71.5427 70.4294 71.5524 69.7963 71.1679 69.3998C70.7835 69.0033 70.1504 68.9936 69.7539 69.378C67.0664 71.9841 62.6967 71.9841 60.0093 69.378C59.6128 68.9936 58.9797 69.0033 58.5952 69.3998C58.2107 69.7963 58.2205 70.4294 58.617 70.8138C62.0802 74.1722 67.6829 74.1722 71.1462 70.8138ZM101 48H82C82 43.0294 86.2533 39 91.5 39C96.7467 39 101 43.0294 101 48ZM48.5 91C46.567 91 45 89.433 45 87.5C45 85.567 46.567 84 48.5 84C50.433 84 52 85.567 52 87.5C52 89.433 50.433 91 48.5 91ZM93.5 84C91.567 84 90 82.433 90 80.5C90 78.567 91.567 77 93.5 77C95.433 77 97 78.567 97 80.5C97 82.433 95.433 84 93.5 84ZM56 102H41C41 97.5817 44.3579 94 48.5 94C52.6421 94 56 97.5817 56 102ZM101 95H86C86 90.5817 89.3579 87 93.5 87C97.6421 87 101 90.5817 101 95ZM33.5 43C31.567 43 30 41.433 30 39.5C30 37.567 31.567 36 33.5 36C35.433 36 37 37.567 37 39.5C37 41.433 35.433 43 33.5 43ZM41 54H26C26 49.5817 29.3579 46 33.5 46C37.6421 46 41 49.5817 41 54Z" fill="#FFEAE3"/>
<path class="foreground" clip-rule="evenodd" d="M82.75 28.5C82.75 25.4624 85.2124 23 88.25 23C91.2876 23 93.75 25.4624 93.75 28.5C93.75 31.5376 91.2876 34 88.25 34C85.2124 34 82.75 31.5376 82.75 28.5ZM91.75 28.5C91.75 26.567 90.183 25 88.25 25C86.317 25 84.75 26.567 84.75 28.5C84.75 30.433 86.317 32 88.25 32C90.183 32 91.75 30.433 91.75 28.5ZM80 46C80 46.5523 79.5523 47 79 47C78.4477 47 78 46.5523 78 46C78 40.2695 82.7041 35.6296 88.5 35.6296C94.2959 35.6296 99 40.2695 99 46C99 46.5523 98.5523 47 98 47C97.4477 47 97 46.5523 97 46C97 41.3803 93.1975 37.6296 88.5 37.6296C83.8025 37.6296 80 41.3803 80 46ZM83.6962 61.0159C83.3073 61.408 82.6741 61.4106 82.282 61.0217L64.3358 43.2229C64.232 43.1199 64.0516 43.1211 63.9372 43.2346L45.7882 61.3007C45.3968 61.6903 44.7636 61.6889 44.374 61.2974C43.9844 60.906 43.9858 60.2729 44.3772 59.8832L62.5287 41.8147C63.4187 40.9318 64.8564 40.9225 65.7442 41.8029L83.6904 59.6016C84.0825 59.9906 84.0851 60.6237 83.6962 61.0159ZM51.0785 60.8757C51.0785 60.3234 51.5263 59.8757 52.0785 59.8757C52.6308 59.8757 53.0785 60.3234 53.0785 60.8757V77.7494C53.0785 77.7832 53.1398 77.8403 53.2493 77.8403H74.9078C75.0173 77.8403 75.0785 77.7832 75.0785 77.7494V60.8403C75.0785 60.2881 75.5263 59.8403 76.0785 59.8403C76.6308 59.8403 77.0785 60.2881 77.0785 60.8403V77.7494C77.0785 78.9206 76.0915 79.8403 74.9078 79.8403H53.2493C52.0656 79.8403 51.0785 78.9206 51.0785 77.7494V60.8757ZM26.0804 37.5C26.0804 35.0167 28.0792 33 30.5493 33C33.0195 33 35.0183 35.0167 35.0183 37.5C35.0183 39.9833 33.0195 42 30.5493 42C28.0792 42 26.0804 39.9833 26.0804 37.5ZM33.0183 37.5C33.0183 36.1173 31.9109 35 30.5493 35C29.1878 35 28.0804 36.1173 28.0804 37.5C28.0804 38.8827 29.1878 40 30.5493 40C31.9109 40 33.0183 38.8827 33.0183 37.5ZM23 54C22.4477 54 22 53.5523 22 53C22 48.2184 25.8006 44.3333 30.5 44.3333C35.1994 44.3333 39 48.2184 39 53C39 53.5523 38.5523 54 38 54C37.4477 54 37 53.5523 37 53C37 49.3132 34.0849 46.3333 30.5 46.3333C26.9151 46.3333 24 49.3132 24 53C24 53.5523 23.5523 54 23 54ZM40.0804 86.5C40.0804 84.0167 42.0792 82 44.5493 82C47.0195 82 49.0183 84.0167 49.0183 86.5C49.0183 88.9833 47.0195 91 44.5493 91C42.0792 91 40.0804 88.9833 40.0804 86.5ZM47.0183 86.5C47.0183 85.1173 45.9109 84 44.5493 84C43.1878 84 42.0804 85.1173 42.0804 86.5C42.0804 87.8827 43.1878 89 44.5493 89C45.9109 89 47.0183 87.8827 47.0183 86.5ZM37 102C36.4477 102 36 101.552 36 101C36 96.2184 39.8006 92.3333 44.5 92.3333C49.1994 92.3333 53 96.2184 53 101C53 101.552 52.5523 102 52 102C51.4477 102 51 101.552 51 101C51 97.3132 48.0849 94.3333 44.5 94.3333C40.9151 94.3333 38 97.3132 38 101C38 101.552 37.5523 102 37 102ZM89.5493 84C87.0792 84 85.0804 81.9833 85.0804 79.5C85.0804 77.0167 87.0792 75 89.5493 75C92.0195 75 94.0183 77.0167 94.0183 79.5C94.0183 81.9833 92.0195 84 89.5493 84ZM89.5493 82C90.9109 82 92.0183 80.8827 92.0183 79.5C92.0183 78.1173 90.9109 77 89.5493 77C88.1878 77 87.0804 78.1173 87.0804 79.5C87.0804 80.8827 88.1878 82 89.5493 82ZM83 94C83 94.5523 82.5523 95 82 95C81.4477 95 81 94.5523 81 94C81 89.2184 84.8006 85.3333 89.5 85.3333C94.1994 85.3333 98 89.2184 98 94C98 94.5523 97.5523 95 97 95C96.4477 95 96 94.5523 96 94C96 90.3132 93.0849 87.3333 89.5 87.3333C85.9151 87.3333 83 90.3132 83 94ZM57.8454 67.276C58.2299 66.8796 58.863 66.8698 59.2594 67.2543C61.9469 69.8603 66.3166 69.8603 69.0041 67.2543C69.4006 66.8698 70.0337 66.8796 70.4181 67.276C70.8026 67.6725 70.7929 68.3056 70.3964 68.6901C66.9331 72.0484 61.3304 72.0484 57.8672 68.6901C57.4707 68.3056 57.4609 67.6725 57.8454 67.276Z" fill="#F76B1C"/>
</svg>
