<svg xmlns="http://www.w3.org/2000/svg" width="128" height="128" viewBox="0 0 128 128">
  <g fill="none" fill-rule="evenodd">
    <path class="background" fill-rule="nonzero" d="M30,72.1537745 L50.3624777,55.5875741 C50.6758808,55.3326003 51.1119241,55.2912645 51.4676558,55.4828061 L64.470792,62.4842686 C64.7947085,62.6586795 64.9967041,62.9968588 64.9967041,63.3647461 L64.9967041,88.465745 L68,89.6656858 L68,65.7446289 C68,64.9838318 68.8158419,64.5016896 69.4823034,64.8686247 L101.993408,82.7683302 L101.993408,78.1142909 L85.7639961,69.5669219 C85.1658364,69.2518955 85.0461361,68.4464401 85.5268354,67.9710825 L101.993408,51.6874903 L101.993408,46.9712256 L81.6926418,66.4659106 C81.3834811,66.7627955 80.9194973,66.8296359 80.5391094,66.6320859 L51.0974871,51.3419173 L44.3573482,56.5145042 C43.9223542,56.8483318 43.2996666,56.7696072 42.9614413,56.3380238 L33.2062348,43.8901495 L55.0186683,36.3396917 C55.6543848,36.119636 56.3456152,36.119636 56.9813317,36.3396917 L69.1037202,40.5359032 C69.4619356,42.6401245 70.7498475,45.3472097 72.9958516,48.674138 C74.3210509,51.1528082 76.3050927,54.0249767 78.9447373,57.3091561 C78.9770141,57.3493141 79.0135521,57.3858521 79.0537101,57.4181289 C79.3603732,57.664608 79.8087836,57.6158192 80.0552627,57.3091561 C85.067566,51.0729745 87.7159939,46.3223606 87.9783658,42.9305657 L104.018668,37.3781533 C104.33431,37.2688926 104.665983,37.2131115 105,37.2131115 C106.656854,37.2131115 108,38.5562572 108,40.2131115 L108,87.8203152 C108,89.0989266 107.189602,90.2370262 105.981332,90.6552734 L82.9813317,98.6168119 C82.3456152,98.8368676 81.6543848,98.8368676 81.0186683,98.6168119 L56.9813317,90.2961954 C56.3456152,90.0761397 55.6543848,90.0761397 55.0186683,90.2961954 L33.9813317,97.5783504 C32.4156275,98.1203249 30.7070163,97.290428 30.1650418,95.7247238 C30.0557811,95.409082 30,95.0774096 30,94.7433921 L30,72.1537745 L30,72.1537745 Z M30,68.1272096 L30,47.1361884 C30,46.6087016 30.1379255,46.1051292 30.3848117,45.6661486 L40.1332662,58.7248111 C40.4550331,59.155838 40.3782073,59.764173 39.9593843,60.1016718 L30,68.1272096 Z"/>
    <path class="foreground" d="M85.9129766,37.9729555 C85.9703688,38.4344255 86,38.9053351 86,39.3835585 C86,43.0780554 83.2965769,48.1401066 77.8347054,54.9356297 C77.2422344,55.6727671 76.1643739,55.7900425 75.4272365,55.1975715 C75.3307073,55.1199866 75.2428795,55.0321589 75.1652946,54.9356297 C69.7034231,48.1401066 67,43.0780554 67,39.3835585 C67,38.7906937 67.0455407,38.2090698 67.1330584,37.6427369 L51,32.0582167 L31.7081341,38.7361702 L43.9250247,54.3252117 L50.3847548,49.3678191 C50.6928025,49.1314139 51.1098544,49.0947097 51.4544584,49.2736758 L80.8245471,64.5266943 L102,44.1920539 L102,32.4043705 L85.9129766,37.9729555 L85.9129766,37.9729555 Z M102.672889,30.0550139 C103.322473,29.8301581 104,30.3125999 104,31 L104,84.9565036 C104,85.3827074 103.729867,85.762074 103.327111,85.9014897 L77.3351781,94.8986971 C77.1285226,94.9723604 76.89634,94.978838 76.6728894,94.9014897 C76.6701868,94.9005966 76.6675022,94.8996525 76.6648219,94.8986971 L51,86.0147203 L25.3271106,94.9014897 C24.677527,95.1263456 24,94.6439038 24,93.9565036 L24,40 C24,39.5737962 24.2701328,39.1944297 24.6728894,39.0550139 L50.6648219,30.0578065 C50.6675022,30.0568511 50.6701868,30.055907 50.6728757,30.0549742 C50.89634,29.9776657 51.1285226,29.9841433 51.3351781,30.0578065 L67.6173907,35.693957 C68.9753722,31.7892039 72.4271076,29 76.5,29 C80.6800741,29 84.2058684,31.9379361 85.4854419,36.004515 L102.672889,30.0550139 Z M29.7093594,39.4280538 L28.2271996,39.9411091 L26.5875707,40.5795076 L40.1332662,58.7248111 C40.4550331,59.155838 40.3782073,59.764173 39.9593843,60.1016718 L26,71.3505164 L26,75.4080347 L50.3624777,55.5875741 C50.6758808,55.3326003 51.1119241,55.2912645 51.4676558,55.4828061 L64.470792,62.4842686 C64.7947085,62.6586795 64.9967041,62.9968588 64.9967041,63.3647461 L64.9967041,88.465745 L68,89.6656858 L68,65.7446289 C68,64.9838318 68.8158419,64.5016896 69.4823034,64.8686247 L101.993408,82.7683302 L101.993408,78.1142909 L85.7639961,69.5669219 C85.1658364,69.2518955 85.0461361,68.4464401 85.5268354,67.9710825 L101.993408,51.6874903 L101.993408,46.9712256 L81.6926418,66.4659106 C81.3834811,66.7627955 80.9194973,66.8296359 80.5391094,66.6320859 L51.0974871,51.3419173 L44.3573482,56.5145042 C43.9223542,56.8483318 43.2996666,56.7696072 42.9614413,56.3380238 L29.7093594,39.4280538 Z M26,43.1357281 L26,68.7819708 L37.9541221,59.1490199 L26,43.1357281 Z M26,77.9863195 L26,92.5521331 L50.6648219,84.0143102 C50.6675022,84.0133548 50.6701868,84.0124107 50.6728757,84.0114779 C50.89634,83.9341693 51.1285226,83.9406469 51.3351781,84.0143102 L62.9967041,88.0509923 L62.9967041,63.9620493 L51.1070249,57.5601213 L26,77.9863195 L26,77.9863195 Z M70,90.4752101 L77,92.898287 L101.096031,84.5573533 L70,67.436748 L70,90.4752101 Z M102,75.8573467 L102,54.4937276 L87.9036903,68.4333957 L102,75.8573467 Z M84,39.3835585 C84,34.7325969 80.6188654,31 76.5,31 C72.3811346,31 69,34.7325969 69,39.3835585 C69,42.4368321 71.4589234,47.0853378 76.5,53.4027605 C81.5410766,47.0853378 84,42.4368321 84,39.3835585 Z M76.5,44 C73.4624339,44 71,41.5375661 71,38.5 C71,35.4624339 73.4624339,33 76.5,33 C79.5375661,33 82,35.4624339 82,38.5 C82,41.5375661 79.5375661,44 76.5,44 Z M76.5,42 C78.4329966,42 80,40.4329966 80,38.5 C80,36.5670034 78.4329966,35 76.5,35 C74.5670034,35 73,36.5670034 73,38.5 C73,40.4329966 74.5670034,42 76.5,42 Z"/>
  </g>
</svg>
