<svg xmlns="http://www.w3.org/2000/svg" width="128" height="128" viewBox="0 0 128 128">
    <g id="mail-signed" stroke="none" stroke-width="1" fill="none" fill-rule="evenodd">
         <path class="background" fill-rule="nonzero" d="M54,43 L70,43 C70.5523,43 71,43.4477 71,44 C71,44.5523 70.5523,45 70,45 L54,45 C53.4477,45 53,44.5523 53,44 C53,43.4477 53.4477,43 54,43 Z M66.5467,52.3995 C67.6229,51.8342 68.9504,52.3518 69.36,53.4964 L69.5445,54.0121 C69.7769,54.6618 70.3278,55.1458 71.002,55.2926 L71.5373,55.4092 C72.7251,55.6679 73.4093,56.9176 72.9873,58.0577 L72.7971,58.5714 C72.5576,59.2185 72.6685,59.9433 73.0906,60.4892 L73.4257,60.9225 C74.1693,61.8842 73.8901,63.2814 72.834,63.8835 L72.3581,64.1548 C71.7587,64.4965 71.3777,65.123 71.3502,65.8125 L71.3283,66.3598 C71.2798,67.5745 70.1679,68.4654 68.9719,68.2477 L68.4329,68.1497 C67.7541,68.0261 67.0595,68.2612 66.5952,68.7717 L66.2267,69.1769 C65.4087,70.0763 63.9843,70.0439 63.208,69.1084 L62.8582,68.6869 C62.4175,68.1559 61.7344,67.8895 61.0506,67.9821 L60.5078,68.0557 C59.3031,68.2188 58.2327,67.2784 58.2393,66.0628 L58.2423,65.515 C58.2461,64.825 57.894,64.1818 57.3107,63.8133 L56.8476,63.5207 C55.8199,62.8713 55.6043,61.4629 56.3908,60.5359 L56.7453,60.1182 C57.1917,59.5921 57.3353,58.8731 57.1254,58.2158 L56.9587,57.694 C56.5889,56.5359 57.3291,55.3185 58.5274,55.1139 L59.0674,55.0218 C59.7475,54.9057 60.3198,54.4472 60.5815,53.8088 L60.7892,53.3019 C61.2503,52.177 62.5999,51.7202 63.6493,52.3338 L64.1222,52.6103 C64.7179,52.9585 65.451,52.9752 66.0618,52.6543 L66.5467,52.3995 Z M62,62 C63.6569,62 65,60.6569 65,59 C65,57.3431 63.6569,56 62,56 C60.3431,56 59,57.3431 59,59 C59,60.6569 60.3431,62 62,62 Z M98,66 L98,101 L39,101 L39,65 L60.5,76 L85.5,63 L85.5,54.5 L98,66 Z" />
        <path class="foreground" fill-rule="nonzero" d="M62,55 C64.2091,55 66,56.7909 66,59 C66,61.2091 64.2091,63 62,63 C59.7909,63 58,61.2091 58,59 C58,56.7909 59.7909,55 62,55 Z M60,59 C60,60.1046 60.8954,61 62,61 C63.1046,61 64,60.1046 64,59 C64,57.8954 63.1046,57 62,57 C60.8954,57 60,57.8954 60,59 Z M38,33 C38,30.2386 40.2386,28 43,28 L81,28 C83.7614,28 86,30.2386 86,33 L86,54.5601 L91.669,59.7567 C91.688,59.7738 91.7063,59.7916 91.7239,59.81 C91.8663,59.9592 91.9541,60.1427 91.9862,60.3342 C91.9953,60.3885 92,60.4439 92,60.5 L92,94 L31,94 L31,60.5004 C31,60.4595 31.0025,60.4186 31.0074,60.3786 C31.033,60.1684 31.1251,59.9653 31.2824,59.8036 C31.2968,59.7886 31.3118,59.7741 31.3273,59.7601 L37.8217,53.7652 C37.8773,53.7139 37.9372,53.6701 38,53.6337 L38,33 Z M89.2905,60.2896 L86,57.2733 L86,62.0742 L89.2905,60.2896 Z M84,63.159 L84,33 C84,31.3431 82.6569,30 81,30 L43,30 C41.3431,30 40,31.3431 40,33 L40,63.5 C40,63.5655 39.9937,63.6295 39.9817,63.6914 L61.5,75.3624 L84,63.159 Z M38,62.6166 L38,56.3225 L33.705,60.2871 L38,62.6166 Z M53.951,73.5433 L33,62.18 L33,92 L90,92 L90,62.18 L69.049,73.5433 L85.6075,86.2056 C86.0462,86.5411 86.1299,87.1687 85.7944,87.6074 C85.4589,88.0462 84.8313,88.1298 84.3926,87.7943 L67.3926,74.7943 C67.3046,74.7271 67.2309,74.6481 67.172,74.5613 L61.5,77.6376 L55.828,74.5613 C55.7691,74.6481 55.6954,74.7271 55.6074,74.7943 L38.6074,87.7943 C38.1687,88.1298 37.5411,88.0462 37.2056,87.6074 C36.8701,87.1687 36.9538,86.5411 37.3925,86.2056 L53.951,73.5433 Z M54.4522,33.7284 C55.5475,31.7971 58.5042,32.8222 58.1689,35.0171 L57.6355,38.5094 L59.713,37.5952 C60.2719,37.3492 60.9125,37.3721 61.4525,37.6572 L64.0861,39.0479 L67.5283,37.5332 C67.9199,37.3608 68.3565,37.3186 68.7738,37.4128 L71.6114,38.0526 L75.5,38.0526 C76.0523,38.0526 76.5,38.5004 76.5,39.0526 C76.5,39.6049 76.0523,40.0526 75.5,40.0526 L71.6114,40.0526 C71.4633,40.0526 71.3158,40.0362 71.1714,40.0036 L68.3339,39.3638 L64.8917,40.8785 C64.3328,41.1245 63.6921,41.1016 63.1522,40.8165 L60.5186,39.4258 L58.4411,40.34 C56.9971,40.9754 55.4202,39.767 55.6584,38.2074 L56.1918,34.7151 L53.975,38.6238 C53.8364,38.8682 53.6478,39.0806 53.4217,39.2472 L48.5932,42.8051 C48.1486,43.1327 47.5226,43.0378 47.1949,42.5932 C46.8673,42.1486 46.9622,41.5226 47.4068,41.195 L52.2353,37.6371 L54.4522,33.7284 Z M62.9012,49.5998 C64.6875,47.9044 67.641,49.0559 67.8083,51.513 C67.8423,52.0122 68.2728,52.3904 68.7722,52.3598 C71.2304,52.2093 72.7527,54.9898 71.3015,56.9797 C71.0066,57.3839 71.0933,57.9503 71.4955,58.2479 C73.4754,59.7127 72.8543,62.8213 70.4635,63.4127 C69.9778,63.5329 69.6801,64.0225 69.797,64.509 C70.3721,66.9037 67.8981,68.8858 65.6865,67.8021 C65.2372,67.5819 64.6944,67.7657 64.4712,68.2135 C63.3725,70.4176 60.2033,70.3457 59.2057,68.094 C59.003,67.6365 58.4691,67.4284 58.0103,67.6279 C55.7518,68.6101 53.3703,66.5179 54.0534,64.1517 C54.1922,63.671 53.9171,63.1684 53.4373,63.0263 C51.0759,62.327 50.5964,59.1935 52.6406,57.82 C53.056,57.541 53.1682,56.9791 52.892,56.5619 C51.5326,54.5083 53.1794,51.7996 55.6283,52.0615 C56.1258,52.1147 56.573,51.7565 56.6296,51.2593 C56.9082,48.8123 59.9109,47.796 61.6185,49.5707 C61.9654,49.9312 62.5383,49.9442 62.9012,49.5998 Z M65.8129,51.6489 C65.7606,50.8803 64.8367,50.5201 64.278,51.0504 C63.1178,52.1516 61.2863,52.1101 60.1773,50.9574 C59.6431,50.4023 58.7039,50.7202 58.6168,51.4856 C58.4358,53.0749 57.0061,54.2203 55.4156,54.0502 C54.6496,53.9683 54.1345,54.8155 54.5597,55.4579 C55.4427,56.7917 55.0837,58.5881 53.756,59.4801 C53.1166,59.9098 53.2665,60.8899 54.0052,61.1087 C55.5389,61.5628 56.4187,63.1697 55.975,64.7065 C55.7613,65.4466 56.5062,66.1011 57.2126,65.7938 C58.6795,65.1559 60.3863,65.8213 61.0342,67.2838 C61.3463,67.9881 62.3376,68.0106 62.6813,67.3212 C63.3949,65.8896 65.1301,65.3023 66.5665,66.0061 C67.2583,66.3451 68.0321,65.7251 67.8523,64.976 C67.4787,63.4207 68.4304,61.8554 69.9832,61.4713 C70.731,61.2862 70.9253,60.3139 70.306,59.8557 C69.0201,58.9043 68.743,57.0935 69.6856,55.8011 C70.1395,55.1787 69.6633,54.309 68.8944,54.3561 C67.2978,54.4538 65.9216,53.2448 65.8129,51.6489 Z"/>
    </g>
</svg>