<svg xmlns="http://www.w3.org/2000/svg" width="128" height="128" viewBox="0 0 128 128">
  <g fill="none" fill-rule="evenodd">
    <path class="background" fill="#FFEAE3" fill-rule="nonzero" d="M84.64035,64 L84.6680578,54.3574593 L97,64.5 L97,99.14035 L37,99.14035 L37,64 L61.4999983,76.7489046 L84.64035,64 Z M69.64035,31.7826741 L82.2218587,44 L72.64035,44 C70.9834957,44 69.64035,42.6568542 69.64035,41 L69.64035,31.7826741 Z"/>
    <path class="foreground" fill="#F76B1C" d="M69.1069421,73.5876067 L85.6074501,86.2056422 C86.0461618,86.5411276 86.1298433,87.1687384 85.7943578,87.6074501 C85.4588724,88.0461618 84.8312616,88.1298433 84.3925499,87.7943578 L67.3925499,74.7943578 C67.3219585,74.7403762 67.2605592,74.6788312 67.208619,74.6117268 L61.6426006,77.61452 L55.8538015,74.5211149 C55.7911455,74.6238259 55.7087651,74.7168817 55.6074501,74.7943578 L38.6074501,87.7943578 C38.1687384,88.1298433 37.5411276,88.0461618 37.2056422,87.6074501 C36.8701567,87.1687384 36.9538382,86.5411276 37.3925499,86.2056422 L53.9810195,73.5203419 L33,62.3085528 L33,91.64035 L90,91.64035 L90,62.3160787 L69.1069421,73.5876067 L69.1069421,73.5876067 Z M39.64035,63.5893575 L61.6380993,75.3444643 L83.64035,63.4745416 L83.64035,46 L72.64035,46 C69.8789262,46 67.64035,43.7614237 67.64035,41 L67.64035,30 L42.64035,30 C40.9834957,30 39.64035,31.3431458 39.64035,33 L39.64035,54.993131 C39.640377,54.9973862 39.640377,55.001641 39.64035,55.0058952 L39.64035,63.5893575 Z M37.64035,57.1614611 L33.7675317,60.4510543 L37.64035,62.5206021 L37.64035,57.1614611 Z M85.64035,56.9744493 L85.64035,62.3955681 L89.3043943,60.4188647 L85.64035,56.9744493 Z M31.3699676,59.8634474 L37.64035,54.53735 L37.64035,33 C37.64035,30.2385763 39.8789262,28 42.64035,28 L68.2101742,28 C68.2826749,28 68.3543803,28.0078739 68.4241423,28.023156 C68.7350716,27.9526176 69.0812039,28.0266404 69.3474567,28.2928932 L83.7734699,42.7189064 L85.3369974,44.2371762 C85.523112,44.4179036 85.6314004,44.6635541 85.6398193,44.9219969 C85.6430352,44.9667476 85.6431693,45.0115035 85.64035,45.055955 L85.64035,54.2318766 C85.6554975,54.2445281 85.670366,54.2577001 85.6849326,54.2713935 L91.6679206,59.8957513 C91.6794112,59.906058 91.6906841,59.9166526 91.7017317,59.9275356 L92,60.2079253 L92,60.6198391 C92.000258,60.6329439 92.0002572,60.6460356 92,60.6591081 L92.0001932,93.64035 L30.9998033,93.64035 L31,60.6592921 C30.9997381,60.6461045 30.9997374,60.6328972 31,60.619678 L31,60.1776999 L31.3348425,59.8932829 C31.3463428,59.8830456 31.3580552,59.8730992 31.3699676,59.8634474 Z M53.64035,60.5 C53.0880652,60.5 52.64035,60.0522847 52.64035,59.5 C52.64035,58.9477153 53.0880652,58.5 53.64035,58.5 L75.64035,58.5 C76.1926347,58.5 76.64035,58.9477153 76.64035,59.5 C76.64035,60.0522847 76.1926347,60.5 75.64035,60.5 L53.64035,60.5 Z M53.64035,52.5 C53.0880652,52.5 52.64035,52.0522847 52.64035,51.5 C52.64035,50.9477153 53.0880652,50.5 53.64035,50.5 L75.64035,50.5 C76.1926347,50.5 76.64035,50.9477153 76.64035,51.5 C76.64035,52.0522847 76.1926347,52.5 75.64035,52.5 L53.64035,52.5 Z M46.64035,60.5 C46.0880652,60.5 45.64035,60.0522847 45.64035,59.5 C45.64035,58.9477153 46.0880652,58.5 46.64035,58.5 L48.14035,58.5 C48.6926347,58.5 49.14035,58.9477153 49.14035,59.5 C49.14035,60.0522847 48.6926347,60.5 48.14035,60.5 L46.64035,60.5 Z M46.64035,52.5 C46.0880652,52.5 45.64035,52.0522847 45.64035,51.5 C45.64035,50.9477153 46.0880652,50.5 46.64035,50.5 L48.14035,50.5 C48.6926347,50.5 49.14035,50.9477153 49.14035,51.5 C49.14035,52.0522847 48.6926347,52.5 48.14035,52.5 L46.64035,52.5 Z M69.64035,31.7826741 L69.64035,41 C69.64035,42.6568542 70.9834957,44 72.64035,44 L82.2218587,44 L69.64035,31.7826741 Z"/>
  </g>
</svg>
