<svg xmlns="http://www.w3.org/2000/svg" width="128" height="128" viewBox="0 0 128 128">
  <g fill="none" fill-rule="evenodd">
    <path class="background" fill-rule="nonzero" d="M63.6199948,46.7537708 L65.003707,47.6288732 L94.4093077,42.4438724 L92.7544326,33.0586097 L100.920907,31.6186398 L103.82662,48.0977562 L72.9760809,53.5375387 L64.488482,48.0234133 C64.4306845,47.9849053 64.4306845,47.9849053 64.3747309,47.9437638 C63.9711526,47.6397619 63.7152587,47.212434 63.6199948,46.7537708 L63.6199948,46.7537708 Z M71.4459894,76.3428252 L71.4459894,95.2695189 C71.4459894,97.6656902 68.9238988,99.4459894 65.9459894,99.4459894 C62.9680801,99.4459894 60.4459894,97.6656902 60.4459894,95.2695189 L60.4459894,78.282422 L33.1083538,83.1027848 C31.2047238,83.4384461 29.3894194,82.1673563 29.0537581,80.2637263 C28.7180967,78.3600962 29.9891865,76.5447918 31.8928166,76.2091305 L100.829359,64.0537581 C102.732989,63.7180967 104.548294,64.9891865 104.883955,66.8928166 C105.219616,68.7964466 103.948527,70.611751 102.044897,70.9474123 L71.4459894,76.3428252 Z M27.7570913,51.4267501 L24.3930154,52.0806603 C23.8508777,52.1860412 23.3259601,51.8319798 23.2205792,51.2898421 C23.1670566,51.014492 23.2316416,50.7293219 23.3985783,50.5039013 L33.3201402,37.1064546 C33.9155277,36.3057537 35.0546933,36.0843223 35.9066748,36.6036832 L39.6216168,38.8771708 L50.1082066,45.3127899 C50.5789181,45.6016655 50.7263252,46.2174325 50.4374496,46.688144 C50.2909195,46.926909 50.0509554,47.0932619 49.77596,47.1467156 L46.4080078,47.8013792 L48.979535,61.043299 C49.4064441,63.2107961 47.9954188,65.3139779 45.8279217,65.7408871 L45.8181703,65.7427951 L35.0229533,67.842416 C32.8542935,68.2639608 30.7546233,66.8477153 30.3330997,64.6791644 L27.7570913,51.4267501 Z"/>
    <path class="foreground" d="M79.909837,39.4015229 L80.2629216,41.4039653 C80.3588249,41.9478596 79.9956564,42.466518 79.4517621,42.5624212 C78.9078678,42.6583245 78.3892094,42.295156 78.2933061,41.7512617 L77.2398405,35.7767613 C77.1439373,35.232867 77.5071058,34.7142086 78.0510001,34.6183054 C78.5948944,34.5224021 79.1135528,34.8855706 79.209456,35.4294649 L79.5625407,37.4319074 L81.7835964,37.0402753 L81.4305118,35.0378329 C81.3346086,34.4939386 81.6977771,33.9752802 82.2416714,33.879377 C82.7855657,33.7834737 83.3042241,34.1466422 83.4001273,34.6905365 L84.4535929,40.6650369 C84.5494962,41.2089312 84.1863277,41.7275896 83.6424334,41.8234928 C83.0985391,41.9193961 82.5798807,41.5562276 82.4839774,41.0123333 L82.1308928,39.0098908 L79.909837,39.4015229 Z M87.4530453,38.0714517 L87.80613,40.0738942 C87.9020332,40.6177885 87.5388647,41.1364469 86.9949704,41.2323501 C86.4510761,41.3282533 85.9324177,40.9650848 85.8365145,40.4211905 L84.6094007,33.4618824 L89.3658126,32.6231987 C89.9097069,32.5272954 90.4283653,32.8904639 90.5242685,33.4343582 C90.6201718,33.9782525 90.2570032,34.4969109 89.7131089,34.5928142 L86.9263125,35.0842016 L87.105749,36.1018362 L89.0544111,35.7582345 C89.5983054,35.6623313 90.1169638,36.0254998 90.2128671,36.5693941 C90.3087703,37.1132884 89.9456018,37.6319468 89.4017075,37.72785 L87.4530453,38.0714517 Z M91.6876346,44.805087 L91.3308409,56.221528 L63.2481093,55.1360949 L56.6905097,48.6494683 C56.6460439,48.6043995 56.6460439,48.6043995 56.6038143,48.5572056 C56.2405816,48.1411762 56.2833818,47.5094594 56.6994112,47.1462267 C57.1127942,46.7853046 57.7391292,46.8252662 58.1034258,47.2339297 L64.1020255,53.1676065 L89.394755,54.1452024 L89.6755702,45.15987 L65.0545035,49.5012284 L56.5669046,43.9871029 C56.509107,43.948595 56.509107,43.948595 56.4531534,43.9074535 C55.5708831,43.2428689 55.3944139,41.9888951 56.0589986,41.1066247 L62.1487906,33.022112 L92.99933,27.5823295 L95.9050429,44.0614459 L91.6876346,44.8050888 L91.6876346,44.805087 Z M91.3770109,29.8992414 L63.2721479,34.854887 L57.6564904,42.3099617 L65.483268,47.3947724 L93.588131,42.4391268 L91.3770109,29.8992414 Z M74.8965278,37.7367911 C74.2106477,37.1491784 73.3901204,37.2938595 72.9465793,38.0806197 C72.4281359,39.0002428 72.6692872,40.3678798 73.4709943,41.0547248 C74.1568744,41.6423376 74.9774017,41.4976565 75.4209428,40.7108963 C75.6921656,40.2297969 76.3020433,40.0596583 76.7831426,40.3308812 C77.264242,40.602104 77.4343806,41.2119817 77.1631577,41.693081 C76.1007547,43.5775886 73.8126466,43.9810438 72.1697747,42.5735492 C70.6427298,41.2652869 70.2168636,38.8500795 71.2043643,37.0984349 C72.2667674,35.2139274 74.5548755,34.8104722 76.1977474,36.2179667 C76.6171592,36.5772886 76.6658716,37.2085769 76.3065498,37.6279887 C75.9472279,38.0474005 75.3159396,38.096113 74.8965278,37.7367911 Z M65.0342129,43.7845696 C63.5604962,44.0444256 62.1599348,43.0446613 61.8984983,41.5619813 C61.6370618,40.0793012 62.6112195,38.6608099 64.0849362,38.4009538 C65.5586529,38.1410978 66.9592143,39.1408621 67.2206508,40.6235422 C67.4820873,42.1062222 66.5079296,43.5247136 65.0342129,43.7845696 Z M64.6869165,41.8149541 C65.0647549,41.748331 65.3220634,41.3736587 65.2510353,40.9708385 C65.1800072,40.5680183 64.8100709,40.3039463 64.4322325,40.3705694 C64.0543942,40.4371925 63.7970857,40.8118647 63.8681138,41.2146849 C63.9391419,41.6175051 64.3090782,41.8815772 64.6869165,41.8149541 Z M29.6181568,37.1050752 L26.9917775,40.5236413 L19.0352323,50.8800908 C18.6987629,51.3180483 18.0709658,51.4003206 17.6330083,51.0638512 C17.1950508,50.7273818 17.1127784,50.0995847 17.4492479,49.6616272 L25.4057932,39.3051777 L28.0592452,35.851378 C28.6685162,35.06119 29.8113728,34.8596735 30.6541605,35.3938244 L45.3636467,44.7165574 C45.8301309,45.0122108 45.9686168,45.6300453 45.6729635,46.0965296 C45.3773101,46.5630139 44.7594756,46.7014997 44.2929913,46.4058464 L29.6181568,37.1050752 Z M22.4121575,50.6326064 C22.3176056,50.0884756 22.6820614,49.5707209 23.2261923,49.476169 C23.7703231,49.3816172 24.2880778,49.7460729 24.3826296,50.2902038 L26.4356449,62.1049774 C26.6247487,63.1932391 27.660258,63.9221506 28.7535227,63.732171 L39.5841628,61.8236762 C40.6719514,61.6318697 41.3982884,60.5945529 41.2063582,59.5060633 L39.1213598,47.7165316 C39.0251798,47.1726861 39.3880843,46.653843 39.9319298,46.557663 C40.4757752,46.4614831 40.9946183,46.8243876 41.0907983,47.3682331 L43.1760974,59.159468 C43.5597104,61.3350452 42.1070363,63.4096787 39.9313498,63.7933109 L29.1007098,65.7018058 L29.0909223,65.703519 C26.9143989,66.0817265 24.8433803,64.6239034 24.4651728,62.44738 L22.4121575,50.6326064 Z M25.9628879,73.0079012 L94.8994306,60.8525287 C96.8030607,60.5168674 98.618365,61.7879572 98.9540264,63.6915872 C99.2896877,65.5952173 98.0185979,67.4105216 96.1149678,67.746183 L27.1784251,79.9015554 C25.2747951,80.2372168 23.4594907,78.966127 23.1238294,77.0624969 C22.788168,75.1588668 24.0592578,73.3435625 25.9628879,73.0079012 Z M26.3101842,74.9775167 C25.4943428,75.1213715 24.94959,75.8993591 25.0934449,76.7152006 C25.2372997,77.531042 26.0152873,78.0757948 26.8311288,77.9319399 L95.7676715,65.7765675 C96.5835129,65.6327126 97.1282657,64.854725 96.9844108,64.0388836 C96.840556,63.2230421 96.0625684,62.6782894 95.2467269,62.8221442 L26.3101842,74.9775167 Z M64.0389279,76.8770421 C64.0389279,76.3247573 64.4866431,75.8770421 65.0389279,75.8770421 C65.5912126,75.8770421 66.0389279,76.3247573 66.0389279,76.8770421 L66.0389279,91.7005715 C66.0389279,94.0967428 63.5168372,95.8770421 60.5389279,95.8770421 C57.5610185,95.8770421 55.0389279,94.0967428 55.0389279,91.7005715 L55.0389279,78.8770421 C55.0389279,78.3247573 55.4866431,77.8770421 56.0389279,77.8770421 C56.5912126,77.8770421 57.0389279,78.3247573 57.0389279,78.8770421 L57.0389279,91.7005715 C57.0389279,92.8130327 58.5462745,93.8770421 60.5389279,93.8770421 C62.5315812,93.8770421 64.0389279,92.8130327 64.0389279,91.7005715 L64.0389279,76.8770421 Z"/>
  </g>
</svg>
