<svg xmlns="http://www.w3.org/2000/svg" width="128" height="128" viewBox="0 0 128 128">
  <g fill="none" fill-rule="evenodd">
    <path class="background" fill-rule="nonzero" d="M49,67 L85,67 L85,65 L49,65 L49,59 C49,57.8954305 49.8954305,57 51,57 L90,57 C91.1045695,57 92,57.8954305 92,59 L92,81 C92,82.1045695 91.1045695,83 90,83 L51,83 C49.8954305,83 49,82.1045695 49,81 L49,67 Z M61,49 L80,49 C81.1045695,49 82,49.8954305 82,51 L82,55 L59,55 L59,51 C59,49.8954305 59.8954305,49 61,49 Z"/>
    <path class="foreground" d="M44,63 L85,63 L85,54 C85,53.4477153 84.5522847,53 84,53 L45,53 C44.4477153,53 44,53.4477153 44,54 L44,63 L85,63 L44,63 Z M85,65 L85,66 L44,66 L85,66 L85,65 Z M85,65 L44,65 L44,76 C44,76.5522847 44.4477153,77 45,77 L84,77 C84.5522847,77 85,76.5522847 85,76 L85,65 L44,65 L85,65 Z M52,51 L52,46 C52,44.3431458 53.3431458,43 55,43 L74,43 C75.6568542,43 77,44.3431458 77,46 L77,51 L84,51 C85.6568542,51 87,52.3431458 87,54 L87,76 C87,77.6568542 85.6568542,79 84,79 L45,79 C43.3431458,79 42,77.6568542 42,76 L42,54 C42,52.3431458 43.3431458,51 45,51 L52,51 L52,51 Z M54,51 L75,51 L75,46 C75,45.4477153 74.5522847,45 74,45 L55,45 C54.4477153,45 54,45.4477153 54,46 L54,51 Z M63.5,20.4824243 C63.5,19.9301396 63.9477153,19.4824243 64.5,19.4824243 C65.0522847,19.4824243 65.5,19.9301396 65.5,20.4824243 L65.5,31.0167969 C65.5,31.5690816 65.0522847,32.0167969 64.5,32.0167969 C63.9477153,32.0167969 63.5,31.5690816 63.5,31.0167969 L63.5,20.4824243 Z M92.7089247,29.9228215 C93.0635572,29.4994372 93.6942643,29.4437029 94.1176486,29.7983353 C94.5410329,30.1529678 94.5967673,30.783675 94.2421349,31.2070593 L86.8125119,40.0770476 C86.4578794,40.5004319 85.8271722,40.5561662 85.4037879,40.2015338 C84.9804036,39.8469013 84.9246692,39.2161941 85.2793017,38.7928098 L92.7089247,29.9228215 Z M108.71914,56.3315536 C109.263005,56.2354853 109.781774,56.5984965 109.877842,57.1423617 C109.97391,57.6862269 109.610899,58.2049954 109.067034,58.3010636 L97.6841912,60.3117267 C97.140326,60.407795 96.6215575,60.0447838 96.5254893,59.5009187 C96.429421,58.9570535 96.7924322,58.4382849 97.3362974,58.3422167 L108.71914,56.3315536 Z M104.039291,86.8712009 C104.517371,87.1477104 104.680776,87.7594265 104.404267,88.2375069 C104.127757,88.7155874 103.516041,88.8789929 103.037961,88.6024833 L93.0280568,82.8130096 C92.5499764,82.5365001 92.3865709,81.924784 92.6630804,81.4467036 C92.93959,80.9686231 93.5513061,80.8052176 94.0293865,81.0817272 L104.039291,86.8712009 Z M80.8574445,107.25095 C81.0460416,107.770035 80.7781279,108.343725 80.2590425,108.532322 C79.7399571,108.720919 79.1662672,108.453006 78.9776702,107.93392 L75.0244504,97.0532689 C74.8358533,96.5341836 75.103767,95.9604936 75.6228524,95.7718966 C76.1419378,95.5832996 76.7156277,95.8512133 76.9042247,96.3702987 L80.8574445,107.25095 Z M50.0223298,107.93392 C49.8337328,108.453006 49.2600429,108.720919 48.7409575,108.532322 C48.2218721,108.343725 47.9539584,107.770035 48.1425555,107.25095 L52.0957753,96.3702987 C52.2843723,95.8512133 52.8580622,95.5832996 53.3771476,95.7718966 C53.896233,95.9604936 54.1641467,96.5341836 53.9755496,97.0532689 L50.0223298,107.93392 Z M25.9620392,88.6024833 C25.4839587,88.8789929 24.8722427,88.7155874 24.5957331,88.2375069 C24.3192236,87.7594265 24.482629,87.1477104 24.9607095,86.8712009 L34.9706135,81.0817272 C35.4486939,80.8052176 36.06041,80.9686231 36.3369196,81.4467036 C36.6134291,81.924784 36.4500236,82.5365001 35.9719432,82.8130096 L25.9620392,88.6024833 Z M19.9329659,58.3010636 C19.3891007,58.2049954 19.0260896,57.6862269 19.1221578,57.1423617 C19.2182261,56.5984965 19.7369946,56.2354853 20.2808598,56.3315536 L31.6637026,58.3422167 C32.2075678,58.4382849 32.570579,58.9570535 32.4745107,59.5009187 C32.3784425,60.0447838 31.859674,60.407795 31.3158088,60.3117267 L19.9329659,58.3010636 Z M34.7578651,31.2070593 C34.4032327,30.783675 34.4589671,30.1529678 34.8823514,29.7983353 C35.3057357,29.4437029 35.9364428,29.4994372 36.2910753,29.9228215 L43.7206983,38.7928098 C44.0753308,39.2161941 44.0195964,39.8469013 43.5962121,40.2015338 C43.1728278,40.5561662 42.5421206,40.5004319 42.1874881,40.0770476 L34.7578651,31.2070593 Z"/>
  </g>
</svg>
