<svg xmlns="http://www.w3.org/2000/svg" width="128" height="128" viewBox="0 0 128 128">
  <g fill="none" fill-rule="evenodd">
    <path class="background" fill-rule="nonzero" d="M49,34 L87,34 C89.209139,34 91,35.790861 91,38 L91,91 C91,93.209139 89.209139,95 87,95 L49,95 C46.790861,95 45,93.209139 45,91 L45,38 C45,35.790861 46.790861,34 49,34 Z M64,52 C67.3137085,52 70,49.3137085 70,46 C70,42.6862915 67.3137085,40 64,40 C60.6862915,40 58,42.6862915 58,46 C58,49.3137085 60.6862915,52 64,52 Z"/>
    <path class="foreground" d="M49.2927565,29 L83,29 C85.7614237,29 88,31.2385763 88,34 L88,87 C88,89.7614237 85.7614237,92 83,92 L45,92 C42.2385763,92 40,89.7614237 40,87 L40,34 C40,33.8109266 40.0104946,33.6243044 40.0309331,33.440684 C40.0107358,33.361451 40,33.2784364 40,33.1929142 C40,30.8584201 41.6154525,28.8346231 43.8658025,28.3235494 L75.8918945,20.1354318 C78.5846495,19.523442 81.2636745,21.2102355 81.8756643,23.9029905 C81.9582955,24.2665679 82,24.638247 82,25.0110961 L82,26.1435547 C82,26.6958394 81.5522847,27.1435547 81,27.1435547 C80.4477153,27.1435547 80,26.6958394 80,26.1435547 L80,25.0110961 C80,24.7873867 79.9749773,24.5643791 79.9253986,24.3462328 C79.5582047,22.7305797 77.9507897,21.7185036 76.3612287,22.0793981 L49.2927565,29 Z M45,31 C43.3431458,31 42,32.3431458 42,34 L42,87 C42,88.6568542 43.3431458,90 45,90 L83,90 C84.6568542,90 86,88.6568542 86,87 L86,34 C86,32.3431458 84.6568542,31 83,31 L45,31 Z M52,77.5 C51.4477153,77.5 51,77.0522847 51,76.5 C51,75.9477153 51.4477153,75.5 52,75.5 L76.295082,75.5 C76.8473667,75.5 77.295082,75.9477153 77.295082,76.5 C77.295082,77.0522847 76.8473667,77.5 76.295082,77.5 L52,77.5 Z M52,82.5 C51.4477153,82.5 51,82.0522847 51,81.5 C51,80.9477153 51.4477153,80.5 52,80.5 L76.295082,80.5 C76.8473667,80.5 77.295082,80.9477153 77.295082,81.5 C77.295082,82.0522847 76.8473667,82.5 76.295082,82.5 L52,82.5 Z M64,56 C57.9248678,56 53,60.9248678 53,67 C53,67.5522847 52.5522847,68 52,68 C51.4477153,68 51,67.5522847 51,67 C51,59.8202983 56.8202983,54 64,54 C71.1797017,54 77,59.8202983 77,67 C77,67.5522847 76.5522847,68 76,68 L59.6079102,68 C59.0556254,68 58.6079102,67.5522847 58.6079102,67 C58.6079102,66.4477153 59.0556254,66 59.6079102,66 L74.955157,66 C74.4499282,60.3935 69.7380426,56 64,56 Z M64.0789474,51 C66.8868775,51 69.1578947,48.7584765 69.1578947,46 C69.1578947,43.2415235 66.8868775,41 64.0789474,41 C61.2710172,41 59,43.2415235 59,46 C59,48.7584765 61.2710172,51 64.0789474,51 Z M64.0789474,53 C60.1722576,53 57,49.8689405 57,46 C57,42.1310595 60.1722576,39 64.0789474,39 C67.9856371,39 71.1578947,42.1310595 71.1578947,46 C71.1578947,49.8689405 67.9856371,53 64.0789474,53 Z"/>
  </g>
</svg>
