<svg width="128" height="128" viewBox="0 0 128 128" fill="none" xmlns="http://www.w3.org/2000/svg">
<path class="background" fill-rule="evenodd" clip-rule="evenodd" d="M87.3174 41.6196L82.0532 41.6236V63.8307C82.0532 64.6359 81.3891 65.2886 80.57 65.2886H53.1306C52.3114 65.2886 51.6474 64.6359 51.6474 63.8307V41.6462L45.5955 41.6507C44.9549 41.6512 44.6259 40.8848 45.0819 40.435L65.3585 20.4342C65.9537 19.8492 66.9188 19.8493 67.5142 20.4345L87.8188 40.393C88.2756 40.8421 87.958 41.6192 87.3174 41.6196ZM68.9064 51.2939C69.3028 50.9094 69.3126 50.2763 68.9281 49.8798C68.5436 49.4833 67.9106 49.4736 67.5141 49.8581C64.8266 52.4641 60.4569 52.4641 57.7694 49.8581C57.3729 49.4736 56.7399 49.4833 56.3554 49.8798C55.9709 50.2763 55.9807 50.9094 56.3771 51.2939C59.8404 54.6522 65.4431 54.6522 68.9064 51.2939ZM22.0992 69.5286L34.175 47.8351C35.3164 45.7846 37.9068 45.0521 39.9529 46.2013C41.9039 47.2969 42.6669 49.7205 41.6954 51.7361L37.4498 60.5458C39.2578 60.786 40.6452 62.3417 40.6289 64.2123L40.5251 76.1007C40.5251 76.1007 44.1251 83.7545 44.022 95.5764H28.9582L28.9682 95.5306H28.5805L22.027 70.0897C21.9782 69.9003 22.0041 69.6995 22.0992 69.5286ZM47.4582 97.9955V106.995H23.4582V97.9955H47.4582ZM105.881 95.5306H105.493L105.503 95.5764H90.4391C90.3359 83.7545 93.9359 76.1007 93.9359 76.1007L93.8322 64.2123C93.8159 62.3417 95.2033 60.786 97.0113 60.5458L92.7656 51.7361C91.7942 49.7205 92.5572 47.2969 94.5081 46.2013C96.5543 45.0521 99.1447 45.7846 100.286 47.8351L112.362 69.5286C112.457 69.6995 112.483 69.9003 112.434 70.0897L105.881 95.5306ZM111.003 106.995H87.0029V97.9955H111.003V106.995Z" fill="#FFEAE3"/>
<path class="foreground" d="M59.8986 14.7563C60.911 13.7613 62.5453 13.7613 63.5576 14.7563L86.1188 36.9329C86.5127 37.3201 86.5181 37.9532 86.131 38.3471C85.7438 38.741 85.1107 38.7464 84.7168 38.3593L62.1556 16.1827C61.9215 15.9525 61.5348 15.9525 61.3006 16.1827L38.7784 38.3986C38.3852 38.7865 37.7521 38.7821 37.3642 38.3889C36.9764 37.9958 36.9807 37.3626 37.3739 36.9748L59.8986 14.7563ZM78.3417 59.1187C78.3417 60.4924 77.2137 61.5767 75.8585 61.5767H48.4191C47.0639 61.5767 45.9359 60.4924 45.9359 59.1187V36.5681C45.9359 36.0159 46.3836 35.5681 46.9359 35.5681C47.4882 35.5681 47.9359 36.0159 47.9359 36.5681V59.1187C47.9359 59.3555 48.136 59.5767 48.4191 59.5767H75.8585C76.1416 59.5767 76.3417 59.3555 76.3417 59.1187V36.5209C76.3417 35.9686 76.7894 35.5209 77.3417 35.5209C77.894 35.5209 78.3417 35.9686 78.3417 36.5209V59.1187ZM55.6054 47.7561C55.9899 47.3596 56.623 47.3498 57.0195 47.7343C59.7069 50.3404 64.0766 50.3404 66.7641 47.7343C67.1606 47.3498 67.7937 47.3596 68.1781 47.7561C68.5626 48.1525 68.5529 48.7856 68.1564 49.1701C64.6931 52.5284 59.0904 52.5284 55.6272 49.1701C55.2307 48.7856 55.2209 48.1525 55.6054 47.7561ZM96.8655 43.2624L108.941 64.956C109.161 65.3509 109.221 65.8151 109.108 66.2528L102.555 91.6937C102.417 92.2286 101.872 92.5504 101.337 92.4127C100.802 92.2749 100.48 91.7297 100.618 91.1948L107.148 65.8458L95.118 44.2352C94.246 42.6686 92.2669 42.1089 90.7036 42.9869C89.2129 43.824 88.63 45.6757 89.3721 47.2157L93.372 55.5154C93.4011 55.5146 93.4303 55.5141 93.4595 55.5138C96.0368 55.4913 98.1442 57.5624 98.1667 60.1396L98.2705 72.028C98.2753 72.5803 97.8315 73.0319 97.2792 73.0367C96.727 73.0415 96.2754 72.5978 96.2707 72.0455L96.1668 60.1571C96.154 58.6844 94.9497 57.5009 93.477 57.5138C92.0043 57.5266 90.8208 58.7309 90.8337 60.2036L90.9394 72.32L90.8427 72.5256L90.8418 72.5277L90.8361 72.54C90.8307 72.5517 90.8222 72.5706 90.8106 72.5963L90.81 72.5976C90.7865 72.6505 90.7505 72.7323 90.7041 72.8421C90.6112 73.0617 90.4765 73.3934 90.3138 73.8303C89.9884 74.7041 89.5521 75.9983 89.1178 77.6585C88.249 80.9796 87.3899 85.7597 87.4406 91.5677C87.4454 92.12 87.0016 92.5716 86.4493 92.5764C85.8971 92.5812 85.4455 92.1375 85.4407 91.5852C85.3882 85.5713 86.2775 80.6136 87.1829 77.1523C87.6358 75.4213 88.0931 74.0631 88.4394 73.1325C88.6127 72.6671 88.7583 72.3085 88.8619 72.0633C88.8896 71.9979 88.9142 71.9406 88.9356 71.8915L88.8338 60.2211C88.8178 58.3876 89.8613 56.7918 91.3929 56.0154L87.5705 48.084C86.3698 45.5927 87.3129 42.5972 89.7242 41.2431C92.2531 39.8228 95.4548 40.7281 96.8655 43.2624ZM107.004 93.9956V102.995H83.004V93.9956H107.004ZM85.004 100.995H105.004V95.9956H85.004V100.995ZM30.3456 44.2352L18.3159 65.8458L24.8458 91.1948C24.9835 91.7297 24.6616 92.2749 24.1268 92.4127C23.592 92.5504 23.0467 92.2286 22.909 91.6937L16.3555 66.2528C16.2427 65.8151 16.3025 65.3509 16.5223 64.956L28.5981 43.2624C30.0088 40.7281 33.2105 39.8228 35.7395 41.2431C38.1508 42.5972 39.0938 45.5927 37.8932 48.084L34.0708 56.0154C35.6023 56.7918 36.6459 58.3876 36.6299 60.2211L36.528 71.8915C36.5494 71.9406 36.5741 71.9979 36.6017 72.0633C36.7053 72.3085 36.851 72.6671 37.0242 73.1325C37.3707 74.0631 37.8279 75.4213 38.2807 77.1523C39.1862 80.6136 40.0754 85.5713 40.023 91.5852C40.0181 92.1375 39.5665 92.5812 39.0143 92.5764C38.462 92.5716 38.0182 92.12 38.023 91.5677C38.0737 85.7597 37.2146 80.9796 36.3458 77.6585C35.9115 75.9983 35.4752 74.7041 35.1499 73.8303C34.9872 73.3934 34.8524 73.0617 34.7596 72.8421C34.7131 72.7323 34.6772 72.6505 34.6536 72.5976C34.6463 72.581 34.64 72.5673 34.6351 72.5564C34.6321 72.5499 34.6296 72.5444 34.6275 72.54L34.6218 72.5277L34.6213 72.5264L34.5242 72.32L34.6299 60.2036C34.6428 58.7309 33.4594 57.5266 31.9866 57.5138C30.5139 57.5009 29.3097 58.6844 29.2968 60.1571L29.1931 72.0455C29.1882 72.5978 28.7366 73.0415 28.1844 73.0367C27.6321 73.0319 27.1883 72.5803 27.1931 72.028L27.2969 60.1396C27.3194 57.5624 29.4269 55.4913 32.0041 55.5138C32.0333 55.5141 32.0625 55.5146 32.0916 55.5154L36.0915 47.2157C36.8337 45.6757 36.2507 43.824 34.7601 42.9869C33.1968 42.1089 31.2177 42.6686 30.3456 44.2352ZM42.459 102.995H18.459V93.9956H42.459V102.995ZM20.459 95.9956V100.995H40.459V95.9956H20.459Z" fill="#F76B1C"/>
</svg>
