<svg xmlns="http://www.w3.org/2000/svg" width="128" height="128" viewBox="0 0 128 128">
  <g fill="none" fill-rule="evenodd">
    <path class="background" fill-rule="nonzero" d="M72,34 L72,46 L86.9275289,46 L91,49.9545898 L91,91 C91,93.209139 89.209139,95 87,95 L49,95 C46.790861,95 45,93.209139 45,91 L45,65.662178 C46.4708668,66.5130286 48.1785643,67 50,67 C55.5228475,67 60,62.5228475 60,57 C60,53.9761065 58.6578262,51.2656945 56.5367126,49.4319981 C54.8537111,46.7687296 51.88341,45 48.5,45 C47.2639962,45 46.0831232,45.2360434 45,45.6655113 L45,38 C45,35.790861 46.790861,34 49,34 L72,34 Z"/>
    <path class="foreground" d="M70,31 L45,31 C43.3431458,31 42,32.3431458 42,34 L42,42.5424805 C42,43.0947652 41.5522847,43.5424805 41,43.5424805 C40.4477153,43.5424805 40,43.0947652 40,42.5424805 L40,34 C40,31.2385763 42.2385763,29 45,29 L70.5698242,29 C70.6423249,29 70.7140303,29.0078739 70.7837924,29.023156 C71.0947216,28.9526176 71.4408539,29.0266404 71.7071068,29.2928932 L86.1331199,43.7189064 L87.6966475,45.2371762 C87.8827621,45.4179036 87.9910504,45.6635541 87.9994694,45.9219969 C88.0026852,45.9667476 88.0028193,46.0115035 88,46.055955 L88,87 C88,89.7614237 85.7614237,92 83,92 L45,92 C42.2385763,92 40,89.7614237 40,87 L40,70.2094727 C40,69.6571879 40.4477153,69.2094727 41,69.2094727 C41.5522847,69.2094727 42,69.6571879 42,70.2094727 L42,87 C42,88.6568542 43.3431458,90 45,90 L83,90 C84.6568542,90 86,88.6568542 86,87 L86,47 L75,47 C72.2385763,47 70,44.7614237 70,42 L70,31 Z M84.5815088,45 L72,32.7826741 L72,42 C72,43.6568542 73.3431458,45 75,45 L84.5815088,45 Z M55,69.5 C54.4477153,69.5 54,69.0522847 54,68.5 C54,67.9477153 54.4477153,67.5 55,67.5 L79,67.5 C79.5522847,67.5 80,67.9477153 80,68.5 C80,69.0522847 79.5522847,69.5 79,69.5 L55,69.5 Z M55,77.5 C54.4477153,77.5 54,77.0522847 54,76.5 C54,75.9477153 54.4477153,75.5 55,75.5 L79,75.5 C79.5522847,75.5 80,75.9477153 80,76.5 C80,77.0522847 79.5522847,77.5 79,77.5 L55,77.5 Z M49,69.5 C48.4477153,69.5 48,69.0522847 48,68.5 C48,67.9477153 48.4477153,67.5 49,67.5 L50.5,67.5 C51.0522847,67.5 51.5,67.9477153 51.5,68.5 C51.5,69.0522847 51.0522847,69.5 50.5,69.5 L49,69.5 Z M62,51.5 L79,51.5 C80.3333333,51.5 80.3333333,53.5 79,53.5 L62,53.5 C60.6666667,53.5 60.6666667,51.5 62,51.5 Z M49,77.5 C48.4477153,77.5 48,77.0522847 48,76.5 C48,75.9477153 48.4477153,75.5 49,75.5 L50.5,75.5 C51.0522847,75.5 51.5,75.9477153 51.5,76.5 C51.5,77.0522847 51.0522847,77.5 50.5,77.5 L49,77.5 Z M62,59.5 L79,59.5 C80.3333333,59.5 80.3333333,61.5 79,61.5 L62,61.5 C60.6666667,61.5 60.6666667,59.5 62,59.5 Z M38.7389428,65.2229978 C39.271646,66.3381256 39.0761795,67.7141884 38.1525433,68.6378246 L29.6672619,77.123106 C28.495689,78.2946789 26.5961941,78.2946789 25.4246212,77.123106 C24.2530483,75.9515331 24.2530483,74.0520382 25.4246212,72.8804653 L33.9099026,64.395184 C34.8335387,63.4715478 36.2096015,63.2760812 37.3247292,63.8087843 L39.5999908,61.5335228 C36.1872301,57.408621 36.4118543,51.2866305 40.2738636,47.4246212 C44.3743687,43.3241161 51.0226009,43.3241161 55.123106,47.4246212 C59.2236111,51.5251263 59.2236111,58.1733585 55.123106,62.2738636 C51.2610967,66.1358729 45.1391061,66.3604972 41.0142044,62.9477364 L38.7389428,65.2229978 L38.7389428,65.2229978 Z M41.6880772,60.85965 C45.0075336,64.1791065 50.389436,64.1791065 53.7088924,60.85965 C57.0283489,57.5401936 57.0283489,52.1582912 53.7088924,48.8388348 C50.389436,45.5193783 45.0075336,45.5193783 41.6880772,48.8388348 C38.3686207,52.1582912 38.3686207,57.5401936 41.6880772,60.85965 Z M36.7383297,65.8093975 C36.3478054,65.4188732 35.7146404,65.4188732 35.3241161,65.8093975 L26.8388348,74.2946789 C26.4483105,74.6852032 26.4483105,75.3183682 26.8388348,75.7088924 C27.2293591,76.0994167 27.862524,76.0994167 28.2530483,75.7088924 L36.7383297,67.2236111 C37.128854,66.8330868 37.128854,66.1999218 36.7383297,65.8093975 Z M50.9592774,52.7071068 C51.3498017,52.3165825 51.9829667,52.3165825 52.373491,52.7071068 C52.7640153,53.0976311 52.7640153,53.7307961 52.373491,54.1213203 L47.8620549,58.6327564 C47.4715307,59.0232807 46.8383657,59.0232807 46.4478414,58.6327564 L43.7071068,55.8920218 C43.3165825,55.5014975 43.3165825,54.8683325 43.7071068,54.4778082 C44.0976311,54.0872839 44.7307961,54.0872839 45.1213203,54.4778082 L47.1549482,56.5114361 L50.9592774,52.7071068 Z"/>
  </g>
</svg>
