<svg xmlns="http://www.w3.org/2000/svg" width="128" height="128" viewBox="0 0 128 128">
  <g fill="none" fill-rule="evenodd">
    <path class="background" fill-rule="nonzero" d="M94.0012883,88.0000034 C89.0300227,96.3836573 79.9177716,102 69.5,102 C53.7598846,102 41,89.1790633 41,73.3636364 L41,60.6363636 C41,44.8209367 53.7598846,32 69.5,32 C82.6082176,32 93.6495263,40.8918314 96.9754578,53 L97.06911,53 C100.339803,53 103.452918,54.2364061 106.021292,56.4965297 C109.752413,59.7798497 112,64.9149723 112,70.5 C112,80.1984745 105.277653,88 97.06911,88 L94.0012904,88 L94.0012883,88.0000034 Z M93,77.4117647 C93,78.6264196 92.9233618,79.8238806 92.7744582,81 L95.2,81 C101.687276,81 107,74.9816803 107,67.5 C107,63.1915501 105.223715,59.2301698 102.27498,56.6973229 C100.245173,54.953799 97.7848543,54 95.2,54 L93,54 L93,77.4117647 Z"/>
    <path class="foreground" d="M34.0160826,52 C34.5347416,35.8979574 47.5328871,23 63.5,23 C79.3949129,23 92.3476477,35.7815772 92.976117,51.7817669 C92.991753,51.8520132 93,51.9250435 93,52 L95.2,52 C98.2740552,52 101.193369,53.1317389 103.578152,55.1801732 C106.974331,58.0973574 109,62.6149 109,67.5 C109,76.0345775 102.851213,83 95.2,83 L92.4481245,83 C89.7101569,96.6763822 77.111079,107 62,107 C61.4477153,107 61,106.552285 61,106 L61,94.7058824 C61,94.1535976 61.4477153,93.7058824 62,93.7058824 L74,93.7058824 C74.5522847,93.7058824 75,94.1535976 75,94.7058824 C75,95.2581671 74.5522847,95.7058824 74,95.7058824 L63,95.7058824 L63,104.983912 C78.5629511,104.482393 91,92.3192935 91,77.4117647 L91,53 C91,37.5321716 78.6839003,25 63.5,25 C48.3160997,25 36,37.5321716 36,53 L36,82 C36,82.5522847 35.5522847,83 35,83 L30.9558468,83 C23.7533166,83 18,76.0224022 18,67.5 C18,62.6293882 19.8880833,58.1213816 23.0619435,55.2026734 C25.3028838,53.1418861 28.054119,52 30.9558468,52 L34.0160826,52 Z M34,54 L30.9558468,54 C28.5718671,54 26.2982532,54.9436518 24.4157442,56.6748227 C21.6631344,59.2061456 20,63.1770619 20,67.5 C20,74.9938556 24.9523133,81 30.9558468,81 L34,81 L34,54 Z M93,77.4117647 C93,78.6264196 92.9233618,79.8238806 92.7744582,81 L95.2,81 C101.687276,81 107,74.9816803 107,67.5 C107,63.1915501 105.223715,59.2301698 102.27498,56.6973229 C100.245173,54.953799 97.7848543,54 95.2,54 L93,54 L93,77.4117647 Z"/>
  </g>
</svg>
