<svg xmlns="http://www.w3.org/2000/svg" width="128" height="128" viewBox="0 0 128 128">
  <g fill="none" fill-rule="evenodd">
    <path class="background" fill-rule="nonzero" d="M84.8855935,47.8352926 L84.8855935,68.4738565 C84.8855935,69.2221787 84.2684387,69.8288136 83.5071396,69.8288136 L58.0058534,69.8288136 C57.2445543,69.8288136 56.6273995,69.2221787 56.6273995,68.4738565 L56.6273995,47.8563337 L50.5991972,47.8608222 C50.4652977,47.860922 50.3369552,47.8073014 50.2429244,47.7119741 C50.0490391,47.5154157 50.0512062,47.1988985 50.2477646,47.0050132 L50.2477004,47.0049482 C62.9955853,34.4304349 69.3697182,28.142991 69.3700993,28.1426164 C69.9232744,27.5988719 70.8202492,27.5989732 71.3735486,28.1428426 L90.5319981,46.9747702 C90.6275391,47.0686829 90.6813965,47.197008 90.6814962,47.3309769 C90.6817019,47.6071192 90.458011,47.8311434 90.1818687,47.831349 L84.8855935,47.8352926 Z M47,84.0270531 C53.9847199,84.2189858 59.7995347,85.4321903 64.4444444,87.6666667 L76.3333333,87.6666667 C78.1119703,87.6666667 79.5948182,88.9330902 79.9293492,90.6134095 L80,90.6112159 L88.7835628,86.472197 C90.8771388,85.4856552 93.376954,86.2967013 94.4925694,88.3244408 C94.4950524,88.3289538 94.4975268,88.3334715 94.4999928,88.3379939 C95.5844665,90.3268351 94.8513318,92.8182492 92.8624905,93.902723 L71.3784077,105.617546 C70.9281108,105.863083 70.4006932,105.926243 69.9051529,105.793972 L47,99.6800579 L47,103 L40,103 L40,81 L47,81 L47,84.0270531 L47,84.0270531 Z M59.8971307,56.0938474 C63.3603964,59.4521657 68.9630884,59.4521657 72.4263541,56.0938474 C72.8228396,55.7093767 72.8325794,55.0762866 72.4481087,54.6798012 C72.063638,54.2833157 71.4305479,54.2735759 71.0340625,54.6580466 C68.3465706,57.2640993 63.9769142,57.2640993 61.2894223,54.6580466 C60.8929369,54.2735759 60.2598468,54.2833157 59.8753761,54.6798012 C59.4909054,55.0762866 59.5006452,55.7093767 59.8971307,56.0938474 Z"/>
    <path class="foreground" d="M65.854396,66.4245072 C66.2508814,66.8089779 66.2606213,67.4420679 65.8761506,67.8385534 C65.4916798,68.2350388 64.8585898,68.2447787 64.4621043,67.8603079 C61.7746125,65.2542552 57.404956,65.2542552 54.7174642,67.8603079 C54.3209788,68.2447787 53.6878887,68.2350388 53.303418,67.8385534 C52.9189472,67.4420679 52.9286871,66.8089779 53.3251725,66.4245072 C56.7884383,63.0661888 62.3911302,63.0661888 65.854396,66.4245072 Z M46.0023305,37.6157953 C46.0017954,37.5866937 46.0015267,37.5575271 46.0015267,37.5282977 C46.0015267,34.9509689 48.0908645,32.861631 50.6681933,32.861631 L62.5570822,32.861631 C63.109367,32.861631 63.5570822,33.3093463 63.5570822,33.861631 C63.5570822,34.4139158 63.109367,34.861631 62.5570822,34.861631 L50.6681933,34.861631 C49.195434,34.861631 48.0015267,36.0555384 48.0015267,37.5282977 C48.0015267,39.001057 49.195434,40.1949644 50.6681933,40.1949644 L62.7851055,40.1949644 L62.9905889,40.293814 C67.9234085,42.666792 74.259676,43.861631 82.0015267,43.861631 C82.5538114,43.861631 83.0015267,44.3093463 83.0015267,44.861631 C83.0015267,45.4139158 82.5538114,45.861631 82.0015267,45.861631 C74.0859654,45.861631 67.5284926,44.6447582 62.3311598,42.1949644 L50.6681933,42.1949644 C48.8346528,42.1949644 47.2480875,41.1375383 46.485061,39.59925 L38.6442312,43.2940314 C36.0730395,44.5056366 33.0029319,43.5095635 31.6328068,41.019228 C31.6281796,41.0108051 31.6281796,41.0108051 31.6235736,41.0023706 C30.2747027,38.5286453 31.1865774,35.4298187 33.6603027,34.0809478 L55.1443855,22.3661248 C55.8198308,21.9978186 56.6109572,21.9030793 57.3542677,22.101486 L82.2594206,28.7492461 C82.7930233,28.891677 83.1101308,29.4397105 82.9676999,29.9733132 C82.825269,30.506916 82.2772355,30.8240234 81.7436327,30.6815925 L56.8384799,24.0338325 C56.5907097,23.9676969 56.3270009,23.9992767 56.1018525,24.1220454 L34.6177697,35.8368684 C33.1138125,36.6569449 32.5594176,38.5409465 33.3794942,40.0449037 L33.3851077,40.0551525 C34.2462135,41.620296 36.1757362,42.246315 37.7916966,41.4848368 L46.0023305,37.6157953 L46.0023305,37.6157953 Z M74.7308036,77.3592417 C74.7308036,77.9115264 74.2830884,78.3592417 73.7308036,78.3592417 C73.1785189,78.3592417 72.7308036,77.9115264 72.7308036,77.3592417 L72.7308036,56.4014528 C72.7308036,56.2093002 72.5651758,56.0464956 72.3523498,56.0464956 L46.8510635,56.0464956 C46.6382375,56.0464956 46.4726097,56.2093002 46.4726097,56.4014528 L46.4726097,77.4031243 C46.4726097,77.9554091 46.0248944,78.4031243 45.4726097,78.4031243 C44.9203249,78.4031243 44.4726097,77.9554091 44.4726097,77.4031243 L44.4726097,56.4014528 C44.4726097,55.096961 45.5412915,54.0464956 46.8510635,54.0464956 L72.3523498,54.0464956 C73.6621219,54.0464956 74.7308036,55.096961 74.7308036,56.4014528 L74.7308036,77.3592417 Z M37.2660172,77.0705019 C36.8721505,76.6833489 36.8667079,76.0502073 37.2538609,75.6563406 C37.6410139,75.2624738 38.2741555,75.2570313 38.6680222,75.6441843 L59.6356479,96.2544025 C59.8257909,96.4413044 60.1410779,96.4413044 60.3312208,96.2544025 C61.2022125,95.3952533 61.2022125,95.3952533 65.5634292,91.093343 C71.6687193,85.0710753 71.6687193,85.0710753 81.2625717,75.6076835 C81.6557602,75.2198417 82.2889104,75.2241761 82.6767522,75.6173646 C83.0645939,76.0105531 83.0602596,76.6437033 82.6670711,77.031545 C73.0732186,86.4949368 73.0732186,86.4949368 66.9679285,92.5172046 C62.6071273,96.8187058 62.6071273,96.8187058 61.7332259,97.6807201 C60.7649085,98.6325319 59.2019602,98.6325319 58.2336428,97.6807201 L37.2660172,77.0705019 Z M92.0015267,46.861631 L92.0015267,26.861631 L87.0015267,26.861631 L87.0015267,46.861631 L92.0015267,46.861631 Z M85.0015267,48.861631 L85.0015267,24.861631 L94.0015267,24.861631 L94.0015267,48.861631 L85.0015267,48.861631 Z" transform="rotate(-180 62.5 60.197)"/>
  </g>
</svg>
