<svg xmlns="http://www.w3.org/2000/svg" width="128" height="128" viewBox="0 0 128 128">
  <g fill="none" fill-rule="evenodd">
    <path class="background" fill-rule="nonzero" d="M92.2607398,73.6771676 L64,73.6771676 L55,81.6771676 L64,90.051132 L92.2607398,90.0109923 L92.2607398,93.2607737 C92.2607398,94.4456171 91.283578,95.4061225 90.0781878,95.4061225 L49.7011513,95.4061225 C48.4957611,95.4061225 47.5185994,94.4456171 47.5185994,93.2607737 L47.5185994,60.6163625 L40.9228962,60.6212737 C40.3871944,60.6216726 39.8737244,60.4071487 39.4975282,60.0257656 C38.7218366,59.2393791 38.7305065,57.9730646 39.516893,57.1973729 L39.5169089,57.197389 C58.3014147,38.668353 67.6939586,29.403549 67.6945407,29.4029769 C68.5704012,28.5420481 69.9906114,28.5422085 70.8666688,29.4033351 L99.0971571,57.1526847 C99.479321,57.5283353 99.6947508,58.041636 99.6951498,58.5775114 C99.6959722,59.6820806 98.8012087,60.5781776 97.6966395,60.579 L92.2607398,60.5830476 L92.2607398,73.6771676 Z"/>
    <path class="foreground" d="M83.4418834,82.1771676 L83.4418834,85.6771676 C83.4418834,86.2294523 82.9941682,86.6771676 82.4418834,86.6771676 C81.8895987,86.6771676 81.4418834,86.2294523 81.4418834,85.6771676 L81.4418834,77.6771676 C81.4418834,77.1248828 81.8895987,76.6771676 82.4418834,76.6771676 C82.9941682,76.6771676 83.4418834,77.1248828 83.4418834,77.6771676 L83.4418834,80.1771676 L86.4418834,80.1771676 L86.4418834,77.6771676 C86.4418834,77.1248828 86.8895987,76.6771676 87.4418834,76.6771676 C87.9941682,76.6771676 88.4418834,77.1248828 88.4418834,77.6771676 L88.4418834,85.6771676 C88.4418834,86.2294523 87.9941682,86.6771676 87.4418834,86.6771676 C86.8895987,86.6771676 86.4418834,86.2294523 86.4418834,85.6771676 L86.4418834,82.1771676 L83.4418834,82.1771676 L83.4418834,82.1771676 Z M92.4418834,80.1771676 L94.9418834,80.1771676 C95.4941682,80.1771676 95.9418834,80.6248828 95.9418834,81.1771676 C95.9418834,81.7294523 95.4941682,82.1771676 94.9418834,82.1771676 L92.4418834,82.1771676 L92.4418834,85.6771676 C92.4418834,86.2294523 91.9941682,86.6771676 91.4418834,86.6771676 C90.8895987,86.6771676 90.4418834,86.2294523 90.4418834,85.6771676 L90.4418834,76.6771676 L95.9418834,76.6771676 C96.4941682,76.6771676 96.9418834,77.1248828 96.9418834,77.6771676 C96.9418834,78.2294523 96.4941682,78.6771676 95.9418834,78.6771676 L92.4418834,78.6771676 L92.4418834,80.1771676 L92.4418834,80.1771676 Z M96.0459721,91.6771676 L63.8261876,91.6771676 L54.6387308,83.1424778 C54.585398,83.0917006 54.585398,83.0917006 54.5346208,83.0383678 C53.7828507,82.2290993 53.8294623,80.9636275 54.6387308,80.2118574 L63.8261876,71.6771676 L101.941883,71.6771676 L101.941883,91.6771676 L98.1165244,91.6771676 L94.2178749,106.227126 L60.2640774,97.1292331 L54.0521771,87.5917853 C54.0146606,87.5326137 54.0146606,87.5326137 53.9800577,87.4716153 C53.7134824,86.9879252 53.8894887,86.379715 54.3731788,86.1131398 C54.8558083,85.847149 55.4624126,86.0218012 55.729896,86.5030838 L61.5217973,95.3956858 L92.8036613,103.777636 L96.0459721,91.6771676 L96.0459721,91.6771676 Z M99.9418834,89.6771676 L99.9418834,73.6771676 L64.6118028,73.6771676 L55.999931,81.6771676 L64.6118028,89.6771676 L99.9418834,89.6771676 Z M96.3641887,54.595798 C96.7580554,54.982951 96.7634979,55.6160926 96.3763449,56.0099593 C95.9891919,56.403826 95.3560503,56.4092686 94.9621836,56.0221156 L61.763443,23.38927 C61.2354158,22.8702433 60.3723101,22.8702433 59.8442829,23.38927 C59.500273,23.7286036 59.500273,23.7286036 57.7737116,25.4316856 C55.3569132,27.815619 55.3569132,27.815619 51.5592255,31.5616639 C41.8925162,41.0969212 41.8925162,41.0969212 26.7022498,56.0806248 C26.3090613,56.4684666 25.6759112,56.4641322 25.2880694,56.0709437 C24.9002276,55.6777552 24.904562,55.0446051 25.2977505,54.6567633 C40.4880169,39.6730596 40.4880169,39.6730596 50.1547262,30.1378023 C53.952414,26.3917574 53.952414,26.3917574 56.3692125,24.0078239 C58.0953586,22.3051508 58.0953586,22.3051508 58.4422779,21.9629524 C59.7484795,20.6790159 61.8592464,20.6790159 63.1654481,21.9629524 L96.3641887,54.595798 Z M38.0371949,53.7226174 C38.0371949,53.1703326 38.4849102,52.7226174 39.0371949,52.7226174 C39.5894797,52.7226174 40.0371949,53.1703326 40.0371949,53.7226174 L40.0371949,86.9057832 C40.0371949,87.534457 40.5628297,88.051132 41.2197468,88.051132 L51.3041881,88.051132 C51.8564729,88.051132 52.3041881,88.4988472 52.3041881,89.051132 C52.3041881,89.6034167 51.8564729,90.051132 51.3041881,90.051132 L41.2197468,90.051132 C39.4658836,90.051132 38.0371949,88.6467962 38.0371949,86.9057832 L38.0371949,53.7226174 Z M84.7793353,68.5936715 C84.7793353,69.1459562 84.3316201,69.5936715 83.7793353,69.5936715 C83.2270506,69.5936715 82.7793353,69.1459562 82.7793353,68.5936715 L82.7793353,53.6531366 C82.7793353,53.1008518 83.2270506,52.6531366 83.7793353,52.6531366 C84.3316201,52.6531366 84.7793353,53.1008518 84.7793353,53.6531366 L84.7793353,68.5936715 Z M78.3119986,79.5088092 C77.3376698,78.3999537 75.818175,78.3999537 74.8438462,79.5088092 C73.8029896,80.6933781 73.8029896,82.660957 74.8438462,83.845526 C75.818175,84.9543814 77.3376698,84.9543814 78.3119986,83.845526 C78.6765445,83.4306468 79.3083933,83.3898436 79.7232725,83.7543895 C80.1381517,84.1189354 80.1789549,84.7507842 79.814409,85.1656634 C78.0435717,87.1810023 75.1122731,87.1810023 73.3414358,85.1656634 C71.6371264,83.226038 71.6371264,80.1282971 73.3414358,78.1886717 C75.1122731,76.1733329 78.0435717,76.1733329 79.814409,78.1886717 C80.1789549,78.6035509 80.1381517,79.2353998 79.7232725,79.5999457 C79.3083933,79.9644915 78.6765445,79.9236884 78.3119986,79.5088092 Z M65.0092662,84.6771676 C63.0762696,84.6771676 61.5092662,83.1101642 61.5092662,81.1771676 C61.5092662,79.2441709 63.0762696,77.6771676 65.0092662,77.6771676 C66.9422629,77.6771676 68.5092662,79.2441709 68.5092662,81.1771676 C68.5092662,83.1101642 66.9422629,84.6771676 65.0092662,84.6771676 Z M65.0092662,82.6771676 C65.8376934,82.6771676 66.5092662,82.0055947 66.5092662,81.1771676 C66.5092662,80.3487404 65.8376934,79.6771676 65.0092662,79.6771676 C64.1808391,79.6771676 63.5092662,80.3487404 63.5092662,81.1771676 C63.5092662,82.0055947 64.1808391,82.6771676 65.0092662,82.6771676 Z"/>
  </g>
</svg>
