<svg xmlns="http://www.w3.org/2000/svg" width="128" height="128" viewBox="0 0 128 128">
  <g fill="none" fill-rule="evenodd">
    <path class="background" fill-rule="nonzero" d="M92.7816839,54.5817351 C97.396067,54.5597435 101.454179,57.6691264 102.689649,62.1733587 C103.040317,63.530574 103.094561,64.9489461 102.848601,66.329581 L99.5257613,85.5540258 C98.8172614,89.8616136 95.1317521,93.0142474 90.8212843,92.9999516 L64.7879315,92.9999516 C59.7818934,92.9747817 55.7298433,88.8696279 55.704999,83.7979836 L55.704999,68.4613702 C55.6973445,66.8851643 56.2327144,65.3556353 57.2188211,64.1364452 L57.347496,63.9984157 L62.3204015,58.8759869 C64.960268,55.7580555 66.4527106,51.8100512 66.5439651,47.703264 L66.5439651,37.8341533 C66.5439651,35.7166089 68.2383682,34 70.3285203,34 L72.4403022,34 C77.1205133,34.0042279 80.9135327,37.8469563 80.9177058,42.5885035 L80.9177058,54.5817351 L92.7816839,54.5817351 Z M48.5480902,91.7959184 L35.2797786,91.7959184 C34.0206917,91.7959184 33,90.8619401 33,89.7098195 L33,63.7031202 C33,62.5509996 34.0206917,61.6170213 35.2797786,61.6170213 L48.5480902,61.6170213 C49.8071772,61.6170213 50.8278689,62.5509996 50.8278689,63.7031202 L50.8278689,89.7098195 C50.8278689,90.8619401 49.8071772,91.7959184 48.5480902,91.7959184 Z M38.125,81.4680851 C39.8501681,81.4680851 41.25,80.0637405 41.25,78.3297872 C41.25,76.595834 39.8501681,75.1914894 38.125,75.1914894 C36.3998319,75.1914894 35,76.595834 35,78.3297872 C35,80.0637405 36.3998319,81.4680851 38.125,81.4680851 Z"/>
    <path class="foreground" d="M88.7793566,49.5817351 C93.8468186,49.5586854 98.299665,52.9711467 99.6578545,57.923201 C100.044448,59.419465 100.104244,60.9829769 99.8339897,62.4999 L96.5125033,81.7163223 C95.7247006,86.5060607 91.6216352,90.0158777 86.8212843,89.9999516 L60.7829037,89.9999389 C55.2255644,89.9719971 50.7325278,85.4200775 50.704999,79.7979836 L50.7050108,64.4662264 C50.6962382,62.6597734 51.3099947,60.9062974 52.4873624,59.4545595 L52.6299948,59.3018584 L57.5572104,54.229814 C60.0488862,51.2869098 61.4580368,47.5592403 61.5439651,43.703264 L61.5439651,33.8341533 C61.5439651,31.1672177 63.683148,29 66.3285203,29 L68.4412055,29.0000004 C73.6759331,29.0047292 77.9130494,33.2973745 77.9177058,38.5885035 L77.9177058,49.5817351 L88.7793566,49.5817351 Z M88.7864497,51.5817238 L75.9177058,51.5817351 L75.9177058,50.5817351 L75.9177062,38.5893836 C75.914016,34.3965381 72.5650934,31.0037265 68.4403022,31 L66.3285203,31 C64.7935885,31 63.5439651,32.2660001 63.5439651,33.8341533 L63.5437183,43.725479 C63.4473843,48.0608621 61.8716497,52.2292012 59.0379026,55.5725442 L54.0789547,60.6803015 L53.9963331,60.7653133 C53.1554342,61.8049733 52.6984509,63.1105551 52.704999,64.4613702 L52.704987,79.793085 C52.7271588,84.3191782 56.3382223,87.9775662 60.7879315,87.9999516 L86.8246008,87.9999571 C90.6418689,88.0126172 93.9098221,85.2171665 94.5403723,81.3837067 L97.8641015,62.1541921 C98.0848791,60.9149154 98.0361854,59.6416831 97.7252695,58.4378795 C96.6089107,54.3679004 92.9467439,51.5618963 88.7864497,51.5817238 Z M44.5480902,88.7959184 L31.2797786,88.7959184 C29.4872499,88.7959184 28,87.4350185 28,85.7098195 L28,59.7031202 C28,57.9779211 29.4872499,56.6170213 31.2797786,56.6170213 L44.5480902,56.6170213 C46.340619,56.6170213 47.8278689,57.9779211 47.8278689,59.7031202 L47.8278689,85.7098195 C47.8278689,87.4350185 46.340619,88.7959184 44.5480902,88.7959184 Z M44.5480902,86.7959184 C45.2737354,86.7959184 45.8278689,86.2888616 45.8278689,85.7098195 L45.8278689,59.7031202 C45.8278689,59.124078 45.2737354,58.6170213 44.5480902,58.6170213 L31.2797786,58.6170213 C30.5541334,58.6170213 30,59.124078 30,59.7031202 L30,85.7098195 C30,86.2888616 30.5541334,86.7959184 31.2797786,86.7959184 L44.5480902,86.7959184 Z M38.125,83.4680851 C35.2938189,83.4680851 33,81.1668716 33,78.3297872 C33,75.4927029 35.2938189,73.1914894 38.125,73.1914894 C40.9561811,73.1914894 43.25,75.4927029 43.25,78.3297872 C43.25,81.1668716 40.9561811,83.4680851 38.125,83.4680851 Z M38.125,81.4680851 C39.8501681,81.4680851 41.25,80.0637405 41.25,78.3297872 C41.25,76.595834 39.8501681,75.1914894 38.125,75.1914894 C36.3998319,75.1914894 35,76.595834 35,78.3297872 C35,80.0637405 36.3998319,81.4680851 38.125,81.4680851 Z"/>
  </g>
</svg>
