<svg xmlns="http://www.w3.org/2000/svg" width="128" height="128" viewBox="0 0 128 128">
  <g fill="none" fill-rule="evenodd">
    <path class="background" fill="#FFEAE3" fill-rule="nonzero" d="M59,39 C59,34.0294373 63.0294373,30 68,30 C72.9705627,30 77,34.0294373 77,39 L87,39 C91.9705627,39 96,43.0294373 96,48 L96,71 C96,75.9705627 91.9705627,80 87,80 L49,80 C44.0294373,80 40,75.9705627 40,71 L40,48 C40,43.0294373 44.0294373,39 49,39 L59,39 Z M68,71.5 C75.1797017,71.5 81,65.6797017 81,58.5 C81,51.3202983 75.1797017,45.5 68,45.5 C60.8202983,45.5 55,51.3202983 55,58.5 C55,65.6797017 60.8202983,71.5 68,71.5 Z"/>
    <path class="foreground" fill="#F76B1C" d="M35,63.8129938 C24.9156799,66.4112616 19,70.2798519 19,74.0672866 C19,81.1372668 38.4830613,87.4221253 62.5,87.4221253 C86.5169387,87.4221253 106,81.1372668 106,74.0672866 C106,73.5150018 106.447715,73.0672866 107,73.0672866 C107.552285,73.0672866 108,73.5150018 108,74.0672866 C108,82.8532234 87.636404,89.4221253 62.5,89.4221253 C37.363596,89.4221253 17,82.8532234 17,74.0672866 C17,68.9263119 23.7845677,64.5566959 35,61.7495158 L35,44 C35,38.4771525 39.4771525,34 45,34 L54.0493752,34 C54.5510997,28.9466773 58.8146519,25 64,25 C69.1853481,25 73.4489003,28.9466773 73.9506248,34 L83,34 C88.5228475,34 93,38.4771525 93,44 L93,67 C93,72.5228475 88.5228475,77 83,77 L45,77 C39.4771525,77 35,72.5228475 35,67 L35,63.8129938 L35,63.8129938 Z M113.137054,74.7901251 L107.169612,70.1608363 L100.415146,73.2430879 C99.9127029,73.472367 99.3195245,73.2509234 99.0902454,72.7484798 C98.8609663,72.2460362 99.0824099,71.6528578 99.5848535,71.4235787 L106.889541,68.0902454 C107.227827,67.9358762 107.623831,67.9819555 107.917633,68.2098749 L114.362946,73.2098749 C114.79932,73.5483953 114.878646,74.1765715 114.540125,74.6129456 C114.201605,75.0493196 113.573429,75.1286456 113.137054,74.7901251 Z M64,60.5 C60.6862915,60.5 58,57.8137085 58,54.5 C58,51.1862915 60.6862915,48.5 64,48.5 C67.3137085,48.5 70,51.1862915 70,54.5 C70,57.8137085 67.3137085,60.5 64,60.5 Z M64,58.5 C66.209139,58.5 68,56.709139 68,54.5 C68,52.290861 66.209139,50.5 64,50.5 C61.790861,50.5 60,52.290861 60,54.5 C60,56.709139 61.790861,58.5 64,58.5 Z M64,68.5 C56.2680135,68.5 50,62.2319865 50,54.5 C50,46.7680135 56.2680135,40.5 64,40.5 C71.7319865,40.5 78,46.7680135 78,54.5 C78,62.2319865 71.7319865,68.5 64,68.5 Z M64,66.5 C70.627417,66.5 76,61.127417 76,54.5 C76,47.872583 70.627417,42.5 64,42.5 C57.372583,42.5 52,47.872583 52,54.5 C52,61.127417 57.372583,66.5 64,66.5 Z M55,36 L45,36 C40.581722,36 37,39.581722 37,44 L37,67 C37,71.418278 40.581722,75 45,75 L83,75 C87.418278,75 91,71.418278 91,67 L91,44 C91,39.581722 87.418278,36 83,36 L73,36 C72.4477153,36 72,35.5522847 72,35 C72,30.581722 68.418278,27 64,27 C59.581722,27 56,30.581722 56,35 C56,35.5522847 55.5522847,36 55,36 Z M61,36.5 C60.4477153,36.5 60,36.0522847 60,35.5 C60,34.9477153 60.4477153,34.5 61,34.5 L68,34.5 C68.5522847,34.5 69,34.9477153 69,35.5 C69,36.0522847 68.5522847,36.5 68,36.5 L61,36.5 Z"/>
  </g>
</svg>
