<svg width="24" height="24" viewBox="0 0 24 24" fill="none" xmlns="http://www.w3.org/2000/svg">
<path fill-rule="evenodd" clip-rule="evenodd" d="M9.75 9.75C9.75 8.50736 10.7574 7.5 12 7.5C13.2426 7.5 14.25 8.50736 14.25 9.75C14.25 10.9926 13.2426 12 12 12C10.7574 12 9.75 10.9926 9.75 9.75ZM12 9C11.5858 9 11.25 9.33579 11.25 9.75C11.25 10.1642 11.5858 10.5 12 10.5C12.4142 10.5 12.75 10.1642 12.75 9.75C12.75 9.33579 12.4142 9 12 9ZM8.25 3.75C8.25 3.33579 8.58579 3 9 3H15C15.1989 3 15.3897 3.07902 15.5304 3.21968C15.6709 3.36032 15.75 3.55108 15.75 3.75V4.5H19.5V10.5273C21.189 11.3734 22.5 12.6335 22.5 14.25C22.5 15.45 21.7635 16.4571 20.743 17.2176C19.7143 17.9841 18.2987 18.5819 16.6754 18.9723C16.2728 19.0692 15.8678 18.8212 15.7708 18.4185C15.6739 18.0158 15.9219 17.6108 16.3246 17.5139C17.8212 17.1539 19.0303 16.6232 19.8468 16.0148C20.6714 15.4004 21 14.7861 21 14.25C21 13.6321 20.5453 12.9101 19.5 12.2452V15H4.5V12.2452C3.45469 12.9101 3 13.6321 3 14.25C3 15.0239 3.71103 15.9623 5.42001 16.7511C6.83245 17.403 8.74636 17.856 10.9106 17.9712L9.96968 17.0304C9.67677 16.7374 9.67677 16.2626 9.96968 15.9696C10.2626 15.6768 10.7374 15.6768 11.0303 15.9696L13.8107 18.75L11.0303 21.5304C10.7374 21.8232 10.2626 21.8232 9.96968 21.5304C9.67677 21.2374 9.67677 20.7626 9.96968 20.4696L10.9636 19.4757C8.59314 19.3641 6.43789 18.8729 4.79142 18.113C2.97159 17.2731 1.5 15.9615 1.5 14.25C1.5 12.6335 2.81093 11.3734 4.5 10.5273V4.5H8.25V3.75ZM18 6H14.25V4.5H9.75V6H6V10.9858C6.00026 10.9969 6.00026 11.008 6 11.019V13.5H18V11.0191C17.9997 11.008 17.9997 10.9969 18 10.9857V6Z" fill="currentColor"/>
</svg>
