<svg xmlns="http://www.w3.org/2000/svg" width="24" height="24" viewBox="0 0 24 24">
  <path fill-rule="evenodd" d="M18.75,2.25 C19.1642,2.25 19.5,2.58579 19.5,3 L19.5,4.5 L21,4.5 L21,21 L3,21 L3,4.5 L4.5,4.5 L4.5,3 C4.5,2.58579 4.83579,2.25 5.25,2.25 C5.66421,2.25 6,2.58579 6,3 L6,4.5 L7.5,4.5 L7.5,3 C7.5,2.58579 7.83579,2.25 8.25,2.25 C8.66421,2.25 9,2.58579 9,3 L9,4.5 L15,4.5 L15,3 C15,2.58579 15.3358,2.25 15.75,2.25 C16.1642,2.25 16.5,2.58579 16.5,3 L16.5,4.5 L18,4.5 L18,3 C18,2.58579 18.3358,2.25 18.75,2.25 Z M19.5,9 L4.5,9 L4.5,19.5 L19.5,19.5 L19.5,9 Z M12,10.5 C12.4142,10.5 12.75,10.8358 12.75,11.25 L12.75,13.5 L15,13.5 C15.4142,13.5 15.75,13.8358 15.75,14.25 C15.75,14.6642 15.4142,15 15,15 L12.75,15 L12.75,17.25 C12.75,17.6642 12.4142,18 12,18 C11.5858,18 11.25,17.6642 11.25,17.25 L11.25,15 L9,15 C8.58579,15 8.25,14.6642 8.25,14.25 C8.25,13.8358 8.58579,13.5 9,13.5 L11.25,13.5 L11.25,11.25 C11.25,10.8358 11.5858,10.5 12,10.5 Z M19.5,6 L4.5,6 L4.5,7.5 L19.5,7.5 L19.5,6 Z" fill="currentColor" />
</svg>