<svg width="24" height="24" viewBox="0 0 24 24" fill="none" xmlns="http://www.w3.org/2000/svg">
<path fill-rule="evenodd" clip-rule="evenodd" d="M4.36485 12.75H7.5C7.91421 12.75 8.25 13.0858 8.25 13.5C8.25 13.9142 7.91421 14.25 7.5 14.25H3.13514L1.33514 5.25H4.10128L7.85128 9.75H10.9292L7.92922 1.5H11.6617L16.9117 9.75H20.25C23.5 9.75 23.5 14.25 20.25 14.25H16.9117L11.6617 22.5H7.92922L11.2952 13.2437C11.4367 12.8544 11.867 12.6536 12.2563 12.7952C12.6456 12.9367 12.8464 13.367 12.7048 13.7563L10.0708 21H10.8383L16.0883 12.75H20.25C21.5 12.75 21.5 11.25 20.25 11.25H16.0883L10.8383 3H10.0708L13.0708 11.25H7.14872L3.39872 6.75H3.16485L4.36485 12.75Z" fill="currentColor"/>
</svg>
