<svg width="24" height="24" viewBox="0 0 24 24" fill="none" xmlns="http://www.w3.org/2000/svg">
<path fill-rule="evenodd" clip-rule="evenodd" d="M11.2914 13.7736L11.2035 9.97229C11.2035 9.94329 11.202 9.91124 11.2005 9.88097C11.1992 9.85389 11.198 9.82824 11.198 9.8075C11.198 9.30213 11.5111 9 12.0055 9C12.4944 9 12.802 9.30213 12.802 9.8075C12.802 9.85145 12.802 9.91736 12.7965 9.97229L12.7141 13.7736C12.6976 14.2405 12.4559 14.5151 12 14.5151C11.5441 14.5151 11.3024 14.2405 11.2914 13.7736ZM11.1046 16.3224C11.1046 15.839 11.5001 15.4599 12 15.4599C12.4999 15.4599 12.8954 15.839 12.8954 16.3224C12.8954 16.8059 12.4999 17.1847 12 17.1847C11.5001 17.1847 11.1046 16.8059 11.1046 16.3224ZM22.2372 21H1.76276L12 1.3786L22.2372 21ZM19.7628 19.5L12 4.62138L4.23725 19.5H19.7628Z" fill="currentColor"/>
</svg>
