<svg width="24" height="24" viewBox="0 0 24 24" fill="none" xmlns="http://www.w3.org/2000/svg">
<path fill-rule="evenodd" clip-rule="evenodd" d="M11.25 12.4116L9.54124 11.323C9.1919 11.1004 9.08912 10.6368 9.31168 10.2874C9.53424 9.9381 9.99785 9.83532 10.3472 10.0579L12 11.1108L13.6528 10.0579C14.0021 9.83532 14.4658 9.9381 14.6883 10.2874C14.9109 10.6368 14.8081 11.1004 14.4588 11.323L12.75 12.4116V14.4376C12.75 14.8518 12.4142 15.1876 12 15.1876C11.5858 15.1876 11.25 14.8518 11.25 14.4376V12.4116ZM4.5 8.11134V9.37507C4.5 9.78928 4.16421 10.1251 3.75 10.1251C3.33579 10.1251 3 9.78928 3 9.37507V6.30484L5.45336 4.96665C5.817 4.7683 6.27257 4.90229 6.47092 5.26593C6.66927 5.62956 6.53528 6.08514 6.17164 6.28349L5.22936 6.79746L7.26355 8.09339C7.61289 8.31595 7.71567 8.77956 7.49311 9.12891C7.27055 9.47825 6.80693 9.58103 6.45759 9.35847L4.5 8.11134ZM18.7705 17.2027L16.7364 15.9068C16.3871 15.6842 16.2844 15.2206 16.5069 14.8712C16.7295 14.5219 17.1932 14.4192 17.5425 14.6418L19.5 15.889V14.6251C19.5 14.2109 19.8358 13.8751 20.25 13.8751C20.6642 13.8751 21 14.2109 21 14.6251V17.6953L18.5466 19.0335C18.183 19.2318 17.7274 19.0978 17.5291 18.7342C17.3307 18.3706 17.4647 17.915 17.8284 17.7166L18.7705 17.2027ZM19.5 8.11134L17.5425 9.35845C17.1931 9.58103 16.7295 9.47826 16.5069 9.12893C16.2844 8.77959 16.3871 8.31597 16.7364 8.0934L18.7706 6.79746L17.8284 6.28349C17.4647 6.08514 17.3307 5.62956 17.5291 5.26593C17.7274 4.90229 18.183 4.7683 18.5466 4.96665L21 6.30484V9.37507C21 9.78928 20.6642 10.1251 20.25 10.1251C19.8358 10.1251 19.5 9.78928 19.5 9.37507V8.11134ZM4.5 15.8889L6.45759 14.6417C6.80692 14.4192 7.27054 14.5219 7.49312 14.8713C7.71569 15.2206 7.61293 15.6842 7.2636 15.9068L5.22947 17.2027L6.17164 17.7166C6.53528 17.915 6.66927 18.3706 6.47092 18.7342C6.27257 19.0978 5.817 19.2318 5.45336 19.0335L3 17.6953V14.6251C3 14.2109 3.33579 13.8751 3.75 13.8751C4.16421 13.8751 4.5 14.2109 4.5 14.6251V15.8889ZM11.6287 1.5983C11.6371 1.59349 11.6456 1.58884 11.6542 1.58435L12 1.39575L12.3458 1.58435C12.3544 1.58884 12.3629 1.59349 12.3713 1.5983L14.4216 2.71665C14.7853 2.91499 14.9193 3.37057 14.7209 3.73421C14.5226 4.09784 14.067 4.23184 13.7034 4.03349L12.75 3.51347V5.90632C12.75 6.32053 12.4142 6.65632 12 6.65632C11.5858 6.65632 11.25 6.32053 11.25 5.90632V3.51347L10.2966 4.03349C9.933 4.23184 9.47743 4.09784 9.27908 3.73421C9.08073 3.37057 9.21472 2.91499 9.57836 2.71665L11.6287 1.5983ZM12.3713 22.4018C12.3629 22.4066 12.3544 22.4113 12.3458 22.4158L12 22.6044L11.6542 22.4158C11.6456 22.4113 11.6371 22.4066 11.6287 22.4018L9.57836 21.2835C9.21472 21.0851 9.08073 20.6296 9.27908 20.2659C9.47743 19.9023 9.933 19.7683 10.2966 19.9666L11.25 20.4867V18.0938C11.25 17.6796 11.5858 17.3438 12 17.3438C12.4142 17.3438 12.75 17.6796 12.75 18.0938V20.4867L13.7034 19.9666C14.067 19.7683 14.5226 19.9023 14.7209 20.2659C14.9193 20.6296 14.7853 21.0851 14.4216 21.2835L12.3713 22.4018Z" fill="currentColor"/>
</svg>
