<svg width="24" height="24" viewBox="0 0 24 24" fill="none" xmlns="http://www.w3.org/2000/svg">
<path fill-rule="evenodd" clip-rule="evenodd" d="M19.5 4.5V3.75C19.5 3.33579 19.8358 3 20.25 3C20.6642 3 21 3.33579 21 3.75V6.75C21 7.16421 20.6642 7.5 20.25 7.5C19.8358 7.5 19.5 7.16421 19.5 6.75V6H10.5V6.75C10.5 7.16421 10.1642 7.5 9.75 7.5C9.33579 7.5 9 7.16421 9 6.75V3.75C9 3.33579 9.33579 3 9.75 3C10.1642 3 10.5 3.33579 10.5 3.75V4.5H19.5ZM6 19.5H6.75C7.16421 19.5 7.5 19.8358 7.5 20.25C7.5 20.6642 7.16421 21 6.75 21H3.75C3.33579 21 3 20.6642 3 20.25C3 19.8358 3.33579 19.5 3.75 19.5H4.5V10.5H3.75C3.33579 10.5 3 10.1642 3 9.75C3 9.33579 3.33579 9 3.75 9H6.75C7.16421 9 7.5 9.33579 7.5 9.75C7.5 10.1642 7.16421 10.5 6.75 10.5H6V19.5ZM15 15C13.3431 15 12 13.6569 12 12C12 10.3431 13.3431 9 15 9C16.6569 9 18 10.3431 18 12C18 13.6569 16.6569 15 15 15ZM15 13.5C15.8284 13.5 16.5 12.8284 16.5 12C16.5 11.1716 15.8284 10.5 15 10.5C14.1716 10.5 13.5 11.1716 13.5 12C13.5 12.8284 14.1716 13.5 15 13.5ZM13.5 20.25C13.5 20.6642 13.1642 21 12.75 21C12.3358 21 12 20.6642 12 20.25V18C12 16.7573 13.0074 15.75 14.25 15.75H15.75C16.9927 15.75 18 16.7573 18 18V20.25C18 20.6642 17.6642 21 17.25 21C16.8358 21 16.5 20.6642 16.5 20.25V18C16.5 17.5858 16.1642 17.25 15.75 17.25H14.25C13.8358 17.25 13.5 17.5858 13.5 18V20.25ZM10.5 20.25C10.5 20.6642 10.1642 21 9.75 21C9.33579 21 9 20.6642 9 20.25V9.75C9 9.33579 9.33579 9 9.75 9C10.1642 9 10.5 9.33579 10.5 9.75V20.25ZM21 20.25C21 20.6642 20.6642 21 20.25 21C19.8358 21 19.5 20.6642 19.5 20.25V9.75C19.5 9.33579 19.8358 9 20.25 9C20.6642 9 21 9.33579 21 9.75V20.25Z" fill="currentColor"/>
</svg>
