<svg width="24" height="24" viewBox="0 0 24 24" fill="none" xmlns="http://www.w3.org/2000/svg">
<path fill-rule="evenodd" clip-rule="evenodd" d="M19.5 4.5V3.75C19.5 3.33579 19.8358 3 20.25 3C20.6642 3 21 3.33579 21 3.75V6.75C21 7.16421 20.6642 7.5 20.25 7.5C19.8358 7.5 19.5 7.16421 19.5 6.75V6H10.5V6.75C10.5 7.16421 10.1642 7.5 9.75 7.5C9.33579 7.5 9 7.16421 9 6.75V3.75C9 3.33579 9.33579 3 9.75 3C10.1642 3 10.5 3.33579 10.5 3.75V4.5H19.5ZM6 19.5H6.75C7.16421 19.5 7.5 19.8358 7.5 20.25C7.5 20.6642 7.16421 21 6.75 21H3.75C3.33579 21 3 20.6642 3 20.25C3 19.8358 3.33579 19.5 3.75 19.5H4.5V10.5H3.75C3.33579 10.5 3 10.1642 3 9.75C3 9.33579 3.33579 9 3.75 9H6.75C7.16421 9 7.5 9.33579 7.5 9.75C7.5 10.1642 7.16421 10.5 6.75 10.5H6V19.5ZM9 9H21V21H9V9ZM10.5 10.5V19.5H19.5V10.5H10.5Z" fill="currentColor"/>
</svg>
