<svg xmlns="http://www.w3.org/2000/svg" width="24" height="24" fill="currentColor" viewBox="0 0 24 24">
  <path fill="#333" fill-rule="evenodd" d="M12.964 3.24L22.082 12l-9.118 8.76v-6.218c-1.143.114-2.632.445-3.941.806-1.516.418-3.568 1.263-5.628 2.54l-1.554.963.43-1.777c.557-2.302 1.692-4.678 4.158-6.39l.006-.004a12.798 12.798 0 016.53-2.209V3.24zm1.5 3.52v3.19h-.75c-1.613 0-4.022.329-6.432 1.968-1.466 1.019-2.387 2.319-2.977 3.727 1.583-.824 3.093-1.405 4.32-1.743 1.627-.448 3.693-.902 5.09-.902h.75v4.24L19.918 12l-5.454-5.24z" clip-rule="evenodd"/>
</svg>
