<svg width="24" height="24" viewBox="0 0 24 24" fill="none" xmlns="http://www.w3.org/2000/svg">
<path fill-rule="evenodd" clip-rule="evenodd" d="M7.28033 14.4697L12 19.1893L16.7197 14.4697C17.0126 14.1768 17.4874 14.1768 17.7803 14.4697C18.0732 14.7626 18.0732 15.2374 17.7803 15.5303L12 21.3107L6.21967 15.5303C5.92678 15.2374 5.92678 14.7626 6.21967 14.4697C6.51256 14.1768 6.98744 14.1768 7.28033 14.4697ZM12.75 15.75C12.75 16.1642 12.4142 16.5 12 16.5C11.5858 16.5 11.25 16.1642 11.25 15.75V3.75C11.25 3.33579 11.5858 3 12 3C12.4142 3 12.75 3.33579 12.75 3.75V15.75Z" fill="currentColor"/>
</svg>
