<svg width="24" height="24" viewBox="0 0 24 24" fill="none" xmlns="http://www.w3.org/2000/svg">
<path fill-rule="evenodd" clip-rule="evenodd" d="M4.81067 12L9.53034 16.7197C9.82323 17.0126 9.82323 17.4874 9.53034 17.7803C9.23744 18.0732 8.76257 18.0732 8.46968 17.7803L2.68935 12L8.46968 6.21967C8.76257 5.92678 9.23744 5.92678 9.53034 6.21967C9.82323 6.51256 9.82323 6.98744 9.53034 7.28033L4.81067 12ZM20.25 11.25C20.6642 11.25 21 11.5858 21 12C21 12.4142 20.6642 12.75 20.25 12.75H8.25001C7.83579 12.75 7.50001 12.4142 7.50001 12C7.50001 11.5858 7.83579 11.25 8.25001 11.25H20.25Z" fill="currentColor"/>
</svg>
