<svg width="24" height="24" viewBox="0 0 24 24" fill="none" xmlns="http://www.w3.org/2000/svg">
<path fill-rule="evenodd" clip-rule="evenodd" d="M12 4.81068L7.28033 9.53035C6.98744 9.82325 6.51256 9.82325 6.21967 9.53035C5.92678 9.23746 5.92678 8.76259 6.21967 8.46969L12 2.68936L17.7803 8.46969C18.0732 8.76259 18.0732 9.23746 17.7803 9.53035C17.4874 9.82325 17.0126 9.82325 16.7197 9.53035L12 4.81068ZM11.25 8.25002C11.25 7.83581 11.5858 7.50002 12 7.50002C12.4142 7.50002 12.75 7.83581 12.75 8.25002V20.25C12.75 20.6642 12.4142 21 12 21C11.5858 21 11.25 20.6642 11.25 20.25V8.25002Z" fill="currentColor"/>
</svg>
