<svg width="24" height="24" viewBox="0 0 24 24" fill="none" xmlns="http://www.w3.org/2000/svg">
<path fill-rule="evenodd" clip-rule="evenodd" d="M19.1893 8.25L15.9697 5.03033C15.6768 4.73744 15.6768 4.26256 15.9697 3.96967C16.2626 3.67678 16.7374 3.67678 17.0303 3.96967L21.3107 8.25L17.0303 12.5303C16.7374 12.8232 16.2626 12.8232 15.9697 12.5303C15.6768 12.2374 15.6768 11.7626 15.9697 11.4697L19.1893 8.25ZM4.81066 15.75L8.03033 18.9697C8.32322 19.2626 8.32322 19.7374 8.03033 20.0303C7.73744 20.3232 7.26256 20.3232 6.96967 20.0303L2.68934 15.75L6.96967 11.4697C7.26256 11.1768 7.73744 11.1768 8.03033 11.4697C8.32322 11.7626 8.32322 12.2374 8.03033 12.5303L4.81066 15.75ZM5.25 9C4.83579 9 4.5 8.66421 4.5 8.25C4.5 7.83579 4.83579 7.5 5.25 7.5H15.75C16.1642 7.5 16.5 7.83579 16.5 8.25C16.5 8.66421 16.1642 9 15.75 9H5.25ZM18.75 15C19.1642 15 19.5 15.3358 19.5 15.75C19.5 16.1642 19.1642 16.5 18.75 16.5H8.25C7.83578 16.5 7.5 16.1642 7.5 15.75C7.5 15.3358 7.83578 15 8.25 15H18.75Z" fill="currentColor"/>
</svg>
