<svg xmlns="http://www.w3.org/2000/svg" width="24" height="24" viewBox="0 0 24 24">
  <path fill="currentColor" fill-rule="evenodd" d="M13.9265 6.13289L14.0303 6.21967L19.8107 12L14.0303 17.7803C13.7374 18.0732 13.2626 18.0732 12.9697 17.7803C12.7093 17.52 12.6804 17.1158 12.8829 16.8235L12.9697 16.7197L17.6895 12L12.9697 7.28033C12.7093 7.01998 12.6804 6.61584 12.8829 6.32354L12.9697 6.21967C13.23 5.95932 13.6342 5.93039 13.9265 6.13289ZM6.75 2.25C7.11819 2.25 7.42441 2.51531 7.48792 2.86519L7.5 3V11.25H14.25C14.6182 11.25 14.9244 11.5153 14.9879 11.8652L15 12C15 12.3682 14.7347 12.6744 14.3848 12.7379L14.25 12.75H6V3C6 2.58579 6.33579 2.25 6.75 2.25Z"/>
</svg>