<svg width="24" height="24" viewBox="0 0 24 24" fill="none" xmlns="http://www.w3.org/2000/svg">
<path fill-rule="evenodd" clip-rule="evenodd" d="M19.1893 12L14.4697 7.28033C14.1768 6.98744 14.1768 6.51256 14.4697 6.21967C14.7626 5.92678 15.2374 5.92678 15.5303 6.21967L21.3107 12L15.5303 17.7803C15.2374 18.0732 14.7626 18.0732 14.4697 17.7803C14.1768 17.4874 14.1768 17.0126 14.4697 16.7197L19.1893 12ZM3.75 12.75C3.33579 12.75 3 12.4142 3 12C3 11.5858 3.33579 11.25 3.75 11.25H15.75C16.1642 11.25 16.5 11.5858 16.5 12C16.5 12.4142 16.1642 12.75 15.75 12.75H3.75Z" fill="currentColor"/>
</svg>
