<svg width="24" height="24" viewBox="0 0 24 24" fill="none" xmlns="http://www.w3.org/2000/svg">
<path fill-rule="evenodd" clip-rule="evenodd" d="M9.79002 2.76615C10.9856 1.48689 13.0144 1.48689 14.21 2.76615C14.5106 3.08781 14.9356 3.26384 15.3756 3.24897C17.1256 3.18983 18.5601 4.62434 18.501 6.37436C18.4861 6.81438 18.6621 7.23935 18.9838 7.53998C20.263 8.7356 20.263 10.7643 18.9838 11.9599C18.6621 12.2606 18.4861 12.6855 18.501 13.1256C18.5601 14.8756 17.1256 16.3101 15.3756 16.251C14.9356 16.236 14.5106 16.4121 14.21 16.7337C13.0144 18.0131 10.9856 18.0131 9.79002 16.7337C9.48939 16.4121 9.06442 16.236 8.6244 16.251C6.87438 16.3101 5.43987 14.8756 5.49901 13.1256C5.51388 12.6855 5.33785 12.2606 5.01619 11.9599C3.73693 10.7643 3.73693 8.7356 5.01619 7.53998C5.33785 7.23935 5.51388 6.81438 5.49901 6.37436C5.43987 4.62434 6.87438 3.18983 8.6244 3.24897C9.06442 3.26384 9.48939 3.08781 9.79002 2.76615ZM13.1141 3.79038C12.5114 3.14547 11.4886 3.14547 10.8859 3.79038C10.2896 4.42844 9.44658 4.77761 8.57374 4.74812C7.69152 4.7183 6.96834 5.44148 6.99816 6.3237C7.02765 7.19654 6.67848 8.03952 6.04042 8.63585C5.39551 9.23859 5.39551 10.2613 6.04042 10.8641C6.67848 11.4604 7.02765 12.3034 6.99816 13.1762C6.96834 14.0585 7.69152 14.7816 8.57374 14.7518C9.44658 14.7223 10.2896 15.0715 10.8859 15.7095C11.4886 16.3545 12.5114 16.3545 13.1141 15.7095C13.7104 15.0715 14.5534 14.7223 15.4263 14.7518C16.3084 14.7816 17.0316 14.0585 17.0019 13.1762C16.9723 12.3034 17.3215 11.4604 17.9595 10.8641C18.6045 10.2613 18.6045 9.23859 17.9595 8.63585C17.3215 8.03952 16.9723 7.19654 17.0019 6.3237C17.0316 5.44148 16.3084 4.7183 15.4263 4.74812C14.5534 4.77761 13.7104 4.42844 13.1141 3.79038ZM12 7.5C10.7574 7.5 9.75 8.50736 9.75 9.75C9.75 10.9926 10.7574 12 12 12C13.2426 12 14.25 10.9926 14.25 9.75C14.25 8.50736 13.2426 7.5 12 7.5ZM8.25 9.75C8.25 7.67894 9.92893 6 12 6C14.0711 6 15.75 7.67894 15.75 9.75C15.75 11.8211 14.0711 13.5 12 13.5C9.92893 13.5 8.25 11.8211 8.25 9.75ZM8.25 17.25C8.66421 17.25 9 17.5858 9 18V20.4254L12 18.6253L15 20.4254V18C15 17.5858 15.3358 17.25 15.75 17.25C16.1641 17.25 16.5 17.5858 16.5 18V23.0746L12 20.3747L7.5 23.0746V18C7.5 17.5858 7.83579 17.25 8.25 17.25Z" fill="currentColor"/>
</svg>
