<svg width="24" height="24" viewBox="0 0 24 24" fill="none" xmlns="http://www.w3.org/2000/svg">
<path fill-rule="evenodd" clip-rule="evenodd" d="M22.1432 7.61124C22.4958 7.82834 22.6059 8.29029 22.3887 8.64306C22.1717 8.99583 21.7097 9.10582 21.357 8.88873L12 3.13062L2.64309 8.88873C2.29032 9.10582 1.82837 8.99583 1.61127 8.64306C1.39418 8.29029 1.50417 7.82834 1.85694 7.61124L12 1.36935L22.1432 7.61124ZM20.25 19.5C20.6642 19.5 21 19.8358 21 20.25C21 20.6642 20.6642 21 20.25 21H3.75C3.33579 21 3 20.6642 3 20.25C3 19.8358 3.33579 19.5 3.75 19.5H20.25ZM6 11.25C6 10.8358 6.33579 10.5 6.75 10.5C7.16421 10.5 7.5 10.8358 7.5 11.25V17.25C7.5 17.6642 7.16421 18 6.75 18C6.33579 18 6 17.6642 6 17.25V11.25ZM9 11.25C9 10.8358 9.33579 10.5 9.75 10.5C10.1642 10.5 10.5 10.8358 10.5 11.25V17.25C10.5 17.6642 10.1642 18 9.75 18C9.33579 18 9 17.6642 9 17.25V11.25ZM13.5 11.25C13.5 10.8358 13.8358 10.5 14.25 10.5C14.6642 10.5 15 10.8358 15 11.25V17.25C15 17.6642 14.6642 18 14.25 18C13.8358 18 13.5 17.6642 13.5 17.25V11.25ZM16.5 11.25C16.5 10.8358 16.8358 10.5 17.25 10.5C17.6642 10.5 18 10.8358 18 11.25V17.25C18 17.6642 17.6642 18 17.25 18C16.8358 18 16.5 17.6642 16.5 17.25V11.25ZM12 10.5C10.7574 10.5 9.75 9.49264 9.75 8.25C9.75 7.00736 10.7574 6 12 6C13.2426 6 14.25 7.00736 14.25 8.25C14.25 9.49264 13.2426 10.5 12 10.5ZM12 9C12.4142 9 12.75 8.66421 12.75 8.25C12.75 7.83579 12.4142 7.5 12 7.5C11.5858 7.5 11.25 7.83579 11.25 8.25C11.25 8.66421 11.5858 9 12 9Z" fill="currentColor"/>
</svg>
