<svg xmlns="http://www.w3.org/2000/svg" width="24" height="24" viewBox="0 0 24 24">
  <path fill="currentColor" fill-rule="evenodd" d="M11.9999993,3 C12.173016,3 12.3393024,3.0597504 12.4718102,3.16698624 L12.564435,3.256125 L17.5889993,9 L21.7499993,9 C21.9939,9 22.2225,9.11859 22.36305,9.31797 C22.5036,9.517335 22.5384,9.77256 22.45635,10.002255 L18.5286,21 L5.47146,21 L1.543695,10.002255 C1.461666,9.77256 1.4964465,9.517335 1.63695,9.31797 C1.77744,9.11859 2.0061,9 2.24999926,9 L6.40949926,9 L11.435565,3.256125 C11.549505,3.125913 11.7039666,3.0401202 11.8719239,3.01101156 L11.9999993,3 Z M20.68575,10.5 L3.314265,10.5 L6.52854,19.5 L17.4714,19.5 L20.68575,10.5 Z M12,13.125 C13.03554,13.125 13.875,13.96446 13.875,15 C13.875,16.0356 13.03554,16.875 12,16.875 C10.964475,16.875 10.125,16.0356 10.125,15 C10.125,13.96446 10.964475,13.125 12,13.125 Z M12,4.88895 L8.402835,9 L15.59715,9 L12,4.88895 Z" />
</svg>