<svg width="24" height="24" viewBox="0 0 24 24" fill="none" xmlns="http://www.w3.org/2000/svg">
<path fill-rule="evenodd" clip-rule="evenodd" d="M8.15901 8.16027C8.85174 7.46754 9.88381 7.32094 10.7202 7.72048L13.7205 4.72017C13.3209 3.88381 13.4675 2.85175 14.1602 2.15901C15.0388 1.28033 16.4635 1.28033 17.3422 2.15901L21.5849 6.40165C22.4636 7.28032 22.4636 8.70495 21.5849 9.58363C20.8922 10.2763 19.8601 10.423 19.0238 10.0234L18.062 10.9853L22.3386 15.3036C22.6304 15.5976 22.6284 16.0725 22.3344 16.3643C22.0404 16.656 21.5655 16.6541 21.2738 16.3601L17.0013 12.046L16.0234 13.0238C16.4229 13.8601 16.2764 14.8922 15.5837 15.5849C14.705 16.4636 13.2803 16.4636 12.4017 15.5849L8.15901 11.3422C7.28033 10.4636 7.28033 9.03895 8.15901 8.16027ZM15.0534 11.8726L17.8725 9.05332L16.2816 7.4623C15.9886 7.16941 15.9886 6.69454 16.2816 6.40165C16.5744 6.10876 17.0493 6.10876 17.3422 6.40165L19.4597 8.51908L19.4636 8.52298L19.4662 8.52574C19.7595 8.81586 20.2323 8.81494 20.5242 8.52297C20.8172 8.23008 20.8172 7.75521 20.5242 7.4623L16.2816 3.21967C15.9886 2.92678 15.5138 2.92678 15.2209 3.21967C14.9289 3.51165 14.928 3.98446 15.2181 4.27756L15.2209 4.28034L15.2249 4.28427L15.7512 4.81066C16.0442 5.10355 16.0442 5.57842 15.7512 5.87131C15.4584 6.1642 14.9835 6.16422 14.6906 5.87134L11.8713 8.69062L13.4623 10.2816C13.7552 10.5745 13.7552 11.0494 13.4623 11.3422C13.1694 11.6352 12.6945 11.6352 12.4017 11.3422L10.2803 9.22093C9.98744 8.92804 9.51256 8.92804 9.21968 9.22093C8.92677 9.51382 8.92677 9.98869 9.21968 10.2816L13.4623 14.5242C13.7552 14.8171 14.2301 14.8171 14.523 14.5242C14.8159 14.2313 14.8159 13.7565 14.523 13.4636L13.9926 12.9332C13.6997 12.6403 13.6998 12.1655 13.9926 11.8726C14.2855 11.5797 14.7604 11.5797 15.0534 11.8726ZM7.5 18H18V22.5H7.5V18ZM9 19.5V21H16.5V19.5H9ZM5.25 16.5C5.66421 16.5 6 16.8358 6 17.25C6 17.6643 5.66421 18 5.25 18H2.25C1.83579 18 1.5 17.6643 1.5 17.25C1.5 16.8358 1.83579 16.5 2.25 16.5H5.25ZM7.28033 13.7197C7.57322 14.0126 7.57322 14.4875 7.28033 14.7804C6.98744 15.0733 6.51256 15.0733 6.21967 14.7804L3.96967 12.5304C3.67678 12.2375 3.67678 11.7626 3.96967 11.4697C4.26256 11.1768 4.73744 11.1768 5.03033 11.4697L7.28033 13.7197Z" fill="currentColor"/>
</svg>
