<svg width="24" height="24" viewBox="0 0 24 24" fill="none" xmlns="http://www.w3.org/2000/svg">
<path fill-rule="evenodd" clip-rule="evenodd" d="M13.5 15H10.5V20.25C10.5 20.6642 10.1642 21 9.75 21C9.33579 21 9 20.6642 9 20.25V18H7.5V20.25C7.5 20.6642 7.16421 21 6.75 21C6.33579 21 6 20.6642 6 20.25V15H3V6H6V4.5H5.25C4.83579 4.5 4.5 4.16421 4.5 3.75C4.5 3.33579 4.83579 3 5.25 3H8.25C8.66421 3 9 3.33579 9 3.75C9 4.16421 8.66421 4.5 8.25 4.5H7.5V6H11.25V4.5H10.5C10.0858 4.5 9.75 4.16421 9.75 3.75C9.75 3.33579 10.0858 3 10.5 3H13.5C13.9142 3 14.25 3.33579 14.25 3.75C14.25 4.16421 13.9142 4.5 13.5 4.5H12.75V6H16.5V4.5H15.75C15.3358 4.5 15 4.16421 15 3.75C15 3.33579 15.3358 3 15.75 3H18.75C19.1642 3 19.5 3.33579 19.5 3.75C19.5 4.16421 19.1642 4.5 18.75 4.5H18V6H21V15H18V20.25C18 20.6642 17.6642 21 17.25 21C16.8358 21 16.5 20.6642 16.5 20.25V18H15V20.25C15 20.6642 14.6642 21 14.25 21C13.8358 21 13.5 20.6642 13.5 20.25V15ZM4.5 7.5V13.5H19.5V7.5H4.5ZM7.5 16.5V15H9V16.5H7.5ZM15 16.5V15H16.5V16.5H15Z" fill="currentColor"/>
</svg>
