<svg xmlns="http://www.w3.org/2000/svg" width="24" height="24" fill="currentColor" viewBox="0 0 24 24">
  <path fill="#333" fill-rule="evenodd" d="M3.25 3.25H4c2.548 0 4.664.749 6.138 1.492A13.693 13.693 0 0112 5.872a13.693 13.693 0 011.862-1.13C15.336 4 17.452 3.25 20 3.25h.75v14.677H20c-1.84 0-3.723.654-5.18 1.34a19.225 19.225 0 00-2.228 1.238 9.822 9.822 0 00-.123.083l-.03.02-.006.004-.433.306-.432-.305h-.001l-.007-.005-.029-.02a14.854 14.854 0 00-.607-.387 19.224 19.224 0 00-1.743-.934C7.723 18.58 5.84 17.927 4 17.927h-.75V3.25zM12 19.102l.3-.185a20.703 20.703 0 011.88-1.007c1.364-.642 3.176-1.308 5.07-1.454V4.775c-1.922.125-3.536.713-4.712 1.306a12.184 12.184 0 00-1.788 1.102V9.19c1.236-.636 2.529-1.032 4.068-1.417a.75.75 0 01.364 1.456c-1.815.453-3.146.892-4.432 1.682v1.78c1.236-.637 2.529-1.033 4.068-1.418a.75.75 0 01.364 1.456c-1.815.453-3.146.892-4.432 1.682v1.825a.75.75 0 01-1.5 0v-5.723a.8.8 0 010-.022V7.183a12.186 12.186 0 00-1.788-1.102C8.286 5.488 6.672 4.9 4.75 4.775v1.998c1.795.115 3.24.652 4.666 1.603a.75.75 0 01-.832 1.248C7.397 8.833 6.228 8.386 4.75 8.277v8.179c1.894.146 3.706.812 5.07 1.454A20.708 20.708 0 0112 19.102z" clip-rule="evenodd"/>
</svg>
