<svg xmlns="http://www.w3.org/2000/svg" width="24" height="24" fill="currentColor" viewBox="0 0 24 24">
  <path d="M12.75 2.25a.75.75 0 00-1.5 0v1.5a.75.75 0 001.5 0v-1.5zM5.03 3.97a.75.75 0 00-1.06 1.06l1.06 1.061a.75.75 0 001.061-1.06L5.031 3.97z"/>
  <path fill-rule="evenodd" d="M12 6a5.25 5.25 0 00-3 9.559v3.191c0 .414.336.75.75.75h4.5a.75.75 0 00.75-.75v-3.191A5.25 5.25 0 0012 6zm-3.75 5.25a3.75 3.75 0 117.5 0 3.75 3.75 0 01-7.5 0zm5.25 5.033a5.253 5.253 0 01-1.5.217 5.253 5.253 0 01-1.5-.217V18h3v-1.717z" clip-rule="evenodd"/>
  <path d="M2.25 11.25A.75.75 0 013 10.5h1.5a.75.75 0 010 1.5H3a.75.75 0 01-.75-.75zM20.03 4.41a.75.75 0 010 1.06l-1.06 1.06a.75.75 0 01-1.061-1.06l1.06-1.06a.75.75 0 011.061 0zM19.5 10.5a.75.75 0 000 1.5H21a.75.75 0 000-1.5h-1.5zM9.75 21.75a.75.75 0 01.75-.75h3a.75.75 0 010 1.5h-3a.75.75 0 01-.75-.75z"/>
</svg>
