<svg width="24" height="24" viewBox="0 0 24 24" fill="none" xmlns="http://www.w3.org/2000/svg">
<path fill-rule="evenodd" clip-rule="evenodd" d="M19.5 9V4.19147C15.9099 2.35284 8.09006 2.35284 4.5 4.19147V9H19.5ZM19.5 10.5H4.5V18H19.5V10.5ZM15 19.5H9V20.25C9 21.4927 7.99264 22.5 6.75 22.5C5.50736 22.5 4.5 21.4927 4.5 20.25V19.5H3V3.32537L3.36413 3.1069C7.35164 0.714368 16.6484 0.714368 20.6359 3.1069L21 3.32537V19.5H19.5V20.25C19.5 21.4927 18.4927 22.5 17.25 22.5C16.0073 22.5 15 21.4927 15 20.25V19.5ZM16.5 19.5V20.25C16.5 20.6642 16.8358 21 17.25 21C17.6642 21 18 20.6642 18 20.25V19.5H16.5ZM7.5 19.5H6V20.25C6 20.6642 6.33578 21 6.75 21C7.16422 21 7.5 20.6642 7.5 20.25V19.5ZM9 6C8.58579 6 8.25 5.66421 8.25 5.25C8.25 4.83578 8.58579 4.5 9 4.5H15C15.4142 4.5 15.75 4.83578 15.75 5.25C15.75 5.66421 15.4142 6 15 6H9ZM8.25 16.5C7.00736 16.5 6 15.4926 6 14.25C6 13.0074 7.00736 12 8.25 12C9.49264 12 10.5 13.0074 10.5 14.25C10.5 15.4926 9.49264 16.5 8.25 16.5ZM8.25 15C8.66421 15 9 14.6642 9 14.25C9 13.8358 8.66421 13.5 8.25 13.5C7.83579 13.5 7.5 13.8358 7.5 14.25C7.5 14.6642 7.83579 15 8.25 15ZM15.75 16.5C14.5074 16.5 13.5 15.4926 13.5 14.25C13.5 13.0074 14.5074 12 15.75 12C16.9926 12 18 13.0074 18 14.25C18 15.4926 16.9926 16.5 15.75 16.5ZM15.75 15C16.1642 15 16.5 14.6642 16.5 14.25C16.5 13.8358 16.1642 13.5 15.75 13.5C15.3358 13.5 15 13.8358 15 14.25C15 14.6642 15.3358 15 15.75 15Z" fill="currentColor"/>
</svg>
