<svg width="24" height="24" viewBox="0 0 24 24" fill="none" xmlns="http://www.w3.org/2000/svg">
<path fill-rule="evenodd" clip-rule="evenodd" d="M10.5 19.5H18.75C19.1642 19.5 19.5 19.8358 19.5 20.25C19.5 20.6642 19.1642 21 18.75 21H9.00001V15H6.00001V20.25C6.00001 20.6642 5.66422 21 5.25001 21C4.83579 21 4.50001 20.6642 4.50001 20.25V13.5H10.5V19.5ZM6.36826 3H17.6516L20.6714 6.82605C22.3394 8.91119 20.8548 12 18.1845 12H18C16.3431 12 15 10.6569 15 9H16.5C16.5 9.82842 17.1716 10.5 18 10.5H18.1845C19.5971 10.5 20.3825 8.86608 19.5 7.76308L16.8896 4.5H7.11047L4.50001 7.76308C3.61762 8.86608 4.40291 10.5 5.81543 10.5H6.00001C6.82843 10.5 7.50001 9.82842 7.50001 9H9.00001C9.00001 10.6569 7.65686 12 6.00001 12H5.81543C3.14515 12 1.6606 8.91119 3.3287 6.82604L6.36826 3ZM9.00001 9H10.5C10.5 9.82843 11.1716 10.5 12 10.5C12.8284 10.5 13.5 9.82843 13.5 9H15C15 10.6569 13.6569 12 12 12C10.3431 12 9.00001 10.6569 9.00001 9ZM8.25001 7.5C7.83579 7.5 7.50001 7.16421 7.50001 6.75C7.50001 6.33579 7.83579 6 8.25001 6H15.75C16.1642 6 16.5 6.33579 16.5 6.75C16.5 7.16421 16.1642 7.5 15.75 7.5H8.25001ZM12 13.5H19.5V18H12V13.5ZM13.5 15V16.5H18V15H13.5Z" fill="currentColor"/>
</svg>
