<svg width="24" height="24" viewBox="0 0 24 24" fill="none" xmlns="http://www.w3.org/2000/svg">
<path fill-rule="evenodd" clip-rule="evenodd" d="M18 19.5V18.75C18 18.3358 18.3358 18 18.75 18C19.1642 18 19.5 18.3358 19.5 18.75V21H9V12H6V20.25C6 20.6642 5.66421 21 5.25 21C4.83579 21 4.5 20.6642 4.5 20.25V10.5H10.5V19.5H18ZM12 10.5H19.5V16.5H12V10.5ZM13.5 12V15H18V12H13.5ZM19.5 6.75C19.5 5.50736 18.4926 4.5 17.25 4.5H6.75C5.50736 4.5 4.5 5.50736 4.5 6.75V7.5C4.5 7.91421 4.83579 8.25 5.25 8.25C5.66421 8.25 6 7.91421 6 7.5H7.5C7.5 8.74263 6.49263 9.75 5.25 9.75C4.00737 9.75 3 8.74263 3 7.5V6.75C3 4.67893 4.67893 3 6.75 3H17.25C19.3211 3 21 4.67893 21 6.75V7.5C21 8.74263 19.9926 9.75 18.75 9.75C17.5074 9.75 16.5 8.74263 16.5 7.5H18C18 7.91421 18.3358 8.25 18.75 8.25C19.1642 8.25 19.5 7.91421 19.5 7.5V6.75ZM12 7.5C12 8.74263 10.9926 9.75 9.75 9.75C8.50737 9.75 7.5 8.74263 7.5 7.5H9C9 7.91421 9.33579 8.25 9.75 8.25C10.1642 8.25 10.5 7.91421 10.5 7.5H12ZM16.5 7.5C16.5 8.74263 15.4926 9.75 14.25 9.75C13.0074 9.75 12 8.74263 12 7.5H13.5C13.5 7.91421 13.8358 8.25 14.25 8.25C14.6642 8.25 15 7.91421 15 7.5H16.5Z" fill="currentColor"/>
</svg>
