<svg width="24" height="24" viewBox="0 0 24 24" fill="none" xmlns="http://www.w3.org/2000/svg">
<path fill-rule="evenodd" clip-rule="evenodd" d="M6.75 7.5C5.50736 7.5 4.5 8.50736 4.5 9.75C4.5 10.9926 5.50736 12 6.75 12C7.99264 12 9 10.9926 9 9.75C9 8.50736 7.99264 7.5 6.75 7.5ZM3 9.75C3 7.67894 4.67894 6 6.75 6C8.82106 6 10.5 7.67894 10.5 9.75C10.5 11.8211 8.82106 13.5 6.75 13.5C4.67894 13.5 3 11.8211 3 9.75ZM5.25 16.5C4.00735 16.5 3 17.5074 3 18.75V21.75C3 22.1642 2.66421 22.5 2.25 22.5C1.83579 22.5 1.5 22.1642 1.5 21.75V18.75C1.5 16.679 3.17894 15 5.25 15H8.25C10.3211 15 12 16.679 12 18.75V21.75C12 22.1642 11.6642 22.5 11.25 22.5C10.8358 22.5 10.5 22.1642 10.5 21.75V18.75C10.5 17.5074 9.49264 16.5 8.25 16.5H5.25ZM18 10.5V7.5C18 7.08579 18.3358 6.75 18.75 6.75C19.1642 6.75 19.5 7.08579 19.5 7.5V12H13.5V7.5C13.5 7.08579 13.8359 6.75 14.25 6.75C14.6642 6.75 15 7.08579 15 7.5V10.5H18ZM16.5 3.87464L13.1359 5.89311C12.7807 6.10623 12.32 5.99105 12.1069 5.63586C11.8938 5.28068 12.009 4.81998 12.3642 4.60688L16.5 2.12535L20.636 4.60688C20.9911 4.81998 21.1062 5.28068 20.8932 5.63586C20.68 5.99105 20.2194 6.10623 19.8642 5.89311L16.5 3.87464Z" fill="currentColor"/>
</svg>
