<svg width="24" height="24" viewBox="0 0 24 24" fill="none" xmlns="http://www.w3.org/2000/svg">
<path fill-rule="evenodd" clip-rule="evenodd" d="M12.75 7.4055V9.00001H20.625L20.85 9.30001C23.3 12.5667 23.3 18.9333 20.85 22.2L20.625 22.5H3.37501L3.15001 22.2C0.700008 18.9333 0.700003 12.5667 3.15001 9.30001L3.37501 9.00001H11.25V7.4055C10.4529 7.20033 9.78396 6.67578 9.38782 5.97639L2.77636 7.74792C2.37626 7.85513 1.96501 7.61769 1.8578 7.21759C1.7506 6.81749 1.98803 6.40624 2.38813 6.29904L9.00012 4.52736C9.00004 4.51825 9 4.50914 9 4.50001C9 2.84316 10.3431 1.50001 12 1.50001C13.1201 1.50001 14.0969 2.11391 14.6122 3.02361L21.2236 1.25206C21.6237 1.14485 22.035 1.38229 22.1422 1.78239C22.2494 2.18249 22.012 2.59374 21.6119 2.70095L14.9999 4.47264C15 4.48176 15 4.49088 15 4.50001C15 5.89789 14.0439 7.07247 12.75 7.4055ZM20.9836 18H16.5V12H20.5851C20.3904 11.4515 20.1485 10.9447 19.8594 10.5H4.14061C3.85151 10.9447 3.60961 11.4515 3.41491 12H7.5V18H3.01638C3.22737 19.128 3.60211 20.1717 4.14061 21H19.8594C20.3979 20.1717 20.7726 19.128 20.9836 18ZM21.1655 16.5C21.2248 15.493 21.1642 14.4656 20.9836 13.5H18V16.5H21.1655ZM2.83455 16.5H6V13.5H3.01638C2.83578 14.4656 2.77517 15.493 2.83455 16.5ZM12 6.00001C12.8284 6.00001 13.5 5.32844 13.5 4.50001C13.5 3.67159 12.8284 3.00001 12 3.00001C11.1716 3.00001 10.5 3.67159 10.5 4.50001C10.5 5.32844 11.1716 6.00001 12 6.00001ZM9 18V12H15V18H9ZM10.5 16.5H13.5V13.5H10.5V16.5Z" fill="currentColor"/>
</svg>
