<svg width="24" height="24" viewBox="0 0 24 24" fill="none" xmlns="http://www.w3.org/2000/svg">
<path fill-rule="evenodd" clip-rule="evenodd" d="M3.74998 4.5H2.90039L3.00578 5.34303L4.17728 14.7151C4.41187 16.5918 6.00712 18 7.89833 18H13.1016C14.9929 18 16.5881 16.5918 16.8227 14.7151L16.9748 13.4988C19.2068 13.4459 21 11.6198 21 9.375C21 8.33946 20.1605 7.5 19.125 7.5H17.7246L17.9942 5.34303L18.0996 4.5H17.25H3.74998ZM17.5371 9L17.1641 11.9843C18.4778 11.8404 19.5 10.7271 19.5 9.375C19.5 9.16789 19.3322 9 19.125 9H17.5371ZM4.78708 7.5L4.59958 6H16.4004L16.2129 7.5H4.78708ZM4.97458 9L5.6657 14.5291C5.80645 15.6551 6.7636 16.5 7.89833 16.5H13.1016C14.2364 16.5 15.1935 15.6551 15.3342 14.5291L16.0254 9H4.97458ZM4.49998 20.25C4.49998 19.8358 4.83577 19.5 5.24998 19.5H15.75C16.1642 19.5 16.5 19.8358 16.5 20.25C16.5 20.6642 16.1642 21 15.75 21H5.24998C4.83577 21 4.49998 20.6642 4.49998 20.25Z" fill="currentColor"/>
</svg>
