<svg width="24" height="24" viewBox="0 0 24 24" fill="none" xmlns="http://www.w3.org/2000/svg">
<path fill-rule="evenodd" clip-rule="evenodd" d="M6 15.3107V21H18V15.3162C17.5437 14.9295 16.8593 14.9513 16.4289 15.3818L16.1737 15.637C15.1113 16.6994 13.3887 16.6994 12.3262 15.6369L11.9493 15.26C11.6231 14.9337 11.0834 14.9721 10.8066 15.3412C9.90329 16.5455 8.09671 16.5455 7.19342 15.3412C6.91656 14.9721 6.37694 14.9337 6.05066 15.26L6 15.3107ZM4.5 16.188C3.54104 16.3678 2.50759 15.9885 1.9161 15.1012L1.86139 15.0191C1.62574 14.6657 1.5 14.2504 1.5 13.8256V13.5528C1.5 11.8668 2.86678 10.5 4.55277 10.5H19.4472C21.1332 10.5 22.5 11.8668 22.5 13.5528V13.8256C22.5 14.2503 22.3743 14.6656 22.1387 15.0192C21.5339 15.9261 20.4817 16.3187 19.5 16.1455V21H21.75C22.1642 21 22.5 21.3358 22.5 21.75C22.5 22.1642 22.1642 22.5 21.75 22.5H2.25C1.83579 22.5 1.5 22.1642 1.5 21.75C1.5 21.3358 1.83579 21 2.25 21H4.5V16.188ZM15.3682 14.3211C16.4075 13.2818 18.0925 13.2818 19.1322 14.3215L19.1683 14.3576C19.6676 14.8569 20.4989 14.7746 20.8905 14.1872C20.9619 14.0801 21 13.9543 21 13.8256V13.5528C21 12.6952 20.3048 12 19.4472 12H4.55277C3.69521 12 3 12.6952 3 13.5528V13.8256C3 13.9543 3.03809 14.08 3.1095 14.1872L3.16422 14.2693C3.52755 14.8143 4.29869 14.8906 4.76189 14.4274L4.99 14.1993C5.96174 13.2276 7.56885 13.3418 8.39341 14.4412C8.69669 14.8455 9.30331 14.8456 9.60659 14.4412C10.4311 13.3418 12.0383 13.2276 13.01 14.1994L13.3869 14.5763C13.8636 15.0529 14.6364 15.0529 15.113 14.5763L15.3682 14.3211ZM14.25 5.25C14.25 6.49263 13.2426 7.5 12 7.5C10.7574 7.5 9.75 6.49263 9.75 5.25C9.75 4.79962 9.95734 4.25705 10.3265 3.55779C10.4109 3.39792 10.5029 3.2326 10.6013 3.063C10.7722 2.7683 10.9544 2.47428 11.1366 2.19375C11.2462 2.02497 11.3322 1.89716 11.3829 1.82374L12 0.930359L12.6171 1.82374C12.6678 1.89716 12.7538 2.02497 12.8634 2.19375C13.0456 2.47428 13.2278 2.7683 13.3987 3.063C13.4971 3.2326 13.5891 3.39792 13.6735 3.55779C14.0427 4.25705 14.25 4.79962 14.25 5.25ZM11.8987 3.81567C11.8099 3.96876 11.7276 4.11681 11.653 4.25809C11.3971 4.74287 11.25 5.1277 11.25 5.25C11.25 5.6642 11.5858 6 12 6C12.4142 6 12.75 5.6642 12.75 5.25C12.75 5.1277 12.6029 4.74287 12.347 4.25809C12.2724 4.11681 12.1901 3.96876 12.1013 3.81567C12.068 3.75836 12.0342 3.70095 12 3.64358C11.9658 3.70095 11.932 3.75836 11.8987 3.81567ZM7.5 7.5C7.5 8.74263 6.49263 9.75 5.25 9.75C4.00737 9.75 3 8.74263 3 7.5C3 7.04962 3.20734 6.50705 3.5765 5.80779C3.66091 5.64792 3.75287 5.4826 3.85125 5.313C4.02221 5.0183 4.20444 4.72428 4.38663 4.44375C4.49625 4.27497 4.58219 4.14716 4.6329 4.07374L5.25 3.18036L5.8671 4.07374C5.91781 4.14716 6.00375 4.27497 6.11337 4.44375C6.29556 4.72428 6.47779 5.0183 6.64875 5.313C6.74713 5.4826 6.83909 5.64792 6.9235 5.80779C7.29266 6.50705 7.5 7.04962 7.5 7.5ZM5.14875 6.06567C5.05994 6.21876 4.97758 6.36681 4.90299 6.50809C4.64706 6.99287 4.5 7.3777 4.5 7.5C4.5 7.9142 4.83579 8.25 5.25 8.25C5.66421 8.25 6 7.9142 6 7.5C6 7.3777 5.85294 6.99287 5.59701 6.50809C5.52242 6.36681 5.44006 6.21876 5.35125 6.06567C5.31801 6.00836 5.28422 5.95095 5.25 5.89358C5.21578 5.95095 5.18199 6.00836 5.14875 6.06567ZM21 7.5C21 8.74264 19.9927 9.75 18.75 9.75C17.5073 9.75 16.5 8.74264 16.5 7.5C16.5 7.04962 16.7073 6.50705 17.0765 5.80779C17.1609 5.64792 17.2529 5.4826 17.3513 5.313C17.5222 5.0183 17.7044 4.72428 17.8866 4.44375C17.9962 4.27497 18.0822 4.14716 18.1329 4.07374L18.75 3.18036L19.3671 4.07374C19.4178 4.14716 19.5038 4.27497 19.6134 4.44375C19.7956 4.72428 19.9778 5.0183 20.1487 5.313C20.2471 5.4826 20.3391 5.64792 20.4235 5.80779C20.7927 6.50705 21 7.04962 21 7.5ZM18.6487 6.06567C18.5599 6.21876 18.4776 6.36681 18.403 6.50809C18.1471 6.99287 18 7.3777 18 7.5C18 7.91421 18.3358 8.25 18.75 8.25C19.1642 8.25 19.5 7.91421 19.5 7.5C19.5 7.3777 19.3529 6.99287 19.097 6.50809C19.0224 6.36681 18.9401 6.21876 18.8513 6.06567C18.818 6.00836 18.7842 5.95095 18.75 5.89358C18.7158 5.95095 18.682 6.00836 18.6487 6.06567Z" fill="currentColor"/>
</svg>
