<svg width="24" height="24" viewBox="0 0 24 24" fill="none" xmlns="http://www.w3.org/2000/svg">
<path fill-rule="evenodd" clip-rule="evenodd" d="M21 17.25C21 19.3211 19.3211 21 17.25 21H6.75C4.67892 21 3 19.3211 3 17.25V6.75C3 4.67893 4.67893 3 6.75 3H17.25C19.3211 3 21 4.67892 21 6.75V17.25ZM19.5 17.25V6.75C19.5 5.50734 18.4927 4.5 17.25 4.5H6.75C5.50736 4.5 4.5 5.50736 4.5 6.75V17.25C4.5 18.4927 5.50734 19.5 6.75 19.5H17.25C18.4927 19.5 19.5 18.4927 19.5 17.25ZM6.75 15C6.33579 15 6 14.6642 6 14.25C6 13.8358 6.33579 13.5 6.75 13.5H8.25C8.66421 13.5 9 13.8358 9 14.25C9 14.6642 8.66421 15 8.25 15H6.75ZM11.25 15C10.8358 15 10.5 14.6642 10.5 14.25C10.5 13.8358 10.8358 13.5 11.25 13.5H12.75C13.1642 13.5 13.5 13.8358 13.5 14.25C13.5 14.6642 13.1642 15 12.75 15H11.25ZM15.75 15C15.3358 15 15 14.6642 15 14.25C15 13.8358 15.3358 13.5 15.75 13.5H17.25C17.6642 13.5 18 13.8358 18 14.25C18 14.6642 17.6642 15 17.25 15H15.75ZM6.75 18C6.33579 18 6 17.6642 6 17.25C6 16.8358 6.33579 16.5 6.75 16.5H8.25C8.66421 16.5 9 16.8358 9 17.25C9 17.6642 8.66421 18 8.25 18H6.75ZM11.25 18C10.8358 18 10.5 17.6642 10.5 17.25C10.5 16.8358 10.8358 16.5 11.25 16.5H12.75C13.1642 16.5 13.5 16.8358 13.5 17.25C13.5 17.6642 13.1642 18 12.75 18H11.25ZM15.75 18C15.3358 18 15 17.6642 15 17.25C15 16.8358 15.3358 16.5 15.75 16.5H17.25C17.6642 16.5 18 16.8358 18 17.25C18 17.6642 17.6642 18 17.25 18H15.75ZM18 12H6V6H18V12ZM16.5 10.5V7.5H7.5V10.5H16.5Z" fill="currentColor"/>
</svg>
