<svg width="24" height="24" viewBox="0 0 24 24" fill="none" xmlns="http://www.w3.org/2000/svg">
<path fill-rule="evenodd" clip-rule="evenodd" d="M18 4.5V3C18 2.58579 18.3358 2.25 18.75 2.25C19.1642 2.25 19.5 2.58579 19.5 3V4.5H21V21H3V4.5H4.5V3C4.5 2.58579 4.83579 2.25 5.25 2.25C5.66421 2.25 6 2.58579 6 3V4.5H7.5V3C7.5 2.58579 7.83579 2.25 8.25 2.25C8.66421 2.25 9 2.58579 9 3V4.5H15V3C15 2.58579 15.3358 2.25 15.75 2.25C16.1642 2.25 16.5 2.58579 16.5 3V4.5H18ZM4.5 9V19.5H19.5V9H4.5ZM4.5 7.5H19.5V6H4.5V7.5ZM6.75 18C6.33579 18 6 17.6642 6 17.25C6 16.8358 6.33579 16.5 6.75 16.5H8.25C8.66421 16.5 9 16.8358 9 17.25C9 17.6642 8.66421 18 8.25 18H6.75ZM6.75 15C6.33579 15 6 14.6642 6 14.25C6 13.8358 6.33579 13.5 6.75 13.5H8.25C8.66421 13.5 9 13.8358 9 14.25C9 14.6642 8.66421 15 8.25 15H6.75ZM6.75 12C6.33579 12 6 11.6642 6 11.25C6 10.8358 6.33579 10.5 6.75 10.5H8.25C8.66421 10.5 9 10.8358 9 11.25C9 11.6642 8.66421 12 8.25 12H6.75ZM11.25 18C10.8358 18 10.5 17.6642 10.5 17.25C10.5 16.8358 10.8358 16.5 11.25 16.5H12.75C13.1642 16.5 13.5 16.8358 13.5 17.25C13.5 17.6642 13.1642 18 12.75 18H11.25ZM11.25 15C10.8358 15 10.5 14.6642 10.5 14.25C10.5 13.8358 10.8358 13.5 11.25 13.5H12.75C13.1642 13.5 13.5 13.8358 13.5 14.25C13.5 14.6642 13.1642 15 12.75 15H11.25ZM11.25 12C10.8358 12 10.5 11.6642 10.5 11.25C10.5 10.8358 10.8358 10.5 11.25 10.5H12.75C13.1642 10.5 13.5 10.8358 13.5 11.25C13.5 11.6642 13.1642 12 12.75 12H11.25ZM15.75 18C15.3358 18 15 17.6642 15 17.25C15 16.8358 15.3358 16.5 15.75 16.5H17.25C17.6642 16.5 18 16.8358 18 17.25C18 17.6642 17.6642 18 17.25 18H15.75ZM15.75 15C15.3358 15 15 14.6642 15 14.25C15 13.8358 15.3358 13.5 15.75 13.5H17.25C17.6642 13.5 18 13.8358 18 14.25C18 14.6642 17.6642 15 17.25 15H15.75ZM15.75 12C15.3358 12 15 11.6642 15 11.25C15 10.8358 15.3358 10.5 15.75 10.5H17.25C17.6642 10.5 18 10.8358 18 11.25C18 11.6642 17.6642 12 17.25 12H15.75Z" fill="currentColor"/>
</svg>
