<svg width="24" height="24" viewBox="0 0 24 24" fill="none" xmlns="http://www.w3.org/2000/svg">
<path fill-rule="evenodd" clip-rule="evenodd" d="M15.375 6H8.625C8.21079 6 7.875 6.33581 7.875 6.75C7.875 7.99266 6.86764 9 5.625 9H3V18H21V9H18.375C17.1324 9 16.125 7.99266 16.125 6.75C16.125 6.33579 15.7892 6 15.375 6ZM8.625 4.5H15.375C16.6176 4.5 17.625 5.50735 17.625 6.75C17.625 7.16423 17.9608 7.5 18.375 7.5H22.5V19.5H1.5V7.5H5.625C6.03921 7.5 6.375 7.16424 6.375 6.75C6.375 5.50739 7.38236 4.5 8.625 4.5ZM12 9.75C10.3431 9.75 9 11.0931 9 12.75C9 14.4069 10.3431 15.75 12 15.75C13.6569 15.75 15 14.4069 15 12.75C15 11.0931 13.6569 9.75 12 9.75ZM7.5 12.75C7.5 10.2647 9.51472 8.25 12 8.25C14.4853 8.25 16.5 10.2647 16.5 12.75C16.5 15.2353 14.4853 17.25 12 17.25C9.51472 17.25 7.5 15.2353 7.5 12.75ZM19.5 11.25C19.5 11.6642 19.1642 12 18.75 12C18.3358 12 18 11.6642 18 11.25C18 10.8358 18.3358 10.5 18.75 10.5C19.1642 10.5 19.5 10.8358 19.5 11.25Z" fill="currentColor"/>
</svg>
