<svg width="24" height="24" viewBox="0 0 24 24" fill="none" xmlns="http://www.w3.org/2000/svg">
<path fill-rule="evenodd" clip-rule="evenodd" d="M4.5 16.5H19.5V12C19.5 10.7573 18.4927 9.75 17.25 9.75H6.75C5.50736 9.75 4.5 10.7574 4.5 12V16.5ZM9 18V18.75C9 19.9927 7.99264 21 6.75 21C5.50736 21 4.5 19.9927 4.5 18.75V18H3V12C3 9.92893 4.67893 8.25 6.75 8.25H17.25C19.3211 8.25 21 9.92892 21 12V18H19.5V18.75C19.5 19.9927 18.4927 21 17.25 21C16.0073 21 15 19.9927 15 18.75V18H9ZM6 18V18.75C6 19.1642 6.33578 19.5 6.75 19.5C7.16422 19.5 7.5 19.1642 7.5 18.75V18H6ZM16.5 18V18.75C16.5 19.1642 16.8358 19.5 17.25 19.5C17.6642 19.5 18 19.1642 18 18.75V18H16.5ZM6.75 13.5C6.33579 13.5 6 13.1642 6 12.75C6 12.3358 6.33579 12 6.75 12C7.16421 12 7.5 12.3358 7.5 12.75C7.5 13.1642 7.16421 13.5 6.75 13.5ZM17.25 13.5C16.8358 13.5 16.5 13.1642 16.5 12.75C16.5 12.3358 16.8358 12 17.25 12C17.6642 12 18 12.3358 18 12.75C18 13.1642 17.6642 13.5 17.25 13.5ZM9.75 13.5C9.33579 13.5 9 13.1642 9 12.75C9 12.3358 9.33579 12 9.75 12H14.25C14.6642 12 15 12.3358 15 12.75C15 13.1642 14.6642 13.5 14.25 13.5H9.75ZM7.47761 6.93191C7.37714 7.33375 6.96994 7.57807 6.56809 7.47761C6.16625 7.37714 5.92193 6.96994 6.02239 6.56809L6.2043 5.8405C6.62163 4.17112 8.12157 3 9.84233 3H14.1577C15.8784 3 17.3783 4.17109 17.7956 5.84045L17.9776 6.56805C18.0781 6.96989 17.8338 7.37711 17.4319 7.4776C17.0301 7.57808 16.6229 7.33379 16.5224 6.93195L16.3404 6.20431C16.09 5.20264 15.1901 4.5 14.1577 4.5H9.84233C8.80987 4.5 7.90991 5.20267 7.65951 6.2043L7.47761 6.93191Z" fill="currentColor"/>
</svg>
