<svg width="24" height="24" viewBox="0 0 24 24" fill="none" xmlns="http://www.w3.org/2000/svg">
<path fill-rule="evenodd" clip-rule="evenodd" d="M4.5 7.5H22.5V19.5H4.5V7.5ZM6 9V18H21V9H6ZM1.5 4.5H18.75C19.1642 4.5 19.5 4.83579 19.5 5.25C19.5 5.66421 19.1642 6 18.75 6H3V15.75C3 16.1642 2.66421 16.5 2.25 16.5C1.83579 16.5 1.5 16.1642 1.5 15.75V4.5ZM8.45944 10.5H17.7906L18.7906 13.5L17.7906 16.5H8.45944L7.45944 13.5L8.45944 10.5ZM9.54059 12L9.04058 13.5L9.54059 15H16.7094L17.2095 13.5L16.7094 12H9.54059Z" fill="currentColor"/>
</svg>
