<svg width="24" height="24" viewBox="0 0 24 24" fill="none" xmlns="http://www.w3.org/2000/svg">
<path fill-rule="evenodd" clip-rule="evenodd" d="M6 9.75C6 9.33579 6.33579 9 6.75 9H15.75C16.1642 9 16.5 9.33579 16.5 9.75C16.5 10.1642 16.1642 10.5 15.75 10.5H6.75C6.33579 10.5 6 10.1642 6 9.75ZM6.75 12H12.75C13.1642 12 13.5 12.3358 13.5 12.75C13.5 13.1642 13.1642 13.5 12.75 13.5H6.75C6.33579 13.5 6 13.1642 6 12.75C6 12.3358 6.33579 12 6.75 12ZM1.5 11.25C1.5 5.86522 5.86522 1.5 11.25 1.5C16.6348 1.5 21 5.86522 21 11.25C21 12.808 20.634 14.2826 19.9829 15.5904L21.2454 21.2719L15.7545 19.8992C14.4064 20.6025 12.8736 21 11.25 21C5.86522 21 1.5 16.6348 1.5 11.25ZM11.25 3C6.69365 3 3 6.69365 3 11.25C3 15.8064 6.69365 19.5 11.25 19.5C12.7176 19.5 14.0937 19.1175 15.2862 18.4472L15.5462 18.3009L19.2546 19.2281L18.3993 15.3794L18.5304 15.1343C19.149 13.9775 19.5 12.6559 19.5 11.25C19.5 6.69365 15.8064 3 11.25 3Z" fill="currentColor"/>
</svg>
