<svg xmlns="http://www.w3.org/2000/svg" width="24" height="24" viewBox="0 0 24 24">
  <path fill="currentColor" fill-rule="evenodd" d="M10.4999975,13.9393 L15.2196,9.21968 C15.5126,8.92677 15.9874,8.92677 16.2804,9.21968 C16.5732,9.51256 16.5732,9.98744 16.2804,10.2803 L10.4999975,16.0606 L7.71968,13.2803 C7.42677,12.9874 7.42677,12.5126 7.71968,12.2197 C8.01257,11.9268 8.48743,11.9268 8.78032,12.2197 L10.4999975,13.9393 Z M12,1.5 C17.799,1.5 22.5,6.20101 22.5,12 C22.5,17.799 17.799,22.5 12,22.5 C6.20101,22.5 1.5,17.799 1.5,12 C1.5,6.20101 6.20101,1.5 12,1.5 Z"/>
</svg>