<svg width="24" height="24" viewBox="0 0 24 24" fill="none" xmlns="http://www.w3.org/2000/svg">
<path fill-rule="evenodd" clip-rule="evenodd" d="M10.5 13.9393L15.2196 9.21968C15.5126 8.92677 15.9874 8.92677 16.2804 9.21968C16.5732 9.51256 16.5732 9.98744 16.2804 10.2803L10.5 16.0606L7.71968 13.2803C7.42677 12.9874 7.42677 12.5126 7.71968 12.2197C8.01257 11.9268 8.48743 11.9268 8.78032 12.2197L10.5 13.9393ZM12 1.5C17.799 1.5 22.5 6.20101 22.5 12C22.5 17.799 17.799 22.5 12 22.5C6.20101 22.5 1.5 17.799 1.5 12C1.5 6.20101 6.20101 1.5 12 1.5ZM3 12C3 16.9705 7.02944 21 12 21C16.9705 21 21 16.9705 21 12C21 7.02944 16.9705 3 12 3C7.02944 3 3 7.02944 3 12Z" fill="currentColor"/>
</svg>
