<svg width="24" height="24" viewBox="0 0 24 24" fill="none" xmlns="http://www.w3.org/2000/svg">
<path fill-rule="evenodd" clip-rule="evenodd" d="M12 16.5V21.75C12 22.1642 11.6642 22.5 11.25 22.5C10.8358 22.5 10.5 22.1642 10.5 21.75V18H9V21.75C9 22.1642 8.66421 22.5 8.25 22.5C7.83579 22.5 7.5 22.1642 7.5 21.75V16.5H12ZM16.5 11.7895L20.7186 15.1644C21.042 15.4232 21.0945 15.8951 20.8357 16.2184C20.5768 16.542 20.1049 16.5943 19.7815 16.3356L16.5 13.7104L13.2186 16.3356C12.8951 16.5943 12.4231 16.542 12.1644 16.2184C11.9056 15.8951 11.9581 15.4232 12.2815 15.1644L16.5 11.7895ZM13.5 22.5V17.25C13.5 16.8358 13.8358 16.5 14.25 16.5C14.6642 16.5 15 16.8358 15 17.25V21H18V17.25C18 16.8358 18.3358 16.5 18.75 16.5C19.1641 16.5 19.5 16.8358 19.5 17.25V22.5H13.5ZM4.5 1.5H15V11.25C15 11.6642 14.6642 12 14.25 12C13.8358 12 13.5 11.6642 13.5 11.25V3H6V21.75C6 22.1642 5.66421 22.5 5.25 22.5C4.83579 22.5 4.5 22.1642 4.5 21.75V1.5ZM8.25 6C7.83579 6 7.5 5.66421 7.5 5.25C7.5 4.83579 7.83579 4.5 8.25 4.5C8.66421 4.5 9 4.83579 9 5.25C9 5.66421 8.66421 6 8.25 6ZM8.25 9C7.83579 9 7.5 8.66421 7.5 8.25C7.5 7.83579 7.83579 7.5 8.25 7.5C8.66421 7.5 9 7.83579 9 8.25C9 8.66421 8.66421 9 8.25 9ZM8.25 12C7.83579 12 7.5 11.6642 7.5 11.25C7.5 10.8358 7.83579 10.5 8.25 10.5C8.66421 10.5 9 10.8358 9 11.25C9 11.6642 8.66421 12 8.25 12ZM8.25 15C7.83579 15 7.5 14.6642 7.5 14.25C7.5 13.8358 7.83579 13.5 8.25 13.5C8.66421 13.5 9 13.8358 9 14.25C9 14.6642 8.66421 15 8.25 15ZM11.25 6C10.8358 6 10.5 5.66421 10.5 5.25C10.5 4.83579 10.8358 4.5 11.25 4.5C11.6642 4.5 12 4.83579 12 5.25C12 5.66421 11.6642 6 11.25 6ZM11.25 9C10.8358 9 10.5 8.66421 10.5 8.25C10.5 7.83579 10.8358 7.5 11.25 7.5C11.6642 7.5 12 7.83579 12 8.25C12 8.66421 11.6642 9 11.25 9ZM11.25 12C10.8358 12 10.5 11.6642 10.5 11.25C10.5 10.8358 10.8358 10.5 11.25 10.5C11.6642 10.5 12 10.8358 12 11.25C12 11.6642 11.6642 12 11.25 12ZM11.25 15C10.8358 15 10.5 14.6642 10.5 14.25C10.5 13.8358 10.8358 13.5 11.25 13.5C11.6642 13.5 12 13.8358 12 14.25C12 14.6642 11.6642 15 11.25 15Z" fill="currentColor"/>
</svg>
