<svg width="24" height="24" viewBox="0 0 24 24" fill="none" xmlns="http://www.w3.org/2000/svg">
<path fill-rule="evenodd" clip-rule="evenodd" d="M18 5.00747V2.25C18 1.83579 18.3358 1.5 18.75 1.5C19.1642 1.5 19.5 1.83579 19.5 2.25V6.744C19.5 6.74772 19.5 6.75144 19.5 6.75516V7.5H18.756C18.7523 7.50003 18.7486 7.50003 18.7448 7.5H14.25C13.8358 7.5 13.5 7.16421 13.5 6.75C13.5 6.33579 13.8358 6 14.25 6H16.814C15.4602 5.06631 13.706 4.5 12 4.5C7.85786 4.5 4.5 7.85786 4.5 12C4.5 16.1422 7.85784 19.5 12 19.5C12.2209 19.5 12.4394 19.4904 12.6551 19.4718C13.0678 19.4361 13.4312 19.7418 13.4669 20.1544C13.5025 20.5671 13.1969 20.9305 12.7842 20.9662C12.5256 20.9886 12.2641 21 12 21C7.02942 21 3 16.9706 3 12C3 7.02943 7.02943 3 12 3C14.1489 3 16.348 3.75238 18 5.00747ZM12 7.5V12.2865L14.5854 13.5792C14.9559 13.7644 15.1061 14.2149 14.9208 14.5854C14.7356 14.9559 14.2851 15.1061 13.9146 14.9208L10.5 13.2135V7.5C10.5 7.08579 10.8358 6.75 11.25 6.75C11.6642 6.75 12 7.08579 12 7.5ZM20.1546 10.5332C20.5673 10.4975 20.9307 10.8032 20.9662 11.2158C20.9886 11.4744 21 11.736 21 12C21 12.264 20.9886 12.5256 20.9662 12.7842C20.9307 13.1968 20.5673 13.5025 20.1546 13.4668C19.7418 13.4312 19.4363 13.0677 19.472 12.655C19.4906 12.4393 19.5 12.2209 19.5 12C19.5 11.7791 19.4906 11.5606 19.472 11.345C19.4363 10.9323 19.7418 10.5688 20.1546 10.5332ZM19.7962 14.8079C20.1716 14.9832 20.3337 15.4296 20.1583 15.8049C19.9354 16.2821 19.6721 16.7363 19.3727 17.163C19.1348 17.5022 18.6671 17.5842 18.3279 17.3463C17.9889 17.1084 17.9069 16.6407 18.1448 16.3017C18.3944 15.9457 18.6138 15.5673 18.7993 15.1701C18.9747 14.7948 19.4209 14.6326 19.7962 14.8079ZM17.3464 18.3279C17.5842 18.6671 17.5021 19.1348 17.1631 19.3727C16.7362 19.6721 16.2821 19.9354 15.8049 20.1583C15.4296 20.3337 14.9833 20.1716 14.808 19.7962C14.6327 19.4209 14.7948 18.9746 15.1701 18.7994C15.5673 18.6138 15.9457 18.3944 16.3017 18.1446C16.6409 17.9067 17.1085 17.9888 17.3464 18.3279Z" fill="currentColor"/>
</svg>
