<svg xmlns="http://www.w3.org/2000/svg" width="24" height="24" viewBox="0 0 24 24">
  <path fill="currentColor" fill-rule="evenodd" d="M12,3 C16.9706,3 21,7.02944 21,12 C21,16.9706 16.9706,21 12,21 C7.02944,21 3,16.9706 3,12 C3,7.02944 7.02944,3 12,3 Z M12,4.5 C7.85786,4.5 4.5,7.85786 4.5,12 C4.5,16.1421 7.85786,19.5 12,19.5 C16.1421,19.5 19.5,16.1421 19.5,12 C19.5,7.85786 16.1421,4.5 12,4.5 Z M11.25,6.75 C11.6296833,6.75 11.9434889,7.03215688 11.9931531,7.39823019 L12,7.5 L12,12.2865 L14.5854,13.5792 C14.9559,13.7644 15.1061,14.2149 14.9208,14.5854 C14.7510333,14.925025 14.358341,15.0795368 14.0086918,14.9602021 L13.9146,14.9208 L10.5,13.2135 L10.5,7.5 C10.5,7.08579 10.8358,6.75 11.25,6.75 Z"/>
</svg>