<svg width="24" height="24" viewBox="0 0 24 24" fill="none" xmlns="http://www.w3.org/2000/svg">
<path fill-rule="evenodd" clip-rule="evenodd" d="M12 6V18H15V22.5H4.5V18H7.5V6H3V7.5H5.25C5.66421 7.5 6 7.83579 6 8.25C6 8.66421 5.66421 9 5.25 9H1.5V4.5H7.5V1.5H12V4.5H21.75C22.01 4.5 22.2513 4.63459 22.3879 4.85569C22.5246 5.07681 22.5371 5.35291 22.4208 5.58541L21 8.42704V12.9387C21 13.1197 21.0654 13.2946 21.1842 13.4311L21.7192 14.046C22.1962 14.4575 22.5 15.0686 22.5 15.75C22.5 16.9926 21.4926 18 20.25 18C19.0074 18 18 16.9926 18 15.75C18 15.3358 18.3358 15 18.75 15C19.1642 15 19.5 15.3358 19.5 15.75C19.5 16.1642 19.8358 16.5 20.25 16.5C20.6642 16.5 21 16.1642 21 15.75C21 15.5147 20.8925 15.3048 20.7208 15.166L20.6697 15.1248L20.6265 15.0752L20.0526 14.4158C19.6964 14.0062 19.5 13.4816 19.5 12.9387V8.26509C19.4976 8.14732 19.5228 8.02727 19.5792 7.91459L20.5365 6H12ZM10.5 6H9V18H10.5V6ZM10.5 4.5V3H9V4.5H10.5ZM6 19.5V21H13.5V19.5H6Z" fill="currentColor"/>
</svg>
