<svg xmlns="http://www.w3.org/2000/svg" width="24" height="24" viewBox="0 0 24 24">
  <path fill="currentColor" fill-rule="evenodd" d="M19.5,1.5 L19.5,9.75 C19.5,10.16421 19.16415,10.5 18.75,10.5 C18.3818667,10.5 18.0756,10.2346844 18.0120856,9.88481251 L18,9.75 L18,3 L6,3 L6,21 L9.75,21 C10.16421,21 10.5,21.33585 10.5,21.75 C10.5,22.1181333 10.2346844,22.4244 9.88481251,22.4879144 L9.75,22.5 L4.5,22.5 L4.5,1.5 L19.5,1.5 Z M15,10.5 C18.31365,10.5 21,13.18629 21,16.5 C21,19.81365 18.31365,22.5 15,22.5 C11.68629,22.5 9,19.81365 9,16.5 C9,13.18629 11.68629,10.5 15,10.5 Z M15,12 C12.514725,12 10.5,14.014725 10.5,16.5 C10.5,18.98535 12.514725,21 15,21 C17.48535,21 19.5,18.98535 19.5,16.5 C19.5,14.014725 17.48535,12 15,12 Z M15.0249,12.999945 C15.17865,12.999945 15.31485,13.077975 15.3465,13.25862 L15.3534,13.342395 L15.3534,13.680765 C15.831,13.746 16.25505,13.933545 16.5378,14.21892 C16.7517,14.44314 16.8777,14.691825 16.8777,14.920125 C16.8777,15.1566 16.71345,15.3156 16.49955,15.3156 C16.32375,15.3156 16.19385,15.2463 16.02585,15.0588 C15.69345,14.663295 15.3954,14.50836 14.96754,14.50836 C14.44032,14.50836 14.104125,14.810055 14.104125,15.2259 C14.104125,15.53775 14.29599,15.7605 14.68806,15.88515 L14.82618,15.9231 L15.60165,16.1106 C16.5453,16.33065 17.0001,16.81995 17.0001,17.6271 C17.0001,18.5127 16.42755,19.13655 15.49815,19.30275 L15.33045,19.3272 L15.33045,19.6533 C15.33045,19.89795 15.1776,19.9998 15.0057,19.9998 C14.85198,19.9998 14.71575,19.9218 14.6841,19.7385 L14.677185,19.6533 L14.677185,19.33125 C14.146155,19.2783 13.668615,19.09485 13.362975,18.79725 C13.129935,18.5811 13.000035,18.33255 13.000035,18.09195 C13.000035,17.8188 13.17576,17.6598 13.4088,17.6598 C13.55397,17.6598 13.660965,17.70465 13.855785,17.91255 C14.199645,18.30795 14.577855,18.49155 15.03255,18.49155 C15.6399,18.49155 15.97995,18.19785 15.97995,17.73315 C15.97995,17.40705 15.78735,17.20215 15.3276,17.0604 L15.1815,17.01975 L14.40594,16.82805 C13.53489,16.62015 13.080255,16.09425 13.080255,15.3033 C13.080255,14.45154 13.638645,13.84167 14.529285,13.691295 L14.70012,13.66854 L14.70012,13.342395 C14.70012,13.09779 14.852925,12.999945 15.0249,12.999945 Z M9,10.5 C9.41421,10.5 9.75,10.83579 9.75,11.25 C9.75,11.6181867 9.48468444,11.9244119 9.13481251,11.9879164 L9,12 L8.25,12 C7.83579,12 7.5,11.66421 7.5,11.25 C7.5,10.8818133 7.76531556,10.5755881 8.11518749,10.5120836 L8.25,10.5 L9,10.5 Z M12.75,7.5 C13.16421,7.5 13.5,7.83579 13.5,8.25 C13.5,8.61818667 13.2346844,8.92441185 12.8848125,8.98791638 L12.75,9 L8.25,9 C7.83579,9 7.5,8.66421 7.5,8.25 C7.5,7.88181333 7.76531556,7.57558815 8.11518749,7.51208362 L8.25,7.5 L12.75,7.5 Z M15.75,4.5 C16.16415,4.5 16.5,4.83579 16.5,5.25 C16.5,5.61818667 16.234637,5.92441185 15.8847967,5.98791638 L15.75,6 L8.25,6 C7.83579,6 7.5,5.66421 7.5,5.25 C7.5,4.88181333 7.76531556,4.57558815 8.11518749,4.51208362 L8.25,4.5 L15.75,4.5 Z" />
</svg>