<svg width="24" height="24" viewBox="0 0 24 24" fill="none" xmlns="http://www.w3.org/2000/svg">
<path fill-rule="evenodd" clip-rule="evenodd" d="M7.71968 7.71968C8.01257 7.42677 8.48743 7.42677 8.78032 7.71968L12 10.9393L15.2196 7.71968C15.5126 7.42677 15.9874 7.42677 16.2804 7.71968C16.5732 8.01257 16.5732 8.48743 16.2804 8.78032L13.0607 12L16.2804 15.2196C16.5732 15.5126 16.5732 15.9874 16.2804 16.2804C15.9874 16.5732 15.5126 16.5732 15.2196 16.2804L12 13.0607L8.78032 16.2804C8.48743 16.5732 8.01257 16.5732 7.71968 16.2804C7.42677 15.9874 7.42677 15.5126 7.71968 15.2196L10.9393 12L7.71968 8.78032C7.42677 8.48743 7.42677 8.01257 7.71968 7.71968ZM1.5 12C1.5 6.20101 6.20101 1.5 12 1.5C17.799 1.5 22.5 6.20101 22.5 12C22.5 17.799 17.799 22.5 12 22.5C6.20101 22.5 1.5 17.799 1.5 12ZM12 3C7.02944 3 3 7.02944 3 12C3 16.9705 7.02944 21 12 21C16.9705 21 21 16.9705 21 12C21 7.02944 16.9705 3 12 3Z" fill="currentColor"/>
</svg>
