<svg width="24" height="24" viewBox="0 0 24 24" fill="none" xmlns="http://www.w3.org/2000/svg">
<path fill-rule="evenodd" clip-rule="evenodd" d="M17.7804 17.7804C17.4875 18.0732 17.0126 18.0732 16.7196 17.7804L12 13.0607L7.28033 17.7804C6.98744 18.0732 6.51257 18.0732 6.21968 17.7804C5.92677 17.4875 5.92677 17.0126 6.21968 16.7196L10.9393 12L6.21968 7.28033C5.92677 6.98744 5.92677 6.51257 6.21968 6.21968C6.51257 5.92677 6.98744 5.92677 7.28033 6.21968L12 10.9393L16.7196 6.21968C17.0126 5.92677 17.4875 5.92677 17.7804 6.21968C18.0732 6.51257 18.0732 6.98744 17.7804 7.28033L13.0607 12L17.7804 16.7196C18.0732 17.0126 18.0732 17.4875 17.7804 17.7804Z" fill="currentColor"/>
</svg>
