<svg width="24" height="24" viewBox="0 0 24 24" fill="none" xmlns="http://www.w3.org/2000/svg">
<path fill-rule="evenodd" clip-rule="evenodd" d="M6.07501 15C6.42247 13.2883 7.93578 12 9.75 12C11.8211 12 13.5 13.6789 13.5 15.75C13.5 17.8211 11.8211 19.5 9.75 19.5C7.93578 19.5 6.42247 18.2117 6.07501 16.5H3.75C3.33579 16.5 3 16.1642 3 15.75C3 15.3358 3.33579 15 3.75 15H6.07501ZM17.25 12C15.1789 12 13.5 10.3211 13.5 8.25C13.5 6.17893 15.1789 4.5 17.25 4.5C19.3211 4.5 21 6.17893 21 8.25C21 10.3211 19.3211 12 17.25 12ZM17.25 10.5C18.4926 10.5 19.5 9.49264 19.5 8.25C19.5 7.00736 18.4926 6 17.25 6C16.0074 6 15 7.00736 15 8.25C15 9.49264 16.0074 10.5 17.25 10.5ZM9.75 18C10.9926 18 12 16.9926 12 15.75C12 14.5074 10.9926 13.5 9.75 13.5C8.50736 13.5 7.5 14.5074 7.5 15.75C7.5 16.9926 8.50736 18 9.75 18ZM3.75 9C3.33579 9 3 8.66421 3 8.25C3 7.83579 3.33579 7.5 3.75 7.5H12C12.4142 7.5 12.75 7.83579 12.75 8.25C12.75 8.66421 12.4142 9 12 9H3.75ZM15 16.5C14.5858 16.5 14.25 16.1642 14.25 15.75C14.25 15.3358 14.5858 15 15 15H20.25C20.6642 15 21 15.3358 21 15.75C21 16.1642 20.6642 16.5 20.25 16.5H15Z" fill="currentColor"/>
</svg>
