<svg width="24" height="24" viewBox="0 0 24 24" fill="none" xmlns="http://www.w3.org/2000/svg">
<path fill-rule="evenodd" clip-rule="evenodd" d="M9 4.5V1.5H15V4.5H19.5C19.9142 4.5 20.25 4.83579 20.25 5.25C20.25 5.66421 19.9142 6 19.5 6H4.5C4.08579 6 3.75 5.66421 3.75 5.25C3.75 4.83579 4.08579 4.5 4.5 4.5H9ZM10.5 4.5H13.5V3H10.5V4.5ZM16.5 21V8.25C16.5 7.83579 16.8358 7.5 17.25 7.5C17.6642 7.5 18 7.83579 18 8.25V22.5H6V8.25C6 7.83579 6.33579 7.5 6.75 7.5C7.16421 7.5 7.5 7.83579 7.5 8.25V21H16.5ZM13.5 8.25C13.5 7.83579 13.8358 7.5 14.25 7.5C14.6642 7.5 15 7.83579 15 8.25V18.75C15 19.1642 14.6642 19.5 14.25 19.5C13.8358 19.5 13.5 19.1642 13.5 18.75V8.25ZM9 8.25C9 7.83579 9.33579 7.5 9.75 7.5C10.1642 7.5 10.5 7.83579 10.5 8.25V18.75C10.5 19.1642 10.1642 19.5 9.75 19.5C9.33579 19.5 9 19.1642 9 18.75V8.25Z" fill="currentColor"/>
</svg>
