<svg width="24" height="24" viewBox="0 0 24 24" fill="none" xmlns="http://www.w3.org/2000/svg">
<path fill-rule="evenodd" clip-rule="evenodd" d="M21 5.26932V12.7734C21 14.0161 19.9926 15.0234 18.75 15.0234H5.25C4.00735 15.0234 3 14.0161 3 12.7734V5.26932C3 4.02667 4.00735 3.01932 5.25 3.01932H18.75C19.9926 3.01932 21 4.02667 21 5.26932ZM19.5 5.26932C19.5 4.85511 19.1642 4.51932 18.75 4.51932H5.25C4.83579 4.51932 4.5 4.85511 4.5 5.26932V12.7734C4.5 13.1877 4.83579 13.5234 5.25 13.5234H18.75C19.1642 13.5234 19.5 13.1877 19.5 12.7734V5.26932ZM14.6646 16.5793C15.0351 16.3941 15.4855 16.5442 15.6708 16.9147L17.1708 19.9147C17.4201 20.4135 17.0576 21.0001 16.5 21.0001H7.5C6.94247 21.0001 6.57984 20.4135 6.82919 19.9147L8.32919 16.9147C8.51442 16.5442 8.96493 16.3941 9.33541 16.5793C9.7059 16.7646 9.85606 17.215 9.67081 17.5855L8.71353 19.5001H15.2865L14.3292 17.5855C14.1439 17.215 14.2941 16.7646 14.6646 16.5793Z" fill="currentColor"/>
</svg>
