<svg width="24" height="24" viewBox="0 0 24 24" fill="none" xmlns="http://www.w3.org/2000/svg">
<path fill-rule="evenodd" clip-rule="evenodd" d="M12.5985 20.702L12 21.4944L11.4015 20.702L2.40151 8.78534C2.19861 8.51669 2.19958 8.14572 2.40393 7.87815L5.90392 3.29481L6.12906 3H6.49999H17.5H17.871L18.0961 3.29481L21.5961 7.87815C21.8004 8.14572 21.8014 8.51669 21.5985 8.78534L12.5985 20.702ZM4.58004 7.5H7.78647L9.28647 4.5H6.87094L4.58004 7.5ZM4.44336 9H7.70943L10.2898 16.741L4.44336 9ZM12 17.1283L14.7094 9H9.29056L12 17.1283ZM16.2906 9L13.7102 16.741L19.5567 9H16.2906ZM16.2135 7.5L14.7135 4.5H17.1291L19.4199 7.5H16.2135ZM13.0365 4.5L14.5365 7.5H9.46353L10.9635 4.5H13.0365Z" fill="currentColor"/>
</svg>
