<svg width="24" height="24" viewBox="0 0 24 24" fill="none" xmlns="http://www.w3.org/2000/svg">
<path fill-rule="evenodd" clip-rule="evenodd" d="M22.5 18H16.5V12H22.5V18ZM21 16.5V13.5H18V16.5H21ZM7.50001 9L12 1.5L16.5 9H7.50001ZM13.8507 7.49999L12 4.41548L10.1493 7.49999H13.8507ZM5.25 18.75C3.17893 18.75 1.5 17.0711 1.5 15C1.5 12.9289 3.17893 11.25 5.25 11.25C7.32107 11.25 9 12.9289 9 15C9 17.0711 7.32107 18.75 5.25 18.75ZM5.25 17.25C6.49264 17.25 7.5 16.2426 7.5 15C7.5 13.7574 6.49264 12.75 5.25 12.75C4.00736 12.75 3 13.7574 3 15C3 16.2426 4.00736 17.25 5.25 17.25ZM7.56255 2.48376C7.93795 2.30871 8.38419 2.47113 8.55923 2.84654C8.73428 3.22195 8.57186 3.66818 8.19645 3.84323C6.25089 4.75043 4.7306 6.2903 3.84317 8.19597C3.66831 8.57147 3.22216 8.73411 2.84666 8.55925C2.47117 8.38439 2.30852 7.93824 2.48338 7.56275C3.51845 5.34005 5.29411 3.54151 7.56255 2.48376ZM8.40885 21.8668C8.01961 21.7251 7.81891 21.2947 7.96057 20.9055C8.10224 20.5163 8.53261 20.3156 8.92185 20.4572C10.9391 21.1914 13.1029 21.1775 15.0779 20.4575C15.4671 20.3156 15.8976 20.5161 16.0394 20.9053C16.1813 21.2944 15.9808 21.7249 15.5917 21.8668C13.2881 22.7066 10.7609 22.7228 8.40885 21.8668ZM21.5162 7.56249C21.6913 7.93789 21.5289 8.38413 21.1535 8.55919C20.7781 8.73425 20.3318 8.57184 20.1568 8.19644C19.2495 6.25093 17.7096 4.73062 15.804 3.84317C15.4285 3.6683 15.2659 3.22215 15.4408 2.84666C15.6156 2.47117 16.0618 2.30853 16.4373 2.4834C18.6599 3.51847 20.4584 5.29413 21.5162 7.56249Z" fill="currentColor"/>
</svg>
