<svg width="24" height="24" viewBox="0 0 24 24" fill="none" xmlns="http://www.w3.org/2000/svg">
<path fill-rule="evenodd" clip-rule="evenodd" d="M18 21V9.75002C18 9.33581 18.3358 9.00002 18.75 9.00002C19.1642 9.00002 19.5 9.33581 19.5 9.75002V22.5H4.5V1.50002H11.25C11.6642 1.50002 12 1.83581 12 2.25002C12 2.66423 11.6642 3.00002 11.25 3.00002H6V21H18ZM19.2804 6.2197C19.4949 6.4342 19.5589 6.75677 19.4429 7.03703C19.3267 7.31729 19.0533 7.50002 18.75 7.50002H13.5V2.25002C13.5 1.94668 13.6827 1.6732 13.963 1.55711C14.2432 1.44103 14.5658 1.5052 14.7803 1.7197L19.2804 6.2197ZM15 4.06069V6.00002H16.9393L15 4.06069Z" fill="currentColor"/>
</svg>
