<svg width="24" height="24" viewBox="0 0 24 24" fill="none" xmlns="http://www.w3.org/2000/svg">
<path fill-rule="evenodd" clip-rule="evenodd" d="M11.25 13.1893V3.75C11.25 3.33579 11.5858 3 12 3C12.4142 3 12.75 3.33579 12.75 3.75V13.1893L15.9697 9.96967C16.2626 9.67678 16.7374 9.67678 17.0303 9.96967C17.3232 10.2626 17.3232 10.7374 17.0303 11.0303L12 16.0607L6.96967 11.0303C6.67678 10.7374 6.67678 10.2626 6.96967 9.96967C7.26256 9.67678 7.73744 9.67678 8.03033 9.96967L11.25 13.1893ZM18 18V14.25C18 13.8358 18.3358 13.5 18.75 13.5C19.1642 13.5 19.5 13.8358 19.5 14.25V19.5H4.5V14.25C4.5 13.8358 4.83579 13.5 5.25 13.5C5.66421 13.5 6 13.8358 6 14.25V18H18Z" fill="currentColor"/>
</svg>
