<svg width="24" height="24" viewBox="0 0 24 24" fill="none" xmlns="http://www.w3.org/2000/svg">
<path fill-rule="evenodd" clip-rule="evenodd" d="M1.5 12C1.5 6.20101 6.20101 1.5 12 1.5C17.799 1.5 22.5 6.20101 22.5 12C22.5 17.799 17.799 22.5 12 22.5C6.20101 22.5 1.5 17.799 1.5 12ZM11.0151 3.52589C11.3753 3.13701 11.7046 3 12 3C12.2954 3 12.6247 3.13701 12.9849 3.52589C13.3516 3.92171 13.7071 4.53727 14.0158 5.36717C14.5725 6.86405 14.927 8.92235 14.9899 11.25H9.01007C9.07298 8.92235 9.42745 6.86405 9.98419 5.36717C10.2929 4.53727 10.6484 3.92171 11.0151 3.52589ZM7.50955 11.25C7.57256 8.79118 7.94546 6.54572 8.57831 4.84425C8.76915 4.33113 8.98827 3.85485 9.23771 3.43183C5.84664 4.52426 3.33408 7.5739 3.03081 11.25H7.50955ZM3.03081 12.75H7.50955C7.57256 15.2088 7.94546 17.4543 8.57831 19.1558C8.76915 19.6689 8.98827 20.1451 9.23771 20.5681C5.84664 19.4757 3.33408 16.4261 3.03081 12.75ZM20.9692 11.25C20.6659 7.5739 18.1533 4.52426 14.7623 3.43183C15.0117 3.85485 15.2309 4.33113 15.4216 4.84425C16.0545 6.54572 16.4274 8.79118 16.4904 11.25H20.9692ZM16.4904 12.75H20.9692C20.6659 16.4261 18.1533 19.4757 14.7623 20.5681C15.0117 20.1451 15.2309 19.6689 15.4216 19.1558C16.0545 17.4543 16.4274 15.2088 16.4904 12.75ZM14.9899 12.75C14.927 15.0777 14.5725 17.136 14.0158 18.6329C13.7071 19.4628 13.3516 20.0782 12.9849 20.4741C12.6247 20.8631 12.2954 21 12 21C11.7046 21 11.3753 20.8631 11.0151 20.4741C10.6484 20.0782 10.2929 19.4628 9.98419 18.6329C9.42745 17.136 9.07298 15.0777 9.01007 12.75H14.9899Z" fill="currentColor"/>
</svg>
