<svg width="24" height="24" viewBox="0 0 24 24" fill="none" xmlns="http://www.w3.org/2000/svg">
<path fill-rule="evenodd" clip-rule="evenodd" d="M7.81065 14.25L9.74999 16.1893L21.2197 4.71967C21.5125 4.42678 21.9874 4.42678 22.2803 4.71967C22.5732 5.01256 22.5732 5.48744 22.2803 5.78033L9.74999 18.3107L5.68933 14.25L18.2197 1.71967C18.5125 1.42678 18.9874 1.42678 19.2803 1.71967C19.5732 2.01256 19.5732 2.48744 19.2803 2.78033L7.81065 14.25ZM5.2115 16.7372L4.18584 19.8141L7.26282 18.7885C7.65577 18.6575 8.08051 18.8699 8.2115 19.2628C8.34249 19.6558 8.13012 20.0805 7.73716 20.2115L1.81413 22.1859L3.78847 16.2628C3.91946 15.8699 4.3442 15.6575 4.73716 15.7885C5.13012 15.9195 5.34249 16.3442 5.2115 16.7372Z" fill="currentColor"/>
</svg>
