<svg width="24" height="24" viewBox="0 0 24 24" fill="none" xmlns="http://www.w3.org/2000/svg">
<path fill-rule="evenodd" clip-rule="evenodd" d="M18 4.5V3C18 2.58579 18.3358 2.25 18.75 2.25C19.1642 2.25 19.5 2.58579 19.5 3V4.5H21V21H3V4.5H4.5V3C4.5 2.58579 4.83579 2.25 5.25 2.25C5.66421 2.25 6 2.58579 6 3V4.5H7.5V3C7.5 2.58579 7.83579 2.25 8.25 2.25C8.66421 2.25 9 2.58579 9 3V4.5H15V3C15 2.58579 15.3358 2.25 15.75 2.25C16.1642 2.25 16.5 2.58579 16.5 3V4.5H18ZM19.5 19.5V6H4.5V19.5H19.5ZM12 7.50984L13.8153 10.6265L17.3403 11.3898L14.9372 14.0793L15.3005 17.6678L12 16.2133L8.69948 17.6678L9.06282 14.0794L6.65965 11.3898L10.1847 10.6265L12 7.50984ZM12 10.4902L11.1482 11.9526L9.49412 12.3108L10.6218 13.5728L10.4513 15.2566L12 14.5742L13.5487 15.2566L13.3782 13.5728L14.5059 12.3108L12.8518 11.9526L12 10.4902Z" fill="currentColor"/>
</svg>
