<svg width="24" height="24" viewBox="0 0 24 24" fill="none" xmlns="http://www.w3.org/2000/svg">
<path fill-rule="evenodd" clip-rule="evenodd" d="M10.558 10.8687L9.32726 9.63791C9.30448 9.65195 9.28072 9.66493 9.25603 9.67672C8.36908 10.1004 7.49829 10.7027 6.66158 11.4382C6.03787 11.9866 5.46981 12.5759 4.9703 13.1648C4.86666 13.287 4.7741 13.3993 4.69312 13.5C4.7741 13.6006 4.86666 13.7129 4.9703 13.8351C5.46981 14.424 6.03787 15.0134 6.66158 15.5617C8.40375 17.0933 10.222 18 12 18C13.3735 18 14.7795 17.4563 16.1716 16.4822L14.6314 14.942C14.1214 15.8706 13.1342 16.5 12 16.5C10.3432 16.5 9.00001 15.1569 9.00001 13.5C9.00001 12.3658 9.62942 11.3786 10.558 10.8687ZM11.7162 12.0268C11.0235 12.1595 10.5 12.7686 10.5 13.5C10.5 14.3284 11.1716 15 12 15C12.7314 15 13.3405 14.4766 13.4732 13.7838L11.7162 12.0268ZM17.2468 17.5575C15.5571 18.7888 13.7969 19.5 12 19.5C9.79123 19.5 7.6614 18.4379 5.67118 16.6883C4.98856 16.0881 4.37055 15.447 3.82637 14.8054C3.49779 14.418 3.26442 14.1132 3.13661 13.9315L2.83299 13.5L3.13661 13.0684C3.26442 12.8867 3.49779 12.5819 3.82638 12.1945C4.37056 11.5529 4.98857 10.9118 5.6712 10.3117C6.48344 9.59761 7.33226 8.9907 8.21266 8.52331L4.71968 5.03033C4.42679 4.73744 4.42679 4.26256 4.71968 3.96967C5.01258 3.67678 5.48745 3.67678 5.78034 3.96967L20.7803 18.9697C21.0732 19.2626 21.0732 19.7374 20.7803 20.0303C20.4875 20.3232 20.0126 20.3232 19.7197 20.0303L17.2468 17.5575ZM19.0297 13.1648C18.5302 12.5759 17.9622 11.9866 17.3385 11.4382C15.69 9.98905 13.9678 9.09607 12.2752 9.0072C11.8615 8.98549 11.5438 8.63256 11.5655 8.21891C11.5872 7.80527 11.9402 7.48755 12.3538 7.50927C14.442 7.6189 16.4503 8.66019 18.3289 10.3117C19.0115 10.9118 19.6295 11.5529 20.1737 12.1945C20.5022 12.5819 20.7356 12.8867 20.8634 13.0684L21.1671 13.5L20.8634 13.9315C20.7976 14.025 20.6777 14.1859 20.5072 14.3999C20.2268 14.7519 19.9035 15.1279 19.5408 15.5137C19.257 15.8155 18.7824 15.8301 18.4806 15.5464C18.1788 15.2626 18.1642 14.788 18.448 14.4862C18.7695 14.1442 19.057 13.8109 19.3066 13.4995C19.2257 13.399 19.1332 13.2868 19.0297 13.1648ZM5.78034 7.71967C6.07324 8.01256 6.07324 8.48744 5.78034 8.78033C5.48745 9.07322 5.01258 9.07322 4.71968 8.78033L3.96968 8.03033C3.67679 7.73744 3.67679 7.26256 3.96968 6.96967C4.26258 6.67678 4.73745 6.67678 5.03034 6.96967L5.78034 7.71967ZM19.2803 8.78033C18.9875 9.07322 18.5126 9.07322 18.2197 8.78033C17.9268 8.48744 17.9268 8.01256 18.2197 7.71967L18.9697 6.96967C19.2626 6.67678 19.7375 6.67678 20.0303 6.96967C20.3232 7.26256 20.3232 7.73744 20.0303 8.03033L19.2803 8.78033ZM11.25 4.5C11.25 4.08579 11.5858 3.75 12 3.75C12.4142 3.75 12.75 4.08579 12.75 4.5V6C12.75 6.41421 12.4142 6.75 12 6.75C11.5858 6.75 11.25 6.41421 11.25 6V4.5ZM15.8292 4.91459C16.0144 4.54411 16.4649 4.39394 16.8354 4.57918C17.2059 4.76442 17.3561 5.21493 17.1708 5.58541L16.4208 7.08541C16.2356 7.45589 15.7851 7.60606 15.4146 7.42082C15.0441 7.23558 14.894 6.78507 15.0792 6.41459L15.8292 4.91459Z" fill="currentColor"/>
</svg>
