<svg width="24" height="24" viewBox="0 0 24 24" fill="none" xmlns="http://www.w3.org/2000/svg">
<path fill-rule="evenodd" clip-rule="evenodd" d="M12 16.5C10.3432 16.5 9.00001 15.1569 9.00001 13.5C9.00001 11.8431 10.3432 10.5 12 10.5C13.6569 10.5 15 11.8431 15 13.5C15 15.1569 13.6569 16.5 12 16.5ZM12 15C12.8284 15 13.5 14.3284 13.5 13.5C13.5 12.6716 12.8284 12 12 12C11.1716 12 10.5 12.6716 10.5 13.5C10.5 14.3284 11.1716 15 12 15ZM20.8634 13.0684L21.167 13.5L20.8634 13.9316C20.7356 14.1132 20.5022 14.4181 20.1737 14.8054C19.6295 15.447 19.0115 16.0882 18.3289 16.6883C16.3386 18.4379 14.2088 19.5 12 19.5C9.79123 19.5 7.66141 18.4379 5.67119 16.6883C4.98856 16.0882 4.37056 15.447 3.82638 14.8055C3.49779 14.4181 3.26442 14.1132 3.13662 13.9316L2.83299 13.5L3.13662 13.0684C3.26442 12.8868 3.49779 12.5819 3.82638 12.1945C4.37056 11.553 4.98856 10.9118 5.67119 10.3117C7.66141 8.56206 9.79123 7.5 12 7.5C14.2088 7.5 16.3386 8.56206 18.3289 10.3117C19.0115 10.9118 19.6295 11.553 20.1737 12.1946C20.5022 12.5819 20.7356 12.8868 20.8634 13.0684ZM19.0297 13.1648C18.5302 12.5759 17.9622 11.9866 17.3385 11.4383C15.5963 9.90669 13.7781 9 12 9C10.222 9 8.40374 9.90669 6.66157 11.4383C6.03786 11.9866 5.4698 12.5759 4.9703 13.1648C4.86666 13.287 4.7741 13.3993 4.69312 13.5C4.7741 13.6007 4.86666 13.713 4.9703 13.8352C5.4698 14.4241 6.03786 15.0134 6.66157 15.5617C8.40374 17.0933 10.222 18 12 18C13.7781 18 15.5963 17.0933 17.3385 15.5617C17.9622 15.0134 18.5302 14.4241 19.0297 13.8352C19.1334 13.713 19.2259 13.6007 19.3069 13.5C19.2259 13.3993 19.1334 13.287 19.0297 13.1648ZM5.78034 7.71967C6.07324 8.01256 6.07324 8.48744 5.78034 8.78033C5.48745 9.07322 5.01258 9.07322 4.71968 8.78033L3.96968 8.03033C3.67679 7.73744 3.67679 7.26256 3.96968 6.96967C4.26258 6.67678 4.73745 6.67678 5.03034 6.96967L5.78034 7.71967ZM19.2803 8.78033C18.9875 9.07322 18.5126 9.07322 18.2197 8.78033C17.9268 8.48744 17.9268 8.01256 18.2197 7.71967L18.9697 6.96967C19.2626 6.67678 19.7375 6.67678 20.0303 6.96967C20.3232 7.26256 20.3232 7.73744 20.0303 8.03033L19.2803 8.78033ZM11.25 4.5C11.25 4.08579 11.5858 3.75 12 3.75C12.4142 3.75 12.75 4.08579 12.75 4.5V6C12.75 6.41421 12.4142 6.75 12 6.75C11.5858 6.75 11.25 6.41421 11.25 6V4.5ZM15.8292 4.91459C16.0144 4.54411 16.4649 4.39394 16.8354 4.57918C17.2059 4.76442 17.3561 5.21493 17.1708 5.58541L16.4208 7.08541C16.2356 7.45589 15.7851 7.60606 15.4146 7.42082C15.0441 7.23558 14.894 6.78507 15.0792 6.41459L15.8292 4.91459ZM6.82919 5.58541C6.64395 5.21493 6.79412 4.76442 7.1646 4.57918C7.53509 4.39394 7.98559 4.54411 8.17083 4.91459L8.92083 6.41459C9.10608 6.78507 8.95591 7.23558 8.58542 7.42082C8.21494 7.60606 7.76444 7.45589 7.57919 7.08541L6.82919 5.58541Z" fill="currentColor"/>
</svg>
