<svg width="24" height="24" viewBox="0 0 24 24" fill="none" xmlns="http://www.w3.org/2000/svg">
<path fill-rule="evenodd" clip-rule="evenodd" d="M12.75 18V20.25C12.75 20.6642 12.4142 21 12 21C11.5858 21 11.25 20.6642 11.25 20.25V18H9.75V15C9.75 14.5858 10.0858 14.25 10.5 14.25C10.9142 14.25 11.25 14.5858 11.25 15V16.5H12.75V15C12.75 14.5858 13.0858 14.25 13.5 14.25C13.9142 14.25 14.25 14.5858 14.25 15V18H12.75ZM19.5 16.5V20.25C19.5 20.6642 19.1642 21 18.75 21C18.3358 21 18 20.6642 18 20.25V16.5H16.5V9C16.5 8.58579 16.8358 8.25 17.25 8.25C17.6642 8.25 18 8.58579 18 9V15H19.5V9C19.5 8.58579 19.8358 8.25 20.25 8.25C20.6642 8.25 21 8.58579 21 9V16.5H19.5ZM6 16.5V20.25C6 20.6642 5.66421 21 5.25 21C4.83579 21 4.5 20.6642 4.5 20.25V16.5H3V9C3 8.58579 3.33579 8.25 3.75 8.25C4.16421 8.25 4.5 8.58579 4.5 9V15H6V9C6 8.58579 6.33579 8.25 6.75 8.25C7.16421 8.25 7.5 8.58579 7.5 9V16.5H6ZM5.25 7.5C4.00736 7.5 3 6.49264 3 5.25C3 4.00736 4.00736 3 5.25 3C6.49264 3 7.5 4.00736 7.5 5.25C7.5 6.49264 6.49264 7.5 5.25 7.5ZM5.25 6C5.66421 6 6 5.66421 6 5.25C6 4.83579 5.66421 4.5 5.25 4.5C4.83579 4.5 4.5 4.83579 4.5 5.25C4.5 5.66421 4.83579 6 5.25 6ZM18.75 7.5C17.5074 7.5 16.5 6.49264 16.5 5.25C16.5 4.00736 17.5074 3 18.75 3C19.9926 3 21 4.00736 21 5.25C21 6.49264 19.9926 7.5 18.75 7.5ZM18.75 6C19.1642 6 19.5 5.66421 19.5 5.25C19.5 4.83579 19.1642 4.5 18.75 4.5C18.3358 4.5 18 4.83579 18 5.25C18 5.66421 18.3358 6 18.75 6ZM12 13.5C10.7574 13.5 9.75 12.4926 9.75 11.25C9.75 10.0074 10.7574 9 12 9C13.2426 9 14.25 10.0074 14.25 11.25C14.25 12.4926 13.2426 13.5 12 13.5ZM12 12C12.4142 12 12.75 11.6642 12.75 11.25C12.75 10.8358 12.4142 10.5 12 10.5C11.5858 10.5 11.25 10.8358 11.25 11.25C11.25 11.6642 11.5858 12 12 12Z" fill="currentColor"/>
</svg>
