<svg width="24" height="24" viewBox="0 0 24 24" fill="none" xmlns="http://www.w3.org/2000/svg">
<path fill-rule="evenodd" clip-rule="evenodd" d="M12.75 10.125V15.75C12.75 16.1642 12.4142 16.5 12 16.5C11.5858 16.5 11.25 16.1642 11.25 15.75V10.125L4.65343 12.8736C4.27494 13.0313 4.09326 13.4637 4.24554 13.8444L5.19636 16.2215C5.35019 16.606 5.16313 17.0425 4.77854 17.1964C4.39396 17.3502 3.95748 17.1631 3.80364 16.7785L2.85282 14.4015C2.39598 13.2594 2.94103 11.9621 4.07651 11.489L11.1346 8.54809C11.6885 8.3173 12.3115 8.3173 12.8654 8.54808L19.9234 11.4889C21.059 11.962 21.604 13.2593 21.1472 14.4015L20.1964 16.7786C20.0425 17.1631 19.606 17.3502 19.2214 17.1964C18.8369 17.0425 18.6498 16.606 18.8036 16.2214L19.7545 13.8445C19.9067 13.4637 19.7251 13.0313 19.3465 12.8736L12.75 10.125ZM9 3.75V1.5H15V3.75H18.5406L20.2115 8.76283C20.3425 9.15579 20.1301 9.58053 19.7372 9.71151C19.3442 9.8425 18.9195 9.63013 18.7885 9.23717L17.4594 5.25H6.54057L5.21151 9.23717C5.08053 9.63013 4.65579 9.8425 4.26283 9.71151C3.86987 9.58053 3.6575 9.15579 3.78849 8.76283L5.45943 3.75H9ZM10.5 3.75H13.5V3H10.5V3.75ZM9.75 7.5C9.33579 7.5 9 7.16421 9 6.75C9 6.33579 9.33579 6 9.75 6H14.25C14.6642 6 15 6.33579 15 6.75C15 7.16421 14.6642 7.5 14.25 7.5H9.75ZM9.75 13.5C9.33579 13.5 9 13.1642 9 12.75C9 12.3358 9.33579 12 9.75 12C10.1642 12 10.5 12.3358 10.5 12.75C10.5 13.1642 10.1642 13.5 9.75 13.5ZM3 18C3 18.8284 3.67158 19.5 4.5 19.5C5.32842 19.5 6 18.8284 6 18V17.25H7.5V18C7.5 19.0356 8.33946 19.875 9.375 19.875C10.4105 19.875 11.25 19.0356 11.25 18V17.25H12.75V18C12.75 19.0356 13.5895 19.875 14.625 19.875C15.6606 19.875 16.5 19.0356 16.5 18V17.25H18V18C18 18.8284 18.6716 19.5 19.5 19.5C20.3284 19.5 21 18.8284 21 18V17.25H22.5V18C22.5 19.6569 21.1569 21 19.5 21C18.635 21 17.8554 20.6339 17.3077 20.048C16.6911 20.8547 15.7188 21.375 14.625 21.375C13.5648 21.375 12.6187 20.8862 12 20.1215C11.3813 20.8862 10.4352 21.375 9.375 21.375C8.28119 21.375 7.30892 20.8547 6.69219 20.048C6.14468 20.6339 5.3651 21 4.5 21C2.84314 21 1.5 19.6569 1.5 18V17.25H3V18ZM14.25 13.5C13.8358 13.5 13.5 13.1642 13.5 12.75C13.5 12.3358 13.8358 12 14.25 12C14.6642 12 15 12.3358 15 12.75C15 13.1642 14.6642 13.5 14.25 13.5Z" fill="currentColor"/>
</svg>
