<svg width="24" height="24" viewBox="0 0 24 24" fill="none" xmlns="http://www.w3.org/2000/svg">
<path fill-rule="evenodd" clip-rule="evenodd" d="M10.5 4.5C10.0858 4.5 9.75 4.83579 9.75 5.25C9.75 5.66421 10.0858 6 10.5 6H12V8.99997H8.25C7.83579 8.99997 7.5 9.33576 7.5 9.74997C7.5 10.1642 7.83579 10.5 8.25 10.5H9V13.5H5.25C4.83579 13.5 4.5 13.8358 4.5 14.25C4.5 14.6642 4.83579 15 5.25 15H6V18H3.75C3.33579 18 3 18.3358 3 18.75C3 19.1642 3.33579 19.5 3.75 19.5H19.5V4.5H10.5ZM13.5 6V10.5H10.5V15H7.5V18H18V6H13.5Z" fill="currentColor"/>
</svg>
