<svg width="24" height="24" viewBox="0 0 24 24" fill="none" xmlns="http://www.w3.org/2000/svg">
<path fill-rule="evenodd" clip-rule="evenodd" d="M6.75 21V17.1878C4.62172 16.8307 3 14.9797 3 12.75V5.25H6.75C7.16421 5.25 7.5 5.58579 7.5 6C7.5 6.41421 7.16421 6.75 6.75 6.75H4.5V12.75C4.5 14.4069 5.84315 15.75 7.5 15.75C9.15685 15.75 10.5 14.4069 10.5 12.75V6C10.5 5.58579 10.8358 5.25 11.25 5.25C11.6642 5.25 12 5.58579 12 6V12.75C12 14.9797 10.3783 16.8307 8.25 17.1878V21H10.5C10.9142 21 11.25 21.3358 11.25 21.75C11.25 22.1642 10.9142 22.5 10.5 22.5H4.5C4.08579 22.5 3.75 22.1642 3.75 21.75C3.75 21.3358 4.08579 21 4.5 21H6.75ZM18 15.675V21.75C18 22.1642 17.6642 22.5 17.25 22.5C16.8358 22.5 16.5 22.1642 16.5 21.75V15.675C14.7883 15.3275 13.5 13.8142 13.5 12V6C13.5 5.58579 13.8358 5.25 14.25 5.25C14.6642 5.25 15 5.58579 15 6V12C15 13.2427 16.0073 14.25 17.25 14.25C18.4927 14.25 19.5 13.2427 19.5 12V6C19.5 5.58579 19.8358 5.25 20.25 5.25C20.6642 5.25 21 5.58579 21 6V12C21 13.8142 19.7117 15.3275 18 15.675ZM16.5 6C16.5 5.58579 16.8358 5.25 17.25 5.25C17.6642 5.25 18 5.58579 18 6V12.75C18 13.1642 17.6642 13.5 17.25 13.5C16.8358 13.5 16.5 13.1642 16.5 12.75V6ZM10.3563 3L8.23335 12.9071C8.14656 13.3122 7.74787 13.5701 7.34285 13.4834C6.93783 13.3966 6.67986 12.9979 6.76665 12.5929L9.14369 1.5H12.75C13.1642 1.5 13.5 1.83579 13.5 2.25C13.5 2.66421 13.1642 3 12.75 3H10.3563Z" fill="currentColor"/>
</svg>
