<svg width="24" height="24" viewBox="0 0 24 24" fill="none" xmlns="http://www.w3.org/2000/svg">
<path fill-rule="evenodd" clip-rule="evenodd" d="M3.21968 19.7196L7.18934 15.75H4.5C4.08579 15.75 3.75 15.4141 3.75 15C3.75 14.5858 4.08579 14.25 4.5 14.25H9.75V19.5C9.75 19.9141 9.41421 20.25 9 20.25C8.58579 20.25 8.25 19.9141 8.25 19.5V16.8106L4.28033 20.7804C3.98744 21.0732 3.51257 21.0732 3.21968 20.7804C2.92677 20.4874 2.92677 20.0125 3.21968 19.7196ZM3.75 9C3.75 8.58578 4.08579 8.25 4.5 8.25H7.18934L3.21968 4.28032C2.92677 3.98743 2.92677 3.51256 3.21968 3.21967C3.51257 2.92678 3.98744 2.92678 4.28033 3.21967L8.25 7.18933V4.5C8.25 4.08578 8.58579 3.75 9 3.75C9.41421 3.75 9.75 4.08578 9.75 4.5V9.75H4.5C4.08579 9.75 3.75 9.4142 3.75 9ZM19.7198 20.7804C20.0127 21.0732 20.4876 21.0732 20.7804 20.7804C21.0734 20.4874 21.0734 20.0125 20.7804 19.7196L16.8108 15.75H19.5002C19.9143 15.75 20.2502 15.4141 20.2502 15C20.2502 14.5858 19.9143 14.25 19.5002 14.25H14.2501V19.5C14.2501 19.9141 14.5859 20.25 15.0002 20.25C15.4143 20.25 15.7502 19.9141 15.7502 19.5V16.8106L19.7198 20.7804ZM15.0002 3.75C15.4143 3.75 15.7502 4.08578 15.7502 4.5V7.18933L19.7198 3.21967C20.0127 2.92678 20.4876 2.92678 20.7804 3.21967C21.0734 3.51256 21.0734 3.98743 20.7804 4.28032L16.8108 8.25H19.5002C19.9143 8.25 20.2502 8.58578 20.2502 9C20.2502 9.4142 19.9143 9.75 19.5002 9.75H14.2501V4.5C14.2501 4.08578 14.5859 3.75 15.0002 3.75Z" fill="currentColor"/>
</svg>
