<svg width="24" height="24" viewBox="0 0 24 24" fill="none" xmlns="http://www.w3.org/2000/svg">
<path fill-rule="evenodd" clip-rule="evenodd" d="M10.5 5.25C10.5 5.66421 10.1642 6 9.75 6H7.06066L11.0303 9.96968C11.3232 10.2626 11.3232 10.7374 11.0303 11.0303C10.7374 11.3232 10.2626 11.3232 9.96968 11.0303L6 7.06066V9.75C6 10.1642 5.66421 10.5 5.25 10.5C4.83579 10.5 4.5 10.1642 4.5 9.75V4.5H9.75C10.1642 4.5 10.5 4.83579 10.5 5.25ZM11.0303 14.0303L7.06066 18H9.75C10.1642 18 10.5 18.3358 10.5 18.75C10.5 19.1641 10.1642 19.5 9.75 19.5H4.5V14.25C4.5 13.8358 4.83579 13.5 5.25 13.5C5.66421 13.5 6 13.8358 6 14.25V16.9394L9.96968 12.9697C10.2626 12.6768 10.7374 12.6768 11.0303 12.9697C11.3232 13.2626 11.3232 13.7374 11.0303 14.0303ZM18 16.9394V14.25C18 13.8358 18.3358 13.5 18.75 13.5C19.1641 13.5 19.5 13.8358 19.5 14.25V19.5H14.25C13.8358 19.5 13.5 19.1641 13.5 18.75C13.5 18.3358 13.8358 18 14.25 18H16.9394L12.9697 14.0303C12.6768 13.7374 12.6768 13.2626 12.9697 12.9697C13.2626 12.6768 13.7374 12.6768 14.0303 12.9697L18 16.9394ZM18.75 10.5C18.3358 10.5 18 10.1642 18 9.75V7.06066L14.0303 11.0303C13.7374 11.3232 13.2626 11.3232 12.9697 11.0303C12.6768 10.7374 12.6768 10.2626 12.9697 9.96968L16.9394 6H14.25C13.8358 6 13.5 5.66421 13.5 5.25C13.5 4.83579 13.8358 4.5 14.25 4.5H19.5V9.75C19.5 10.1642 19.1641 10.5 18.75 10.5Z" fill="currentColor"/>
</svg>
