<svg width="24" height="24" viewBox="0 0 24 24" fill="none" xmlns="http://www.w3.org/2000/svg">
<path fill-rule="evenodd" clip-rule="evenodd" d="M21 7.40901V17.25C21 18.4927 19.9927 19.5 18.75 19.5C17.5073 19.5 16.5 18.4927 16.5 17.25V12.75C16.5 12.3358 16.1642 12 15.75 12H15V18.75C15 19.1642 14.6642 19.5 14.25 19.5C13.8358 19.5 13.5 19.1642 13.5 18.75V6H6V18.75C6 19.1642 5.66421 19.5 5.25 19.5C4.83579 19.5 4.5 19.1642 4.5 18.75V5.25C4.5 4.83579 4.83579 4.5 5.25 4.5H14.25C14.6642 4.5 15 4.83579 15 5.25V10.5H15.75C16.9927 10.5 18 11.5074 18 12.75V17.25C18 17.6642 18.3358 18 18.75 18C19.1642 18 19.5 17.6642 19.5 17.25V9.62197C19.2654 9.70489 19.013 9.75 18.75 9.75C17.5073 9.75 16.5 8.74264 16.5 7.5V4.06068L15.2197 2.78033C14.9268 2.48743 14.9268 2.01256 15.2197 1.71967C15.5126 1.42677 15.9874 1.42678 16.2803 1.71967L20.3142 5.75356C20.7533 6.19255 21 6.78804 21 7.40901ZM7.5 8.25C7.5 7.83579 7.83579 7.5 8.25 7.5H11.25C11.6642 7.5 12 7.83579 12 8.25V11.25C12 11.6642 11.6642 12 11.25 12H8.25C7.83579 12 7.5 11.6642 7.5 11.25V8.25ZM9 9V10.5H10.5V9H9ZM15.75 21C16.1642 21 16.5 21.3358 16.5 21.75C16.5 22.1642 16.1642 22.5 15.75 22.5H3.75C3.33579 22.5 3 22.1642 3 21.75C3 21.3358 3.33579 21 3.75 21H15.75ZM19.2536 6.81434L18 5.5607V7.5C18 7.91422 18.3358 8.25 18.75 8.25C19.1642 8.25 19.5 7.91422 19.5 7.5V7.40901C19.5 7.18591 19.4114 6.97208 19.2536 6.81434Z" fill="currentColor"/>
</svg>
