<svg width="24" height="24" viewBox="0 0 24 24" fill="none" xmlns="http://www.w3.org/2000/svg">
<path fill-rule="evenodd" clip-rule="evenodd" d="M19.5 20.25C19.5 20.6642 19.1642 21 18.75 21C18.3358 21 18 20.6642 18 20.25V3.75C18 3.33579 18.3358 3 18.75 3C19.1642 3 19.5 3.33579 19.5 3.75V20.25ZM15 20.25C15 20.6642 14.6642 21 14.25 21C13.8358 21 13.5 20.6642 13.5 20.25V8.25C13.5 7.83579 13.8358 7.5 14.25 7.5C14.6642 7.5 15 7.83579 15 8.25V20.25ZM10.5 20.25C10.5 20.6642 10.1642 21 9.75 21C9.33579 21 9 20.6642 9 20.25V12.75C9 12.3358 9.33579 12 9.75 12C10.1642 12 10.5 12.3358 10.5 12.75V20.25ZM6 20.25C6 20.6642 5.66421 21 5.25 21C4.83579 21 4.5 20.6642 4.5 20.25V15.75C4.5 15.3358 4.83579 15 5.25 15C5.66421 15 6 15.3358 6 15.75V20.25Z" fill="currentColor"/>
</svg>
