<svg width="24" height="24" viewBox="0 0 24 24" fill="none" xmlns="http://www.w3.org/2000/svg">
<path fill-rule="evenodd" clip-rule="evenodd" d="M15.75 15.5691L14.7494 19.3034L14.7478 19.3092C14.319 20.9097 12.674 21.8594 11.0736 21.4305C9.47316 21.0018 8.52342 19.3568 8.95224 17.7564C9.38106 16.1559 11.0261 15.2062 12.6265 15.6349C13.1543 15.7764 13.6113 16.0502 13.9715 16.4109L14.9735 12.6713L13.064 5.54478C12.8496 4.74458 13.3245 3.92207 14.1247 3.70766L17.5286 16.4109C17.8887 16.0502 18.3458 15.7764 18.8735 15.6349C20.4739 15.2061 22.119 16.1559 22.5477 17.7562C22.9766 19.3567 22.0269 21.0016 20.4264 21.4305C18.826 21.8594 17.181 20.9095 16.7522 19.3092L15.75 15.5691ZM6.75 20.25H7.5C7.91421 20.25 8.25 20.5858 8.25 21C8.25 21.4142 7.91421 21.75 7.5 21.75H3.75C2.50736 21.75 1.5 20.7427 1.5 19.5V4.5C1.5 3.25737 2.50737 2.25 3.75 2.25H7.5C7.91421 2.25 8.25 2.58579 8.25 3C8.25 3.41421 7.91421 3.75 7.5 3.75H6.75V5.25H7.5C7.91421 5.25 8.25 5.58579 8.25 6C8.25 6.41421 7.91421 6.75 7.5 6.75H6.75V8.25H7.5C7.91421 8.25 8.25 8.58579 8.25 9C8.25 9.41421 7.91421 9.75 7.5 9.75H6.75V11.25H7.5C7.91421 11.25 8.25 11.5858 8.25 12C8.25 12.4142 7.91421 12.75 7.5 12.75H6.75V14.25H7.5C7.91421 14.25 8.25 14.5858 8.25 15C8.25 15.4142 7.91421 15.75 7.5 15.75H6.75V17.25H7.5C7.91421 17.25 8.25 17.5858 8.25 18C8.25 18.4142 7.91421 18.75 7.5 18.75H6.75V20.25ZM5.25 3.75H3.75C3.33579 3.75 3 4.08579 3 4.5V19.5C3 19.9142 3.33578 20.25 3.75 20.25H5.25V3.75ZM18.2011 18.921C18.4155 19.7213 19.2379 20.196 20.0382 19.9817C20.8384 19.7673 21.3134 18.9447 21.0989 18.1446C20.8845 17.3444 20.0619 16.8695 19.2618 17.0838C18.4615 17.2983 17.9867 18.1208 18.2011 18.921ZM17.3752 3.70766C18.1755 3.92207 18.6504 4.74458 18.4359 5.54478L17.1251 10.4375L16.3236 7.63266L17.3752 3.70766ZM13.2989 18.921L13.3 18.9168C13.5117 18.1179 13.0371 17.298 12.2382 17.084C11.438 16.8695 10.6155 17.3444 10.4011 18.1446C10.1867 18.9447 10.6616 19.7673 11.4618 19.9817C12.262 20.1961 13.0845 19.7213 13.2989 18.921Z" fill="currentColor"/>
</svg>
