<svg xmlns="http://www.w3.org/2000/svg" width="24" height="24" viewBox="0 0 24 24">
  <path fill="currentColor" fill-rule="evenodd"  d="M22.5,7.12541757 L16.8682003,1.5 L13.5151898,4.84912583 L10.7914289,4.84912583 C9.22652359,4.84912583 7.93794423,6.03085336 7.77127358,7.54964069 L4.71470318,10.5721621 L4.71470318,13.687431 L1.5,16.8984218 L7.10794842,22.5 L11.1061145,18.5064818 L13.0702638,18.5064818 C14.3181895,18.5064818 15.3336636,17.5000976 15.3377654,16.2528913 L16.1198459,16.2528913 C17.3702935,16.2528913 18.3873931,15.2425617 18.3873931,13.9919108 L18.3873931,13.908526 L19.1582315,13.908526 C20.4086791,13.908526 21.4257787,12.8980902 21.4257787,11.6474848 C21.4257787,10.7150164 20.856841,9.91528089 20.0468074,9.5757021 L22.5,7.12541757 Z M7.75304327,9.70297207 L7.75304327,11.6777279 C7.75304327,11.9601134 7.80452871,12.2304957 7.89862752,12.4799976 C8.22340056,13.3413423 9.05603977,13.9540804 10.0319389,13.95405 C11.2904534,13.9540197 12.3106673,12.9349343 12.3106673,11.6778493 L12.3106673,10.9190854 L19.1773734,10.9190854 C19.5801114,10.9190854 19.9065859,11.2452043 19.9065859,11.6474848 C19.9065859,12.0562904 19.5734269,12.3910589 19.1582315,12.3910589 L16.8682003,12.3910589 L16.8682003,13.9919108 C16.8682003,14.4007165 16.5350413,14.7354242 16.1198459,14.7354242 L13.8186181,14.7354242 L13.8186181,16.245304 C13.8186181,16.6541096 13.4854288,16.9890146 13.0702638,16.9890146 L10.4768345,16.9890146 L7.10794842,20.353998 L3.64847289,16.8984218 L6.23389601,14.3159963 L6.23389601,11.2051887 L7.75304327,9.70297207 Z M18.0727683,9.40149687 L20.3515575,7.12538723 L16.8682003,3.64600202 L14.1444394,6.36659296 L10.7914289,6.36659296 C9.95637421,6.36659296 9.27867748,7.03957446 9.27228168,7.87217832 L9.27228168,11.6778493 C9.27228168,11.771128 9.28912952,11.8604765 9.31996914,11.9430267 C9.42766472,12.2312241 9.70575297,12.4364615 10.0318325,12.4364615 C10.4513424,12.4364615 10.7914289,12.0967765 10.7914289,11.6777279 L10.7914289,9.40161827 L18.0727683,9.40149687 Z" />
</svg>