<svg xmlns="http://www.w3.org/2000/svg" width="24" height="24" fill="currentColor" viewBox="0 0 24 24">
  <path fill="#333" fill-rule="evenodd" d="M12 4.75c-3.437 0-6.157 2.638-6.157 5.813v1.778H8.75v7.409H4.256a1.862 1.862 0 01-1.556-.816c-.316-.451-.45-1.009-.45-1.525v-2.727c0-.517.134-1.074.45-1.525a1.862 1.862 0 011.556-.816h.087v-1.778C4.343 6.487 7.808 3.25 12 3.25s7.657 3.238 7.657 7.313v1.778h.087c.692 0 1.224.343 1.556.816.316.451.45 1.008.45 1.525v2.727c0 .516-.134 1.074-.45 1.525a1.862 1.862 0 01-1.556.816H15.25v-7.41h2.907v-1.777c0-3.175-2.72-5.813-6.157-5.813zm4.75 9.09v4.41h2.994c.145 0 .241-.055.328-.178.102-.146.178-.384.178-.663v-2.727c0-.28-.076-.517-.178-.663-.087-.123-.183-.178-.328-.178H16.75zm-12.494 0c-.145 0-.242.056-.328.179-.102.146-.178.384-.178.663v2.727c0 .28.076.517.178.663.086.123.183.178.328.178H7.25v-4.41H4.256z" clip-rule="evenodd"/>
</svg>
