<svg width="24" height="24" viewBox="0 0 24 24" fill="none" xmlns="http://www.w3.org/2000/svg">
<path fill-rule="evenodd" clip-rule="evenodd" d="M12.75 10.5H15C15.4142 10.5 15.75 10.8358 15.75 11.25C15.75 11.6642 15.4142 12 15 12H12.75V14.25C12.75 14.6642 12.4142 15 12 15C11.5858 15 11.25 14.6642 11.25 14.25V12H9C8.58578 12 8.25 11.6642 8.25 11.25C8.25 10.8358 8.58578 10.5 9 10.5H11.25V8.25C11.25 7.83579 11.5858 7.5 12 7.5C12.4142 7.5 12.75 7.83579 12.75 8.25V10.5ZM20.6726 4.7576C23.1091 7.11457 23.1091 10.9466 20.6726 13.3036L12 21.6936L3.3273 13.3036C0.8909 10.9466 0.8909 7.11458 3.3273 4.75761C5.72005 2.44289 9.57146 2.41449 12 4.67241C14.4285 2.41449 18.2799 2.44288 20.6726 4.7576ZM12 19.6065L19.6297 12.2255C21.4568 10.4581 21.4568 7.60313 19.6297 5.83569C17.7888 4.05477 14.7941 4.05477 12.9531 5.83569L12 6.75774L11.0469 5.8357C9.20593 4.05477 6.2112 4.05477 4.37024 5.8357C2.54325 7.60312 2.54325 10.4581 4.37024 12.2255L12 19.6065Z" fill="currentColor"/>
</svg>
