<svg width="24" height="24" viewBox="0 0 24 24" fill="none" xmlns="http://www.w3.org/2000/svg">
<path fill-rule="evenodd" clip-rule="evenodd" d="M2.76786 2.45749L19.2678 18.2075C19.5675 18.4935 19.5784 18.9683 19.2925 19.2678C19.0065 19.5675 18.5317 19.5785 18.2322 19.2926L16.076 17.2343L11.9993 21.3108L3.39527 12.7068C1.8654 11.1769 1.318 8.92073 1.97669 6.85987C2.22479 6.08363 2.61132 5.40841 3.09587 4.84426L1.73214 3.54253C1.43252 3.25652 1.42148 2.78177 1.70748 2.48215C1.99349 2.18252 2.46824 2.17148 2.76786 2.45749ZM14.9906 16.1984L4.1843 5.88322C3.84885 6.28873 3.58059 6.76865 3.40548 7.31652C2.91773 8.84258 3.32307 10.5133 4.45593 11.6461L11.9993 19.1895L14.9906 16.1984ZM19.5427 11.6462C20.6757 10.5133 21.081 8.84251 20.5932 7.31638C19.6237 4.28404 15.8011 3.33347 13.5245 5.55862L11.9993 7.0493L10.4742 5.55868C9.60507 4.70923 8.51067 4.32257 7.43573 4.33784C7.18886 4.34135 6.94443 4.26263 6.76584 4.09214C6.30281 3.65017 6.49319 2.88908 7.13201 2.84845C8.67437 2.75036 10.2714 3.263 11.5226 4.48597L11.9993 4.95185L12.4761 4.48589C15.5507 1.48093 20.7129 2.76463 22.0219 6.85964C22.6807 8.92061 22.1334 11.177 20.6034 12.7069L18.7712 14.5391C18.4832 14.8271 18.0177 14.8326 17.7229 14.5513C17.4185 14.2605 17.4128 13.7761 17.7105 13.4784L19.5427 11.6462Z" fill="currentColor"/>
</svg>
