<svg width="24" height="24" viewBox="0 0 24 24" fill="none" xmlns="http://www.w3.org/2000/svg">
<path fill-rule="evenodd" clip-rule="evenodd" d="M11.25 12.75H8.71353L7.21353 15.75H1.78647L3.28647 12.75H1.5V8.25H22.5V12.75H20.7135L22.2135 15.75H16.7865L15.2865 12.75H12.75V13.5C12.75 13.9142 12.4142 14.25 12 14.25C11.5858 14.25 11.25 13.9142 11.25 13.5V12.75ZM9.55393 3L8.21683 7.34556C8.09502 7.74146 7.67533 7.96365 7.27944 7.84183C6.88354 7.72002 6.66135 7.30033 6.78317 6.90444L8.44607 1.5H15.5539L17.2168 6.90444C17.3386 7.30033 17.1165 7.72002 16.7206 7.84183C16.3247 7.96365 15.905 7.74146 15.7832 7.34556L14.4461 3H9.55393ZM18.7832 17.0956C18.6614 16.6997 18.8835 16.28 19.2794 16.1582C19.6753 16.0364 20.095 16.2585 20.2168 16.6544L22.0155 22.5H1.98453L3.78317 16.6544C3.90498 16.2585 4.32467 16.0364 4.72056 16.1582C5.11646 16.28 5.33865 16.6997 5.21683 17.0956L4.01547 21H19.9845L18.7832 17.0956ZM21 9.75H3V11.25H5.71353L4.21353 14.25H6.28647L7.78647 11.25H16.2135L17.7135 14.25H19.7865L18.2865 11.25H21V9.75ZM11.25 17.25C11.25 16.8358 11.5858 16.5 12 16.5C12.4142 16.5 12.75 16.8358 12.75 17.25V18.75C12.75 19.1642 12.4142 19.5 12 19.5C11.5858 19.5 11.25 19.1642 11.25 18.75V17.25ZM11.25 4.5C11.25 4.08579 11.5858 3.75 12 3.75C12.4142 3.75 12.75 4.08579 12.75 4.5V6C12.75 6.41421 12.4142 6.75 12 6.75C11.5858 6.75 11.25 6.41421 11.25 6V4.5Z" fill="currentColor"/>
</svg>
