<svg xmlns="http://www.w3.org/2000/svg" width="24" height="24" viewBox="0 0 24 24">
  <path fill="currentColor" fill-rule="evenodd" d="M18.75015,11.24991 C19.1182833,11.24991 19.42455,11.5152137 19.4880644,11.8650935 L19.50015,11.99991 L19.50015,22.49985 L4.50009,22.49985 L4.50009,11.99991 C4.50009,11.585685 4.83588,11.24991 5.25009,11.24991 C5.61827667,11.24991 5.92450185,11.5152137 5.98800638,11.8650935 L6.00009,11.99991 L6.00009,20.99985 L18.00015,20.99985 L18.00015,11.99991 C18.00015,11.585685 18.336,11.24991 18.75015,11.24991 Z M12.831615,11.625 L13.57458,11.49051 L12.1146526,16.51931 L12.1146526,16.51931 L12.004215,16.9257 L12.004215,16.9257 L11.91979,17.2702611 C11.8747633,17.4694833 11.85225,17.60775 11.85225,17.68515 C11.85225,17.8011 11.88039,17.8776 11.936685,17.9145 C11.992965,17.94615 12.054885,17.96205 12.122415,17.96205 C12.29691,17.96205 12.5136,17.82225 12.772515,17.54265 C12.945125,17.35635 13.103975,17.1641167 13.249065,16.9660389 L13.45638,16.66455 L13.8363,16.89405 L13.4389645,17.4280031 C13.0664278,17.9145094 12.7682888,18.258675 12.54456,18.4605 C12.054885,18.90345 11.53143,19.125 10.97421,19.125 C10.659,19.125 10.374765,19.0353 10.121475,18.85605 C9.873825,18.6714 9.75,18.39195 9.75,18.0174 C9.75,17.96466 9.7554024,17.89968 9.76620816,17.82246 L9.81483648,17.55408 L9.81483648,17.55408 L9.88455656,17.2598484 L9.88455656,17.2598484 L10.02861,16.7436 L11.067075,13.104435 L11.092395,12.97785 C11.10366,12.935655 11.109285,12.8961 11.109285,12.85917 C11.109285,12.64293 11.036115,12.50844 10.889775,12.4557 C10.772703,12.413508 10.5781782,12.383124 10.3062083,12.3645557 L10.08771,12.352845 L10.08771,11.92563 L10.9357389,11.85531 L10.9357389,11.85531 L11.506095,11.799045 L11.506095,11.799045 L12.2085689,11.7167064 L12.2085689,11.7167064 L12.831615,11.625 Z M12.000015,2.869263 L22.14315,9.11115 C22.4958,9.328245 22.6059,9.7902 22.3887,10.14297 C22.1957667,10.4565433 21.8092926,10.5782944 21.478114,10.4490062 L21.357,10.38864 L12.000015,4.63053 L2.64309,10.38864 C2.29032,10.605735 1.828365,10.49574 1.61127,10.14297 C1.41830333,9.82939667 1.4837663,9.4295537 1.74845757,9.19209823 L1.85694,9.11115 L12.000015,2.869263 Z M13.093335,7.875 C13.41417,7.875 13.687155,7.98048 13.91229,8.191455 C14.137425,8.40243 14.25,8.658225 14.25,8.958855 C14.25,9.2595 14.137425,9.517935 13.91229,9.734175 C13.687155,9.94515 13.41417,10.05063 13.093335,10.05063 C12.772515,10.05063 12.49671,9.94515 12.26595,9.734175 C12.0408,9.517935 11.92824,9.2595 11.92824,8.958855 C11.92824,8.658225 12.0408,8.40243 12.26595,8.191455 C12.49671,7.98048 12.772515,7.875 13.093335,7.875 Z" />
</svg>