<svg width="24" height="24" viewBox="0 0 24 24" fill="none" xmlns="http://www.w3.org/2000/svg">
<path fill-rule="evenodd" clip-rule="evenodd" d="M12 1.36935L22.1432 7.61124C22.4958 7.82834 22.6059 8.29029 22.3887 8.64306C22.1717 8.99583 21.7097 9.10582 21.357 8.88873L12 3.13062L2.64309 8.88873C2.29032 9.10582 1.82837 8.99583 1.61127 8.64306C1.39418 8.29029 1.50417 7.82834 1.85694 7.61124L12 1.36935ZM18.7502 9.75C19.1643 9.75 19.5002 10.0858 19.5002 10.5V21H4.50009V10.5C4.50009 10.0858 4.83588 9.75 5.25009 9.75C5.6643 9.75 6.00009 10.0858 6.00009 10.5V19.5H18.0002V10.5C18.0002 10.0858 18.336 9.75 18.7502 9.75ZM9.9672 9.98026L12.0001 12.0132L14.033 9.98026C14.34 9.67325 14.8378 9.67325 15.1449 9.98026C15.452 10.2873 15.452 10.7851 15.1449 11.0921L13.1119 13.125L15.1449 15.1579C15.452 15.4648 15.452 15.9627 15.1449 16.2698C14.8378 16.5768 14.34 16.5768 14.033 16.2698L12.0001 14.2368L9.96722 16.2698C9.6602 16.5768 9.16241 16.5768 8.85539 16.2698C8.54837 15.9627 8.54837 15.465 8.85539 15.1579L10.8883 13.125L8.85536 11.0921C8.54834 10.7851 8.54834 10.2873 8.85536 9.98026C9.16238 9.67325 9.66018 9.67325 9.9672 9.98026Z" fill="currentColor"/>
</svg>
