<svg width="24" height="24" viewBox="0 0 24 24" fill="none" xmlns="http://www.w3.org/2000/svg">
<path fill-rule="evenodd" clip-rule="evenodd" d="M12 1.36935L22.1432 7.61124C22.4958 7.82834 22.6059 8.29029 22.3887 8.64306C22.1717 8.99583 21.7097 9.10582 21.357 8.88873L12 3.13062L2.64309 8.88873C2.29032 9.10582 1.82837 8.99583 1.61127 8.64306C1.39418 8.29029 1.50417 7.82834 1.85694 7.61124L12 1.36935ZM11.2501 8.25C11.6183 8.25 11.9245 8.51532 11.988 8.8652L12.0001 9V14.4594L14.4873 15.7885C14.8802 15.9195 15.0927 16.3442 14.9616 16.7372C14.8452 17.0865 14.4966 17.293 14.1446 17.2427L14.0129 17.2115L10.5001 15.5406V9C10.5001 8.58579 10.8359 8.25 11.2501 8.25ZM18.7502 9.75C19.1643 9.75 19.5002 10.0858 19.5002 10.5V21H4.50009V10.5C4.50009 10.0858 4.83588 9.75 5.25009 9.75C5.6643 9.75 6.00009 10.0858 6.00009 10.5V19.5H18.0002V10.5C18.0002 10.0858 18.336 9.75 18.7502 9.75Z" fill="currentColor"/>
</svg>
