<svg width="24" height="24" viewBox="0 0 24 24" fill="none" xmlns="http://www.w3.org/2000/svg">
<path fill-rule="evenodd" clip-rule="evenodd" d="M22.1222 5.34882C22.4817 5.55433 22.6066 6.01246 22.4011 6.3721C22.1957 6.73174 21.7375 6.85669 21.3778 6.65119L16.5303 3.88116L14.666 5.12404C14.3213 5.35381 13.8557 5.26068 13.6259 4.91602C13.3961 4.57138 13.4893 4.10574 13.8339 3.87597L16.4697 2.11885L22.1222 5.34882ZM11.9696 5.11885L17.6222 8.34882C17.9817 8.55433 18.1066 9.01248 17.9011 9.3721C17.6957 9.73174 17.2375 9.85669 16.8778 9.65119L12.0303 6.88116L10.166 8.12404C9.82132 8.35381 9.35566 8.26068 9.12591 7.91602C8.89614 7.57138 8.98927 7.10574 9.33391 6.87597L11.9696 5.11885ZM20.25 7.5C20.6642 7.5 21 7.83579 21 8.25V15H18C17.5858 15 17.25 14.6642 17.25 14.25C17.25 13.8358 17.5858 13.5 18 13.5H19.5V8.25C19.5 7.83579 19.8358 7.5 20.25 7.5ZM16.5 11.25V18H13.5C13.0857 18 12.75 17.6641 12.75 17.25C12.75 16.8358 13.0857 16.5 13.5 16.5H15V11.25C15 10.8358 15.3358 10.5 15.75 10.5C16.1642 10.5 16.5 10.8358 16.5 11.25ZM4.49995 14.25V19.5H10.5V14.25C10.5 13.8358 10.8357 13.5 11.25 13.5C11.6642 13.5 12 13.8358 12 14.25V21H2.99995V14.25C2.99995 13.8358 3.33574 13.5 3.74995 13.5C4.16416 13.5 4.49995 13.8358 4.49995 14.25ZM13.122 11.3488C13.4817 11.5543 13.6066 12.0125 13.4011 12.3721C13.1956 12.7318 12.7375 12.8567 12.3778 12.6512L7.49994 9.86382L2.62204 12.6512C2.2624 12.8567 1.80427 12.7318 1.59876 12.3721C1.39326 12.0125 1.51821 11.5543 1.87783 11.3488L7.49994 8.13619L13.122 11.3488Z" fill="currentColor"/>
</svg>
