<svg width="24" height="24" viewBox="0 0 24 24" fill="none" xmlns="http://www.w3.org/2000/svg">
<path fill-rule="evenodd" clip-rule="evenodd" d="M12 1.36935L22.1432 7.61124C22.4958 7.82834 22.6059 8.29029 22.3887 8.64306C22.1717 8.99583 21.7097 9.10582 21.357 8.88873L12 3.13062L2.64309 8.88873C2.29032 9.10582 1.82837 8.99583 1.61127 8.64306C1.39418 8.29029 1.50417 7.82834 1.85694 7.61124L12 1.36935ZM16.6035 9.23964C16.923 8.92013 17.441 8.92013 17.7605 9.23964C18.0801 9.55916 18.0801 10.0772 17.7605 10.3967L11.4546 16.7025L9.23973 14.4876C8.92022 14.1681 8.92022 13.6501 9.23973 13.3305C9.55925 13.011 10.0773 13.011 10.3968 13.3305L11.4546 14.3884L16.6035 9.23964ZM18.7502 12.75C19.1643 12.75 19.5002 13.0858 19.5002 13.5V21H4.50009V10.5C4.50009 10.0858 4.83588 9.75 5.25009 9.75C5.6643 9.75 6.00009 10.0858 6.00009 10.5V19.5H18.0002V13.5C18.0002 13.0858 18.336 12.75 18.7502 12.75Z" fill="currentColor"/>
</svg>
