<svg width="24" height="24" viewBox="0 0 24 24" fill="none" xmlns="http://www.w3.org/2000/svg">
<path fill-rule="evenodd" clip-rule="evenodd" d="M12 1.36935L22.1432 7.61124C22.4958 7.82834 22.6059 8.29029 22.3887 8.64306C22.1717 8.99583 21.7097 9.10582 21.357 8.88873L12 3.13062L2.64309 8.88873C2.29032 9.10582 1.82837 8.99583 1.61127 8.64306C1.39418 8.29029 1.50417 7.82834 1.85694 7.61124L12 1.36935ZM12.0373 7.5C12.268 7.5 12.4723 7.61704 12.5198 7.88802L12.5302 8.01369V8.52126C13.2465 8.6191 13.8826 8.90041 14.3067 9.32848C14.6276 9.66481 14.8167 10.0378 14.8167 10.3803C14.8167 10.735 14.5703 10.9735 14.2494 10.9735C13.9858 10.9735 13.7909 10.8695 13.5388 10.5882C13.0402 9.99505 12.5932 9.76266 11.9514 9.76266C11.1606 9.76266 10.6563 10.2152 10.6563 10.839C10.6563 11.3068 10.944 11.6409 11.5322 11.8278L11.7393 11.8847L12.9027 12.166C14.3181 12.4962 15.0002 13.23 15.0002 14.4409C15.0002 15.7692 14.1414 16.7049 12.7473 16.9542L12.4958 16.9909V17.4802C12.4958 17.8471 12.2666 18 12.0087 18C11.778 18 11.5737 17.883 11.5262 17.6079L11.5158 17.4802V16.9971C10.7193 16.9176 10.003 16.6424 9.54452 16.196C9.19494 15.8718 9.00009 15.4989 9.00009 15.138C9.00009 14.7283 9.26369 14.4898 9.61326 14.4898C9.83102 14.4898 9.9915 14.5571 10.2837 14.869C10.7995 15.4621 11.3669 15.7374 12.0488 15.7374C12.96 15.7374 13.47 15.297 13.47 14.5999C13.47 14.1107 13.1811 13.8034 12.4914 13.5907L12.2723 13.5297L11.109 13.2423C9.80238 12.9304 9.12044 12.1415 9.12044 10.9552C9.12044 9.67741 9.95802 8.76261 11.294 8.53706L11.5502 8.50292V8.01369C11.5502 7.64678 11.7795 7.5 12.0373 7.5ZM18.7502 9.75C19.1643 9.75 19.5002 10.0858 19.5002 10.5V21H4.50009V10.5C4.50009 10.0858 4.83588 9.75 5.25009 9.75C5.6643 9.75 6.00009 10.0858 6.00009 10.5V19.5H18.0002V10.5C18.0002 10.0858 18.336 9.75 18.7502 9.75Z" fill="currentColor"/>
</svg>
