<svg width="24" height="24" viewBox="0 0 24 24" fill="none" xmlns="http://www.w3.org/2000/svg">
<path fill-rule="evenodd" clip-rule="evenodd" d="M12 1.36935L22.1432 7.61124C22.4958 7.82834 22.6059 8.29029 22.3887 8.64306C22.1717 8.99583 21.7097 9.10582 21.357 8.88873L12 3.13062L2.64309 8.88873C2.29032 9.10582 1.82837 8.99583 1.61127 8.64306C1.39418 8.29029 1.50417 7.82834 1.85694 7.61124L12 1.36935ZM17.0766 10.7592C17.1003 10.6159 17.2803 10.5954 17.3487 10.6978L17.3724 10.7592L17.957 14.2657C17.9639 14.3079 17.9883 14.3439 18.0225 14.3664L18.0803 14.3889L21.5868 14.9735C21.7301 14.9972 21.7505 15.1771 21.6482 15.2456L21.5868 15.2692L18.0803 15.8538C18.038 15.8608 18.002 15.8851 17.9795 15.9193L17.957 15.9771L17.3724 19.4837C17.3486 19.6269 17.1687 19.6473 17.1003 19.545L17.0766 19.4837L16.4921 15.9771C16.485 15.9349 16.4607 15.8988 16.4265 15.8763L16.3688 15.8538L12.8622 15.2692C12.719 15.2454 12.6985 15.0656 12.8008 14.9972L12.8622 14.9735L16.3688 14.3889C16.4109 14.3819 16.4469 14.3576 16.4694 14.3234L16.4921 14.2657L17.0766 10.7592ZM11.6867 7.61361C11.7183 7.48735 11.8731 7.46631 11.9457 7.55048L11.9778 7.61361L12.5604 9.9442C12.5694 9.98004 12.591 10.0106 12.6204 10.031L12.6696 10.0533L15.0002 10.636C15.1263 10.6676 15.1475 10.8223 15.0633 10.8949L15.0002 10.927L12.6696 11.5097C12.6337 11.5186 12.6031 11.5403 12.5827 11.5696L12.5604 11.6188L11.9778 13.9494C11.9462 14.0757 11.7914 14.0967 11.7188 14.0125L11.6867 13.9494L11.1041 11.6188C11.0951 11.583 11.0735 11.5524 11.0441 11.532L10.9949 11.5097L8.66433 10.927C8.53808 10.8955 8.51705 10.7407 8.60121 10.6681L8.66433 10.636L10.9949 10.0533C11.0308 10.0444 11.0614 10.0228 11.0818 9.99341L11.1041 9.9442L11.6867 7.61361ZM4.50009 21V10.5C4.50009 10.0858 4.83588 9.75 5.25009 9.75C5.6643 9.75 6.00009 10.0858 6.00009 10.5V19.5H15.75C16.1643 19.5 16.5 19.8358 16.5 20.25C16.5 20.6643 16.1643 21 15.75 21H4.50009Z" fill="currentColor"/>
</svg>
