<svg width="24" height="24" viewBox="0 0 24 24" fill="none" xmlns="http://www.w3.org/2000/svg">
<path d="M13.5 11.25C13.5 10.8358 13.8358 10.5 14.25 10.5H18.75C19.1642 10.5 19.5 10.8358 19.5 11.25C19.5 11.6642 19.1642 12 18.75 12H14.25C13.8358 12 13.5 11.6642 13.5 11.25ZM14.25 13.5H17.25C17.6642 13.5 18 13.8358 18 14.25C18 14.6642 17.6642 15 17.25 15H14.25C13.8358 15 13.5 14.6642 13.5 14.25C13.5 13.8358 13.8358 13.5 14.25 13.5ZM5.25 9.75C5.25 8.09315 6.59315 6.75 8.25 6.75C9.90685 6.75 11.25 8.09315 11.25 9.75C11.25 11.4069 9.90685 12.75 8.25 12.75C6.59315 12.75 5.25 11.4069 5.25 9.75ZM8.25 8.25C7.42157 8.25 6.75 8.92157 6.75 9.75C6.75 10.5784 7.42157 11.25 8.25 11.25C9.07843 11.25 9.75 10.5784 9.75 9.75C9.75 8.92157 9.07843 8.25 8.25 8.25ZM6.75 15.75V16.5C6.75 16.9142 6.41421 17.25 6 17.25C5.58579 17.25 5.25 16.9142 5.25 16.5V15.75C5.25 14.5074 6.25736 13.5 7.5 13.5H9C10.2426 13.5 11.25 14.5074 11.25 15.75V16.5C11.25 16.9142 10.9142 17.25 10.5 17.25C10.0858 17.25 9.75 16.9142 9.75 16.5V15.75C9.75 15.3358 9.41421 15 9 15H7.5C7.08579 15 6.75 15.3358 6.75 15.75ZM1.5 4.5H22.5V19.5H1.5V4.5ZM3 6V18H21V6H3Z" fill="currentColor"/>
</svg>
