<svg width="24" height="24" viewBox="0 0 24 24" fill="none" xmlns="http://www.w3.org/2000/svg">
<path fill-rule="evenodd" clip-rule="evenodd" d="M3 16.0607V18H21V6H3V13.9393L6 10.9393L9 13.9393L11.25 11.6893L14.0303 14.4697C14.3232 14.7626 14.3232 15.2374 14.0303 15.5303C13.7374 15.8232 13.2626 15.8232 12.9697 15.5303L11.25 13.8107L9 16.0607L6 13.0607L3 16.0607ZM1.5 4.5H22.5V19.5H1.5V4.5ZM16.5 13.5C14.8431 13.5 13.5 12.1569 13.5 10.5C13.5 8.84315 14.8431 7.5 16.5 7.5C18.1569 7.5 19.5 8.84315 19.5 10.5C19.5 12.1569 18.1569 13.5 16.5 13.5ZM16.5 12C17.3284 12 18 11.3284 18 10.5C18 9.67157 17.3284 9 16.5 9C15.6716 9 15 9.67157 15 10.5C15 11.3284 15.6716 12 16.5 12Z" fill="currentColor"/>
</svg>
