<svg width="24" height="24" viewBox="0 0 24 24" fill="none" xmlns="http://www.w3.org/2000/svg">
<path fill-rule="evenodd" clip-rule="evenodd" d="M17.7799 19.2807C18.0737 19.4213 18.4026 19.5 18.75 19.5C19.9926 19.5 21 18.4926 21 17.25C21 16.9026 20.9213 16.5737 20.7807 16.2799L17.7803 19.2803L17.7799 19.2807ZM16.7197 18.2197L19.7197 15.2197C19.4263 15.0787 19.0974 15 18.75 15C17.5074 15 16.5 16.0074 16.5 17.25C16.5 17.5974 16.5787 17.9263 16.7193 18.2201L16.7197 18.2197ZM3 13.9393L6 10.9393L9 13.9393L11.25 11.6893L14.0303 14.4697C14.3232 14.7626 14.3232 15.2374 14.0303 15.5303C13.7374 15.8232 13.2626 15.8232 12.9697 15.5303L11.25 13.8107L9 16.0607L6 13.0607L3 16.0607V18H13.5C13.9142 18 14.25 18.3358 14.25 18.75C14.25 19.1642 13.9142 19.5 13.5 19.5H1.5V4.5H22.5V12.75C22.5 13.1642 22.1642 13.5 21.75 13.5C21.3358 13.5 21 13.1642 21 12.75V6H3V13.9393ZM16.5 13.5C14.8431 13.5 13.5 12.1569 13.5 10.5C13.5 8.84315 14.8431 7.5 16.5 7.5C18.1569 7.5 19.5 8.84315 19.5 10.5C19.5 12.1569 18.1569 13.5 16.5 13.5ZM16.5 12C17.3284 12 18 11.3284 18 10.5C18 9.67157 17.3284 9 16.5 9C15.6716 9 15 9.67157 15 10.5C15 11.3284 15.6716 12 16.5 12ZM18.75 21C16.6789 21 15 19.3211 15 17.25C15 15.1789 16.6789 13.5 18.75 13.5C20.8211 13.5 22.5 15.1789 22.5 17.25C22.5 19.3211 20.8211 21 18.75 21Z" fill="currentColor"/>
</svg>
