<svg width="24" height="24" viewBox="0 0 24 24" fill="none" xmlns="http://www.w3.org/2000/svg">
<path fill-rule="evenodd" clip-rule="evenodd" d="M9.85131 15.8924C9.89072 15.7289 9.94981 15.5127 10.0286 15.2436L11.0671 11.6044C11.0783 11.5622 11.0868 11.52 11.0924 11.4778C11.1037 11.4357 11.1093 11.3961 11.1093 11.3592C11.1093 11.1429 11.0361 11.0084 10.8898 10.9557C10.7434 10.903 10.4761 10.8687 10.0877 10.8528V10.4256C10.4142 10.4045 10.887 10.3623 11.5061 10.299C12.1309 10.2305 12.5727 10.1725 12.8316 10.125L13.5746 9.99051L12.2322 14.6028C12.1196 14.9984 12.0436 15.2727 12.0042 15.4257C11.9029 15.816 11.8523 16.069 11.8523 16.1852C11.8523 16.3011 11.8804 16.3776 11.9367 16.4145C11.993 16.4461 12.0549 16.462 12.1224 16.462C12.2969 16.462 12.5136 16.3222 12.7725 16.0427C13.0314 15.7632 13.2594 15.4704 13.4564 15.1646L13.8363 15.3941C13.2735 16.1693 12.8429 16.6914 12.5446 16.9605C12.0549 17.4035 11.5314 17.625 10.9742 17.625C10.659 17.625 10.3748 17.5353 10.1215 17.356C9.87383 17.1714 9.75 16.8919 9.75 16.5174C9.75 16.3855 9.78376 16.1772 9.85131 15.8924ZM13.9123 6.69145C14.1374 6.90243 14.25 7.15823 14.25 7.45885C14.25 7.7595 14.1374 8.01793 13.9123 8.23417C13.6872 8.44515 13.4142 8.55063 13.0933 8.55063C12.7725 8.55063 12.4967 8.44515 12.266 8.23417C12.0408 8.01793 11.9282 7.7595 11.9282 7.45885C11.9282 7.15823 12.0408 6.90243 12.266 6.69145C12.4967 6.48048 12.7725 6.375 13.0933 6.375C13.4142 6.375 13.6872 6.48048 13.9123 6.69145ZM12 1.5C17.799 1.5 22.5 6.20101 22.5 12C22.5 17.799 17.799 22.5 12 22.5C6.20101 22.5 1.5 17.799 1.5 12C1.5 6.20101 6.20101 1.5 12 1.5ZM3 12C3 16.9705 7.02944 21 12 21C16.9705 21 21 16.9705 21 12C21 7.02944 16.9705 3 12 3C7.02944 3 3 7.02944 3 12Z" fill="currentColor"/>
</svg>
