<svg width="24" height="24" viewBox="0 0 24 24" fill="none" xmlns="http://www.w3.org/2000/svg">
<path fill-rule="evenodd" clip-rule="evenodd" d="M13.5 8.25V6C13.5 5.58579 13.8358 5.25 14.25 5.25C14.6642 5.25 15 5.58579 15 6V9.75H9V6C9 5.58579 9.33585 5.25 9.75 5.25C10.1642 5.25 10.5 5.58579 10.5 6V8.25H13.5ZM12 3.24928L8.63587 5.26776C8.28069 5.48088 7.81999 5.36569 7.60687 5.01051C7.39377 4.65532 7.50894 4.19463 7.86413 3.98152L12 1.5L16.1358 3.98152C16.491 4.19463 16.6062 4.65532 16.3931 5.01051C16.1801 5.36569 15.7192 5.48088 15.3642 5.26776L12 3.24928ZM4.5 12C3.67158 12 3 12.6716 3 13.5C3 14.3284 3.67158 15 4.5 15C5.32842 15 6 14.3284 6 13.5C6 12.6716 5.32842 12 4.5 12ZM1.5 13.5C1.5 11.8431 2.84314 10.5 4.5 10.5C6.15686 10.5 7.5 11.8431 7.5 13.5C7.5 15.1569 6.15686 16.5 4.5 16.5C2.84314 16.5 1.5 15.1569 1.5 13.5ZM12 12C11.1716 12 10.5 12.6716 10.5 13.5C10.5 14.3284 11.1716 15 12 15C12.8284 15 13.5 14.3284 13.5 13.5C13.5 12.6716 12.8284 12 12 12ZM9 13.5C9 11.8431 10.3431 10.5 12 10.5C13.6569 10.5 15 11.8431 15 13.5C15 15.1569 13.6569 16.5 12 16.5C10.3431 16.5 9 15.1569 9 13.5ZM19.5 12C18.6716 12 18 12.6716 18 13.5C18 14.3284 18.6716 15 19.5 15C20.3284 15 21 14.3284 21 13.5C21 12.6716 20.3284 12 19.5 12ZM16.5 13.5C16.5 11.8431 17.8431 10.5 19.5 10.5C21.1569 10.5 22.5 11.8431 22.5 13.5C22.5 15.1569 21.1569 16.5 19.5 16.5C17.8431 16.5 16.5 15.1569 16.5 13.5ZM3.75 18.75C3.33579 18.75 3 19.0858 3 19.5V21.75C3 22.1642 2.66421 22.5 2.25 22.5C1.83579 22.5 1.5 22.1642 1.5 21.75V19.5C1.5 18.2574 2.50735 17.25 3.75 17.25H5.25C6.49264 17.25 7.5 18.2574 7.5 19.5V21.75C7.5 22.1642 7.16421 22.5 6.75 22.5C6.33579 22.5 6 22.1642 6 21.75V19.5C6 19.0858 5.66421 18.75 5.25 18.75H3.75ZM11.25 18.75C10.8358 18.75 10.5 19.0858 10.5 19.5V21.75C10.5 22.1642 10.1642 22.5 9.75 22.5C9.33579 22.5 9 22.1642 9 21.75V19.5C9 18.2574 10.0074 17.25 11.25 17.25H12.75C13.9926 17.25 15 18.2574 15 19.5V21.75C15 22.1642 14.6642 22.5 14.25 22.5C13.8358 22.5 13.5 22.1642 13.5 21.75V19.5C13.5 19.0858 13.1642 18.75 12.75 18.75H11.25ZM18.75 18.75C18.3358 18.75 18 19.0858 18 19.5V21.75C18 22.1642 17.6642 22.5 17.25 22.5C16.8358 22.5 16.5 22.1642 16.5 21.75V19.5C16.5 18.2574 17.5074 17.25 18.75 17.25H20.25C21.4926 17.25 22.5 18.2574 22.5 19.5V21.75C22.5 22.1642 22.1642 22.5 21.75 22.5C21.3358 22.5 21 22.1642 21 21.75V19.5C21 19.0858 20.6642 18.75 20.25 18.75H18.75Z" fill="currentColor"/>
</svg>
