<svg xmlns="http://www.w3.org/2000/svg" width="24" height="24" viewBox="0 0 24 24">
  <path fill="currentColor" fill-rule="evenodd" d="M17.25,15 C18.1696,15 19.0392,15.1848 19.7067,15.5185 C20.2878867,15.8090467 20.9107996,16.3239916 20.9912716,17.083498 L21,17.25 L21,20.25 C21,21.1013 20.3294,21.6702 19.7067,21.9815 C19.0392,22.3152 18.1696,22.5 17.25,22.5 C16.3304,22.5 15.4608,22.3152 14.7933,21.9815 C14.2121133,21.6909533 13.5892004,21.1760084 13.5087284,20.416502 L13.5,20.25 L13.5,17.25 C13.5,16.3987 14.1706,15.8298 14.7933,15.5185 C15.4608,15.1848 16.3304,15 17.25,15 Z M14.25,1.5 C14.6642,1.5 15,1.83579 15,2.25 C15,2.6296925 14.7178347,2.94349042 14.3517677,2.99315332 L14.25,3 L12.75,3 L12.75,4.5308 C14.3684933,4.66431333 15.8655538,5.22603876 17.1275188,6.10245191 L17.3943,6.29503 L18.9697,4.71967 L20.0303,5.78033 L18.5174,7.29327 C19.8794,8.7231 20.7757,10.6006 20.9633,12.6827 C21.0005,13.0952 20.6962,13.4598 20.2837,13.497 C19.8711,13.5341 19.5066,13.2299 19.4694,12.8173 C19.125,8.99549 15.9119,6 12,6 C7.85786,6 4.5,9.35786 4.5,13.5 C4.5,17.3931 7.46678,20.5941 11.2623,20.9642 C11.6745,21.0044 11.9762,21.3712 11.936,21.7835 C11.8958,22.1957 11.529,22.4974 11.1167,22.4572 C6.56034,22.0129 3,18.1727 3,13.5 C3,11.2030773 3.8604238,9.10718312 5.27654032,7.51696165 L5.48259,7.29326 L3.96967,5.78033 L5.03033,4.71967 L6.60571,6.29506 C7.833594,5.37428 9.30457027,4.760044 10.90509,4.56593327 L11.25,4.53081 L11.25,3 L9.75,3 C9.33579,3 9,2.66421 9,2.25 C9,1.8703075 9.28215687,1.55650958 9.64823019,1.50684668 L9.75,1.5 L14.25,1.5 Z M19.5,19.0773 C18.8643,19.3504 18.0774,19.5 17.25,19.5 C16.4226,19.5 15.6357,19.3504 15,19.0773 L15.001825,20.2592375 L15.001825,20.2592375 C15.0111,20.283 15.0256,20.3108 15.0584,20.3495 C15.1268,20.4304 15.2551,20.5354 15.4641,20.6398 C15.8824,20.849 16.5128,21 17.25,21 C17.9872,21 18.6176,20.849 19.0359,20.6398 C19.2449,20.5354 19.3732,20.4304 19.4416,20.3495 C19.4634667,20.3237 19.4772,20.3027444 19.4857037,20.2872556 L19.5,20.25 L19.5,19.0773 Z M17.25,16.5 C16.5128,16.5 15.8824,16.651 15.4641,16.8602 C15.2551,16.9646 15.1268,17.0696 15.0584,17.1505 C15.0365333,17.1763 15.0228,17.1972556 15.0142963,17.2127444 L15.0005,17.2459 L15.0005,17.2459 L15.001825,17.2592375 L15.001825,17.2592375 C15.0111,17.283 15.0256,17.3108 15.0584,17.3495 C15.1268,17.4304 15.2551,17.5354 15.4641,17.6398 C15.8824,17.849 16.5128,18 17.25,18 C17.9872,18 18.6176,17.849 19.0359,17.6398 C19.2449,17.5354 19.3732,17.4304 19.4416,17.3495 C19.4634667,17.3237 19.4772,17.3027444 19.4857037,17.2872556 L19.4995,17.2459 L19.4995,17.2459 L19.4949,17.2318 C19.4889,17.217 19.4744,17.1892 19.4416,17.1505 C19.3732,17.0696 19.2449,16.9646 19.0359,16.8602 C18.6176,16.651 17.9872,16.5 17.25,16.5 Z M12,7.5 C12.3796833,7.5 12.6934889,7.78215687 12.7431531,8.14823019 L12.75,8.25 L12.75,14.1514 L9.41601,16.374 C9.07136,16.6038 8.60571,16.5107 8.37595,16.166 C8.16707727,15.8527273 8.22505579,15.4393719 8.4962642,15.1942284 L8.58397,15.126 L11.25,13.3486 L11.25,8.25 C11.25,7.83579 11.5858,7.5 12,7.5 Z"/>
</svg>