<svg xmlns="http://www.w3.org/2000/svg" width="24" height="24" viewBox="0 0 24 24">
  <path fill="currentColor" fill-rule="evenodd" d="M16.2500025,4 C14.1789,4 12.5,5.67893 12.5,7.75 C12.5,8.51431 12.7287,9.22522 13.1213,9.81804 L4.96967,17.9697 C4.67678,18.2626 4.67678,18.7374 4.96967,19.0303 C5.26256,19.3232 5.73744,19.3232 6.03033,19.0303 L7.2500025,17.8107 L9.46967,20.0303 C9.76256,20.3232 10.2374,20.3232 10.5303,20.0303 C10.8232,19.7374 10.8232,19.2626 10.5303,18.9697 L8.31066,16.75 L9.5,15.5607 L10.9697,17.0303 C11.2626,17.3232 11.7374,17.3232 12.0303,17.0303 C12.3232,16.7374 12.3232,16.2626 12.0303,15.9697 L10.5607,14.5 L14.182,10.8787 C14.7748,11.2713 15.4857,11.5 16.2500025,11.5 C18.3211,11.5 20,9.82107 20,7.75 C20,5.67893 18.3211,4 16.2500025,4 Z M14,7.75 C14,6.50736 15.0074,5.5 16.25,5.5 C17.4926,5.5 18.5,6.50736 18.5,7.75 C18.5,8.99264 17.4926,10 16.25,10 C15.0074,10 14,8.99264 14,7.75 Z"/>
</svg>