<svg width="24" height="24" viewBox="0 0 24 24" fill="none" xmlns="http://www.w3.org/2000/svg">
<path fill-rule="evenodd" clip-rule="evenodd" d="M18 19.5V21.75C18 22.1642 17.6642 22.5 17.25 22.5C16.8358 22.5 16.5 22.1642 16.5 21.75V19.5H15V14.5131L11.149 9.69936L12.9277 18H10.5V21.75C10.5 22.1642 10.1642 22.5 9.75 22.5C9.33579 22.5 9 22.1642 9 21.75V18H7.5V21.75C7.5 22.1642 7.16421 22.5 6.75 22.5C6.33579 22.5 6 22.1642 6 21.75V18H3.57226L5.25925 10.1274L3.61032 12.4359C3.36955 12.773 2.90115 12.851 2.56408 12.6103C2.22702 12.3695 2.14896 11.9011 2.38971 11.5641L5.7195 6.90234C6.28713 6.10766 7.53649 6.65914 7.33188 7.61403L5.42775 16.5H11.0723L9.14979 7.52843C8.95082 6.59982 10.1393 6.03603 10.7326 6.77763L16.3356 13.7815C16.4421 13.9144 16.5 14.0797 16.5 14.25V18H18V14.6121C18 13.8103 18.9694 13.4087 19.5364 13.9757L21.5304 15.9696C21.8232 16.2626 21.8232 16.7375 21.5304 17.0303C21.2374 17.3232 20.7626 17.3232 20.4697 17.0303L19.5 16.0606V19.5H18ZM8.25 3C7.83579 3 7.5 3.33579 7.5 3.75C7.5 4.16421 7.83579 4.5 8.25 4.5C8.66421 4.5 9 4.16421 9 3.75C9 3.33579 8.66421 3 8.25 3ZM6 3.75C6 2.50735 7.00736 1.5 8.25 1.5C9.49264 1.5 10.5 2.50735 10.5 3.75C10.5 4.99265 9.49264 6 8.25 6C7.00736 6 6 4.99265 6 3.75ZM17.25 9.75C16.8358 9.75 16.5 10.0858 16.5 10.5C16.5 10.9142 16.8358 11.25 17.25 11.25C17.6642 11.25 18 10.9142 18 10.5C18 10.0858 17.6642 9.75 17.25 9.75ZM15 10.5C15 9.25736 16.0074 8.25 17.25 8.25C18.4926 8.25 19.5 9.25736 19.5 10.5C19.5 11.7426 18.4926 12.75 17.25 12.75C16.0074 12.75 15 11.7426 15 10.5Z" fill="currentColor"/>
</svg>
