<svg width="24" height="24" viewBox="0 0 24 24" fill="none" xmlns="http://www.w3.org/2000/svg">
<path fill-rule="evenodd" clip-rule="evenodd" d="M10.7197 14.7804L10.4623 14.523C7.82626 11.887 7.82626 7.6131 10.4623 4.97706L12.2197 3.21969C14.1694 1.26994 17.3305 1.26995 19.2804 3.2197C21.2301 5.16945 21.2301 8.3306 19.2804 10.2803L17.7803 11.7804C17.4874 12.0732 17.0126 12.0732 16.7196 11.7804C16.4268 11.4875 16.4268 11.0126 16.7196 10.7197L18.2197 9.21968C19.5837 7.85572 19.5837 5.64432 18.2197 4.28035C16.8558 2.9164 14.6443 2.91639 13.2804 4.28034L11.523 6.03772C9.47271 8.08797 9.47271 11.4121 11.523 13.4623L11.7803 13.7197C12.0732 14.0126 12.0732 14.4875 11.7803 14.7804C11.4874 15.0732 11.0125 15.0732 10.7197 14.7804ZM13.2803 9.21969L13.5377 9.47704C16.1737 12.1131 16.1737 16.3869 13.5377 19.023L11.7803 20.7804C9.83055 22.7301 6.66939 22.7301 4.71966 20.7803C2.76991 18.8306 2.76993 15.6695 4.71967 13.7197L6.21969 12.2197C6.51259 11.9268 6.98746 11.9268 7.28035 12.2197C7.57325 12.5126 7.57325 12.9875 7.28035 13.2804L5.78032 14.7804C4.41637 16.1444 4.41636 18.3557 5.78031 19.7196C7.14427 21.0837 9.35568 21.0837 10.7196 19.7198L12.477 17.9624C14.5273 15.912 14.5273 12.588 12.477 10.5377L12.2197 10.2804C11.9268 9.98746 11.9268 9.51259 12.2197 9.21969C12.5126 8.9268 12.9874 8.9268 13.2803 9.21969Z" fill="currentColor"/>
</svg>
