<svg width="24" height="24" viewBox="0 0 24 24" fill="none" xmlns="http://www.w3.org/2000/svg">
<path fill-rule="evenodd" clip-rule="evenodd" d="M12.75 16.2993V18C12.75 18.4142 12.4142 18.75 12 18.75C11.5858 18.75 11.25 18.4142 11.25 18V16.2993C10.8017 16.04 10.5 15.5552 10.5 15C10.5 14.1716 11.1716 13.5 12 13.5C12.8284 13.5 13.5 14.1716 13.5 15C13.5 15.5552 13.1983 16.04 12.75 16.2993ZM4.5 11.25C4.5 10.0074 5.50735 9 6.75 9H17.25C18.4926 9 19.5 10.0074 19.5 11.25V20.25C19.5 21.4926 18.4926 22.5 17.25 22.5H6.75C5.50735 22.5 4.5 21.4926 4.5 20.25V11.25ZM6.75 10.5C6.33579 10.5 6 10.8358 6 11.25V20.25C6 20.6642 6.33579 21 6.75 21H17.25C17.6642 21 18 20.6642 18 20.25V11.25C18 10.8358 17.6642 10.5 17.25 10.5H6.75ZM7.5 5.25C7.5 3.17894 9.17894 1.5 11.25 1.5H12C12.4142 1.5 12.75 1.83579 12.75 2.25C12.75 2.66421 12.4142 3 12 3H11.25C10.0074 3 9 4.00735 9 5.25V7.5C9 7.91421 8.66421 8.25 8.25 8.25C7.83579 8.25 7.5 7.91421 7.5 7.5V5.25Z" fill="currentColor"/>
</svg>
