<svg xmlns="http://www.w3.org/2000/svg" width="16" height="16" viewBox="0 0 16 16">
  <g fill="none" transform="translate(0 -1)">
    <path fill="#EC0000" d="M15.5167785,16.9466667 L0.483221477,16.9466667 C0.214765101,16.9466667 0,16.7319016 0,16.4634452 C0,16.4634452 0,16.4634452 0,16.4634452 L0,1.42988814 C0,1.16143177 0.214765101,0.946666667 0.483221477,0.946666667 L15.5167785,0.946666667 C15.7852349,0.946666667 16,1.16143177 16,1.42988814 L16,16.4634452 C16,16.7319016 15.7852349,16.9466667 15.5167785,16.9466667 C15.5167785,16.9466667 15.5167785,16.9466667 15.5167785,16.9466667" transform="translate(0 .026)"/>
    <path fill="#FFF" d="M5.49333333,9 C5.49333333,9.74666667 4.90666667,10.3866667 4.10666667,10.3866667 C3.30666667,10.3866667 2.72,9.74666667 2.72,9 C2.72,8.25333333 3.30666667,7.61333333 4.10666667,7.61333333 C4.90666667,7.61333333 5.49333333,8.25333333 5.49333333,9 M9.33333333,9 C9.33333333,9.74666667 8.74666667,10.3866667 7.94666667,10.3866667 C7.14666667,10.3866667 6.56,9.8 6.56,9 C6.56,8.2 7.14666667,7.61333333 7.94666667,7.61333333 C8.74666667,7.61333333 9.33333333,8.25333333 9.33333333,9 M9.33333333,5.16 C9.33333333,5.90666667 8.74666667,6.54666667 7.94666667,6.54666667 C7.14666667,6.54666667 6.56,5.96 6.56,5.16 C6.56,4.36 7.14666667,3.77333333 7.94666667,3.77333333 C8.74666667,3.77333333 9.33333333,4.41333333 9.33333333,5.16 M9.33333333,12.8933333 C9.33333333,13.64 8.74666667,14.28 7.94666667,14.28 C7.14666667,14.28 6.56,13.6933333 6.56,12.8933333 C6.56,12.0933333 7.14666667,11.5066667 7.94666667,11.5066667 C8.74666667,11.5066667 9.33333333,12.0933333 9.33333333,12.8933333 M13.1733333,9 C13.1733333,9.74666667 12.5866667,10.3866667 11.7866667,10.3866667 C11.04,10.3866667 10.4,9.8 10.4,9 C10.4,8.2 10.9866667,7.61333333 11.7866667,7.61333333 C12.5866667,7.66666667 13.1733333,8.25333333 13.1733333,9"/>
  </g>
</svg>
