<svg xmlns="http://www.w3.org/2000/svg" xmlns:xlink="http://www.w3.org/1999/xlink" width="16" height="16" viewBox="0 0 16 16">
  <defs>
    <path id="login-google-a" d="M15.8139535,6.54545455 L8.18604651,6.54545455 L8.18604651,9.63636364 L12.5767442,9.63636364 C12.1674419,11.6 10.455814,12.7272727 8.18604651,12.7272727 C5.50697674,12.7272727 3.34883721,10.6181818 3.34883721,8 C3.34883721,5.38181818 5.50697674,3.27272727 8.18604651,3.27272727 C9.33953488,3.27272727 10.3813953,3.67272727 11.2,4.32727273 L13.5813953,2 C12.1302326,0.763636364 10.2697674,0 8.18604651,0 C3.64651163,0 0,3.56363636 0,8 C0,12.4363636 3.64651163,16 8.18604651,16 C12.2790698,16 16,13.0909091 16,8 C16,7.52727273 15.9255814,7.01818182 15.8139535,6.54545455 Z"/>
    <path id="login-google-c" d="M15.8139535,6.54545455 L8.18604651,6.54545455 L8.18604651,9.63636364 L12.5767442,9.63636364 C12.1674419,11.6 10.455814,12.7272727 8.18604651,12.7272727 C5.50697674,12.7272727 3.34883721,10.6181818 3.34883721,8 C3.34883721,5.38181818 5.50697674,3.27272727 8.18604651,3.27272727 C9.33953488,3.27272727 10.3813953,3.67272727 11.2,4.32727273 L13.5813953,2 C12.1302326,0.763636364 10.2697674,0 8.18604651,0 C3.64651163,0 0,3.56363636 0,8 C0,12.4363636 3.64651163,16 8.18604651,16 C12.2790698,16 16,13.0909091 16,8 C16,7.52727273 15.9255814,7.01818182 15.8139535,6.54545455 Z"/>
    <path id="login-google-e" d="M15.8139535,6.54545455 L8.18604651,6.54545455 L8.18604651,9.63636364 L12.5767442,9.63636364 C12.1674419,11.6 10.455814,12.7272727 8.18604651,12.7272727 C5.50697674,12.7272727 3.34883721,10.6181818 3.34883721,8 C3.34883721,5.38181818 5.50697674,3.27272727 8.18604651,3.27272727 C9.33953488,3.27272727 10.3813953,3.67272727 11.2,4.32727273 L13.5813953,2 C12.1302326,0.763636364 10.2697674,0 8.18604651,0 C3.64651163,0 0,3.56363636 0,8 C0,12.4363636 3.64651163,16 8.18604651,16 C12.2790698,16 16,13.0909091 16,8 C16,7.52727273 15.9255814,7.01818182 15.8139535,6.54545455 Z"/>
    <path id="login-google-g" d="M15.8139535,6.54545455 L8.18604651,6.54545455 L8.18604651,9.63636364 L12.5767442,9.63636364 C12.1674419,11.6 10.455814,12.7272727 8.18604651,12.7272727 C5.50697674,12.7272727 3.34883721,10.6181818 3.34883721,8 C3.34883721,5.38181818 5.50697674,3.27272727 8.18604651,3.27272727 C9.33953488,3.27272727 10.3813953,3.67272727 11.2,4.32727273 L13.5813953,2 C12.1302326,0.763636364 10.2697674,0 8.18604651,0 C3.64651163,0 0,3.56363636 0,8 C0,12.4363636 3.64651163,16 8.18604651,16 C12.2790698,16 16,13.0909091 16,8 C16,7.52727273 15.9255814,7.01818182 15.8139535,6.54545455 Z"/>
  </defs>
  <g fill="none" fill-rule="evenodd">
    <mask id="login-google-b" fill="#fff">
      <use xlink:href="#login-google-a"/>
    </mask>
    <polygon fill="#FBBC05" fill-rule="nonzero" points="-.744 12.727 -.744 3.273 5.581 8" mask="url(#login-google-b)"/>
    <mask id="login-google-d" fill="#fff">
      <use xlink:href="#login-google-c"/>
    </mask>
    <polygon fill="#EA4335" fill-rule="nonzero" points="-.744 3.273 5.581 8 8.186 5.782 17.116 4.364 17.116 -.727 -.744 -.727" mask="url(#login-google-d)"/>
    <mask id="login-google-f" fill="#fff">
      <use xlink:href="#login-google-e"/>
    </mask>
    <polygon fill="#34A853" fill-rule="nonzero" points="-.744 12.727 10.419 4.364 13.358 4.727 17.116 -.727 17.116 16.727 -.744 16.727" mask="url(#login-google-f)"/>
    <mask id="login-google-h" fill="#fff">
      <use xlink:href="#login-google-g"/>
    </mask>
    <polygon fill="#4285F4" fill-rule="nonzero" points="17.116 16.727 5.581 8 4.093 6.909 17.116 3.273" mask="url(#login-google-h)"/>
  </g>
</svg>
