<svg xmlns="http://www.w3.org/2000/svg" width="24" height="24" fill="currentColor" viewBox="0 0 24 24">
  <path fill="#333" d="M12 5c-3.309 0-6 2.711-6 6.044A6.067 6.067 0 008.571 16v-.38c0-.38.069-.967.395-1.52a4.337 4.337 0 01-1.252-3.056c0-2.383 1.92-4.317 4.286-4.317 2.366 0 4.286 1.934 4.286 4.317 0 1.191-.48 2.28-1.252 3.056.326.553.395 1.14.395 1.52V16A6.067 6.067 0 0018 11.044C18 7.711 15.309 5 12 5z"/>
  <path fill="#333" d="M12 2c-4.958 0-9 4.144-9 9.226C3 15.32 5.635 18.81 9.235 20c-.115-.57-.23-1.241-.328-1.93-2.52-1.19-4.27-3.824-4.27-6.844 0-4.16 3.305-7.548 7.363-7.548s7.364 3.388 7.364 7.548c0 3.02-1.751 5.654-4.271 6.845A35.688 35.688 0 0114.765 20c3.6-1.191 6.235-4.68 6.235-8.774C21 6.144 16.958 2 12 2z"/>
  <path fill="#333" d="M12 13a2 2 0 100-4 2 2 0 000 4zM12 14c-.581 0-2 .094-2 1.842 0 1.747.421 4.356.66 5.108.239.752.899 1.05 1.34 1.05.441 0 1.1-.296 1.34-1.048s.66-3.362.66-5.109C14 14.094 12.581 14 12 14z"/>
</svg>
