<svg xmlns="http://www.w3.org/2000/svg" width="24" height="24" fill="currentColor" viewBox="0 0 24 24">
  <path fill="#333" d="M11.86 5.7a1.2 1.2 0 01-1.2-1.2V3.06a1.2 1.2 0 112.4 0V4.5a1.2 1.2 0 01-1.2 1.2zM11.86 22.5a1.2 1.2 0 01-1.2-1.2v-1.44a1.2 1.2 0 112.4 0v1.44a1.2 1.2 0 01-1.2 1.2zM11.86 17.22a1.2 1.2 0 01-1.2-1.2V8.34a1.2 1.2 0 112.4 0v7.68a1.2 1.2 0 01-1.2 1.2zM16.18 5.7a1.2 1.2 0 00-1.2 1.2v1.44a1.2 1.2 0 102.4 0V6.9a1.2 1.2 0 00-1.2-1.2zM16.18 10.98a1.2 1.2 0 00-1.2 1.2v4.8a1.2 1.2 0 102.4 0v-4.8a1.2 1.2 0 00-1.2-1.2zM20.02 10.02a1.2 1.2 0 00-1.2 1.2v1.44a1.2 1.2 0 102.4 0v-1.44a1.2 1.2 0 00-1.2-1.2zM7.54 18.18a1.2 1.2 0 01-1.2-1.2v-1.44a1.2 1.2 0 112.4 0v1.44a1.2 1.2 0 01-1.2 1.2zM7.54 12.9a1.2 1.2 0 01-1.2-1.2V6.9a1.2 1.2 0 112.4 0v4.8a1.2 1.2 0 01-1.2 1.2zM3.7 10.02a1.2 1.2 0 011.2 1.2v1.44a1.2 1.2 0 11-2.4 0v-1.44a1.2 1.2 0 011.2-1.2z"/>
</svg>
