<svg xmlns="http://www.w3.org/2000/svg" width="24" height="24" fill="currentColor" viewBox="0 0 24 24">
  <path fill="#333" d="M15.506 16c-.154 0-.231-.077-.385-.154-1.155-.693-2.617-1.077-4.156-1.077-.847 0-1.77.154-2.54.308-.154 0-.308.077-.385.077a.527.527 0 01-.54-.54c0-.307.155-.538.463-.538 1-.232 2.001-.385 3.078-.385 1.77 0 3.387.461 4.773 1.23.154.155.308.232.308.54-.154.385-.385.539-.616.539zm.847-2.174c-.154 0-.308-.077-.462-.153-1.308-.847-3.156-1.309-5.156-1.309-1.001 0-1.925.154-2.618.308-.154.077-.231.077-.385.077a.607.607 0 01-.615-.615c0-.386.153-.54.539-.693.923-.232 1.847-.462 3.156-.462 2.155 0 4.156.539 5.85 1.54.231.154.385.385.385.615-.078.385-.31.692-.694.692zm1-2.463c-.154 0-.231-.077-.462-.154-1.54-.847-3.771-1.385-5.927-1.385-1.077 0-2.232.154-3.233.385-.154 0-.231.078-.462.078-.461.077-.769-.308-.769-.77 0-.461.231-.693.54-.77a16.05 16.05 0 013.925-.463c2.386 0 4.85.54 6.773 1.54.232.154.462.385.462.77-.076.461-.384.77-.847.77z"/>
  <path fill="#333" fill-rule="evenodd" d="M12 4.5a7.5 7.5 0 100 15 7.5 7.5 0 000-15zM3 12a9 9 0 1118 0 9 9 0 01-18 0z" clip-rule="evenodd"/>
</svg>
