<svg width="24" height="24" viewBox="0 0 24 24" fill="none" xmlns="http://www.w3.org/2000/svg">
<path fill-rule="evenodd" clip-rule="evenodd" d="M18.2197 14.4697L20.6893 12L18.2197 9.53033C17.9268 9.23744 17.9268 8.76256 18.2197 8.46967C18.5126 8.17678 18.9874 8.17678 19.2803 8.46967L22.8107 12L19.2803 15.5303C18.9874 15.8232 18.5126 15.8232 18.2197 15.5303C17.9268 15.2374 17.9268 14.7626 18.2197 14.4697ZM11.25 12.75C10.8358 12.75 10.5 12.4142 10.5 12C10.5 11.5858 10.8358 11.25 11.25 11.25H18.75C19.1642 11.25 19.5 11.5858 19.5 12C19.5 12.4142 19.1642 12.75 18.75 12.75H11.25ZM16.864 5.63603C17.1569 5.92893 17.1569 6.4038 16.864 6.69669C16.5711 6.98959 16.0962 6.98959 15.8033 6.6967C12.8744 3.76777 8.12563 3.76777 5.19671 6.69669C2.26777 9.62564 2.26777 14.3744 5.19671 17.3033C8.12564 20.2323 12.8744 20.2323 15.8033 17.3033C16.0962 17.0104 16.5711 17.0104 16.864 17.3033C17.1569 17.5962 17.1569 18.0711 16.864 18.364C13.3492 21.8787 7.65076 21.8787 4.13604 18.364C0.621328 14.8492 0.621328 9.15076 4.13605 5.63604C7.65076 2.12132 13.3492 2.12132 16.864 5.63603Z" fill="currentColor"/>
</svg>
