<svg width="24" height="24" viewBox="0 0 24 24" fill="none" xmlns="http://www.w3.org/2000/svg">
<path fill-rule="evenodd" clip-rule="evenodd" d="M13.5 4.5C13.5 3.51174 14.1637 2.74516 14.9625 2.26588C15.7762 1.77766 16.8519 1.5 18 1.5C19.1481 1.5 20.2237 1.77766 21.0375 2.26588C21.8363 2.74516 22.5 3.51174 22.5 4.5V18C22.5 18.9882 21.8363 19.7549 21.0375 20.2341C20.2237 20.7223 19.1481 21 18 21C16.8519 21 15.7762 20.7223 14.9625 20.2341C14.1637 19.7549 13.5 18.9882 13.5 18V4.5ZM15 4.5C15 4.75437 15.1758 5.1128 15.7343 5.44787C16.2777 5.77398 17.0771 6 18 6C18.923 6 19.7223 5.77398 20.2658 5.44787C20.8242 5.1128 21 4.75437 21 4.5C21 4.24563 20.8242 3.8872 20.2658 3.55213C19.7223 3.22602 18.923 3 18 3C17.0771 3 16.2777 3.22602 15.7343 3.55213C15.1758 3.8872 15 4.24563 15 4.5ZM15 11.2564V13.5C15 13.7544 15.1758 14.1128 15.7343 14.4479C16.2777 14.774 17.0771 15 18 15C18.923 15 19.7223 14.774 20.2658 14.4479C20.8242 14.1128 21 13.7544 21 13.5V11.2564C20.1909 11.7308 19.1306 12 18 12C16.8694 12 15.8091 11.7308 15 11.2564ZM21 9V6.75636C20.1909 7.23076 19.1306 7.5 18 7.5C16.8694 7.5 15.8091 7.23076 15 6.75636V9C15 9.25437 15.1758 9.61279 15.7343 9.94786C16.2777 10.274 17.0771 10.5 18 10.5C18.923 10.5 19.7223 10.274 20.2658 9.94786C20.8242 9.61279 21 9.25437 21 9ZM21 15.7563C20.1909 16.2308 19.1306 16.5 18 16.5C16.8694 16.5 15.8091 16.2308 15 15.7563V18C15 18.2544 15.1758 18.6127 15.7343 18.9478C16.2777 19.274 17.0771 19.5 18 19.5C18.923 19.5 19.7223 19.274 20.2658 18.9478C20.8242 18.6127 21 18.2544 21 18V15.7563ZM1.5 18V13.5C1.5 12.5117 2.16369 11.7452 2.96249 11.2659C3.77619 10.7777 4.8519 10.5 6 10.5C7.1481 10.5 8.22381 10.7777 9.03752 11.2659C9.83631 11.7452 10.5 12.5117 10.5 13.5V18C10.5 18.9882 9.83631 19.7549 9.03752 20.2341C8.22381 20.7223 7.1481 21 6 21C4.8519 21 3.77619 20.7223 2.96249 20.2341C2.16369 19.7549 1.5 18.9882 1.5 18ZM3 13.5C3 13.7544 3.17577 14.1128 3.73422 14.4479C4.27775 14.774 5.07702 15 6 15C6.92298 15 7.72225 14.774 8.26578 14.4479C8.82423 14.1128 9 13.7544 9 13.5C9 13.2456 8.82423 12.8872 8.26578 12.5521C7.72225 12.226 6.92298 12 6 12C5.07702 12 4.27775 12.226 3.73422 12.5521C3.17577 12.8872 3 13.2456 3 13.5ZM6 16.5C4.86946 16.5 3.80911 16.2308 3 15.7563V18C3 18.2544 3.17577 18.6127 3.73422 18.9478C4.27775 19.274 5.07702 19.5 6 19.5C6.92298 19.5 7.72225 19.274 8.26578 18.9478C8.82423 18.6127 9 18.2544 9 18V15.7563C8.19089 16.2308 7.13054 16.5 6 16.5Z" fill="currentColor"/>
</svg>
