<svg width="24" height="24" viewBox="0 0 24 24" fill="none" xmlns="http://www.w3.org/2000/svg">
<path fill-rule="evenodd" clip-rule="evenodd" d="M6 12.0146V16.7101L13.7079 19.2901L20.6392 15.8388C21.1041 15.6072 21.2896 15.04 21.0516 14.5784C20.8169 14.1235 20.2589 13.9435 19.8024 14.1754L18.3397 14.9186C17.9704 15.1062 17.5191 14.959 17.3315 14.5897C17.1438 14.2204 17.291 13.769 17.6603 13.5813L19.1229 12.8381C20.3146 12.2326 21.7716 12.7027 22.3845 13.8906C23.0064 15.0958 22.5219 16.577 21.3078 17.1814L13.8206 20.9097L6 18.2919V19.5H1.5V9H6V10.5136C7.95649 10.5856 9.323 10.9345 10.2405 11.3044C10.7552 11.512 11.1253 11.7249 11.3763 11.896C11.4303 11.9328 11.4787 11.9676 11.5218 12H14.25C15.4926 12 16.5 13.0074 16.5 14.25C16.5 15.4926 15.4926 16.5 14.25 16.5H10.5C10.0858 16.5 9.75 16.1642 9.75 15.75C9.75 15.3358 10.0858 15 10.5 15H14.25C14.6642 15 15 14.6642 15 14.25C15 13.8358 14.6642 13.5 14.25 13.5H10.9303L10.7165 13.2773C10.7129 13.2739 10.7053 13.267 10.6936 13.2571C10.6652 13.233 10.6122 13.1905 10.5312 13.1353C10.3697 13.0251 10.0948 12.863 9.67955 12.6956C8.94864 12.4009 7.77236 12.0855 6 12.0146ZM4.5 17.2336V10.5H3V18H4.5V17.2666C4.49976 17.2556 4.49976 17.2446 4.5 17.2336V17.2336ZM10.5 8.25C10.5009 8.2563 10.5021 8.26092 10.5051 8.26822C10.5111 8.28303 10.5256 8.31079 10.5584 8.34948C10.6268 8.43035 10.7551 8.53538 10.9641 8.63984C11.3824 8.849 12.0128 9 12.75 9C13.4872 9 14.1176 8.849 14.5359 8.63984C14.7449 8.53538 14.8732 8.43035 14.9416 8.34948C14.9744 8.31079 14.9889 8.28303 14.9949 8.26822C14.9979 8.26092 14.9991 8.2563 14.9995 8.25408L15 7.07733C14.3644 7.35041 13.5774 7.5 12.75 7.5C11.9226 7.5 11.1357 7.35041 10.5 7.07733V8.25ZM16.5 8.25C16.5 9.10134 15.8294 9.67017 15.2067 9.98148C14.5392 10.3152 13.6696 10.5 12.75 10.5C11.8304 10.5 10.9608 10.3152 10.2933 9.98148C9.67065 9.67017 9 9.10134 9 8.25V5.25C9 4.39866 9.67065 3.82983 10.2933 3.51852C10.9608 3.18479 11.8304 3 12.75 3C13.6696 3 14.5392 3.18479 15.2067 3.51852C15.8294 3.82983 16.5 4.39866 16.5 5.25C16.5 5.45375 16.5 6.45375 16.5 8.25ZM10.5005 5.24592C10.5 5.24805 10.5 5.24921 10.5 5.25C10.5 5.25079 10.5 5.25195 10.5005 5.25408C10.5009 5.2563 10.5021 5.26092 10.5051 5.26823C10.5111 5.28303 10.5256 5.31079 10.5584 5.34948C10.6268 5.43034 10.7551 5.53538 10.9641 5.63984C11.3824 5.849 12.0128 6 12.75 6C13.4872 6 14.1176 5.849 14.5359 5.63984C14.7449 5.53538 14.8732 5.43034 14.9416 5.34948C14.9744 5.31079 14.9889 5.28303 14.9949 5.26823C14.9979 5.26092 14.9991 5.2563 14.9995 5.25408C15 5.25195 15 5.25079 15 5.25C15 5.24921 15 5.24805 14.9995 5.24592C14.9991 5.2437 14.9979 5.23908 14.9949 5.23177C14.9889 5.21697 14.9744 5.18921 14.9416 5.15052C14.8732 5.06966 14.7449 4.96462 14.5359 4.86016C14.1176 4.651 13.4872 4.5 12.75 4.5C12.0128 4.5 11.3824 4.651 10.9641 4.86016C10.7551 4.96462 10.6268 5.06966 10.5584 5.15052C10.5256 5.18921 10.5111 5.21697 10.5051 5.23177C10.5021 5.23908 10.5009 5.2437 10.5005 5.24592Z" fill="currentColor"/>
</svg>
