<svg width="24" height="24" viewBox="0 0 24 24" fill="none" xmlns="http://www.w3.org/2000/svg">
<path fill-rule="evenodd" clip-rule="evenodd" d="M21 8.40639C20.3682 8.78205 19.5856 9 18.75 9C17.9144 9 17.1318 8.78205 16.5 8.40639V9C16.5 9.77391 17.4681 10.5 18.75 10.5C20.0319 10.5 21 9.77391 21 9V8.40639ZM15 6C15 4.2886 16.7181 3 18.75 3C19.4673 3 20.1581 3.15988 20.7531 3.45861C21.8164 3.9924 22.5 4.93134 22.5 6V9C22.5 10.7114 20.7819 12 18.75 12C16.7181 12 15 10.7114 15 9V6ZM7.50001 10.5V7.49996C7.50001 7.08574 7.83586 6.74996 8.25001 6.74996C8.66416 6.74996 9.00001 7.08574 9.00001 7.49996V12H3.00001V7.49996C3.00001 7.08574 3.33586 6.74996 3.75001 6.74996C4.16416 6.74996 4.50001 7.08574 4.50001 7.49996V10.5H7.50001ZM6.00001 3.87459L2.63589 5.89306C2.2807 6.10618 1.82001 5.991 1.6069 5.63582C1.39379 5.28063 1.50897 4.81994 1.86415 4.60683L6.00001 2.12531L10.1359 4.60683C10.4911 4.81994 10.6062 5.28063 10.3931 5.63582C10.18 5.991 9.71934 6.10618 9.36415 5.89306L6.00001 3.87459ZM2.25 15C1.83578 15 1.5 14.6642 1.5 14.25C1.5 13.8358 1.83578 13.5 2.25 13.5H21.75C22.1642 13.5 22.5 13.8358 22.5 14.25C22.5 14.6642 22.1642 15 21.75 15H2.25ZM21 6C21 5.54816 20.6704 5.09551 20.0802 4.79916C19.6964 4.6065 19.2362 4.5 18.75 4.5C17.4681 4.5 16.5 5.22609 16.5 6C16.5 6.77391 17.4681 7.5 18.75 7.5C20.0319 7.5 21 6.77391 21 6ZM13.5 19.5V16.5C13.5 16.0858 13.8358 15.75 14.25 15.75C14.6642 15.75 15 16.0858 15 16.5V21H9V16.5C9 16.0858 9.33578 15.75 9.75 15.75C10.1642 15.75 10.5 16.0858 10.5 16.5V19.5H13.5Z" fill="currentColor"/>
</svg>
