<svg width="24" height="24" viewBox="0 0 24 24" fill="none" xmlns="http://www.w3.org/2000/svg">
<path fill-rule="evenodd" clip-rule="evenodd" d="M7.5 4.5H15V12H7.5V4.5ZM9 6V10.5H13.5V6H9ZM7.5 15V13.5H15V15H7.5ZM7.5 18V16.5H15V18H7.5ZM18.75 22.5H8.25C6.17894 22.5 4.5 20.8211 4.5 18.75V1.5H18V13.5H21V20.25C21 21.4926 19.9926 22.5 18.75 22.5ZM16.6281 21C16.5451 20.7654 16.5 20.513 16.5 20.25V3H6V18.75C6 19.9926 7.00735 21 8.25 21H16.6281ZM18 15V20.25C18 20.6642 18.3358 21 18.75 21C19.1642 21 19.5 20.6642 19.5 20.25V15H18Z" fill="currentColor"/>
</svg>
