<svg width="24" height="24" viewBox="0 0 24 24" fill="none" xmlns="http://www.w3.org/2000/svg">
<path fill-rule="evenodd" clip-rule="evenodd" d="M11.5302 1.6606L12 1.29004L12.6844 1.82591L12.9778 2.04609L13.2824 2.26926L13.6379 2.52294L13.8315 2.65803C14.6363 3.21493 15.6167 3.83506 16.4214 4.18135C17.1254 4.48422 18.1035 4.7535 18.9354 4.95045L19.611 5.10255L20.3826 5.25709L21 5.3679V13.4952C21 14.8525 20.3798 16.091 19.5507 17.1461C18.7183 18.2054 17.6271 19.1426 16.5661 19.9144C15.6075 20.6116 14.6524 21.1887 13.8936 21.6121L13.4554 21.8517L12.9514 22.1151L12.4132 22.3801L12 22.5691L11.5135 22.3452L11.0487 22.1151L10.5446 21.8517L10.3518 21.7474C9.55981 21.3154 8.49905 20.689 7.43387 19.9144C6.37287 19.1426 5.28166 18.2054 4.44933 17.1461C3.62026 16.091 3 14.8525 3 13.4952V5.3679L4.03035 5.17716L4.82461 5.00624C4.90244 4.98847 4.98256 4.96986 5.06455 4.95045C5.8965 4.7535 6.87471 4.48422 7.57856 4.18135C8.28272 3.87835 9.12132 3.36568 9.85915 2.86917L10.3621 2.52294L10.7176 2.26926L11.1523 1.94914L11.5302 1.6606ZM12.341 3.43944L12 3.18828L11.659 3.43944L11.2486 3.73323C11.1753 3.78492 11.0996 3.83778 11.022 3.89149C10.2028 4.4584 9.12065 5.15077 8.17144 5.55921C7.34151 5.91633 6.25722 6.20956 5.41011 6.4101L5.01301 6.50149L4.5 6.6121V13.4952C4.5 14.388 4.91099 15.3058 5.6288 16.2194C6.34334 17.1287 7.31463 17.9728 8.31613 18.7012C9.20264 19.346 10.0926 19.8856 10.8097 20.2867L11.253 20.5294L11.7291 20.7783L12 20.914L12.4167 20.7034L12.747 20.5294L12.9299 20.4305C13.6848 20.0188 14.6865 19.4266 15.6839 18.7012C16.6854 17.9728 17.6567 17.1287 18.3713 16.2194C19.089 15.3058 19.5 14.388 19.5 13.4952V6.6121L18.987 6.50149L18.59 6.4101C17.7427 6.20956 16.6585 5.91633 15.8286 5.55921C14.9849 5.19615 14.036 4.60875 13.2603 4.08454L12.7514 3.73323L12.341 3.43944ZM8.46967 8.25971C8.73593 7.99345 9.1526 7.96924 9.44621 8.18709L9.53033 8.25971L12 10.7293L14.4697 8.25971C14.7626 7.96682 15.2374 7.96682 15.5303 8.25971C15.7966 8.52597 15.8208 8.94264 15.6029 9.23625L15.5303 9.32037L13.0607 11.79L15.5303 14.2597C15.8232 14.5526 15.8232 15.0274 15.5303 15.3203C15.264 15.5866 14.8474 15.6108 14.5538 15.393L14.4697 15.3203L12 12.8507L9.53033 15.3203C9.23744 15.6132 8.76256 15.6132 8.46967 15.3203C8.20341 15.0541 8.1792 14.6375 8.39705 14.3439L8.46967 14.2597L10.9393 11.79L8.46967 9.32037C8.17678 9.02748 8.17678 8.5526 8.46967 8.25971Z" fill="currentColor"/>
</svg>
