<svg width="24" height="24" viewBox="0 0 24 24" fill="none" xmlns="http://www.w3.org/2000/svg">
<path fill-rule="evenodd" clip-rule="evenodd" d="M17.2497 16.5C16.7789 15.8733 16.5 15.0942 16.5 14.25V11.25C16.5 9.17891 14.8211 7.5 12.75 7.5H11.25C9.17894 7.5 7.5 9.17894 7.5 11.25V14.25C7.5 15.0942 7.22105 15.8733 6.75029 16.5H17.2497ZM3.75 16.5C4.99266 16.5 6 15.4927 6 14.25V11.25C6 8.35051 8.35051 6 11.25 6H12.75C15.6495 6 18 8.35049 18 11.25V14.25C18 15.4927 19.0073 16.5 20.25 16.5H21V18H3V16.5H3.75ZM10.5 4.5C10.5 4.91421 10.1642 5.25 9.75 5.25C9.33579 5.25 9 4.91421 9 4.5C9 2.84314 10.3431 1.5 12 1.5C13.6569 1.5 15 2.84314 15 4.5C15 4.91421 14.6642 5.25 14.25 5.25C13.8358 5.25 13.5 4.91421 13.5 4.5C13.5 3.67157 12.8284 3 12 3C11.1716 3 10.5 3.67157 10.5 4.5ZM9.87802 19.5C10.1869 20.3739 11.0203 21 12 21C12.9797 21 13.8131 20.3739 14.122 19.5H15.675C15.3275 21.2117 13.8142 22.5 12 22.5C10.1858 22.5 8.67246 21.2117 8.32501 19.5H9.87802Z" fill="currentColor"/>
</svg>
