<svg width="24" height="24" viewBox="0 0 24 24" fill="none" xmlns="http://www.w3.org/2000/svg">
<path fill-rule="evenodd" clip-rule="evenodd" d="M6.26572 6.24895L6.24893 6.26574C5.5634 6.9584 5.4196 7.98551 5.81753 8.81848L8.81847 5.81754C7.9855 5.41961 6.95838 5.56341 6.26572 6.24895ZM4.1358 7.31778L3.07536 6.25735C2.19668 5.37865 2.19668 3.95405 3.07536 3.07535C3.95405 2.19668 5.37865 2.19668 6.25735 3.07536L7.31778 4.13581C8.24491 4.00405 9.21191 4.21956 10.0086 4.78234C10.8538 4.35154 11.9143 4.48966 12.6213 5.19669L20.0459 12.6213C20.9246 13.5 20.9246 14.9246 20.0459 15.8033L15.8033 20.0459C14.9246 20.9246 13.5 20.9246 12.6213 20.0459L5.19668 12.6213C4.48964 11.9143 4.35153 10.8538 4.78234 10.0086C4.21955 9.2119 4.00403 8.24491 4.1358 7.31778ZM5.18529 5.20807L5.19666 5.19665L5.20805 5.1853L5.72701 4.66635L5.19669 4.13602C4.90379 3.84313 4.42891 3.84313 4.13602 4.13601C3.84312 4.42891 3.84312 4.90379 4.13602 5.19669L4.66635 5.72701L5.18529 5.20807ZM16.8639 11.5606L15.8033 10.5L14.2123 12.091C13.9194 12.3839 13.4445 12.3839 13.1516 12.091C12.8587 11.7981 12.8587 11.3232 13.1516 11.0303L14.7426 9.43931L13.6819 8.37866L13.1516 8.909C12.8587 9.20189 12.3838 9.20189 12.0909 8.909C11.798 8.6161 11.798 8.14123 12.0909 7.84834L12.6213 7.318L11.5606 6.25735C11.2677 5.96446 10.7929 5.96446 10.5 6.25735L6.25734 10.5C5.96445 10.7929 5.96445 11.2678 6.25734 11.5607L13.682 18.9853C13.9749 19.2782 14.4497 19.2782 14.7426 18.9853L18.9853 14.7426C19.2782 14.4497 19.2782 13.9749 18.9853 13.682L17.9246 12.6213L17.3942 13.1517C17.1013 13.4446 16.6265 13.4446 16.3336 13.1517C16.0407 12.8588 16.0407 12.3839 16.3336 12.091L16.8639 11.5606Z" fill="currentColor"/>
</svg>
