<svg width="24" height="24" viewBox="0 0 24 24" fill="none" xmlns="http://www.w3.org/2000/svg">
<path fill-rule="evenodd" clip-rule="evenodd" d="M12 1.36935L22.1432 7.61124C22.4958 7.82834 22.6059 8.29029 22.3887 8.64306C22.1717 8.99583 21.7097 9.10582 21.357 8.88873L12 3.13062L2.64309 8.88873C2.29032 9.10582 1.82837 8.99583 1.61127 8.64306C1.39418 8.29029 1.50417 7.82834 1.85694 7.61124L12 1.36935ZM15.0002 16.5V20.25C15.0002 20.6642 14.6643 21 14.2501 21C13.8359 21 13.5001 20.6642 13.5001 20.25V16.5C13.5001 16.0858 13.1643 15.75 12.7501 15.75H11.2501C10.8359 15.75 10.5001 16.0858 10.5001 16.5V20.25C10.5001 20.6642 10.1643 21 9.75009 21C9.33588 21 9.00009 20.6642 9.00009 20.25V16.5C9.00009 15.2574 10.0074 14.25 11.2501 14.25H12.7501C13.9927 14.25 15.0002 15.2574 15.0002 16.5ZM15.0002 10.5C15.0002 12.1569 13.6569 13.5 12.0001 13.5C10.3432 13.5 9.00009 12.1569 9.00009 10.5C9.00009 8.84314 10.3432 7.5 12.0001 7.5C13.6569 7.5 15.0002 8.84314 15.0002 10.5ZM10.5001 10.5C10.5001 11.3284 11.1717 12 12.0001 12C12.8285 12 13.5001 11.3284 13.5001 10.5C13.5001 9.67158 12.8285 9 12.0001 9C11.1717 9 10.5001 9.67158 10.5001 10.5ZM19.5 10.5V21H17.25C16.8359 21 16.5 20.6642 16.5 20.25C16.5 19.8358 16.8359 19.5 17.25 19.5H18V10.5C18 10.0858 18.3359 9.75 18.75 9.75C19.1642 9.75 19.5 10.0858 19.5 10.5ZM5.25 9.75C5.66421 9.75 6 10.0858 6 10.5V19.5H6.75C7.16421 19.5 7.5 19.8358 7.5 20.25C7.5 20.6642 7.16421 21 6.75 21H4.5V10.5C4.5 10.0858 4.83579 9.75 5.25 9.75Z" fill="currentColor"/>
</svg>
