<svg width="24" height="24" viewBox="0 0 24 24" fill="none" xmlns="http://www.w3.org/2000/svg">
<path fill-rule="evenodd" clip-rule="evenodd" d="M21 3V9C21 9.41421 20.6642 9.75 20.25 9.75C19.8358 9.75 19.5 9.41421 19.5 9V5.56066L11.7803 13.2803C11.4874 13.5732 11.0126 13.5732 10.7197 13.2803C10.4268 12.9874 10.4268 12.5126 10.7197 12.2197L18.4394 4.5H15C14.5858 4.5 14.25 4.16421 14.25 3.75C14.25 3.33579 14.5858 3 15 3H21ZM21 13.5V15.75C21 18.6495 18.6495 21 15.75 21H8.25C5.3505 21 3 18.6495 3 15.75V8.25C3 5.3505 5.3505 3 8.25 3H10.5C10.9142 3 11.25 3.33579 11.25 3.75C11.25 4.16421 10.9142 4.5 10.5 4.5H8.25C6.17894 4.5 4.5 6.17894 4.5 8.25V15.75C4.5 17.821 6.17894 19.5 8.25 19.5H15.75C17.821 19.5 19.5 17.821 19.5 15.75V13.5C19.5 13.0858 19.8358 12.75 20.25 12.75C20.6642 12.75 21 13.0858 21 13.5Z" fill="currentColor"/>
</svg>
