<svg width="24" height="24" viewBox="0 0 24 24" fill="none" xmlns="http://www.w3.org/2000/svg">
<path fill-rule="evenodd" clip-rule="evenodd" d="M16.5 1.5H18.75C20.821 1.5 22.5 3.17894 22.5 5.25V7.5H20.25C18.1789 7.5 16.5 5.82106 16.5 3.75V1.5ZM18 3V3.75C18 4.99265 19.0074 6 20.25 6H21V5.25C21 4.00735 19.9926 3 18.75 3H18ZM16.5 17.9469C15.781 17.844 15.109 17.5956 14.5149 17.2322C13.9932 17.5845 13.3937 17.8302 12.7475 17.9382C12.7491 17.9586 12.75 17.9793 12.75 18V21.75C12.75 22.1643 12.4142 22.5 12 22.5C11.5858 22.5 11.25 22.1643 11.25 21.75V18C11.25 17.9793 11.2509 17.9586 11.2525 17.9382C10.545 17.82 9.89338 17.5366 9.33864 17.1291C9.19308 17.1542 9.04267 17.1648 8.88889 17.1595C8.68758 17.1528 8.49315 17.2333 8.35561 17.3805C8.10927 17.6441 7.81423 17.8329 7.49815 17.9469C7.49937 17.9644 7.5 17.9821 7.5 18V21.75C7.5 22.1643 7.16421 22.5 6.75 22.5C6.33579 22.5 6 22.1643 6 21.75V18C6 17.9821 6.00063 17.9644 6.00184 17.9469C5.68576 17.8329 5.39074 17.6441 5.1444 17.3805C5.00685 17.2333 4.81242 17.1528 4.6111 17.1595C3.33967 17.2026 2.29747 16.1604 2.34043 14.8889C2.34724 14.6876 2.26671 14.4932 2.11954 14.3556C1.19012 13.487 1.19012 12.0131 2.11954 11.1444C2.26671 11.0069 2.34724 10.8125 2.34043 10.6111C2.29747 9.3397 3.33967 8.29749 4.6111 8.34046C4.81242 8.34726 5.00685 8.26673 5.1444 8.11956C6.01263 7.1906 7.48552 7.19015 8.35434 8.11821C8.48532 7.57516 8.73444 7.0785 9.07237 6.65681C9.02502 6.4453 9 6.22546 9 6.00004C9 4.34319 10.3431 3.00005 12 3.00005C13.6569 3.00005 15 4.34319 15 6.00004C15 6.22546 14.975 6.4453 14.9276 6.65681C15.1945 6.98986 15.406 7.36968 15.5476 7.7822C16.0815 7.59931 16.6542 7.50004 17.25 7.50004C20.1495 7.50004 22.5 9.85054 22.5 12.75C22.5 15.3949 20.5441 17.583 18 17.9469V21.75C18 22.1643 17.6641 22.5 17.25 22.5C16.8358 22.5 16.5 22.1643 16.5 21.75V17.9469ZM9.80445 8.50584C9.76881 8.66487 9.75 8.83026 9.75 9.00004C9.75 9.74335 10.1104 10.4025 10.6661 10.8122C10.3453 10.9717 10.057 11.187 9.81412 11.4453C9.70665 11.5596 9.60804 11.6823 9.51939 11.8123C9.19162 12.2932 9 12.8742 9 13.5C9 14.1665 9.21729 14.7821 9.58489 15.2801C9.88687 15.6891 10.2903 16.0187 10.758 16.2317C11.1365 16.404 11.557 16.5 12 16.5C12.4648 16.5 12.9049 16.3944 13.2976 16.2057C13.7571 15.9849 14.1517 15.6505 14.4449 15.2389C14.7944 14.7484 15 14.1482 15 13.5C15 12.8742 14.8084 12.2932 14.4806 11.8123C14.3085 11.5598 14.0988 11.3349 13.8595 11.1457C13.6971 11.0172 13.5211 10.9052 13.3339 10.8122C13.8896 10.4025 14.25 9.74335 14.25 9.00004C14.25 8.82222 14.2294 8.64921 14.1904 8.48328C14.133 8.23899 14.0357 8.01004 13.9059 7.80367C13.7037 7.48228 13.4225 7.21563 13.0896 7.03099C13.261 6.84984 13.3878 6.62595 13.4523 6.37696C13.4834 6.25653 13.5 6.13023 13.5 6.00004C13.5 5.17163 12.8284 4.50005 12 4.50005C11.1716 4.50005 10.5 5.17163 10.5 6.00004C10.5 6.13023 10.5166 6.25653 10.5477 6.37696C10.6122 6.62595 10.739 6.84984 10.9104 7.03099C10.5775 7.21563 10.2963 7.48228 10.0941 7.80367C9.96028 8.01639 9.86109 8.25307 9.80445 8.50584ZM16.5 13.5C16.5 14.4863 16.1827 15.3984 15.6447 16.14C16.1313 16.3709 16.6755 16.5 17.25 16.5C19.321 16.5 21 14.8211 21 12.75C21 10.679 19.321 9.00004 17.25 9.00004C16.7115 9.00004 16.1995 9.11355 15.7366 9.31792C15.6996 9.75927 15.5859 10.1788 15.4093 10.5632C16.0882 11.3506 16.5 12.3767 16.5 13.5ZM7.25973 16.3563C7.50127 16.0978 7.79853 15.9046 8.12418 15.788C7.72761 15.1176 7.5 14.3354 7.5 13.5C7.5 12.3767 7.91169 11.3506 8.59066 10.5632C8.47617 10.314 8.38813 10.0499 8.33025 9.77473C7.92424 9.6728 7.55137 9.45585 7.25973 9.14379C6.98395 8.84874 6.51604 8.84874 6.24028 9.14379C5.80702 9.60735 5.19457 9.86103 4.56045 9.83961C4.15681 9.82596 3.82594 10.1568 3.83958 10.5605C3.86101 11.1946 3.60732 11.8071 3.14377 12.2403C2.84871 12.5161 2.84871 12.984 3.14377 13.2597C3.60732 13.693 3.86101 14.3055 3.83958 14.9396C3.82594 15.3432 4.1568 15.6741 4.56045 15.6604C5.19457 15.639 5.80702 15.8926 6.24028 16.3563C6.51604 16.6513 6.98395 16.6513 7.25973 16.3563Z" fill="currentColor"/>
</svg>
