<svg width="24" height="24" viewBox="0 0 24 24" fill="none" xmlns="http://www.w3.org/2000/svg">
<path fill-rule="evenodd" clip-rule="evenodd" d="M4.5 16.5V10.5H6.74496C7.99217 10.5 9.06118 10.98 9.06118 12.4939C9.06118 13.9616 7.95653 14.5985 6.74496 14.5985H6.03228V16.5H4.5ZM6.03228 13.3431H6.6737C7.27947 13.3431 7.56454 13.0292 7.56454 12.4939C7.56454 11.9585 7.24384 11.7554 6.6737 11.7554H6.03228V13.3431ZM10.0069 16.5V10.5H11.7174C13.4813 10.5 14.6929 11.3492 14.6929 13.4723C14.6929 15.5954 13.4813 16.5 11.8065 16.5H10.0069ZM11.5392 15.2262H11.6283C12.4657 15.2262 13.125 14.8754 13.125 13.4723C13.125 12.0692 12.4657 11.7739 11.6283 11.7739H11.5392V15.2262ZM15.7227 16.5V10.5H19.5V11.8292H17.2551V12.9739H19.1793V14.3031H17.2551V16.5H15.7227ZM15 4.06069V6.00002H16.9393L15 4.06069ZM14.7803 1.7197L19.2804 6.2197C19.4949 6.4342 19.5589 6.75677 19.4429 7.03703C19.3267 7.31729 19.0533 7.50002 18.75 7.50002H13.5V2.25002C13.5 1.94668 13.6827 1.6732 13.963 1.55711C14.2432 1.44103 14.5658 1.5052 14.7803 1.7197ZM18 21V18.75C18 18.3358 18.3358 18 18.75 18C19.1642 18 19.5 18.3358 19.5 18.75V22.5H4.5V18.75C4.5 18.3358 4.83579 18 5.25 18C5.66421 18 6 18.3358 6 18.75V21H18ZM6 3.00002V8.25002C6 8.66423 5.66421 9.00002 5.25 9.00002C4.83579 9.00002 4.5 8.66423 4.5 8.25002V1.50002H11.25C11.6642 1.50002 12 1.83581 12 2.25002C12 2.66423 11.6642 3.00002 11.25 3.00002H6Z" fill="currentColor"/>
</svg>
