<svg width="24" height="24" viewBox="0 0 24 24" fill="none" xmlns="http://www.w3.org/2000/svg">
<path fill-rule="evenodd" clip-rule="evenodd" d="M10.5 6.74997C10.5 7.16419 10.1642 7.49997 9.75 7.49997C9.33579 7.49997 9 7.16419 9 6.74997C9 5.50733 7.99264 4.49997 6.75 4.49997C5.50736 4.49997 4.5 5.50733 4.5 6.74997C4.5 7.99261 5.50736 8.99997 6.75 8.99997C7.16421 8.99997 7.5 9.33576 7.5 9.74997C7.5 10.1642 7.16421 10.5 6.75 10.5C4.67893 10.5 3 8.82104 3 6.74997C3 4.6789 4.67893 2.99997 6.75 2.99997C8.82107 2.99997 10.5 4.6789 10.5 6.74997ZM13.5 17.25C13.5 16.8358 13.8358 16.5 14.25 16.5C14.6642 16.5 15 16.8358 15 17.25C15 18.4927 16.0073 19.5 17.25 19.5C18.4927 19.5 19.5 18.4927 19.5 17.25C19.5 16.0073 18.4927 15 17.25 15C16.8358 15 16.5 14.6642 16.5 14.25C16.5 13.8358 16.8358 13.5 17.25 13.5C19.3211 13.5 21 15.1789 21 17.25C21 19.3211 19.3211 21 17.25 21C15.1789 21 13.5 19.3211 13.5 17.25ZM7.38275 20.6526C7.16037 21.0021 6.6968 21.1051 6.34734 20.8827C5.99789 20.6603 5.89487 20.1968 6.11725 19.8473L16.6173 3.34732C16.8396 2.99786 17.3032 2.89485 17.6527 3.11723C18.0021 3.33961 18.1051 3.80317 17.8827 4.15263L7.38275 20.6526Z" fill="currentColor"/>
</svg>
