<svg width="24" height="24" viewBox="0 0 24 24" fill="none" xmlns="http://www.w3.org/2000/svg">
<path fill-rule="evenodd" clip-rule="evenodd" d="M6.75 1.93939L12.3107 7.50004L8.78032 11.0304C8.48743 11.3233 8.01257 11.3233 7.71968 11.0304C7.42677 10.7375 7.42677 10.2626 7.71968 9.96972L10.1893 7.50004L6.75 4.06071L4.5 6.31071V8.25004C4.5 14.4633 9.53679 19.5 15.75 19.5H16.9394L19.1894 17.25L15.75 13.8107L13.2803 16.2804C12.9874 16.5732 12.5126 16.5732 12.2197 16.2804C11.9268 15.9875 11.9268 15.5126 12.2197 15.2198L15.75 11.6894L21.3106 17.25L17.5606 21H15.75C8.70837 21 3 15.2916 3 8.25004V5.68939L6.75 1.93939Z" fill="currentColor"/>
</svg>
