<svg width="24" height="24" viewBox="0 0 24 24" fill="none" xmlns="http://www.w3.org/2000/svg">
<path fill-rule="evenodd" clip-rule="evenodd" d="M11.25 1.5C12.4926 1.5 13.5 2.50735 13.5 3.75C13.5 4.99265 12.4926 6 11.25 6C10.0074 6 9 4.99265 9 3.75C9 2.50735 10.0074 1.5 11.25 1.5ZM10.5 3.75C10.5 4.16421 10.8358 4.5 11.25 4.5C11.6642 4.5 12 4.16421 12 3.75C12 3.33579 11.6642 3 11.25 3C10.8358 3 10.5 3.33579 10.5 3.75ZM19.5 5.4072V7.93931L20.5607 8.99997H22.5V15H19.425C19.0776 16.7116 17.5643 18 15.75 18H9.75002C7.35143 18 5.32853 16.3914 4.70118 14.1942C4.44011 14.1486 4.10087 14.0645 3.73583 13.9081C2.92649 13.5612 1.99499 12.8566 1.53851 11.4871C1.40752 11.0942 1.6199 10.6694 2.01285 10.5385C2.40581 10.4075 2.83055 10.6198 2.96154 11.0128C3.25505 11.8933 3.82356 12.3137 4.32671 12.5293C4.38627 12.5549 4.44497 12.5775 4.50219 12.5975C4.58285 9.76854 6.90152 7.49997 9.75002 7.49997H12.75C13.1642 7.49997 13.5 7.83574 13.5 8.24997C13.5 8.66418 13.1642 8.99997 12.75 8.99997H9.75002C7.67895 8.99997 6.00002 10.6789 6.00002 12.75C6.00002 14.821 7.67895 16.5 9.75002 16.5H15.75C16.9926 16.5 18 15.4926 18 14.25V13.5L18.75 13.5H21V10.5H19.9394L18 8.56062V5.8215L15.5762 8.7301C15.311 9.04831 14.8381 9.0913 14.5199 8.82613C14.2017 8.56097 14.1587 8.08803 14.4239 7.76982L17.1129 4.54294C17.9213 3.57296 19.5 4.14455 19.5 5.4072ZM9.75 10.5H12.75C13.1642 10.5 13.5 10.8358 13.5 11.25C13.5 11.6642 13.1642 12 12.75 12H9.75C9.33579 12 9 11.6642 9 11.25C9 10.8358 9.33579 10.5 9.75 10.5ZM18 10.875C18 11.4963 17.4963 12 16.875 12C16.2537 12 15.75 11.4963 15.75 10.875C15.75 10.2537 16.2537 9.75 16.875 9.75C17.4963 9.75 18 10.2537 18 10.875ZM8.25 18.75C8.66421 18.75 9 19.0858 9 19.5C9 19.9142 9.33579 20.25 9.75 20.25C10.1642 20.25 10.5 19.9142 10.5 19.5C10.5 19.0858 10.8358 18.75 11.25 18.75C11.6642 18.75 12 19.0858 12 19.5C12 20.7426 10.9926 21.75 9.75 21.75C8.50736 21.75 7.5 20.7426 7.5 19.5C7.5 19.0858 7.83579 18.75 8.25 18.75ZM15 19.5C15 19.9142 15.3359 20.25 15.75 20.25C16.1642 20.25 16.5 19.9142 16.5 19.5C16.5 19.0858 16.8359 18.75 17.25 18.75C17.6642 18.75 18 19.0858 18 19.5C18 20.7426 16.9926 21.75 15.75 21.75C14.5074 21.75 13.5 20.7426 13.5 19.5C13.5 19.0858 13.8358 18.75 14.25 18.75C14.6642 18.75 15 19.0858 15 19.5Z" fill="currentColor"/>
</svg>
