<svg width="24" height="24" viewBox="0 0 24 24" fill="none" xmlns="http://www.w3.org/2000/svg">
<path fill-rule="evenodd" clip-rule="evenodd" d="M20.283 18H22.5V22.5H1.5V18H3.71696L1.53163 10.7155C1.48451 10.5584 1.49017 10.3902 1.54775 10.2366L3.30652 5.54661C3.72028 4.44326 4.89598 3.8259 6.03917 4.1117C7.34914 4.43919 8.10304 5.81256 7.67605 7.09354L6.71152 9.98715C6.58052 10.3801 6.15578 10.5925 5.76283 10.4615C5.36987 10.3305 5.1575 9.90578 5.28848 9.51282L6.25303 6.61922C6.40372 6.16714 6.13766 5.68248 5.67536 5.56691C5.27194 5.46605 4.85702 5.68392 4.71101 6.07329L3.04102 10.5266L5.21837 17.7845C5.2399 17.8562 5.25017 17.9287 5.2502 18H9.87863C9.98814 17.0744 9.71224 16.5387 9.45511 16.2302L8.75476 15.7087L8.75624 15.7094L8.25002 15.5406V12.75C8.25002 12.3358 7.91423 12 7.50002 12C7.08581 12 6.75002 12.3358 6.75002 12.75V14.25C6.75002 14.6642 6.41423 15 6.00002 15C5.58581 15 5.25002 14.6642 5.25002 14.25V12.75C5.25002 11.5074 6.25738 10.5 7.50002 10.5C8.74267 10.5 9.75002 11.5074 9.75002 12.75V14.5354C10.0006 14.6863 10.3171 14.9215 10.6074 15.2698C11.1178 15.8823 11.4884 16.7745 11.3858 18H12.6143C12.5116 16.7745 12.8823 15.8823 13.3926 15.2698C13.6829 14.9215 13.9995 14.6863 14.25 14.5354V12.75C14.25 11.5074 15.2574 10.5 16.5 10.5C17.7426 10.5 18.75 11.5074 18.75 12.75V14.25C18.75 14.6642 18.4142 15 18 15C17.5859 15 17.25 14.6642 17.25 14.25V12.75C17.25 12.3358 16.9142 12 16.5 12C16.0859 12 15.75 12.3358 15.75 12.75V15.5406L15.2438 15.7094L15.2453 15.7087L14.5449 16.2302C14.2878 16.5387 14.0119 17.0744 14.1214 18H18.7499C18.7499 17.9287 18.7602 17.8562 18.7817 17.7845L20.9591 10.5266L19.289 6.07329C19.143 5.68392 18.7281 5.46605 18.3246 5.56691C17.8623 5.68248 17.5964 6.16714 17.747 6.61922L18.7116 9.51282C18.8426 9.90578 18.6302 10.3305 18.2372 10.4615C17.8443 10.5925 17.4195 10.3801 17.2886 9.98715L16.3239 7.09354C15.897 5.81256 16.6509 4.43919 17.9609 4.1117C19.104 3.8259 20.2797 4.44326 20.6936 5.54661L22.4523 10.2366C22.5099 10.3902 22.5155 10.5584 22.4684 10.7155L20.283 18ZM13.483 19.5H12.75V21H21V19.5H13.5161C13.505 19.5002 13.494 19.5002 13.483 19.5H13.483ZM10.5171 19.5C10.5061 19.5002 10.495 19.5002 10.4839 19.5H3.00002V21H11.25V19.5H10.5171H10.5171ZM12 1.41147L15.3354 3.07917C15.7059 3.26442 15.8561 3.71491 15.6708 4.0854C15.4856 4.45588 15.0351 4.60605 14.6646 4.42081L12 3.08852L9.33541 4.42081C8.96492 4.60605 8.51443 4.45588 8.32918 4.0854C8.14394 3.71491 8.29411 3.26442 8.66459 3.07917L12 1.41147ZM9.75002 5.25C10.1642 5.25 10.5 5.58579 10.5 6V7.5H13.5V6C13.5 5.58579 13.8358 5.25 14.25 5.25C14.6642 5.25 15 5.58579 15 6V9H9.00002V6C9.00002 5.58579 9.33581 5.25 9.75002 5.25ZM8.75624 15.7094L9.45511 16.2302C9.28834 16.03 9.10312 15.8949 8.9596 15.8105C8.88856 15.7688 8.83031 15.7409 8.79374 15.7248C8.77556 15.7169 8.76185 15.7115 8.75624 15.7094ZM15.2438 15.7094C15.2382 15.7115 15.2244 15.7169 15.2063 15.7248C15.1697 15.7409 15.1115 15.7688 15.0404 15.8105C14.8969 15.8949 14.7117 16.03 14.5449 16.2302L15.2438 15.7094Z" fill="currentColor"/>
</svg>
