<svg xmlns="http://www.w3.org/2000/svg" width="24" height="24" viewBox="0 0 24 24">
  <path fill-rule="evenodd" d="M5.25011,9.74997 C5.66432,9.74997 6.00011,10.0857 6.00011,10.5 L6.00011,19.5 L14.25,19.5 C14.6643,19.5 15,19.8358 15,20.25 C15,20.6643 14.6643,21 14.25,21 L4.50011,21 L4.50011,10.5 C4.50011,10.0857 4.8359,9.74997 5.25011,9.74997 Z M21.6224,12.5815 L21.9034,13 L21.5570185,13.5125852 L21.5570185,13.5125852 L21.3615496,13.7782272 L21.3615496,13.7782272 L21.2034568,13.9820096 L21.2034568,13.9820096 L21.1114,14.097 C20.7914,14.4922 20.3272,15.0208 19.7507,15.5517 C18.6246,16.5888 16.9458,17.75001 15,17.75001 C13.0542,17.75001 11.3754,16.5888 10.2493,15.5517 C9.74488875,15.0871625 9.32644187,14.6243859 9.01531648,14.2511971 L8.7965612,13.9820096 L8.7965612,13.9820096 L8.5728212,13.6909424 L8.5728212,13.6909424 L8.37737,13.4181 L8.09656,13 L8.47639185,12.4407296 L8.47639185,12.4407296 L8.6384748,12.2218224 L8.6384748,12.2218224 L8.88861,11.9031 L8.88861,11.9031 C9.20864,11.5078 9.67283,10.9792 10.2493,10.4483 C11.3754,9.41122 13.0542,8.25001 15,8.25001 C16.9458,8.25001 18.6246,9.41122 19.7507,10.4483 C20.2551375,10.9128375 20.6735953,11.3756141 20.9847029,11.7488699 L21.2034568,12.0180512 L21.2034568,12.0180512 L21.4272112,12.3090968 L21.4272112,12.3090968 L21.6224,12.5815 Z M15,9.75001 C13.6321,9.75001 12.3109,10.5888 11.2654,11.5517 C10.8288571,11.9537857 10.4619633,12.3575612 10.1851848,12.6881507 L9.93253,13 L9.93253,13 L10.0544,13.1531 L10.0544,13.1531 L10.3309889,13.4829327 C10.5861959,13.7769837 10.9016143,14.1132286 11.2654,14.4483 C12.3109,15.4112 13.6321,16.25001 15,16.25001 C16.3679,16.25001 17.6891,15.4112 18.7346,14.4483 C19.0983857,14.1132286 19.4138041,13.7769837 19.6690111,13.4829327 L19.9456,13.1531 L19.9456,13.1531 L20.0675,13 L20.0675,13 L19.9456,12.847 L19.9456,12.847 C19.6584,12.4922 19.2439,12.0208 18.7346,11.5517 C17.6891,10.5888 16.3679,9.75001 15,9.75001 Z M15,10.75 C16.2426,10.75 17.25,11.7573 17.25,13 C17.25,14.2426 16.2426,15.25 15,15.25 C13.7574,15.25 12.75,14.2426 12.75,13 C12.75,11.7573 13.7574,10.75 15,10.75 Z M15,12.25 C14.5858,12.25 14.25,12.5858 14.25,13 C14.25,13.4142 14.5858,13.75 15,13.75 C15.4142,13.75 15.75,13.4142 15.75,13 C15.75,12.5858 15.4142,12.25 15,12.25 Z M12,1.36932 L22.1432,7.61121 C22.4958,7.8283 22.6059,8.29026 22.3887,8.64303 C22.1717,8.9958 21.7097,9.10579 21.357,8.8887 L12,3.13059 L2.64311,8.8887 C2.29034,9.10579 1.82838,8.9958 1.61129,8.64303 C1.3942,8.29026 1.50419,7.8283 1.85696,7.61121 L12,1.36932 Z" fill="currentColor" />
</svg>