<svg width="24" height="24" viewBox="0 0 24 24" fill="none" xmlns="http://www.w3.org/2000/svg">
<path fill-rule="evenodd" clip-rule="evenodd" d="M15.5304 9.96968C15.8232 10.2626 15.8232 10.7374 15.5304 11.0303L10.5 16.0606L7.71968 13.2803C7.42677 12.9874 7.42677 12.5126 7.71968 12.2197C8.01257 11.9268 8.48743 11.9268 8.78032 12.2197L10.5 13.9393L14.4697 9.96968C14.7626 9.67677 15.2374 9.67677 15.5304 9.96968ZM5.3263 9.95026C5.83356 6.93362 8.51328 4.5 12 4.5C15.0472 4.5 17.6613 6.19062 18.5988 8.7263C20.802 9.63204 22.5 11.554 22.5 13.8409C22.5 17.0894 19.4911 19.5 15.75 19.5H6.75C5.04974 19.5 3.71239 18.9639 2.80304 18.0091C1.90092 17.062 1.5 15.7869 1.5 14.4545C1.5 12.4894 2.97999 10.3062 5.3263 9.95026ZM12 6C9.04385 6 6.90306 8.18975 6.74858 10.6961L6.70519 11.4H6C4.23319 11.4 3 12.9908 3 14.4545C3 15.4946 3.31057 16.3671 3.8892 16.9746C4.46059 17.5746 5.37326 18 6.75 18H15.75C18.9321 18 21 16.0149 21 13.8409C21 12.2655 19.7285 10.708 17.7495 10.0069L17.3901 9.87963L17.2812 9.51425C16.684 7.51098 14.6306 6 12 6Z" fill="currentColor"/>
</svg>
