<svg width="24" height="24" viewBox="0 0 24 24" fill="none" xmlns="http://www.w3.org/2000/svg">
<path fill-rule="evenodd" clip-rule="evenodd" d="M8.7075 7.79129C9.01249 7.27346 9.4575 6.84545 10.0425 6.50727C10.6275 6.1691 11.31 6 12.09 6C12.815 6 13.455 6.14266 14.01 6.42801C14.565 6.70806 14.9925 7.09114 15.2925 7.57728C15.5974 8.06341 15.75 8.59181 15.75 9.16248C15.75 9.61163 15.6625 10.0053 15.4875 10.3435C15.3175 10.6816 15.1125 10.9749 14.8725 11.2233C14.6375 11.4663 14.2125 11.8785 13.5975 12.4597C13.4275 12.6235 13.29 12.7688 13.185 12.8956C13.085 13.0172 13.01 13.1308 12.96 13.2365C12.91 13.3369 12.87 13.4399 12.84 13.5456C12.815 13.646 12.775 13.8256 12.72 14.0845C12.625 14.6341 12.3275 14.9088 11.8275 14.9088C11.5675 14.9088 11.3475 14.819 11.1675 14.6394C10.9925 14.4597 10.905 14.1929 10.905 13.8388C10.905 13.395 10.97 13.0119 11.1 12.6896C11.23 12.3619 11.4025 12.0766 11.6175 11.8336C11.8325 11.5852 12.1225 11.2919 12.4875 10.9538C12.8075 10.6579 13.0375 10.4359 13.1775 10.288C13.3225 10.1347 13.4425 9.96566 13.5375 9.78072C13.6375 9.59577 13.6875 9.39498 13.6875 9.17833C13.6875 8.75562 13.5375 8.39895 13.2375 8.10833C12.9425 7.8177 12.56 7.6724 12.09 7.6724C11.54 7.6724 11.135 7.82034 10.875 8.11625C10.615 8.40687 10.395 8.83752 10.215 9.4082C10.045 10.0053 9.7225 10.3038 9.2475 10.3038C8.96749 10.3038 8.73 10.2008 8.535 9.99471C8.345 9.78336 8.25 9.55614 8.25 9.31308C8.25 8.81109 8.4025 8.30383 8.7075 7.79129ZM11.1075 17.6908C10.8825 17.4795 10.77 17.1863 10.77 16.8111C10.77 16.4783 10.88 16.1982 11.1 15.9709C11.32 15.7437 11.59 15.6301 11.91 15.6301C12.225 15.6301 12.49 15.7437 12.705 15.9709C12.92 16.1982 13.0275 16.4783 13.0275 16.8111C13.0275 17.181 12.915 17.4715 12.69 17.6829C12.465 17.8943 12.205 18 11.91 18C11.605 18 11.3375 17.8969 11.1075 17.6908ZM12 1.5C17.799 1.5 22.5 6.20101 22.5 12C22.5 17.799 17.799 22.5 12 22.5C6.20101 22.5 1.5 17.799 1.5 12C1.5 6.20101 6.20101 1.5 12 1.5ZM3 12C3 16.9705 7.02944 21 12 21C16.9705 21 21 16.9705 21 12C21 7.02944 16.9705 3 12 3C7.02944 3 3 7.02944 3 12Z" fill="currentColor"/>
</svg>
