<svg width="24" height="24" viewBox="0 0 24 24" fill="none" xmlns="http://www.w3.org/2000/svg">
<path fill-rule="evenodd" clip-rule="evenodd" d="M6 21H9.75C10.1642 21 10.5 21.3358 10.5 21.75C10.5 22.1642 10.1642 22.5 9.75 22.5H4.5V1.5H19.5V9.75C19.5 10.1642 19.1642 10.5 18.75 10.5C18.3358 10.5 18 10.1642 18 9.75V3H6V21ZM15 22.5C11.6863 22.5 9 19.8137 9 16.5C9 13.1863 11.6863 10.5 15 10.5C18.3137 10.5 21 13.1863 21 16.5C21 19.8137 18.3137 22.5 15 22.5ZM15 21C17.4853 21 19.5 18.9853 19.5 16.5C19.5 14.0147 17.4853 12 15 12C12.5147 12 10.5 14.0147 10.5 16.5C10.5 18.9853 12.5147 21 15 21ZM14.9434 18.1042C14.5699 18.1042 14.3502 17.8494 14.3502 17.4891V17.4275C14.3502 16.9089 14.6182 16.5661 15.1368 16.263C15.7036 15.9246 15.8751 15.7049 15.8751 15.3006C15.8751 14.8699 15.541 14.5711 15.0577 14.5711C14.627 14.5711 14.337 14.782 14.1963 15.1731C14.0865 15.4544 13.8887 15.5774 13.6207 15.5774C13.2735 15.5774 13.0582 15.3621 13.0582 15.028C13.0582 14.8391 13.1021 14.6721 13.19 14.5051C13.4712 13.9251 14.1744 13.5515 15.1193 13.5515C16.3673 13.5515 17.2066 14.2371 17.2066 15.261C17.2066 15.9246 16.8858 16.3773 16.2661 16.7419C15.6818 17.0803 15.5499 17.2694 15.4928 17.6385C15.4267 17.9329 15.2555 18.1042 14.9434 18.1042ZM14.9522 20.0598C14.5567 20.0598 14.2359 19.7566 14.2359 19.3699C14.2359 18.9832 14.5567 18.68 14.9522 18.68C15.352 18.68 15.6729 18.9832 15.6729 19.3699C15.6729 19.7566 15.352 20.0598 14.9522 20.0598ZM8.25 6C7.83579 6 7.5 5.66421 7.5 5.25C7.5 4.83579 7.83579 4.5 8.25 4.5H15.75C16.1642 4.5 16.5 4.83579 16.5 5.25C16.5 5.66421 16.1642 6 15.75 6H8.25ZM8.25 9C7.83579 9 7.5 8.66421 7.5 8.25C7.5 7.83579 7.83579 7.5 8.25 7.5H12.75C13.1642 7.5 13.5 7.83579 13.5 8.25C13.5 8.66421 13.1642 9 12.75 9H8.25ZM8.25 12C7.83579 12 7.5 11.6642 7.5 11.25C7.5 10.8358 7.83579 10.5 8.25 10.5H9C9.41421 10.5 9.75 10.8358 9.75 11.25C9.75 11.6642 9.41421 12 9 12H8.25Z" fill="currentColor"/>
</svg>
