<svg width="24" height="24" viewBox="0 0 24 24" fill="none" xmlns="http://www.w3.org/2000/svg">
<path fill-rule="evenodd" clip-rule="evenodd" d="M4.5 16.706V18.75C4.5 19.1642 4.16421 19.5 3.75 19.5C3.33579 19.5 2.99991 19.1642 2.99991 18.75V14.2625C2.99991 14.2546 2.99991 14.2468 2.99991 14.2389V13.5H3.7375C3.74537 13.4999 3.75323 13.4999 3.76109 13.5H7.32696C7.74118 13.5 8.07696 13.8358 8.07696 14.25C8.07696 14.6642 7.74118 15 7.32696 15H5.13081C5.36359 15.3481 5.54437 15.6004 5.78374 15.9174C7.54654 18.2519 9.45705 19.5 12 19.5C16.4608 19.5 19.5 16.4608 19.5 12.75C19.5 12.3358 19.8358 12 20.25 12C20.6642 12 21 12.3358 21 12.75C21 17.2892 17.2892 21 12 21C8.90909 21 6.60587 19.4953 4.58669 16.8213C4.55699 16.782 4.52816 16.7436 4.5 16.706ZM19.5 7.29407V5.25C19.5 4.83579 19.8358 4.5 20.25 4.5C20.6642 4.5 21.0001 4.83579 21.0001 5.25V9.7375C21.0001 9.74537 21.0001 9.75323 21.0001 9.76109V10.5H20.2625C20.2546 10.5001 20.2468 10.5001 20.2389 10.5H16.6731C16.2589 10.5 15.9231 10.1642 15.9231 9.75C15.9231 9.33579 16.2589 9 16.6731 9H18.8692C18.6364 8.65189 18.4556 8.3996 18.2162 8.08256C16.4534 5.74811 14.5429 4.5 12 4.5C7.53922 4.5 4.5 7.53921 4.5 11.25C4.5 11.6642 4.16421 12 3.75 12C3.33579 12 3 11.6642 3 11.25C3 6.71079 6.71079 3 12 3C15.0909 3 17.3941 4.50466 19.4133 7.17864C19.443 7.21799 19.4718 7.25638 19.5 7.29407Z" fill="currentColor"/>
</svg>
