<svg width="24" height="24" viewBox="0 0 24 24" fill="none" xmlns="http://www.w3.org/2000/svg">
<path fill-rule="evenodd" clip-rule="evenodd" d="M18 8.11828V3.75H16.5V7.24328L12 4.61828L3.37789 9.64783C3.0201 9.85654 2.56086 9.73569 2.35215 9.3779C2.14344 9.02011 2.26429 8.56088 2.62208 8.35217L12 2.88172L15 4.63172V2.25H19.5V7.25672L21.3779 8.35217C21.7357 8.56088 21.8565 9.02011 21.6478 9.3779C21.4391 9.73569 20.9799 9.85654 20.6221 9.64783L18 8.11828ZM8.99998 12V21H4.49998V11.25C4.49998 10.8358 4.83577 10.5 5.24998 10.5C5.6642 10.5 5.99998 10.8358 5.99998 11.25V19.5H7.49998V10.5H13.5V19.5H18V17.25C18 16.8358 18.3358 16.5 18.75 16.5C19.1642 16.5 19.5 16.8358 19.5 17.25V21H12V12H8.99998ZM15 10.5H19.5V15H15V10.5ZM16.5 12V13.5H18V12H16.5Z" fill="currentColor"/>
</svg>
