<svg width="24" height="24" viewBox="0 0 24 24" fill="none" xmlns="http://www.w3.org/2000/svg">
<path fill-rule="evenodd" clip-rule="evenodd" d="M16.5 15.4392L19.5 18.4394V22.5H16.5V22.5047H7.5V22.5H4.5V18.4394L7.5 15.4394V9.60471C7.5 7.0985 8.63924 4.72817 10.5963 3.16254L12 2.03955L13.4037 3.16254C15.3607 4.72817 16.5 7.0985 16.5 9.60471V15.4392ZM16.5 21H18V19.0607L16.5 17.5607V21ZM15 15.7559C15 15.752 15 15.7481 15 15.7442V9.60471C15 9.06908 14.9364 8.54103 14.8139 8.03034C13.0005 8.70816 10.9995 8.70816 9.18611 8.03034C9.0636 8.54106 9 9.06909 9 9.60471V21.0047H15V15.7559ZM7.5 17.5607L6 19.0607V21H7.5V17.5607ZM9.69599 6.61952C11.1801 7.17845 12.8199 7.17845 14.304 6.6195C13.8718 5.74296 13.2491 4.9598 12.4667 4.33385L12 3.9605L11.5333 4.33385C10.7509 4.9598 10.1282 5.74298 9.69599 6.61952ZM12 12C11.5858 12 11.25 12.3358 11.25 12.75C11.25 13.1642 11.5858 13.5 12 13.5C12.4142 13.5 12.75 13.1642 12.75 12.75C12.75 12.3358 12.4142 12 12 12ZM9.75 12.75C9.75 11.5074 10.7574 10.5 12 10.5C13.2426 10.5 14.25 11.5074 14.25 12.75C14.25 13.9927 13.2426 15 12 15C10.7574 15 9.75 13.9927 9.75 12.75Z" fill="currentColor"/>
</svg>
