<svg width="24" height="24" viewBox="0 0 24 24" fill="none" xmlns="http://www.w3.org/2000/svg">
<path fill-rule="evenodd" clip-rule="evenodd" d="M11.25 21H9.75V15H13.5C13.9142 15 14.25 15.3358 14.25 15.75C14.25 16.1642 13.9142 16.5 13.5 16.5H11.25V19.5C14.1495 19.5 16.5 17.1495 16.5 14.25V9C16.5 6.51471 14.4853 4.5 12 4.5C9.51471 4.5 7.5 6.51471 7.5 9V15.75H5.25C4.00737 15.75 3 14.7426 3 13.5V11.25C3 10.0074 4.00737 9 5.25 9H6C6 5.68629 8.68629 3 12 3C15.3137 3 18 5.68629 18 9H18.75C19.9927 9 21 10.0074 21 11.25V13.5C21 14.7426 19.9927 15.75 18.75 15.75H17.8327C17.1506 18.756 14.4624 21 11.25 21ZM18 10.5V14.25H18.75C19.1642 14.25 19.5 13.9142 19.5 13.5V11.25C19.5 10.8358 19.1642 10.5 18.75 10.5H18ZM6 10.5H5.25C4.83579 10.5 4.5 10.8358 4.5 11.25V13.5C4.5 13.9142 4.83579 14.25 5.25 14.25H6V10.5Z" fill="currentColor"/>
</svg>
