<svg width="24" height="24" viewBox="0 0 24 24" fill="none" xmlns="http://www.w3.org/2000/svg">
<path fill-rule="evenodd" clip-rule="evenodd" d="M9.75 6H2.25C1.83579 6 1.5 5.66421 1.5 5.25C1.5 4.83579 1.83579 4.5 2.25 4.5H9.75C9.79239 4.5 9.83395 4.50351 9.87442 4.51028C10.1804 3.63102 11.0165 3 12 3C12.9835 3 13.8196 3.63102 14.1256 4.51028C14.166 4.50351 14.2076 4.5 14.25 4.5H21.75C22.1642 4.5 22.5 4.83579 22.5 5.25C22.5 5.66421 22.1642 6 21.75 6H14.25C14.2076 6 14.166 5.99649 14.1256 5.98973C13.8196 6.86898 12.9835 7.5 12 7.5C11.0165 7.5 10.1804 6.86898 9.87442 5.98973C9.83395 5.99649 9.79239 6 9.75 6ZM12 4.5C11.5858 4.5 11.25 4.83579 11.25 5.25C11.25 5.66421 11.5858 6 12 6C12.4142 6 12.75 5.66421 12.75 5.25C12.75 4.83579 12.4142 4.5 12 4.5ZM19.4736 8.05266L21.5728 15.75H23.25V16.5C23.25 18.9853 21.2353 21 18.75 21C16.2647 21 14.25 18.9853 14.25 16.5V15.75H15.9272L18.0264 8.05266C18.1154 7.72637 18.4118 7.5 18.75 7.5C19.0882 7.5 19.3846 7.72637 19.4736 8.05266ZM20.9827 17.25H16.5173C16.5122 17.2501 16.5072 17.2502 16.5023 17.2502C16.4961 17.2502 16.49 17.2501 16.4837 17.25H15.8445C16.1775 18.5439 17.3521 19.5 18.75 19.5C20.1479 19.5 21.3225 18.5439 21.6555 17.25H21.0163C21.0051 17.2503 20.994 17.2503 20.9827 17.25ZM20.0181 15.75L18.75 11.1004L17.4819 15.75H20.0181ZM0.75 15.75H2.42716L4.52643 8.05266C4.61543 7.72637 4.9118 7.5 5.25 7.5C5.58822 7.5 5.88459 7.72637 5.97359 8.05266L8.07285 15.75H9.75V16.5C9.75 18.9853 7.73527 21 5.25 21C2.76472 21 0.75 18.9853 0.75 16.5V15.75ZM5.25 11.1004L3.98195 15.75H6.51807L5.25 11.1004ZM3.01719 17.25C3.00606 17.2503 2.9949 17.2503 2.98371 17.25H2.34451C2.67754 18.5439 3.85212 19.5 5.25 19.5C6.64788 19.5 7.82245 18.5439 8.15548 17.25H7.5163C7.50512 17.2503 7.49396 17.2503 7.48283 17.25H3.01719Z" fill="currentColor"/>
</svg>
