<svg width="24" height="24" viewBox="0 0 24 24" fill="none" xmlns="http://www.w3.org/2000/svg">
<path fill-rule="evenodd" clip-rule="evenodd" d="M15 16.5V17.25C15 17.6642 14.6642 18 14.25 18C13.8358 18 13.5 17.6642 13.5 17.25V16.5H8.25C7.83579 16.5 7.5 16.1642 7.5 15.75C7.5 15.3358 7.83579 15 8.25 15H15.75C16.1642 15 16.5 15.3358 16.5 15.75C16.5 16.1642 16.1642 16.5 15.75 16.5H15ZM6 12V17.25C6 18.4927 7.00734 19.5 8.25 19.5H15.75C16.9927 19.5 18 18.4927 18 17.25V12H6ZM6 10.5H9C9 8.84314 10.3431 7.5 12 7.5C13.6569 7.5 15 8.84314 15 10.5H18V8.25C18 7.00734 16.9927 6 15.75 6H8.25C7.00736 6 6 7.00736 6 8.25V10.5ZM13.5 10.5C13.5 9.67157 12.8284 9 12 9C11.1716 9 10.5 9.67157 10.5 10.5H13.5ZM4.57501 18H3.75C2.50736 18 1.5 16.9927 1.5 15.75V12.75C1.5 11.5074 2.50737 10.5 3.75 10.5H4.5V8.25C4.5 6.43578 5.78832 4.92247 7.5 4.57501V3C7.5 2.58579 7.83579 2.25 8.25 2.25C8.66421 2.25 9 2.58579 9 3V4.5H15V3C15 2.58579 15.3358 2.25 15.75 2.25C16.1642 2.25 16.5 2.58579 16.5 3V4.57501C18.2117 4.92246 19.5 6.43577 19.5 8.25V10.5H20.25C21.4927 10.5 22.5 11.5074 22.5 12.75V15.75C22.5 16.9927 21.4927 18 20.25 18H19.425C19.0776 19.7117 17.5643 21 15.75 21H8.25C6.43577 21 4.92246 19.7117 4.57501 18ZM4.5 16.5V12H3.75C3.33579 12 3 12.3358 3 12.75V15.75C3 16.1642 3.33578 16.5 3.75 16.5H4.5ZM19.5 16.5H20.25C20.6642 16.5 21 16.1642 21 15.75V12.75C21 12.3358 20.6642 12 20.25 12H19.5V16.5Z" fill="currentColor"/>
</svg>
