<svg width="24" height="24" viewBox="0 0 24 24" fill="none" xmlns="http://www.w3.org/2000/svg">
<path fill-rule="evenodd" clip-rule="evenodd" d="M9.75 16.5C6.02208 16.5 3 13.4779 3 9.75C3 6.02208 6.02208 3 9.75 3C13.4779 3 16.5 6.02208 16.5 9.75C16.5 13.4779 13.4779 16.5 9.75 16.5ZM9.75 15C12.6495 15 15 12.6495 15 9.75C15 6.85051 12.6495 4.5 9.75 4.5C6.85051 4.5 4.5 6.85051 4.5 9.75C4.5 12.6495 6.85051 15 9.75 15ZM7.5 9.75C7.5 10.1642 7.16421 10.5 6.75 10.5C6.33579 10.5 6 10.1642 6 9.75C6 7.67893 7.67893 6 9.75 6C10.1642 6 10.5 6.33579 10.5 6.75C10.5 7.16421 10.1642 7.5 9.75 7.5C8.50736 7.5 7.5 8.50736 7.5 9.75ZM15.2197 16.2803C14.9268 15.9874 14.9268 15.5126 15.2197 15.2197C15.5126 14.9268 15.9874 14.9268 16.2803 15.2197L20.7803 19.7197C21.0732 20.0126 21.0732 20.4874 20.7803 20.7803C20.4874 21.0732 20.0126 21.0732 19.7197 20.7803L15.2197 16.2803Z" fill="currentColor"/>
</svg>
