<svg width="24" height="24" viewBox="0 0 24 24" fill="none" xmlns="http://www.w3.org/2000/svg">
<path fill-rule="evenodd" clip-rule="evenodd" d="M19.5 3V5.24998C19.5 8.14949 17.1495 10.5 14.25 10.5H13.5V11.25C13.5 11.6642 13.1642 12 12.75 12C12.3358 12 12 11.6642 12 11.25V10.5C12 9.67155 11.3285 9 10.5 8.99997L9.00002 9.00003C6.51474 9.00003 4.50002 6.98532 4.50002 4.50005V3H6.00002C8.48529 3 10.5 5.01471 10.5 7.49997C11.051 7.49997 11.5673 7.64852 12.011 7.90771C12.1873 5.16776 14.4655 3 17.25 3H19.5ZM18 4.5H17.25C15.179 4.5 13.5 6.17892 13.5 8.25V8.99997H14.25C16.321 8.99997 18 7.32105 18 5.24998V4.5ZM6.00003 4.50003C6.00003 6.15689 7.34317 7.50003 9.00002 7.50003C9.00002 5.84317 7.65689 4.50003 6.00003 4.50003ZM6 10.5V12.0135C7.95649 12.0856 9.323 12.4344 10.2405 12.8044C10.7552 13.0119 11.1253 13.2248 11.3763 13.3959C11.4303 13.4328 11.4787 13.4676 11.5218 13.5H14.25C15.4926 13.5 16.5 14.5073 16.5 15.75C16.5 16.9926 15.4926 18 14.25 18H10.5C10.0858 18 9.75 17.6642 9.75 17.25C9.75 16.8357 10.0858 16.5 10.5 16.5H14.25C14.6642 16.5 15 16.1642 15 15.75C15 15.3357 14.6642 15 14.25 15H10.9303L10.7165 14.7772C10.7129 14.7739 10.7053 14.767 10.6936 14.7571C10.6652 14.733 10.6122 14.6904 10.5312 14.6353C10.3697 14.5251 10.0948 14.363 9.67955 14.1956C8.94864 13.9008 7.77236 13.5854 6 13.5146V18.2101L13.7079 20.7903L20.6392 17.3388C21.1041 17.1072 21.2896 16.54 21.0516 16.0785C20.8169 15.6235 20.2589 15.4436 19.8024 15.6755L18.3397 16.4187C17.9704 16.6063 17.5191 16.459 17.3315 16.0897C17.1438 15.7204 17.291 15.2691 17.6603 15.0815L19.1229 14.3382C20.3146 13.7326 21.7716 14.2028 22.3845 15.3906C23.0064 16.5958 22.5219 18.077 21.3078 18.6816L13.8206 22.4099L6 19.7919V21H1.5V10.5H6ZM4.5 12H3V19.5H4.5V18.7666C4.49976 18.7557 4.49976 18.7446 4.5 18.7337V12Z" fill="currentColor"/>
</svg>
