<svg width="24" height="24" viewBox="0 0 24 24" fill="none" xmlns="http://www.w3.org/2000/svg">
<path fill-rule="evenodd" clip-rule="evenodd" d="M6 13.5146V18.2102L13.7079 20.7902L20.6392 17.3388C21.1041 17.1072 21.2896 16.5401 21.0516 16.0785C20.8169 15.6236 20.2589 15.4436 19.8024 15.6755L18.3397 16.4186C17.9704 16.6062 17.5191 16.4591 17.3315 16.0898C17.1438 15.7205 17.291 15.269 17.6603 15.0813L19.1229 14.3381C20.3146 13.7326 21.7716 14.2028 22.3845 15.3906C23.0064 16.5959 22.5219 18.077 21.3078 18.6815L13.8206 22.4097L6 19.7919V21H1.5V10.5H6V12.0136C7.95649 12.0856 9.323 12.4345 10.2405 12.8044C10.7552 13.012 11.1253 13.2249 11.3763 13.396C11.4303 13.4328 11.4787 13.4676 11.5218 13.5H14.25C15.4926 13.5 16.5 14.5074 16.5 15.75C16.5 16.9926 15.4926 18 14.25 18H10.5C10.0858 18 9.75 17.6642 9.75 17.25C9.75 16.8359 10.0858 16.5 10.5 16.5H14.25C14.6642 16.5 15 16.1642 15 15.75C15 15.3359 14.6642 15 14.25 15H10.9303L10.7165 14.7773C10.7129 14.7739 10.7053 14.767 10.6936 14.7571C10.6652 14.733 10.6122 14.6905 10.5312 14.6353C10.3697 14.5251 10.0948 14.363 9.67955 14.1956C8.94864 13.9009 7.77236 13.5855 6 13.5146ZM4.5 18.7336V12H3V19.5H4.5V18.7666C4.49976 18.7556 4.49976 18.7446 4.5 18.7336V18.7336ZM15 10.5V7.5C15 7.08579 15.3358 6.75 15.75 6.75C16.1641 6.75 16.5 7.08579 16.5 7.5V12H10.5V7.5C10.5 7.08579 10.8359 6.75 11.25 6.75C11.6642 6.75 12 7.08579 12 7.5V10.5H15ZM13.5 3.87464L10.1359 5.89311C9.7807 6.10623 9.32001 5.99105 9.1069 5.63586C8.89378 5.28068 9.00897 4.81998 9.36416 4.60688L13.5 2.12535L17.636 4.60688C17.9911 4.81998 18.1062 5.28068 17.8932 5.63586C17.68 5.99105 17.2194 6.10623 16.8642 5.89311L13.5 3.87464Z" fill="currentColor"/>
</svg>
