<svg width="24" height="24" viewBox="0 0 24 24" fill="none" xmlns="http://www.w3.org/2000/svg">
<path fill-rule="evenodd" clip-rule="evenodd" d="M17.925 6H19.5V7.5H17.925C17.8278 7.97877 17.6394 8.42441 17.3787 8.81801L18.5304 9.96968L17.4698 11.0303L16.3181 9.87868C15.9245 10.1394 15.4788 10.3278 15 10.425V12H13.5V10.425C13.0212 10.3278 12.5756 10.1394 12.182 9.8787L11.0303 11.0303L9.96968 9.96968L11.1213 8.81804C10.8606 8.42444 10.6722 7.97878 10.575 7.5H9V6H10.575C10.6722 5.52122 10.8606 5.07556 11.1213 4.68196L9.96968 3.53034L11.0303 2.46968L12.182 3.6213C12.5756 3.36061 13.0212 3.1722 13.5 3.07501V1.5H15V3.07501C15.4788 3.1722 15.9244 3.36061 16.3181 3.62131L17.4696 2.46968L18.5304 3.53032L17.3787 4.68199C17.6394 5.07559 17.8278 5.52123 17.925 6ZM14.25 9C15.4926 9 16.5 7.99264 16.5 6.75C16.5 5.50736 15.4926 4.5 14.25 4.5C13.0074 4.5 12 5.50736 12 6.75C12 7.99264 13.0074 9 14.25 9ZM6 13.5144V18.2101L13.7078 20.7902L20.6391 17.3388C21.1041 17.1073 21.2897 16.54 21.0516 16.0785C20.8168 15.6235 20.2588 15.4435 19.8024 15.6754L18.3398 16.4186C17.9705 16.6063 17.519 16.459 17.3314 16.0898C17.1437 15.7205 17.291 15.269 17.6602 15.0814L19.1229 14.3381C20.3147 13.7326 21.7715 14.2028 22.3845 15.3906C23.0065 16.5959 22.5219 18.077 21.3078 18.6816L13.8206 22.4098L6 19.792V21H1.5V10.5H6V12.0134C7.73721 12.0765 9.13996 12.3606 10.2405 12.8044C10.8202 13.0382 11.2434 13.2827 11.5283 13.5H14.25C15.4927 13.5 16.5 14.5074 16.5 15.75C16.5 16.9927 15.4927 18 14.25 18H10.5C10.0858 18 9.75 17.6642 9.75 17.25C9.75 16.8358 10.0858 16.5 10.5 16.5H14.25C14.6642 16.5 15 16.1642 15 15.75C15 15.3358 14.6642 15 14.25 15H10.9303L10.7089 14.7694C10.6017 14.6577 10.2778 14.4368 9.67955 14.1956C8.75457 13.8226 7.54036 13.5748 6 13.5144ZM14.25 7.875C13.6287 7.875 13.125 7.37132 13.125 6.75C13.125 6.12868 13.6287 5.625 14.25 5.625C14.8713 5.625 15.375 6.12868 15.375 6.75C15.375 7.37132 14.8713 7.875 14.25 7.875ZM3 12V19.5H4.5V12H3Z" fill="currentColor"/>
</svg>
