<svg width="24" height="24" viewBox="0 0 24 24" fill="none" xmlns="http://www.w3.org/2000/svg">
<path fill-rule="evenodd" clip-rule="evenodd" d="M12 7.5C14.4853 7.5 16.5 9.51472 16.5 12C16.5 14.4853 14.4853 16.5 12 16.5C9.51472 16.5 7.5 14.4853 7.5 12C7.5 9.51472 9.51472 7.5 12 7.5ZM9 12C9 13.6569 10.3431 15 12 15C13.6569 15 15 13.6569 15 12C15 10.3431 13.6569 9 12 9C10.3431 9 9 10.3431 9 12ZM15.4028 1.5V4.93767C15.7506 5.10629 16.084 5.2999 16.4007 5.51613L19.372 3.79653L22.7734 9.70203L19.803 11.4212C19.8169 11.6124 19.824 11.8054 19.824 12C19.824 12.1946 19.8169 12.3876 19.803 12.5789L22.7734 14.298L19.372 20.2035L16.4007 18.4839C16.084 18.7001 15.7506 18.8937 15.4028 19.0623V22.5H8.59725V19.0623C8.24934 18.8937 7.91589 18.7001 7.59923 18.4839L4.628 20.2034L1.22653 14.2979L4.19703 12.5788C4.18308 12.3876 4.176 12.1946 4.176 12C4.176 11.8055 4.18308 11.6125 4.19703 11.4213L1.22653 9.70214L4.62793 3.79664L7.59918 5.51619C7.91588 5.29993 8.24933 5.1063 8.59725 4.93767V1.5H15.4028ZM10.0972 5.92959L9.62923 6.11949C9.08049 6.34215 8.56962 6.64002 8.10942 7.00065L7.71017 7.31351L5.17754 5.8478L3.27345 9.15366L5.80571 10.6192L5.73651 11.1186C5.69666 11.4063 5.676 11.7005 5.676 12C5.676 12.2995 5.69666 12.5937 5.73651 12.8814L5.80571 13.3809L3.27345 14.8463L5.1776 18.1522L7.7102 16.6865L8.10945 16.9993C8.56965 17.36 9.0805 17.6578 9.62923 17.8804L10.0972 18.0704V21H13.9027V18.0704L14.3707 17.8804C14.9194 17.6578 15.4304 17.36 15.8904 16.9995L16.2897 16.6866L18.8224 18.1522L20.7266 14.8465L18.1943 13.381L18.2634 12.8815C18.3033 12.5938 18.324 12.2995 18.324 12C18.324 11.7005 18.3033 11.4063 18.2634 11.1185L18.1943 10.6191L20.7266 9.15355L18.8224 5.84769L16.2897 7.31345L15.8906 7.00059C15.4304 6.63999 14.9195 6.34213 14.3707 6.11949L13.9027 5.92959V3H10.0972V5.92959Z" fill="currentColor"/>
</svg>
