<svg width="24" height="24" viewBox="0 0 24 24" fill="none" xmlns="http://www.w3.org/2000/svg">
<path fill-rule="evenodd" clip-rule="evenodd" d="M12 3C13.6569 3 15 4.34314 15 6V9.75C15 10.1642 14.6642 10.5 14.25 10.5C13.8358 10.5 13.5 10.1642 13.5 9.75V6C13.5 5.17158 12.8284 4.5 12 4.5C11.1716 4.5 10.5 5.17158 10.5 6V9.75C10.5 10.1642 10.1642 10.5 9.75 10.5C9.33579 10.5 9 10.1642 9 9.75V6C9 4.34314 10.3431 3 12 3ZM7.5 7.5C7.91421 7.5 8.25 7.83579 8.25 8.25C8.25 8.66421 7.91421 9 7.5 9H6.72415L4.66165 19.5H19.3383L17.2758 9H16.5C16.0858 9 15.75 8.66421 15.75 8.25C15.75 7.83579 16.0858 7.5 16.5 7.5H18.5098L21.1617 21H2.83834L5.49012 7.5H7.5Z" fill="currentColor"/>
</svg>
