<svg width="24" height="24" viewBox="0 0 24 24" fill="none" xmlns="http://www.w3.org/2000/svg">
<path fill-rule="evenodd" clip-rule="evenodd" d="M22.0611 6.8423C22.5 8.51334 22.5 12 22.5 12C22.5 12 22.5 15.4866 22.0611 17.1578C21.8196 18.0797 21.1082 18.8058 20.2045 19.0522C18.5669 19.5 12 19.5 12 19.5C12 19.5 5.43309 19.5 3.79545 19.0522C2.89197 18.8058 2.18036 18.0797 1.93885 17.1578C1.5 15.4866 1.5 12 1.5 12C1.5 12 1.5 8.51334 1.93885 6.8423C2.18036 5.92028 2.89197 5.19423 3.79545 4.94782C5.43309 4.5 12 4.5 12 4.5C12 4.5 18.5669 4.5 20.2045 4.94782C21.1082 5.19423 21.8196 5.92028 22.0611 6.8423ZM9.85227 15.1656L15.341 12.0001L9.85227 8.8344V15.1656Z" fill="currentColor"/>
</svg>
