<svg width="24" height="24" viewBox="0 0 24 24" fill="none" xmlns="http://www.w3.org/2000/svg">
<path fill-rule="evenodd" clip-rule="evenodd" d="M17.625 18.75C17.625 11.9155 12.0845 6.375 5.25 6.375V3C13.9485 3 21 10.0515 21 18.75H17.625ZM14.8125 18.75H11.4375C11.4375 15.3327 8.66726 12.5625 5.25 12.5625V9.1875C10.5312 9.1875 14.8125 13.4688 14.8125 18.75ZM5.8125 21C4.25921 21 3 19.7407 3 18.1875C3 16.6342 4.25921 15.375 5.8125 15.375C7.3658 15.375 8.625 16.6342 8.625 18.1875C8.625 19.7407 7.3658 21 5.8125 21Z" fill="currentColor"/>
</svg>
