<svg width="24" height="24" viewBox="0 0 24 24" fill="none" xmlns="http://www.w3.org/2000/svg">
<path fill-rule="evenodd" clip-rule="evenodd" d="M4.88376 3C6.20415 3 7.01577 3.83073 7.04112 4.92318C7.04112 5.99199 6.20415 6.84777 4.85832 6.84777H4.83253C3.53853 6.84777 2.69995 5.99183 2.69995 4.92318C2.69995 3.83073 3.5635 3 4.88376 3ZM21 12.7771V19.5H17.0922V13.2273C17.0922 11.6516 16.527 10.5762 15.1125 10.5762C14.0328 10.5762 13.3902 11.3009 13.1075 12.002C13.0044 12.2526 12.9779 12.6014 12.9779 12.9523V19.5H9.06882C9.06882 19.5 9.12147 8.87614 9.06882 7.77544H12.9775V9.43736C13.4968 8.63961 14.4242 7.5 16.5001 7.5C19.072 7.5 21 9.17574 21 12.7771ZM6.90754 19.5H2.99997V7.77544H6.90754V19.5Z" fill="currentColor"/>
</svg>
