<svg width="24" height="24" viewBox="0 0 24 24" fill="none" xmlns="http://www.w3.org/2000/svg">
<path fill-rule="evenodd" clip-rule="evenodd" d="M12 3C14.4443 3 14.7507 3.01036 15.7107 3.05416C16.6686 3.09784 17.3229 3.25001 17.8953 3.4725C18.4872 3.70247 18.9891 4.01021 19.4895 4.51055C19.9897 5.01092 20.2976 5.51283 20.5275 6.10465C20.75 6.67713 20.9022 7.33137 20.9459 8.28931C20.9896 9.24925 21 9.55575 21 12C21 14.4443 20.9896 14.7507 20.9459 15.7107C20.9022 16.6686 20.75 17.3229 20.5275 17.8953C20.2976 18.4872 19.9897 18.9891 19.4895 19.4895C18.9891 19.9897 18.4872 20.2976 17.8953 20.5275C17.3229 20.75 16.6686 20.9022 15.7107 20.9459C14.7507 20.9896 14.4443 21 12 21C9.55575 21 9.24925 20.9896 8.28931 20.9459C7.33137 20.9022 6.67713 20.75 6.10465 20.5275C5.51283 20.2976 5.01092 19.9897 4.51055 19.4895C4.01021 18.9891 3.70247 18.4872 3.4725 17.8953C3.25001 17.3229 3.09784 16.6686 3.05416 15.7107C3.01036 14.7507 3 14.4443 3 12C3 9.55575 3.01036 9.24925 3.05416 8.28931C3.09784 7.33137 3.25001 6.67713 3.4725 6.10465C3.70247 5.51283 4.01021 5.01092 4.51055 4.51055C5.01092 4.01021 5.51283 3.70247 6.10465 3.4725C6.67713 3.25001 7.33137 3.09784 8.28931 3.05416C9.24925 3.01036 9.55575 3 12 3ZM12 4.62162C9.59691 4.62162 9.31224 4.6308 8.36323 4.67411C7.48573 4.71411 7.0092 4.86073 6.69205 4.98399C6.27197 5.14725 5.97215 5.34228 5.65724 5.65724C5.34228 5.97215 5.14725 6.27197 4.98399 6.69205C4.86073 7.0092 4.71411 7.48573 4.67411 8.36323C4.6308 9.31224 4.62162 9.59691 4.62162 12C4.62162 14.4031 4.6308 14.6878 4.67411 15.6368C4.71411 16.5143 4.86073 16.9908 4.98399 17.3079C5.14725 17.7281 5.34231 18.0279 5.65724 18.3428C5.97215 18.6578 6.27197 18.8528 6.69205 19.016C7.0092 19.1392 7.48573 19.2859 8.36323 19.3258C9.31214 19.3692 9.59673 19.3783 12 19.3783C14.4033 19.3783 14.6879 19.3692 15.6368 19.3258C16.5143 19.2859 16.9908 19.1392 17.3079 19.016C17.7281 18.8528 18.0279 18.6578 18.3428 18.3428C18.6578 18.0279 18.8528 17.7281 19.016 17.3079C19.1392 16.9908 19.2859 16.5143 19.3258 15.6368C19.3692 14.6878 19.3783 14.4031 19.3783 12C19.3783 9.59691 19.3692 9.31224 19.3258 8.36323C19.2859 7.48573 19.1392 7.0092 19.016 6.69205C18.8528 6.27197 18.6578 5.97215 18.3428 5.65724C18.0279 5.34228 17.7281 5.14725 17.3079 4.98399C16.9908 4.86073 16.5143 4.71411 15.6368 4.67411C14.6878 4.6308 14.4031 4.62162 12 4.62162ZM12 15C13.6569 15 15 13.6569 15 12C15 10.3431 13.6569 9 12 9C10.3431 9 9 10.3431 9 12C9 13.6569 10.3431 15 12 15ZM12 7.37838C14.5525 7.37838 16.6217 9.44754 16.6217 12C16.6217 14.5525 14.5525 16.6217 12 16.6217C9.44754 16.6217 7.37838 14.5525 7.37838 12C7.37838 9.44754 9.44754 7.37838 12 7.37838ZM17.8842 7.19579C17.8842 7.79226 17.4008 8.27577 16.8042 8.27577C16.2078 8.27577 15.7242 7.79226 15.7242 7.19579C15.7242 6.59931 16.2078 6.11577 16.8042 6.11577C17.4008 6.11577 17.8842 6.59931 17.8842 7.19579Z" fill="currentColor"/>
</svg>
