<svg width="24" height="24" viewBox="0 0 24 24" fill="none" xmlns="http://www.w3.org/2000/svg">
<path fill-rule="evenodd" clip-rule="evenodd" d="M22.1659 5.09396C21.6994 5.30717 21.2151 5.47536 20.718 5.59712C21.2656 5.06088 21.6774 4.39015 21.9097 3.64151C21.976 3.42777 21.7507 3.24296 21.5635 3.35739C20.872 3.77999 20.1273 4.09702 19.3498 4.29978C19.3047 4.31154 19.2582 4.31749 19.2115 4.31749C19.0699 4.31749 18.9322 4.26331 18.8239 4.16497C17.9967 3.41373 16.9329 3 15.8283 3C15.3504 3 14.8678 3.07677 14.394 3.22818C12.926 3.69737 11.7933 4.94517 11.4379 6.4847C11.3046 7.06214 11.2685 7.64011 11.3305 8.20253C11.3376 8.26716 11.308 8.31227 11.2897 8.33343C11.2576 8.37051 11.2121 8.39178 11.1648 8.39178C11.1596 8.39178 11.1541 8.39151 11.1487 8.39098C7.93533 8.08335 5.0376 6.48807 2.98935 3.89907C2.88489 3.76701 2.68459 3.78321 2.60134 3.93036C2.20024 4.63944 1.98828 5.45045 1.98828 6.27572C1.98828 7.54046 2.48139 8.73234 3.33792 9.60123C2.97772 9.51322 2.62909 9.37463 2.30526 9.18929C2.14858 9.09959 1.95582 9.21487 1.95361 9.39952C1.93119 11.2784 2.99871 12.9502 4.5979 13.703C4.5657 13.7038 4.53349 13.7042 4.50123 13.7042C4.24774 13.7042 3.99108 13.679 3.73845 13.6292C3.56202 13.5945 3.41379 13.767 3.46857 13.9432C3.98764 15.6132 5.38294 16.8439 7.05268 17.1234C5.66691 18.082 4.05313 18.5877 2.37351 18.5877L1.84989 18.5874C1.68855 18.5874 1.55211 18.6957 1.51099 18.8568C1.47049 19.0154 1.54509 19.1826 1.68267 19.2651C3.57532 20.4002 5.73418 21 7.92678 21C9.84601 21 11.6413 20.6075 13.2628 19.8336C14.7493 19.1239 16.0629 18.1096 17.167 16.8189C18.1957 15.6163 19 14.2282 19.5577 12.693C20.0893 11.2296 20.3703 9.66818 20.3703 8.17741V8.10641C20.3703 7.86704 20.4753 7.64181 20.6586 7.48848C21.3541 6.90656 21.9598 6.22152 22.4587 5.45246C22.5906 5.24938 22.3828 4.99488 22.1659 5.09396Z" fill="currentColor"/>
</svg>
