<svg width="24" height="24" viewBox="0 0 24 24" fill="none" xmlns="http://www.w3.org/2000/svg">
<path fill-rule="evenodd" clip-rule="evenodd" d="M8.25 4.81068L5.03033 8.03035C4.73744 8.32324 4.26256 8.32324 3.96967 8.03035C3.67678 7.73746 3.67678 7.26258 3.96967 6.96969L8.25 2.68936L12.5303 6.96969C12.8232 7.26258 12.8232 7.73746 12.5303 8.03035C12.2374 8.32324 11.7626 8.32324 11.4697 8.03035L8.25 4.81068ZM12.5303 15.9697L15.75 19.1894L18.9697 15.9697C19.2626 15.6768 19.7374 15.6768 20.0303 15.9697C20.3232 16.2626 20.3232 16.7375 20.0303 17.0304L15.75 21.3107L11.4697 17.0304C11.1768 16.7375 11.1768 16.2626 11.4697 15.9697C11.7626 15.6768 12.2374 15.6768 12.5303 15.9697ZM9 18.75C9 19.1642 8.66421 19.5 8.25 19.5C7.83579 19.5 7.5 19.1642 7.5 18.75V8.25002C7.5 7.83581 7.83579 7.50002 8.25 7.50002C8.66421 7.50002 9 7.83581 9 8.25002V18.75ZM15 5.25002C15 4.83581 15.3358 4.50002 15.75 4.50002C16.1642 4.50002 16.5 4.83581 16.5 5.25002V15.75C16.5 16.1642 16.1642 16.5 15.75 16.5C15.3358 16.5 15 16.1642 15 15.75V5.25002Z" fill="currentColor"/>
</svg>
