<svg width="24" height="24" viewBox="0 0 24 24" fill="none" xmlns="http://www.w3.org/2000/svg">
<path fill-rule="evenodd" clip-rule="evenodd" d="M7.61087 8.67154C7.5382 9.01961 7.49999 9.38035 7.49999 9.75C7.49999 12.6495 9.8505 15 12.75 15C13.1196 15 13.4804 14.9618 13.8285 14.8891L7.61087 8.67154ZM8.19624 7.13559L15.3644 14.3038C16.9395 13.3975 18 11.6976 18 9.75C18 6.85051 15.6495 4.5 12.75 4.5C10.8024 4.5 9.10247 5.56052 8.19624 7.13559ZM6.87075 13.0686C6.3164 12.0886 5.99999 10.9563 5.99999 9.75C5.99999 6.02208 9.02207 3 12.75 3C16.4779 3 19.5 6.02208 19.5 9.75C19.5 13.4779 16.4779 16.5 12.75 16.5C11.9311 16.5 11.1464 16.3542 10.4202 16.0871C10.3851 16.1568 10.3385 16.2222 10.2803 16.2803L5.24999 21.3107L1.93933 18L6.87075 13.0686ZM7.76238 14.2983L4.06065 18L5.24999 19.1893L9.04568 15.3937C8.57322 15.0829 8.1421 14.7144 7.76238 14.2983ZM17.25 21C16.0073 21 15 19.9926 15 18.75C15 17.5074 16.0073 16.5 17.25 16.5C18.4926 16.5 19.5 17.5074 19.5 18.75C19.5 19.9926 18.4926 21 17.25 21ZM17.25 19.5C17.6642 19.5 18 19.1642 18 18.75C18 18.3358 17.6642 18 17.25 18C16.8358 18 16.5 18.3358 16.5 18.75C16.5 19.1642 16.8358 19.5 17.25 19.5Z" fill="currentColor"/>
</svg>
