<svg width="24" height="24" viewBox="0 0 24 24" fill="none" xmlns="http://www.w3.org/2000/svg">
<path fill-rule="evenodd" clip-rule="evenodd" d="M18 21V9.75002C18 9.33581 18.3358 9.00002 18.75 9.00002C19.1642 9.00002 19.5 9.33581 19.5 9.75002V22.5H4.5V1.50002H11.25C11.6642 1.50002 12 1.83581 12 2.25002C12 2.66423 11.6642 3.00002 11.25 3.00002H6V21H18ZM8.25 10.5C7.83579 10.5 7.5 10.1642 7.5 9.75002C7.5 9.33581 7.83579 9.00002 8.25 9.00002H10.5C10.9142 9.00002 11.25 9.33581 11.25 9.75002C11.25 10.1642 10.9142 10.5 10.5 10.5H8.25ZM8.25 13.5C7.83579 13.5 7.5 13.1642 7.5 12.75C7.5 12.3358 7.83579 12 8.25 12H10.5C10.9142 12 11.25 12.3358 11.25 12.75C11.25 13.1642 10.9142 13.5 10.5 13.5H8.25ZM8.25 16.5C7.83579 16.5 7.5 16.1642 7.5 15.75C7.5 15.3358 7.83579 15 8.25 15H10.5C10.9142 15 11.25 15.3358 11.25 15.75C11.25 16.1642 10.9142 16.5 10.5 16.5H8.25ZM8.25 19.5C7.83579 19.5 7.5 19.1642 7.5 18.75C7.5 18.3358 7.83579 18 8.25 18H10.5C10.9142 18 11.25 18.3358 11.25 18.75C11.25 19.1642 10.9142 19.5 10.5 19.5H8.25ZM13.5 10.5C13.0858 10.5 12.75 10.1642 12.75 9.75002C12.75 9.33581 13.0858 9.00002 13.5 9.00002H15.75C16.1642 9.00002 16.5 9.33581 16.5 9.75002C16.5 10.1642 16.1642 10.5 15.75 10.5H13.5ZM13.5 13.5C13.0858 13.5 12.75 13.1642 12.75 12.75C12.75 12.3358 13.0858 12 13.5 12H15.75C16.1642 12 16.5 12.3358 16.5 12.75C16.5 13.1642 16.1642 13.5 15.75 13.5H13.5ZM13.5 16.5C13.0858 16.5 12.75 16.1642 12.75 15.75C12.75 15.3358 13.0858 15 13.5 15H15.75C16.1642 15 16.5 15.3358 16.5 15.75C16.5 16.1642 16.1642 16.5 15.75 16.5H13.5ZM13.5 19.5C13.0858 19.5 12.75 19.1642 12.75 18.75C12.75 18.3358 13.0858 18 13.5 18H15.75C16.1642 18 16.5 18.3358 16.5 18.75C16.5 19.1642 16.1642 19.5 15.75 19.5H13.5ZM15 4.06069V6.00002H16.9393L15 4.06069ZM19.2804 6.2197C19.4949 6.4342 19.5589 6.75677 19.4429 7.03703C19.3267 7.31729 19.0533 7.50002 18.75 7.50002H13.5V2.25002C13.5 1.94668 13.6827 1.6732 13.963 1.55711C14.2432 1.44103 14.5658 1.5052 14.7803 1.7197L19.2804 6.2197Z" fill="currentColor"/>
</svg>
