<svg width="24" height="24" viewBox="0 0 24 24" fill="none" xmlns="http://www.w3.org/2000/svg">
<path fill-rule="evenodd" clip-rule="evenodd" d="M12 1.5L14.7773 8.17738L21.986 8.75532L20.6165 9.92841L16.4937 13.46L18.1717 20.4947L12 16.725L5.82824 20.4947L7.50625 13.4601L2.01389 8.75531L9.22268 8.1774L12 1.5ZM12 5.40594L10.6077 8.75346L10.2558 9.59937L9.79921 9.63599L9.34256 9.6726L5.72866 9.96232L8.48207 12.3209L9.17789 12.9169L8.96531 13.8082L8.1241 17.3347L11.2181 15.4449L12 14.9673L12.3909 15.2061L12.7819 15.4449L15.8759 17.3347L15.0347 13.8082L14.822 12.917L15.1699 12.619L15.5178 12.3209L18.2712 9.96232L14.6574 9.6726L13.7442 9.59937L13.5682 9.17643L13.3923 8.75344L12 5.40594Z" fill="currentColor"/>
</svg>
