<svg width="24" height="24" viewBox="0 0 24 24" fill="none" xmlns="http://www.w3.org/2000/svg">
<path fill-rule="evenodd" clip-rule="evenodd" d="M15.9333 2.21518C16.3175 2.37034 16.503 2.80747 16.3478 3.19152L14.662 7.36384C14.5069 7.7479 14.0697 7.93345 13.6857 7.77828C13.3016 7.62312 13.1161 7.18599 13.2713 6.80194L14.957 2.62962C15.1122 2.24556 15.5493 2.06001 15.9333 2.21518ZM7.87731 2.33473C8.25861 2.17288 8.69891 2.35077 8.86074 2.73205L10.619 6.87433C10.7809 7.25562 10.603 7.69591 10.2217 7.85776C9.84042 8.0196 9.40013 7.84171 9.23828 7.46043L7.47999 3.31815C7.31814 2.93686 7.49603 2.49657 7.87731 2.33473ZM21.6453 7.89735C21.8072 8.27863 21.6293 8.71893 21.248 8.88078L17.1057 10.6391C16.7244 10.8009 16.2842 10.623 16.1223 10.2417C15.9605 9.86046 16.1384 9.42016 16.5197 9.25831L20.6619 7.50003C21.0432 7.33818 21.4835 7.51606 21.6453 7.89735ZM2.24457 8.06667C2.39973 7.68261 2.83686 7.49706 3.22091 7.65223L7.39325 9.33796C7.77729 9.49312 7.96284 9.93025 7.80767 10.3143C7.65251 10.6984 7.21538 10.8839 6.83133 10.7287L2.65901 9.043C2.27495 8.88784 2.0894 8.45071 2.24457 8.06667ZM16.2018 13.7057C16.3569 13.3217 16.794 13.1361 17.1782 13.2913L21.3504 14.977C21.7344 15.1321 21.92 15.5692 21.7649 15.9534C21.6098 16.3374 21.1725 16.5229 20.7885 16.3678L16.6161 14.6821C16.2321 14.5269 16.0466 14.0898 16.2018 13.7057ZM7.83773 13.7583C7.99958 14.1396 7.82168 14.5799 7.44039 14.7417L3.29813 16.5C2.91684 16.6618 2.47655 16.4839 2.3147 16.1026C2.15285 15.7213 2.33075 15.2811 2.71203 15.1192L6.8543 13.361C7.23558 13.1991 7.67588 13.377 7.83773 13.7583ZM13.7383 16.1422C14.1196 15.9804 14.5599 16.1583 14.7217 16.5396L16.4801 20.6818C16.6419 21.0631 16.464 21.5035 16.0827 21.6654C15.7014 21.8272 15.2612 21.6493 15.0993 21.268L13.341 17.1258C13.1791 16.7445 13.357 16.3041 13.7383 16.1422ZM10.2943 16.1724C10.6783 16.3275 10.8639 16.7646 10.7087 17.1487L9.02297 21.321C8.86781 21.705 8.43068 21.8905 8.04663 21.7354C7.66257 21.5803 7.47702 21.1431 7.6322 20.7591L9.31793 16.5868C9.47309 16.2027 9.91022 16.0171 10.2943 16.1724Z" fill="currentColor"/>
</svg>
