<svg width="24" height="24" viewBox="0 0 24 24" fill="none" xmlns="http://www.w3.org/2000/svg">
<path fill-rule="evenodd" clip-rule="evenodd" d="M11.25 3H6V19.5H11.25V3ZM12.75 3V19.5H18V3H12.75ZM13.5 21H10.5V21.75C10.5 22.1642 10.1642 22.5 9.75 22.5C9.33579 22.5 9 22.1642 9 21.75V21H7.5V21.75C7.5 22.1642 7.16421 22.5 6.75 22.5C6.33579 22.5 6 22.1642 6 21.75V21H4.5V1.5H19.5V21H18V21.75C18 22.1642 17.6642 22.5 17.25 22.5C16.8358 22.5 16.5 22.1642 16.5 21.75V21H15V21.75C15 22.1642 14.6642 22.5 14.25 22.5C13.8358 22.5 13.5 22.1642 13.5 21.75V21ZM7.5 7.5C7.08579 7.5 6.75 7.16421 6.75 6.75C6.75 6.33579 7.08579 6 7.5 6H9.75C10.1642 6 10.5 6.33579 10.5 6.75C10.5 7.16421 10.1642 7.5 9.75 7.5H7.5ZM7.5 10.5C7.08579 10.5 6.75 10.1642 6.75 9.75C6.75 9.33579 7.08579 9 7.5 9H9.75C10.1642 9 10.5 9.33579 10.5 9.75C10.5 10.1642 10.1642 10.5 9.75 10.5H7.5ZM14.25 7.5C13.8358 7.5 13.5 7.16421 13.5 6.75C13.5 6.33579 13.8358 6 14.25 6H16.5C16.9142 6 17.25 6.33579 17.25 6.75C17.25 7.16421 16.9142 7.5 16.5 7.5H14.25ZM14.25 10.5C13.8358 10.5 13.5 10.1642 13.5 9.75C13.5 9.33579 13.8358 9 14.25 9H16.5C16.9142 9 17.25 9.33579 17.25 9.75C17.25 10.1642 16.9142 10.5 16.5 10.5H14.25ZM9 12.75C9 12.3358 9.33579 12 9.75 12C10.1642 12 10.5 12.3358 10.5 12.75V14.25C10.5 14.6642 10.1642 15 9.75 15C9.33579 15 9 14.6642 9 14.25V12.75ZM13.5 12.75C13.5 12.3358 13.8358 12 14.25 12C14.6642 12 15 12.3358 15 12.75V14.25C15 14.6642 14.6642 15 14.25 15C13.8358 15 13.5 14.6642 13.5 14.25V12.75Z" fill="currentColor"/>
</svg>
