<svg width="24" height="24" viewBox="0 0 24 24" fill="none" xmlns="http://www.w3.org/2000/svg">
<path fill-rule="evenodd" clip-rule="evenodd" d="M7.6284 15.8325C4.7842 16.3719 3 17.394 3 18.223C3 19.549 7.01107 21 12 21C16.989 21 21 19.5491 21 18.223C21 17.394 19.2158 16.3719 16.3716 15.8325L15.7398 19.6233C15.6717 20.0319 15.2853 20.3079 14.8767 20.2398C14.4681 20.1717 14.1921 19.7853 14.2602 19.3767L15.178 13.8699C15.4065 12.4984 14.349 11.25 12.9586 11.25H11.0414C9.65102 11.25 8.59342 12.4984 8.82199 13.8699L9.7398 19.3767C9.80789 19.7853 9.53188 20.1717 9.1233 20.2398C8.71472 20.3079 8.3283 20.0319 8.2602 19.6233L7.6284 15.8325ZM16.6184 14.3522C20.1529 15.0115 22.5 16.381 22.5 18.223C22.5 20.7928 17.7807 22.5 12 22.5C6.21934 22.5 1.5 20.7928 1.5 18.223C1.5 16.381 3.84709 15.0115 7.38168 14.3522L7.3424 14.1165C6.96146 11.8307 8.72411 9.75 11.0414 9.75H12.9586C15.2759 9.75 17.0385 11.8307 16.6576 14.1165L16.6184 14.3522ZM12 9C9.92893 9 8.25 7.32107 8.25 5.25C8.25 3.17893 9.92893 1.5 12 1.5C14.0711 1.5 15.75 3.17893 15.75 5.25C15.75 7.32107 14.0711 9 12 9ZM12 7.5C13.2426 7.5 14.25 6.49264 14.25 5.25C14.25 4.00736 13.2426 3 12 3C10.7574 3 9.75 4.00736 9.75 5.25C9.75 6.49264 10.7574 7.5 12 7.5Z" fill="currentColor"/>
</svg>
