<svg width="24" height="24" viewBox="0 0 24 24" fill="none" xmlns="http://www.w3.org/2000/svg">
<path fill-rule="evenodd" clip-rule="evenodd" d="M7.5 5.25C7.5 4.00735 8.50736 3 9.75 3H14.25C15.4926 3 16.5 4.00735 16.5 5.25V6C16.5 6.41421 16.1642 6.75 15.75 6.75C15.3358 6.75 15 6.41421 15 6V5.25C15 4.83579 14.6642 4.5 14.25 4.5H9.75C9.33579 4.5 9 4.83579 9 5.25V6C9 6.41421 8.66421 6.75 8.25 6.75C7.83579 6.75 7.5 6.41421 7.5 6V5.25ZM1.5 7.5H22.5V21H1.5V7.5ZM3 15V19.5H21V15H13.5V13.5H10.5V15H3ZM21 13.5V9H3V13.5H9V12H15V13.5H21Z" fill="currentColor"/>
</svg>
