<svg width="24" height="24" viewBox="0 0 24 24" fill="none" xmlns="http://www.w3.org/2000/svg">
<path fill-rule="evenodd" clip-rule="evenodd" d="M2.25 2.25C2.25 1.83579 2.58579 1.5 3 1.5H6.63534L8.13534 10.5H18.1644L19.2894 6H10.5C10.0858 6 9.75 5.66421 9.75 5.25C9.75 4.83579 10.0858 4.5 10.5 4.5H21.2106L19.4776 11.4319C19.3941 11.7658 19.0941 12 18.75 12H7.875L6.75 13.5H18.75C19.1642 13.5 19.5 13.8358 19.5 14.25C19.5 14.6642 19.1642 15 18.75 15H5.25C4.96591 15 4.70622 14.8395 4.57919 14.5854C4.45213 14.3313 4.47955 14.0273 4.65 13.8L6.70745 11.0567L5.36466 3H3C2.58579 3 2.25 2.66421 2.25 2.25ZM8.25 16.5C9.49264 16.5 10.5 17.5074 10.5 18.75C10.5 19.9926 9.49264 21 8.25 21C7.00736 21 6 19.9926 6 18.75C6 17.5074 7.00736 16.5 8.25 16.5ZM7.5 18.75C7.5 19.1642 7.83579 19.5 8.25 19.5C8.66421 19.5 9 19.1642 9 18.75C9 18.3358 8.66421 18 8.25 18C7.83579 18 7.5 18.3358 7.5 18.75ZM15.75 16.5C16.9926 16.5 18 17.5074 18 18.75C18 19.9926 16.9926 21 15.75 21C14.5074 21 13.5 19.9926 13.5 18.75C13.5 17.5074 14.5074 16.5 15.75 16.5ZM15 18.75C15 19.1642 15.3358 19.5 15.75 19.5C16.1642 19.5 16.5 19.1642 16.5 18.75C16.5 18.3358 16.1642 18 15.75 18C15.3358 18 15 18.3358 15 18.75Z" fill="currentColor"/>
</svg>
