<svg width="24" height="24" viewBox="0 0 24 24" fill="none" xmlns="http://www.w3.org/2000/svg">
<path fill-rule="evenodd" clip-rule="evenodd" d="M6.75 4.5C7.99264 4.5 9 5.50736 9 6.75C9 7.99264 7.99264 9 6.75 9C5.50736 9 4.5 7.99264 4.5 6.75C4.5 5.50736 5.50736 4.5 6.75 4.5ZM6 6.75C6 7.16421 6.33579 7.5 6.75 7.5C7.16421 7.5 7.5 7.16421 7.5 6.75C7.5 6.33579 7.16421 6 6.75 6C6.33579 6 6 6.33579 6 6.75ZM2.25 1.5H9.31067L22.5 14.6893L14.6893 22.5L1.5 9.31067V2.25C1.5 1.83579 1.83579 1.5 2.25 1.5ZM3 8.68933L14.6893 20.3787L20.3787 14.6893L8.68933 3H3V8.68933Z" fill="currentColor"/>
</svg>
