<svg width="24" height="24" viewBox="0 0 24 24" fill="none" xmlns="http://www.w3.org/2000/svg">
<path fill-rule="evenodd" clip-rule="evenodd" d="M3 9.00004H7.5V21H3V9.00004ZM4.5 10.5V19.5H6V10.5H4.5ZM14.7994 4.60469C14.5582 5.00669 14.2128 5.86244 13.4464 7.77862C12.6668 9.7276 11.8552 10.7846 11.1676 11.3575C10.8221 11.6454 10.5113 11.8081 10.2601 11.8978C10.1352 11.9424 10.0275 11.9681 9.94068 11.9825C9.89736 11.9898 9.85949 11.9942 9.82751 11.9967C9.81152 11.998 9.79702 11.9989 9.78408 11.9994L9.76585 11.9999L9.75762 12L9.75374 12.0001L9.75184 12.0001C9.75091 12.0001 9.75 12.0001 9.75 11.2501V12.0001C9.33579 12.0001 9 11.6643 9 11.2501C9 10.8525 9.3093 10.5272 9.70038 10.5017C9.70944 10.4997 9.7281 10.495 9.75556 10.4852C9.83245 10.4577 9.99036 10.386 10.2074 10.2052C10.6448 9.84061 11.3332 9.02255 12.0536 7.22153C12.0736 7.17158 12.0934 7.12225 12.1129 7.0735C12.8091 5.33255 13.2006 4.35388 13.5131 3.83296C13.6837 3.54872 13.8991 3.27749 14.2326 3.1259C14.5156 2.99728 14.809 2.999 14.9658 2.99993C14.9781 3.00001 14.9895 3.00008 15 3.00008H15.3273C16.7908 3.00008 17.8667 4.37555 17.5116 5.79578L16.7106 9.00008H18.75C19.9926 9.00008 21 10.0074 21 11.2501V12.0001C21 12.0548 20.994 12.1094 20.9822 12.1628L20.0042 16.5636C19.6228 18.2793 18.1011 19.5 16.3436 19.5H9.75C9.33579 19.5 9 19.1643 9 18.75C9 18.3359 9.33579 18 9.75 18H16.3436C17.3981 18 18.3111 17.2676 18.5399 16.2381L19.5 11.9177V11.2501C19.5 10.8359 19.1642 10.5001 18.75 10.5001H14.7894L16.0564 5.43197C16.1748 4.95877 15.8167 4.50008 15.3286 4.50008H15.0012C14.9391 4.50008 14.8952 4.50101 14.8669 4.50196C14.8506 4.52395 14.8281 4.55689 14.7994 4.60469Z" fill="currentColor"/>
</svg>
