<svg width="24" height="24" viewBox="0 0 24 24" fill="none" xmlns="http://www.w3.org/2000/svg">
<path fill-rule="evenodd" clip-rule="evenodd" d="M16.5 3H21V15H16.5V3ZM18 4.5V13.5H19.5V4.5H18ZM3.99582 7.43651C4.37709 5.72075 5.8989 4.5 7.65651 4.5H14.25C14.6642 4.5 15 4.83579 15 5.25C15 5.66421 14.6642 6 14.25 6H7.65651C6.60195 6 5.68887 6.73245 5.46009 7.7619L4.5 12.0823V12.75C4.5 13.1642 4.83579 13.5 5.25 13.5H9.21058L7.94357 18.5681C7.82526 19.0413 8.1833 19.5 8.67136 19.5H9C9.06209 19.5 9.10477 19.4991 9.13311 19.4981C9.14942 19.4762 9.17195 19.4431 9.20062 19.3955C9.44182 18.9934 9.78717 18.1377 10.5536 16.2214C11.3332 14.2725 12.1448 13.2155 12.8324 12.6426C13.1779 12.3547 13.4887 12.192 13.7399 12.1023C13.8648 12.0577 13.9725 12.032 14.0593 12.0175C14.1026 12.0103 14.1405 12.0059 14.1725 12.0033C14.1885 12.0021 14.203 12.0012 14.2159 12.0007L14.2341 12.0002L14.2424 12L14.2463 12H14.2482C14.2491 12 14.25 12 14.25 12.75V12C14.6642 12 15 12.3358 15 12.75C15 13.1475 14.6907 13.4729 14.2996 13.4984C14.2906 13.5004 14.2719 13.5051 14.2444 13.5149C14.1675 13.5424 14.0096 13.6141 13.7926 13.7949C13.3552 14.1595 12.6668 14.9775 11.9464 16.7786L11.8872 16.9266C11.1909 18.6675 10.7994 19.6462 10.4869 20.167C10.3163 20.4513 10.1009 20.7226 9.76739 20.8741C9.48441 21.0028 9.19099 21.0011 9.0342 21.0002C9.02194 21 9.01052 21 9 21H8.67136C7.20773 21 6.13329 19.6245 6.48834 18.2043L7.28942 15H5.25C4.00735 15 3 13.9926 3 12.75V12C3 11.9453 3.00598 11.8907 3.01786 11.8373L3.99582 7.43651Z" fill="currentColor"/>
</svg>
