<svg width="24" height="24" viewBox="0 0 24 24" fill="none" xmlns="http://www.w3.org/2000/svg">
<path fill-rule="evenodd" clip-rule="evenodd" d="M16.9869 21H7.01309L3.46853 23.8357C3.14508 24.0944 2.67311 24.042 2.41435 23.7185C2.1556 23.3951 2.20804 22.9231 2.53148 22.6643L4.61192 21H3V5.25C3 4.00736 4.00737 3 5.25 3H18.75C19.9927 3 21 4.00736 21 5.25V21H19.3881L21.4685 22.6643C21.792 22.9231 21.8444 23.3951 21.5857 23.7185C21.3269 24.042 20.8549 24.0944 20.5315 23.8357L16.9869 21ZM17.244 19.5C17.2483 19.5 17.2526 19.5 17.2569 19.5H19.5V5.25C19.5 4.83578 19.1642 4.5 18.75 4.5H5.25C4.83579 4.5 4.5 4.83578 4.5 5.25V19.5H6.74308C6.74738 19.5 6.75168 19.5 6.75598 19.5H17.244H17.244ZM18 12H6V6H18V12ZM12.75 7.5V10.5H16.5V7.5H12.75ZM11.25 7.5H7.5V10.5H11.25V7.5ZM7.5 18C6.25736 18 5.25 16.9926 5.25 15.75C5.25 14.5074 6.25736 13.5 7.5 13.5C8.74264 13.5 9.75 14.5074 9.75 15.75C9.75 16.9926 8.74264 18 7.5 18ZM7.5 16.5C7.91422 16.5 8.25 16.1642 8.25 15.75C8.25 15.3358 7.91422 15 7.5 15C7.08579 15 6.75 15.3358 6.75 15.75C6.75 16.1642 7.08579 16.5 7.5 16.5ZM16.5 18C15.2574 18 14.25 16.9926 14.25 15.75C14.25 14.5074 15.2574 13.5 16.5 13.5C17.7426 13.5 18.75 14.5074 18.75 15.75C18.75 16.9926 17.7426 18 16.5 18ZM16.5 16.5C16.9142 16.5 17.25 16.1642 17.25 15.75C17.25 15.3358 16.9142 15 16.5 15C16.0858 15 15.75 15.3358 15.75 15.75C15.75 16.1642 16.0858 16.5 16.5 16.5Z" fill="currentColor"/>
</svg>
