<svg width="24" height="24" viewBox="0 0 24 24" fill="none" xmlns="http://www.w3.org/2000/svg">
<path fill-rule="evenodd" clip-rule="evenodd" d="M16.9393 21H7.06066L5.03033 23.0303C4.73744 23.3232 4.26256 23.3232 3.96967 23.0303C3.67678 22.7374 3.67678 22.2626 3.96967 21.9697L4.93934 21H3V6.75C3 5.50737 4.00737 4.5 5.25 4.5H11.25V3H9C8.58579 3 8.25 2.66421 8.25 2.25C8.25 1.83579 8.58579 1.5 9 1.5H15C15.4142 1.5 15.75 1.83579 15.75 2.25C15.75 2.66421 15.4142 3 15 3H12.75V4.5H18.75C19.9927 4.5 21 5.50736 21 6.75V21H19.0607L20.0303 21.9697C20.3232 22.2626 20.3232 22.7374 20.0303 23.0303C19.7374 23.3232 19.2626 23.3232 18.9697 23.0303L16.9393 21ZM19.5 19.5V6.75C19.5 6.33578 19.1642 6 18.75 6H5.25C4.83579 6 4.5 6.33579 4.5 6.75V19.5H19.5ZM18 12H6V7.5H18V12ZM16.5 10.5V9H7.5V10.5H16.5ZM12 18C10.7574 18 9.75 16.9926 9.75 15.75C9.75 14.5074 10.7574 13.5 12 13.5C13.2426 13.5 14.25 14.5074 14.25 15.75C14.25 16.9926 13.2426 18 12 18ZM12 16.5C12.4142 16.5 12.75 16.1642 12.75 15.75C12.75 15.3358 12.4142 15 12 15C11.5858 15 11.25 15.3358 11.25 15.75C11.25 16.1642 11.5858 16.5 12 16.5Z" fill="currentColor"/>
</svg>
