<svg width="24" height="24" viewBox="0 0 24 24" fill="none" xmlns="http://www.w3.org/2000/svg">
<path fill-rule="evenodd" clip-rule="evenodd" d="M12.368 0.84634L22.5001 6.30204V17.2359C22.5001 17.2457 22.5001 17.2556 22.5001 17.2654V17.698L22.116 17.9047C22.1095 17.9084 22.1029 17.9119 22.0963 17.9153L12 23.3518L1.90366 17.9153C1.89704 17.9119 1.89048 17.9084 1.88396 17.9047L1.49985 17.698V17.2654C1.49985 17.2556 1.49985 17.2457 1.49985 17.2359V6.30204L11.632 0.84634C11.6406 0.841513 11.6492 0.836849 11.658 0.832352L12 0.648193L12.342 0.832352C12.3508 0.836849 12.3594 0.841513 12.368 0.84634ZM12.75 2.75567V11.552L21 15.9943V7.19798L12.75 2.75567ZM11.25 2.75567L2.99999 7.19798V15.9943L4.52064 15.1755C4.50714 15.1192 4.49999 15.0605 4.49999 15V8.53648L8.99999 6.28648V12.7636L11.25 11.552V2.75567ZM20.168 17.25L12 12.8518L3.83194 17.25L12 21.6482L20.168 17.25ZM5.99999 14.379L7.50317 13.5696C7.50107 13.5467 7.49999 13.5235 7.49999 13.5V8.71354L5.99999 9.46354V14.379ZM19.5 13.2135L15 10.9635V6.28648L19.5 8.53648V13.2135ZM16.5 10.0365L18 10.7865V9.46354L16.5 8.71354V10.0365Z" fill="currentColor"/>
</svg>
