<svg width="24" height="24" viewBox="0 0 24 24" fill="none" xmlns="http://www.w3.org/2000/svg">
<path fill-rule="evenodd" clip-rule="evenodd" d="M14.25 8.75778L10.9715 7.44636C10.5869 7.29253 10.3998 6.85605 10.5536 6.47146C10.7075 6.08687 11.144 5.89981 11.5285 6.05365L15.75 7.74223V20.25C15.75 20.6642 15.4142 21 15 21C14.5858 21 14.25 20.6642 14.25 20.25V8.75778ZM22.95 7.49997L21.2885 8.19228L19.4976 8.9385C19.4993 8.95878 19.5 8.97927 19.5 8.99997V15.4874L19.0546 15.6854L16.5 16.8207V15.1793L18 14.5126V9.56247L16.5 10.1875V8.56247L19.05 7.49997L12 4.56248L4.95002 7.49997L12 10.4375L13.5 9.81248V11.4375L12.2885 11.9423L12 12.0625L11.7116 11.9423L6.00002 9.56247V14.5126L12 17.1794L13.5 16.5126V18.1541L12.3046 18.6854L12 18.8208L11.6954 18.6854L4.94541 15.6854L4.50002 15.4874V8.99997C4.50002 8.97927 4.50086 8.95878 4.50251 8.9385L2.71155 8.19228L1.05002 7.49997L2.71157 6.80766L11.7115 3.05766L12 2.93747L12.2885 3.05766L21.2885 6.80766L22.95 7.49997Z" fill="currentColor"/>
</svg>
