<svg xmlns="http://www.w3.org/2000/svg" width="24" height="24" fill="currentColor" viewBox="0 0 24 24">
  <path fill="#333" fill-rule="evenodd" d="M14 7.5a.75.75 0 0 1 .75-.75H17a5.25 5.25 0 1 1 0 10.5h-2.25a.75.75 0 0 1 0-1.5H17a3.75 3.75 0 1 0 0-7.5h-2.25A.75.75 0 0 1 14 7.5Zm-4 0a.75.75 0 0 0-.75-.75H7a5.25 5.25 0 1 0 0 10.5h2.25a.75.75 0 0 0 0-1.5H7a3.75 3.75 0 1 1 0-7.5h2.25A.75.75 0 0 0 10 7.5Z" clip-rule="evenodd"/>
  <path fill="#333" d="M8 12a.75.75 0 0 1 .75-.75h6.5a.75.75 0 0 1 0 1.5h-6.5A.75.75 0 0 1 8 12Z"/>
</svg>
