<svg width="24" height="24" viewBox="0 0 24 24" fill="none" xmlns="http://www.w3.org/2000/svg">
<path d="M12.75 5.56053V14.9999C12.75 15.4141 12.4142 15.7499 12 15.7499C11.5858 15.7499 11.25 15.4141 11.25 14.9999V5.56053L8.03033 8.7802C7.73744 9.07309 7.26256 9.07309 6.96967 8.7802C6.67678 8.48731 6.67678 8.01243 6.96967 7.71954L12 2.68921L17.0303 7.71954C17.3232 8.01243 17.3232 8.48731 17.0303 8.7802C16.7374 9.07309 16.2626 9.07309 15.9697 8.7802L12.75 5.56053ZM18 17.9999V14.2499C18 13.8357 18.3358 13.4999 18.75 13.4999C19.1642 13.4999 19.5 13.8357 19.5 14.2499V19.4999H4.5V14.2499C4.5 13.8357 4.83579 13.4999 5.25 13.4999C5.66421 13.4999 6 13.8357 6 14.2499V17.9999H18Z" fill="currentColor"/>
</svg>
