<svg width="24" height="24" viewBox="0 0 24 24" fill="none" xmlns="http://www.w3.org/2000/svg">
<path d="M7.5 21.75C7.5 22.1642 7.16421 22.5 6.75 22.5C6.33579 22.5 6 22.1642 6 21.75V14.25C6 12.1789 7.67893 10.5 9.75 10.5H14.25C16.3211 10.5 18 12.1789 18 14.25V21.75C18 22.1642 17.6642 22.5 17.25 22.5C16.8358 22.5 16.5 22.1642 16.5 21.75V14.25C16.5 13.0073 15.4927 12 14.25 12H9.75C8.50736 12 7.5 13.0074 7.5 14.25V21.75ZM12 9C9.92893 9 8.25 7.32107 8.25 5.25C8.25 3.17893 9.92893 1.5 12 1.5C14.0711 1.5 15.75 3.17893 15.75 5.25C15.75 7.32107 14.0711 9 12 9ZM12 7.5C13.2426 7.5 14.25 6.49264 14.25 5.25C14.25 4.00736 13.2426 3 12 3C10.7574 3 9.75 4.00736 9.75 5.25C9.75 6.49264 10.7574 7.5 12 7.5Z" fill="currentColor"/>
</svg>
