<svg width="24" height="24" viewBox="0 0 24 24" fill="none" xmlns="http://www.w3.org/2000/svg">
<path d="M18.545 9.74646C18.1398 9.74646 17.9015 9.45273 17.9015 9.03747V8.96658C17.9015 8.36901 18.1923 7.974 18.7548 7.62457C19.3696 7.23463 19.5556 6.98143 19.5556 6.51553C19.5556 6.01924 19.1934 5.67488 18.669 5.67488C18.2017 5.67488 17.8872 5.91796 17.7346 6.36867C17.6154 6.69277 17.4009 6.83457 17.1102 6.83457C16.7336 6.83457 16.5 6.58642 16.5 6.20155C16.5 5.9838 16.5477 5.79135 16.643 5.59892C16.948 4.93045 17.7108 4.5 18.7358 4.5C20.0895 4.5 21 5.29001 21 6.46995C21 7.23464 20.652 7.75624 19.9798 8.17657C19.3458 8.56651 19.2029 8.78427 19.1409 9.20965C19.0694 9.54895 18.8835 9.74646 18.545 9.74646ZM18.5546 12C18.1256 12 17.7775 11.6506 17.7775 11.2049C17.7775 10.7593 18.1256 10.4099 18.5546 10.4099C18.9884 10.4099 19.3363 10.7593 19.3363 11.2049C19.3363 11.6506 18.9884 12 18.5546 12ZM9.75 9C7.67893 9 6 7.32107 6 5.25C6 3.17893 7.67893 1.5 9.75 1.5C11.8211 1.5 13.5 3.17893 13.5 5.25C13.5 7.32107 11.8211 9 9.75 9ZM9.75 7.5C10.9926 7.5 12 6.49264 12 5.25C12 4.00736 10.9926 3 9.75 3C8.50736 3 7.5 4.00736 7.5 5.25C7.5 6.49264 8.50736 7.5 9.75 7.5ZM6 21.75C6 22.1642 5.66421 22.5 5.25 22.5C4.83579 22.5 4.5 22.1642 4.5 21.75V14.25C4.5 12.1789 6.17893 10.5 8.25 10.5H11.25C13.3211 10.5 15 12.1789 15 14.25V21.75C15 22.1642 14.6642 22.5 14.25 22.5C13.8358 22.5 13.5 22.1642 13.5 21.75V14.25C13.5 13.0074 12.4926 12 11.25 12H8.25C7.00736 12 6 13.0074 6 14.25V21.75Z" fill="currentColor"/>
</svg>
