<svg width="24" height="24" viewBox="0 0 24 24" fill="none" xmlns="http://www.w3.org/2000/svg">
<path d="M9.75 10.5C7.67893 10.5 6 8.82107 6 6.75C6 4.67893 7.67893 3 9.75 3C11.8211 3 13.5 4.67893 13.5 6.75C13.5 8.82107 11.8211 10.5 9.75 10.5ZM9.75 9C10.9926 9 12 7.99264 12 6.75C12 5.50736 10.9926 4.5 9.75 4.5C8.50736 4.5 7.5 5.50736 7.5 6.75C7.5 7.99264 8.50736 9 9.75 9ZM14.25 3C13.8358 3 13.5 2.66421 13.5 2.25C13.5 1.83579 13.8358 1.5 14.25 1.5C16.3211 1.5 18 3.17892 18 5.25C18 6.77449 17.0817 8.12953 15.6998 8.70926C15.3178 8.8695 14.8783 8.68975 14.718 8.30779C14.5578 7.92582 14.7376 7.48628 15.1195 7.32604C15.949 6.97808 16.5 6.16498 16.5 5.25C16.5 4.00734 15.4927 3 14.25 3ZM6 21.75C6 22.1642 5.66421 22.5 5.25 22.5C4.83579 22.5 4.5 22.1642 4.5 21.75V15.75C4.5 13.6789 6.17893 12 8.25 12H11.25C13.3211 12 15 13.6789 15 15.75V21.75C15 22.1642 14.6642 22.5 14.25 22.5C13.8358 22.5 13.5 22.1642 13.5 21.75V15.75C13.5 14.5074 12.4926 13.5 11.25 13.5H8.25C7.00736 13.5 6 14.5074 6 15.75V21.75ZM15 12C14.5858 12 14.25 11.6642 14.25 11.25C14.25 10.8358 14.5858 10.5 15 10.5H15.75C17.8211 10.5 19.5 12.1789 19.5 14.25V20.25C19.5 20.6642 19.1642 21 18.75 21C18.3358 21 18 20.6642 18 20.25V14.25C18 13.0073 16.9927 12 15.75 12H15Z" fill="currentColor"/>
</svg>
