<svg xmlns="http://www.w3.org/2000/svg" width="24" height="24" viewBox="0 0 24 24">
  <path fill="currentColor" fill-rule="evenodd" d="M18.25,3 C19.7688,3 21,4.23122 21,5.75 L21,18.25 C21,19.7688 19.7688,21 18.25,21 L18,21 C18,21.8284 17.3284,22.5 16.5,22.5 C15.6716,22.5 15,21.8284 15,21 L9,21 C9,21.8284 8.32843,22.5 7.5,22.5 C6.67157,22.5 6,21.8284 6,21 L5.75,21 C4.23122,21 3,19.7688 3,18.25 L3,5.75 C3,4.23122 4.23122,3 5.75,3 L18.25,3 Z M18.25,4.5 L5.75,4.5 C5.1027875,4.5 4.57046563,4.99187109 4.50645356,5.62219409 L4.5,5.75 L4.5,18.25 C4.5,18.89725 4.99187109,19.4295391 5.62219409,19.4935469 L5.75,19.5 L18.25,19.5 C18.89725,19.5 19.4295391,19.0081641 19.4935469,18.3778125 L19.5,18.25 L19.5,5.75 C19.5,5.1027875 19.0081641,4.57046563 18.3778125,4.50645356 L18.25,4.5 Z M6.96967,6.96967 C7.23593364,6.70340636 7.65260223,6.67920058 7.94621222,6.89705264 L8.03033,6.96967 L9.3926,8.33194 C10.1282,7.80809 11.0281,7.5 12,7.5 C12.8835455,7.5 13.7075868,7.75461983 14.4027776,8.19449061 L14.6074,8.33194 L15.9697,6.96967 C16.2626,6.67678 16.7374,6.67678 17.0303,6.96967 C17.2965727,7.23593364 17.3207793,7.65260223 17.1029198,7.94621222 L17.0303,8.03033 L15.6681,9.3926 C16.1919,10.1282 16.5,11.0281 16.5,12 C16.5,12.8835455 16.2453719,13.7075868 15.8055372,14.4027776 L15.6681,14.6074 L17.0303,15.9697 C17.3232,16.2626 17.3232,16.7374 17.0303,17.0303 C16.7640273,17.2965727 16.347424,17.3207793 16.0538184,17.1029198 L15.9697,17.0303 L14.6074,15.6681 C13.8718,16.1919 12.9719,16.5 12,16.5 C11.1164545,16.5 10.2924132,16.2453719 9.59722239,15.8055372 L9.3926,15.6681 L8.03033,17.0303 C7.73744,17.3232 7.26256,17.3232 6.96967,17.0303 C6.70340636,16.7640273 6.67920058,16.347424 6.89705264,16.0538184 L6.96967,15.9697 L8.33194,14.6074 C7.80809,13.8718 7.5,12.9719 7.5,12 C7.5,11.1164545 7.75461983,10.2924132 8.19449061,9.59722239 L8.33194,9.3926 L6.96967,8.03033 C6.67678,7.73744 6.67678,7.26256 6.96967,6.96967 Z M12,9 C10.3431,9 9,10.3431 9,12 C9,13.6569 10.3431,15 12,15 C13.6569,15 15,13.6569 15,12 C15,10.3431 13.6569,9 12,9 Z M12,10 C13.1046,10 14,10.8954 14,12 C14,13.1046 13.1046,14 12,14 C10.8954,14 10,13.1046 10,12 C10,10.8954 10.8954,10 12,10 Z"/>
</svg>