<svg xmlns="http://www.w3.org/2000/svg" width="24" height="24" fill="currentColor" viewBox="0 0 24 24">
  <path fill="#333" fill-rule="evenodd" d="m11.53 1.66.47-.37.684.536.294.22.304.223.356.254.194.135c.804.557 1.785 1.177 2.59 1.523.703.303 1.681.572 2.513.77l.676.152.772.154.617.11v8.128c0 1.357-.62 2.596-1.45 3.651-.832 1.06-1.923 1.997-2.984 2.768a26.825 26.825 0 0 1-2.672 1.698l-.439.24-.504.263-.538.265-.413.19-.486-.225-.465-.23-.504-.263-.193-.105a27.143 27.143 0 0 1-2.918-1.833c-1.061-.771-2.152-1.709-2.985-2.768C3.62 16.091 3 14.852 3 13.496V5.367l1.03-.19.795-.172.24-.056c.831-.197 1.81-.466 2.514-.769.704-.303 1.542-.815 2.28-1.312l.503-.346.356-.254.434-.32.378-.288Zm.811 1.78L12 3.187l-.341.251-.41.294-.227.158c-.82.567-1.901 1.26-2.85 1.668-.83.357-1.915.65-2.762.851l-.397.091-.513.111v6.883c0 .893.411 1.81 1.129 2.724.714.91 1.686 1.754 2.687 2.482a25.263 25.263 0 0 0 2.494 1.586l.443.242.476.25.271.135.417-.21.33-.175.183-.099a25.62 25.62 0 0 0 2.754-1.729c1.001-.728 1.973-1.572 2.687-2.482.718-.913 1.129-1.831 1.129-2.724V6.612l-.513-.11-.397-.092c-.847-.2-1.931-.494-2.761-.85-.844-.364-1.793-.951-2.569-1.475l-.509-.352-.41-.294Z" clip-rule="evenodd"/>
  <path fill="#333" fill-rule="evenodd" d="m11.291 12.274-.088-3.802-.003-.091a1.655 1.655 0 0 1-.002-.074c0-.505.313-.807.807-.807.49 0 .797.302.797.807 0 .044 0 .11-.006.165l-.082 3.802c-.017.467-.258.741-.714.741-.456 0-.698-.274-.709-.741Zm-.187 2.548c0-.483.396-.862.896-.862s.895.379.895.862c0 .484-.395.863-.895.863s-.896-.38-.896-.863Z" clip-rule="evenodd"/>
</svg>
