<svg xmlns="http://www.w3.org/2000/svg" width="24" height="24" fill="currentColor" viewBox="0 0 24 24">
  <path fill="#333" d="M12.15 9.165c-2.014 0-3.075 1.402-3.075 2.734v.675h-1.35V11.9c0-2.077 1.666-4.084 4.425-4.084a4.364 4.364 0 0 1 2.865 1.04V8.49a.675.675 0 0 1 1.35 0v2.72H13.65a.675.675 0 0 1 0-1.35h.463a3.014 3.014 0 0 0-1.963-.695Zm4.215 3.415v-.674h-1.35v.675c0 1.332-1.062 2.734-3.075 2.734a3.014 3.014 0 0 1-1.963-.695h.463a.675.675 0 1 0 0-1.35H7.725v2.72a.675.675 0 1 0 1.35 0v-.365a4.364 4.364 0 0 0 2.865 1.04c2.76 0 4.425-2.007 4.425-4.084Z"/>
  <path fill="#333" fill-rule="evenodd" d="m12 1.29.464.366.006.005.018.014.075.058c.066.05.163.125.285.216.244.183.587.435.983.709.805.557 1.786 1.177 2.59 1.523.704.303 1.683.572 2.514.77a32.433 32.433 0 0 0 1.34.286l.082.015.026.005.617.11v8.128c0 1.357-.62 2.596-1.45 3.651-.832 1.06-1.923 1.997-2.984 2.768a27.134 27.134 0 0 1-2.918 1.833 26.622 26.622 0 0 1-1.235.633l-.074.035-.02.01-.006.002-.003.001-.31.141-.311-.141.311-.683-.311.683-.002-.001-.006-.003-.02-.01-.074-.034a26.707 26.707 0 0 1-1.235-.633 27.144 27.144 0 0 1-2.918-1.833c-1.061-.771-2.152-1.709-2.985-2.768C3.62 16.091 3 14.852 3 13.496V5.367l.618-.11.005-.002.02-.004.082-.015.305-.06c.261-.053.625-.13 1.035-.227.831-.197 1.81-.466 2.514-.769.804-.346 1.785-.966 2.59-1.523a32.519 32.519 0 0 0 1.268-.925l.075-.058.018-.014.47-.371Zm6.59 5.12c-.847-.2-1.931-.494-2.761-.85-.95-.41-2.032-1.102-2.851-1.669A33.93 33.93 0 0 1 12 3.188c-.251.188-.59.435-.978.703-.82.567-1.901 1.26-2.85 1.668-.83.357-1.915.65-2.762.851-.345.082-.659.15-.91.202v6.883c0 .893.411 1.81 1.129 2.725.714.909 1.686 1.753 2.687 2.481a25.64 25.64 0 0 0 3.661 2.202l.023.011.023-.011c.217-.108.53-.267.907-.472a25.639 25.639 0 0 0 2.754-1.73c1.001-.728 1.973-1.572 2.687-2.482.718-.913 1.129-1.831 1.129-2.724V6.612a32.28 32.28 0 0 1-.91-.202Z" clip-rule="evenodd"/>
</svg>
