<svg width="24" height="24" viewBox="0 0 24 24" fill="none" xmlns="http://www.w3.org/2000/svg">
<path fill-rule="evenodd" clip-rule="evenodd" d="M17.0304 10.2803L11.7803 15.5302C11.4874 15.8232 11.0126 15.8232 10.7197 15.5302L7.71968 12.5303C7.42677 12.2374 7.42677 11.7625 7.71968 11.4696C8.01257 11.1768 8.48743 11.1768 8.78032 11.4696L11.25 13.9393L13.6098 11.5795L15.9696 9.21964C16.2626 8.92675 16.7374 8.92675 17.0304 9.21964C17.3232 9.51253 17.3232 9.98742 17.0304 10.2803ZM11.5355 1.66112L12 1.29474L12.4645 1.66116L12.4698 1.6653L12.4884 1.67984L12.5632 1.7378C12.629 1.78856 12.7258 1.86251 12.8477 1.95384C13.0917 2.13671 13.435 2.38833 13.8315 2.66273C14.6363 3.21963 15.6167 3.83976 16.4214 4.18605C17.1254 4.48891 18.1035 4.7582 18.9354 4.95515C19.3454 5.0522 19.709 5.12919 19.9697 5.18186C20.0998 5.20817 20.2041 5.22834 20.2754 5.24184L20.3565 5.25702L20.3768 5.26073L20.3826 5.26179L21 5.37259V13.5C21 14.8572 20.3797 16.0957 19.5507 17.1508C18.7184 18.2101 17.6271 19.1473 16.5661 19.9191C15.501 20.6937 14.4402 21.3201 13.6482 21.7521C13.2514 21.9685 12.9199 22.1374 12.6864 22.2526C12.5696 22.3102 12.4772 22.3545 12.4132 22.3848L12.339 22.4196L12.3188 22.4289L12.3131 22.4314L12.3103 22.4328L12 21.75C11.6896 22.4328 11.6887 22.4323 11.6887 22.4323L11.6869 22.4314L11.6812 22.4289L11.661 22.4196L11.5868 22.3848C11.5228 22.3545 11.4304 22.3102 11.3136 22.2526C11.0801 22.1374 10.7487 21.9685 10.3518 21.7521C9.55981 21.3201 8.49905 20.6937 7.43387 19.9191C6.37287 19.1473 5.28166 18.2101 4.44933 17.1508C3.62026 16.0957 3 14.8572 3 13.5V5.37259L3.61758 5.26176L3.62331 5.26073L3.64353 5.25702L3.7246 5.24184C3.79582 5.22834 3.9001 5.20817 4.03035 5.18186C4.29112 5.12919 4.65462 5.0522 5.06455 4.95515C5.8965 4.7582 6.87471 4.48891 7.57856 4.18605C8.38331 3.83976 9.36367 3.21963 10.1685 2.66273C10.565 2.38833 10.9083 2.13671 11.1523 1.95384C11.2742 1.86251 11.371 1.78856 11.4368 1.7378L11.5116 1.67984L11.5302 1.6653L11.5355 1.66112ZM18.59 6.41479C17.7428 6.21426 16.6585 5.92102 15.8286 5.56391C14.8794 5.15547 13.7972 4.4631 12.978 3.89619C12.5899 3.62765 12.2511 3.3804 12 3.19298C11.7489 3.3804 11.4101 3.62765 11.022 3.89619C10.2028 4.4631 9.12065 5.15547 8.17144 5.56391C7.34151 5.92102 6.25722 6.21426 5.41011 6.41479C5.06483 6.49654 4.75146 6.5646 4.5 6.6168V13.5C4.5 14.3927 4.91099 15.3105 5.6288 16.2241C6.34334 17.1334 7.31463 17.9775 8.31613 18.7059C9.31345 19.4313 10.3152 20.0235 11.0701 20.4352C11.4467 20.6407 11.7597 20.8 11.9774 20.9074L12 20.9187L12.0226 20.9074C12.2403 20.8 12.5533 20.6407 12.9299 20.4352C13.6848 20.0235 14.6865 19.4313 15.6839 18.7059C16.6854 17.9775 17.6567 17.1334 18.3713 16.2241C19.089 15.3105 19.5 14.3927 19.5 13.5V6.6168C19.2486 6.5646 18.9353 6.49654 18.59 6.41479ZM12 21.75L12.3103 22.4328L12 22.5738L11.6887 22.4323L12 21.75Z" fill="currentColor"/>
</svg>
