<svg width="24" height="24" viewBox="0 0 24 24" fill="none" xmlns="http://www.w3.org/2000/svg">
<path fill-rule="evenodd" clip-rule="evenodd" d="M1.5 6H16.5V9.375C16.5 9.78921 16.1642 10.125 15.75 10.125C15.3358 10.125 15 9.78921 15 9.375V7.5H3V16.5H15V14.625C15 14.2108 15.3358 13.875 15.75 13.875C16.1642 13.875 16.5 14.2108 16.5 14.625V18H1.5V6ZM21 9.6032L17.1651 12L21 14.3968V9.6032ZM21.123 7.75744C21.7224 7.38279 22.5 7.81375 22.5 8.52064V15.4794C22.5 16.1862 21.7224 16.6171 21.123 16.2426L15.556 12.7632C14.992 12.4107 14.992 11.5893 15.556 11.2368L21.123 7.75744Z" fill="currentColor"/>
</svg>
