<svg width="24" height="24" viewBox="0 0 24 24" fill="none" xmlns="http://www.w3.org/2000/svg">
<path fill-rule="evenodd" clip-rule="evenodd" d="M19.5 8.25C19.5 8.66421 19.1642 9 18.75 9H5.625C5.2224 9 4.84097 8.90937 4.5 8.74739V18H18.75C19.1642 18 19.5 18.3358 19.5 18.75C19.5 19.1642 19.1642 19.5 18.75 19.5H3V6.375C3 4.92525 4.17525 3.75 5.625 3.75H13.5C15.571 3.75 17.25 5.42894 17.25 7.5H18.75C19.1642 7.5 19.5 7.83579 19.5 8.25ZM5.625 7.5H15.75C15.75 6.25735 14.7426 5.25 13.5 5.25H5.625C5.00368 5.25 4.5 5.75368 4.5 6.375C4.5 6.99632 5.00368 7.5 5.625 7.5ZM17.25 14.25C16.8358 14.25 16.5 13.9142 16.5 13.5C16.5 13.0858 16.8358 12.75 17.25 12.75C17.6642 12.75 18 13.0858 18 13.5C18 13.9142 17.6642 14.25 17.25 14.25ZM19.5 12H16.5C15.6715 12 15 12.6716 15 13.5C15 14.3284 15.6715 15 16.5 15H19.5V12ZM16.5 10.5H21V16.5H16.5C14.8431 16.5 13.5 15.1569 13.5 13.5C13.5 11.8431 14.8431 10.5 16.5 10.5Z" fill="currentColor"/>
</svg>
