<svg version="1.1" id="Layer_1" xmlns="http://www.w3.org/2000/svg" xmlns:xlink="http://www.w3.org/1999/xlink" x="0px" y="0px"
	 viewBox="0 0 160 48" style="enable-background:new 0 0 160 48;" xml:space="preserve">
<style type="text/css">
	.st0{fill:#F1592C;}
</style>
<path id="symbol" class="st0" d="M20.6,7.8H25h11.6c11.5,0,19.3,11.6,15,22.3c-2.5,6.1-8.4,10.1-15,10.1H4.1H0l4.1-3.7h32.6
	c5.1,0,9.7-3.1,11.6-7.8c3.3-8.2-2.7-17.2-11.6-17.2H25h-1.3l-0.3,1.3l-3.2,13.9h-3.7L19.7,12L20.6,7.8z M9.5,29.4H4.1L0,33.1h4.1
	h32.6c3.7,0,7-2.2,8.4-5.7c2.4-6-2-12.5-8.4-12.5H26.3l-2.7,11.8h3.9l1.8-8.1h7.3c3.8,0,6.4,3.9,5,7.4c-0.8,2-2.8,3.4-5,3.4H29h-2.1
	h-0.8H9.5z"/>
<g class="words">
	<path d="M76.4,19.1c-0.6-1.1-1.4-2-2.6-2.6s-2.6-0.9-4.3-0.9h-6.3l-4.1,17.8h8.2c2.1,0,3.8-0.4,5.3-1.3c1.5-0.9,2.6-2.1,3.4-3.7
		c0.8-1.6,1.2-3.4,1.2-5.5C77.3,21.5,77,20.2,76.4,19.1z M72.2,25.5c-0.2,0.8-0.6,1.6-1,2.3c-0.5,0.7-1,1.2-1.7,1.6
		c-0.7,0.4-1.4,0.6-2.3,0.6h-2.6l2.5-10.8H69c1.2,0,2.1,0.4,2.7,1.1c0.6,0.7,0.9,1.6,0.9,2.8C72.6,23.8,72.5,24.6,72.2,25.5z"/>
	<path d="M94.8,24.4c0.8-1,1.2-2.2,1.2-3.7c0-1.6-0.5-2.8-1.6-3.7c-1.1-0.9-2.5-1.4-4.3-1.4h-7.6l-4.1,17.8h4.6l1.5-6.3h3.1l2.4,6.3
		h4.7l-2.8-7C92.9,26.1,94,25.4,94.8,24.4z M90.5,23.1c-0.6,0.5-1.4,0.8-2.4,0.8H85l1.1-4.7h2.8c0.7,0,1.3,0.2,1.8,0.5
		c0.5,0.3,0.7,0.8,0.7,1.5C91.4,21.9,91.1,22.6,90.5,23.1z"/>
	<polygon points="105.3,15.6 101.2,33.5 96.5,33.5 100.6,15.6 	"/>
	<polygon points="125.1,15.6 114.8,33.5 109.4,33.5 107.4,15.6 111.8,15.6 112.6,26.3 112.8,29.8 114.4,26.3 120.3,15.6 	"/>
	<polygon points="123,33.5 127.1,15.6 141,15.6 140.1,19.2 130.9,19.2 130.1,22.8 137.3,22.8 136.5,26.2 129.3,26.2 128.4,29.9 
		137.9,29.9 137.1,33.5 	"/>
	<polygon points="139.9,33.5 144,15.6 149,15.6 152.2,25.4 153,28.3 153,28.3 153.8,24.6 155.9,15.6 160,15.6 155.8,33.5 
		150.9,33.5 147.6,23.8 146.8,20.9 146.7,20.9 146,24.5 144,33.5 	"/>
</g>
</svg>
