<svg class="ch-checkboxIndeterminate" focusable="false" viewBox="0 0 24 24" width="24" height="24" fill="currentColor" aria-hidden="true" role="presentation">
  <path d="M0,3.99005301 C0,1.78640758 1.78429328,0 3.99005301,0 L20.009947,0 C22.2135924,0 24,1.78429328 24,3.99005301 L24,20.009947 C24,22.2135924 22.2157067,24 20.009947,24 L3.99005301,24 C1.78640758,24 0,22.2157067 0,20.009947 L0,3.99005301 Z" />
  <path
    d="m 6.75,11.25 h 10.5 c 0.4155,0 0.75,0.3345 0.75,0.75 0,0.4155 -0.3345,0.75 -0.75,0.75 H 6.75 C 6.3345,12.75 6,12.4155 6,12 6,11.5845 6.3345,11.25 6.75,11.25 Z"
    id="Rectangle"
  />
   <g>
     <g>
       <path d="M4,0.5 C2.06700338,0.5 0.5,2.06700338 0.5,4 L0.5,20 C0.5,21.9329966 2.06700338,23.5 4,23.5 L20,23.5 C21.9329966,23.5 23.5,21.9329966 23.5,20 L23.5,4 C23.5,2.06700338 21.9329966,0.5 20,0.5 L4,0.5 Z" />
     </g>
   </g>
 </svg>
