<svg focusable="false" viewBox="0 0 24 24" width="24" height="24" fill="currentColor" aria-hidden="true" role="presentation">
  <path class="checkboxBackground" d="M4,0.5 C2.06700338,0.5 0.5,2.06700338 0.5,4 L0.5,20 C0.5,21.9329966 2.06700338,23.5 4,23.5 L20,23.5 C21.9329966,23.5 23.5,21.9329966 23.5,20 L23.5,4 C23.5,2.06700338 21.9329966,0.5 20,0.5 L4,0.5 Z" />
  <path class="checkboxIcon" d="M18.2196699,7.71966991 C18.5125631,7.4267767 18.9874369,7.4267767 19.2803301,7.71966991 C19.5732233,8.01256313 19.5732233,8.48743687 19.2803301,8.78033009 L10.2540274,17.8066327 L6.21966991,13.7722752 C5.9267767,13.479382 5.9267767,13.0045082 6.21966991,12.711615 C6.51256313,12.4187218 6.98743687,12.4187218 7.28033009,12.711615 L10.2540274,15.6853124 L18.2196699,7.71966991 Z" fill="#FFFFFF" />
</svg>
