<svg width="14" height="16" viewBox="0 0 14 16" fill="none" xmlns="http://www.w3.org/2000/svg">
<g clip-path="url(#clip0_3271_12441)">
<path d="M13.7062 8.70627C14.0968 8.31565 14.0968 7.68127 13.7062 7.29065L8.70622 2.29065C8.31559 1.90002 7.68122 1.90002 7.29059 2.29065C6.89997 2.68127 6.89997 3.31565 7.29059 3.70627L10.5875 7.00002H0.999969C0.446844 7.00002 -3.05176e-05 7.4469 -3.05176e-05 8.00002C-3.05176e-05 8.55315 0.446844 9.00002 0.999969 9.00002H10.5843L7.29372 12.2938C6.90309 12.6844 6.90309 13.3188 7.29372 13.7094C7.68434 14.1 8.31872 14.1 8.70934 13.7094L13.7093 8.7094L13.7062 8.70627Z" fill="#FF5724"/>
</g>
<defs>
<clipPath id="clip0_3271_12441">
<rect width="14" height="16" fill="white"/>
</clipPath>
</defs>
</svg>
