<svg width="24" height="20" viewBox="0 0 24 20" fill="none" xmlns="http://www.w3.org/2000/svg">
<path d="M5.31533 10.965L6.40374 7.99125C6.84218 6.79875 7.99982 6 9.29976 6H14.6995C15.9648 6 17.1571 6.79875 17.5955 7.99125L18.684 10.965C19.457 11.2838 19.9993 12.03 19.9993 12.9V18C19.9993 18.6638 19.4493 19.2 18.7686 19.2H18.1532C17.4725 19.2 16.9225 18.6638 16.9225 18V16.8H7.07678V18C7.07678 18.6638 6.52681 19.2 5.84607 19.2H5.23071C4.54998 19.2 4 18.6638 4 18V12.9C4 12.03 4.54228 11.2838 5.31533 10.965ZM7.98828 10.8H16.011L15.2764 8.7975C15.1572 8.56125 14.9572 8.4 14.6995 8.4H9.29976C9.04208 8.4 8.80748 8.56125 8.72287 8.7975L7.98828 10.8ZM7.07678 12.9C6.56912 12.9 6.15375 13.3013 6.15375 13.8C6.15375 14.2987 6.56912 14.7 7.07678 14.7C7.5883 14.7 7.99982 14.2987 7.99982 13.8C7.99982 13.3013 7.5883 12.9 7.07678 12.9ZM16.9225 14.7C17.434 14.7 17.8455 14.2987 17.8455 13.8C17.8455 13.3013 17.434 12.9 16.9225 12.9C16.4148 12.9 15.9995 13.3013 15.9995 13.8C15.9995 14.2987 16.4148 14.7 16.9225 14.7Z" fill="#FF5724"/>
<path opacity="0.4" d="M11.0841 0.23715C11.6495 -0.07905 12.3494 -0.07905 12.9148 0.23715L23.3797 6.0675C23.9682 6.3975 24.1758 7.12875 23.8374 7.7025C23.4989 8.28 22.749 8.47875 22.1567 8.1525L11.9995 2.49113L1.84146 8.1525C1.25148 8.47875 0.499593 8.28 0.162378 7.7025C-0.174876 7.12875 0.0301761 6.3975 0.620357 6.0675L11.0841 0.23715Z" fill="#FF5724"/>
</svg>
