<svg width="24" height="24" viewBox="0 0 24 24" fill="none" xmlns="http://www.w3.org/2000/svg">
<path d="M11.9999 4.5C12.6233 4.5 13.1249 5.00156 13.1249 5.625V6.36563C13.7296 6.44063 14.3342 6.62812 14.9249 6.79219C15.5249 6.95625 15.8764 7.57969 15.7124 8.175C15.5483 8.77031 14.9249 9.12656 14.3296 8.95781C13.8842 8.83594 13.4389 8.7 12.9842 8.61563C12.2999 8.48438 11.503 8.54531 10.8561 8.82187C10.2796 9.07031 9.81081 9.675 10.4624 10.0922C11.0811 10.4859 11.8546 10.65 12.553 10.8469C13.3639 11.0766 14.4046 11.3719 15.1827 11.9062C16.1952 12.6 16.6686 13.725 16.4436 14.9344C16.228 16.1016 15.4171 16.8656 14.4421 17.2594C14.0342 17.4234 13.5936 17.5266 13.1296 17.5828V18.375C13.1296 18.9984 12.628 19.5 12.0046 19.5C11.3811 19.5 10.8796 18.9984 10.8796 18.375V17.4703C10.1249 17.3016 9.38424 17.0578 8.65299 16.8187C8.06237 16.6219 7.74362 15.9891 7.93581 15.3984C8.12799 14.8078 8.76549 14.4891 9.35612 14.6813C10.0686 14.9156 10.8046 15.1969 11.5452 15.3094C12.4311 15.4406 13.1389 15.3609 13.603 15.1734C14.2311 14.9203 14.5217 14.1797 13.9124 13.7625C13.2842 13.3359 12.4827 13.1672 11.7608 12.9609C10.9733 12.7406 9.99362 12.4594 9.25299 11.9859C8.23581 11.3391 7.72018 10.2516 7.94049 9.05156C8.15143 7.9125 9.03268 7.15781 9.97018 6.75469C10.2561 6.63281 10.5608 6.53438 10.8842 6.45938V5.625C10.8842 5.00156 11.3858 4.5 12.0092 4.5H11.9999Z" fill="#FF5724"/>
<path opacity="0.4" d="M12 24C15.1826 24 18.2348 22.7357 20.4853 20.4853C22.7357 18.2348 24 15.1826 24 12C24 8.8174 22.7357 5.76516 20.4853 3.51472C18.2348 1.26428 15.1826 0 12 0C8.8174 0 5.76516 1.26428 3.51472 3.51472C1.26428 5.76516 0 8.8174 0 12C0 15.1826 1.26428 18.2348 3.51472 20.4853C5.76516 22.7357 8.8174 24 12 24ZM13.125 5.625V6.36563C13.6313 6.42656 14.1375 6.57187 14.6344 6.7125C14.7328 6.74062 14.8266 6.76875 14.925 6.79219C15.525 6.95625 15.8766 7.57969 15.7125 8.175C15.5484 8.77031 14.925 9.12656 14.3297 8.95781C14.25 8.93438 14.1703 8.91094 14.0859 8.89219C13.7203 8.78906 13.3547 8.68594 12.9844 8.61563C12.3 8.48438 11.5031 8.54531 10.8563 8.82187C10.2797 9.07031 9.81094 9.675 10.4625 10.0922C10.9734 10.4203 11.5969 10.5891 12.1875 10.7484C12.3094 10.7812 12.4312 10.8141 12.5531 10.8469C13.3641 11.0766 14.4047 11.3719 15.1828 11.9062C16.1953 12.6 16.6687 13.725 16.4437 14.9344C16.2281 16.1016 15.4172 16.8656 14.4422 17.2594C14.0344 17.4234 13.5938 17.5266 13.1297 17.5828V18.375C13.1297 18.9984 12.6281 19.5 12.0047 19.5C11.3813 19.5 10.8797 18.9984 10.8797 18.375V17.4703C10.125 17.3016 9.38438 17.0578 8.65313 16.8187C8.0625 16.6219 7.74375 15.9891 7.93594 15.3984C8.12813 14.8078 8.76562 14.4891 9.35625 14.6813C9.4875 14.7234 9.61875 14.7703 9.75 14.8125C10.3406 15.0141 10.9406 15.2156 11.5453 15.3094C12.4313 15.4406 13.1391 15.3609 13.6031 15.1734C14.2313 14.9203 14.5219 14.1797 13.9125 13.7625C13.3875 13.4016 12.7359 13.2281 12.1125 13.0594C11.9953 13.0266 11.8781 12.9937 11.7609 12.9609C10.9734 12.7406 9.99375 12.4594 9.25312 11.9859C8.23594 11.3391 7.72031 10.2516 7.94062 9.05156C8.15156 7.9125 9.03281 7.15781 9.97031 6.75469C10.2562 6.63281 10.5609 6.53438 10.8844 6.45938V5.625C10.8844 5.00156 11.3859 4.5 12.0094 4.5C12.6328 4.5 13.1344 5.00156 13.1344 5.625H13.125Z" fill="#FF5724"/>
</svg>
