<svg width="16" height="16" viewBox="0 0 16 16" fill="none" xmlns="http://www.w3.org/2000/svg">
<path d="M8.02795 4.0376C8.3467 4.0376 8.62795 4.31885 8.62795 4.66572V4.94385C8.88108 4.98447 9.27483 5.05947 9.43733 5.10322C9.7717 5.19385 9.9717 5.53447 9.88108 5.86885C9.79358 6.20322 9.44983 6.4001 9.11545 6.28447C8.98108 6.2751 8.5092 6.18447 8.35608 6.15947C7.9217 6.09072 7.5592 6.14697 7.3217 6.25635C7.08733 6.3626 7.01545 6.49072 6.9967 6.5876C6.97483 6.69072 6.9967 6.77822 7.0092 6.80322C7.02483 6.8376 7.0342 6.8876 7.1592 6.95322C7.38108 7.10635 7.72795 7.2126 8.21545 7.35947L8.24045 7.36885C8.66233 7.49385 9.21545 7.6626 9.62483 7.9626C9.84983 8.09697 10.0342 8.34385 10.1905 8.64385C10.3217 8.94385 10.3498 9.27822 10.2873 9.6251C10.178 10.2595 9.7592 10.6938 9.23108 10.9188C9.04983 10.997 8.85608 11.0501 8.62795 11.0845V11.3345C8.62795 11.6813 8.3467 11.9626 8.02795 11.9626C7.68108 11.9626 7.39983 11.6813 7.39983 11.3345V11.0563C7.06858 10.9845 6.6092 10.8282 6.3217 10.7282C6.2592 10.7095 6.20608 10.6907 6.16233 10.6751C5.83733 10.5688 5.6592 10.2126 5.76858 9.8876C5.87795 9.55947 6.23108 9.38135 6.5592 9.49072C6.62795 9.5126 6.69983 9.5376 6.77483 9.5626C7.10608 9.6751 7.48733 9.80635 7.69983 9.84072C8.12795 9.9126 8.51233 9.86572 8.74045 9.76885C8.9467 9.68135 9.03108 9.53447 9.05608 9.4126C9.0842 9.2626 9.06233 9.18447 9.04358 9.14072C9.02483 9.09697 8.9842 9.04072 8.89045 8.97197C8.67483 8.81572 8.3342 8.70322 7.85295 8.55635L7.75295 8.53447C7.3717 8.4126 6.84983 8.25635 6.45608 7.9876C6.2342 7.8376 6.01545 7.62822 5.87795 7.3376C5.74045 7.04385 5.70608 6.71572 5.76545 6.34697C5.8717 5.76572 6.30295 5.34385 6.80608 5.11572C6.99045 5.03447 7.19045 4.97197 7.39983 4.93135V4.66572C7.39983 4.31885 7.68108 4.0376 8.02795 4.0376Z" fill="#0E6F0C"/>
<path opacity="0.4" d="M8 0C9.15 0 10.15 0.646875 10.6531 1.59687C11.6812 1.25312 12.8156 1.53 13.6562 2.34313C14.4688 3.15625 14.6906 4.31875 14.4031 5.34688C15.3531 5.85 16 6.85 16 8C16 9.15 15.3531 10.15 14.4031 10.6531C14.7188 11.6812 14.4688 12.8156 13.6562 13.6562C12.8156 14.4688 11.6812 14.6906 10.6531 14.4031C10.15 15.3531 9.15 16 8 16C6.85 16 5.85 15.3531 5.34688 14.4031C4.31875 14.7188 3.15625 14.4688 2.34313 13.6562C1.53 12.8156 1.28125 11.6812 1.59687 10.6531C0.646875 10.15 0 9.15 0 8C0 6.85 0.646875 5.85 1.59687 5.34688C1.25312 4.31875 1.53 3.15625 2.34313 2.34313C3.15625 1.53 4.31875 1.28125 5.34688 1.59687C5.85 0.646875 6.85 0 8 0ZM8.62813 4.66563C8.62813 4.31875 8.34688 4.0375 8.02812 4.0375C7.68125 4.0375 7.4 4.31875 7.4 4.66563V4.93125C7.19063 4.97188 6.99062 5.03437 6.80625 5.11562C6.30312 5.34375 5.87187 5.76562 5.76562 6.34688C5.70625 6.71563 5.74063 7.04375 5.87813 7.3375C6.01562 7.62813 6.23438 7.8375 6.45625 7.9875C6.85 8.25313 7.37188 8.4125 7.75313 8.53438L7.85313 8.55625C8.33438 8.70312 8.675 8.81563 8.89062 8.97188C8.98438 9.04063 9.025 9.09688 9.04375 9.14062C9.0625 9.18437 9.08437 9.2625 9.05625 9.4125C9.03125 9.55938 8.94688 9.68125 8.74063 9.76875C8.5125 9.86563 8.12813 9.9125 7.7 9.84062C7.4875 9.80625 7.10625 9.675 6.775 9.5625C6.7 9.5375 6.62812 9.5125 6.55937 9.49063C6.23125 9.38125 5.87813 9.55937 5.76875 9.88437C5.65938 10.2125 5.8375 10.5688 6.1625 10.675C6.20625 10.6906 6.25938 10.7094 6.32188 10.7281C6.60938 10.8281 7.06875 10.9844 7.4 11.0562V11.3344C7.4 11.6813 7.68125 11.9625 8.02812 11.9625C8.34688 11.9625 8.62813 11.6813 8.62813 11.3344V11.0844C8.85625 11.05 9.05 10.9969 9.23125 10.9187C9.75937 10.6937 10.1781 10.2594 10.2875 9.625C10.35 9.27812 10.3219 8.94375 10.1906 8.64375C10.0344 8.34375 9.85 8.09688 9.625 7.9625C9.21562 7.6625 8.6625 7.49375 8.24063 7.36875L8.21562 7.35938C7.72812 7.2125 7.38125 7.10625 7.15938 6.95312C7.03438 6.8875 7.025 6.8375 7.00938 6.80312C6.99688 6.77812 6.975 6.69063 6.99687 6.5875C7.01562 6.49062 7.0875 6.3625 7.32188 6.25625C7.55938 6.14687 7.92188 6.09063 8.35625 6.15938C8.50937 6.18438 8.98125 6.275 9.11563 6.28438C9.45 6.4 9.79375 6.20312 9.88125 5.86875C9.97188 5.53438 9.77188 5.19375 9.4375 5.10313C9.275 5.05938 8.88125 4.98125 8.62813 4.94375V4.66563Z" fill="#0E6F0C"/>
</svg>
