<svg version="1.1" id="Layer_1" xmlns="http://www.w3.org/2000/svg" xmlns:xlink="http://www.w3.org/1999/xlink" x="0px" y="0px"
	 viewBox="0 0 256 157.1">
<path fill="#0F0F0F" fill-rule="evenodd" clip-rule="evenodd" id="symbol" d="M99.9,0h21.3h56.2c55.8,0,93.6,56.2,72.7,108.1c-12.1,29.6-40.7,49-72.7,49H19.9H0l19.9-17.9h158.1
	c24.7,0,47-15,56.2-37.8c16-39.8-13.1-83.4-56.2-83.4h-56.7h-6.3l-1.5,6.3L97.9,91.6H80l15.5-71.3L99.9,0z M46.1,104.7H19.9L0,122.7
	h19.9h158.1c17.9,0,33.9-10.7,40.7-27.6c11.6-29.1-9.7-60.6-40.7-60.6h-50.4l-13.1,57.2h18.9l8.7-39.3h35.4
	c18.4,0,31,18.9,24.2,35.9c-3.9,9.7-13.6,16.5-24.2,16.5h-36.8h-10.2h-3.9C126.5,104.7,46.1,104.7,46.1,104.7z"/>
</svg>
